G04 #@! TF.GenerationSoftware,KiCad,Pcbnew,5.0.2+dfsg1-1~bpo9+1*
G04 #@! TF.CreationDate,2019-06-18T09:35:30+01:00*
G04 #@! TF.ProjectId,esp8bit,65737038-6269-4742-9e6b-696361645f70,rev?*
G04 #@! TF.SameCoordinates,Original*
G04 #@! TF.FileFunction,Legend,Bot*
G04 #@! TF.FilePolarity,Positive*
%FSLAX46Y46*%
G04 Gerber Fmt 4.6, Leading zero omitted, Abs format (unit mm)*
G04 Created by KiCad (PCBNEW 5.0.2+dfsg1-1~bpo9+1) date Tue 18 Jun 2019 09:35:30 IST*
%MOMM*%
%LPD*%
G01*
G04 APERTURE LIST*
%ADD10C,0.120000*%
%ADD11C,0.150000*%
G04 APERTURE END LIST*
D10*
G04 #@! TO.C,J3*
X159198000Y-60392000D02*
X161858000Y-60392000D01*
X159198000Y-68072000D02*
X159198000Y-60392000D01*
X161858000Y-68072000D02*
X161858000Y-60392000D01*
X159198000Y-68072000D02*
X161858000Y-68072000D01*
X159198000Y-69342000D02*
X159198000Y-70672000D01*
X159198000Y-70672000D02*
X160528000Y-70672000D01*
G04 #@! TO.C,J1*
X77410000Y-47565000D02*
X80070000Y-47565000D01*
X77410000Y-80645000D02*
X77410000Y-47565000D01*
X80070000Y-80645000D02*
X80070000Y-47565000D01*
X77410000Y-80645000D02*
X80070000Y-80645000D01*
X77410000Y-81915000D02*
X77410000Y-83245000D01*
X77410000Y-83245000D02*
X78740000Y-83245000D01*
D11*
G04 #@! TO.C,U1*
X104140000Y-56642000D02*
X104140000Y-79502000D01*
X121920000Y-56642000D02*
X104140000Y-56642000D01*
X121920000Y-79502000D02*
X121920000Y-56642000D01*
X104140000Y-79502000D02*
X121920000Y-79502000D01*
X119380000Y-78232000D02*
X106680000Y-78232000D01*
X119380000Y-64262000D02*
X119380000Y-78232000D01*
X106680000Y-64262000D02*
X119380000Y-64262000D01*
X106680000Y-78232000D02*
X106680000Y-64262000D01*
G04 #@! TO.C,J3*
X160861333Y-71124380D02*
X160861333Y-71838666D01*
X160908952Y-71981523D01*
X161004190Y-72076761D01*
X161147047Y-72124380D01*
X161242285Y-72124380D01*
X160480380Y-71124380D02*
X159861333Y-71124380D01*
X160194666Y-71505333D01*
X160051809Y-71505333D01*
X159956571Y-71552952D01*
X159908952Y-71600571D01*
X159861333Y-71695809D01*
X159861333Y-71933904D01*
X159908952Y-72029142D01*
X159956571Y-72076761D01*
X160051809Y-72124380D01*
X160337523Y-72124380D01*
X160432761Y-72076761D01*
X160480380Y-72029142D01*
G04 #@! TO.C,J1*
X79073333Y-83697380D02*
X79073333Y-84411666D01*
X79120952Y-84554523D01*
X79216190Y-84649761D01*
X79359047Y-84697380D01*
X79454285Y-84697380D01*
X78073333Y-84697380D02*
X78644761Y-84697380D01*
X78359047Y-84697380D02*
X78359047Y-83697380D01*
X78454285Y-83840238D01*
X78549523Y-83935476D01*
X78644761Y-83983095D01*
G04 #@! TD*
M02*
