G04 #@! TF.GenerationSoftware,KiCad,Pcbnew,5.0.2+dfsg1-1~bpo9+1*
G04 #@! TF.CreationDate,2019-06-18T09:35:30+01:00*
G04 #@! TF.ProjectId,esp8bit,65737038-6269-4742-9e6b-696361645f70,rev?*
G04 #@! TF.SameCoordinates,Original*
G04 #@! TF.FileFunction,Soldermask,Bot*
G04 #@! TF.FilePolarity,Negative*
%FSLAX46Y46*%
G04 Gerber Fmt 4.6, Leading zero omitted, Abs format (unit mm)*
G04 Created by KiCad (PCBNEW 5.0.2+dfsg1-1~bpo9+1) date Tue 18 Jun 2019 09:35:30 IST*
%MOMM*%
%LPD*%
G01*
G04 APERTURE LIST*
%ADD10C,0.100000*%
G04 APERTURE END LIST*
D10*
G36*
X80546693Y-84677859D02*
X80812437Y-84730719D01*
X81313087Y-84938095D01*
X81760622Y-85237129D01*
X81763663Y-85239161D01*
X82146839Y-85622337D01*
X82146841Y-85622340D01*
X82447905Y-86072913D01*
X82655281Y-86573563D01*
X82761000Y-87105050D01*
X82761000Y-87646950D01*
X82655281Y-88178437D01*
X82447905Y-88679087D01*
X82148871Y-89126622D01*
X82146839Y-89129663D01*
X81763663Y-89512839D01*
X81763660Y-89512841D01*
X81313087Y-89813905D01*
X80812437Y-90021281D01*
X80546694Y-90074140D01*
X80280951Y-90127000D01*
X79739049Y-90127000D01*
X79473306Y-90074140D01*
X79207563Y-90021281D01*
X78706913Y-89813905D01*
X78256340Y-89512841D01*
X78256337Y-89512839D01*
X77873161Y-89129663D01*
X77871129Y-89126622D01*
X77572095Y-88679087D01*
X77364719Y-88178437D01*
X77259000Y-87646950D01*
X77259000Y-87105050D01*
X77364719Y-86573563D01*
X77572095Y-86072913D01*
X77873159Y-85622340D01*
X77873161Y-85622337D01*
X78256337Y-85239161D01*
X78259378Y-85237129D01*
X78706913Y-84938095D01*
X79207563Y-84730719D01*
X79473307Y-84677859D01*
X79739049Y-84625000D01*
X80280951Y-84625000D01*
X80546693Y-84677859D01*
X80546693Y-84677859D01*
G37*
G36*
X159921693Y-84677859D02*
X160187437Y-84730719D01*
X160688087Y-84938095D01*
X161135622Y-85237129D01*
X161138663Y-85239161D01*
X161521839Y-85622337D01*
X161521841Y-85622340D01*
X161822905Y-86072913D01*
X162030281Y-86573563D01*
X162136000Y-87105050D01*
X162136000Y-87646950D01*
X162030281Y-88178437D01*
X161822905Y-88679087D01*
X161523871Y-89126622D01*
X161521839Y-89129663D01*
X161138663Y-89512839D01*
X161138660Y-89512841D01*
X160688087Y-89813905D01*
X160187437Y-90021281D01*
X159921694Y-90074140D01*
X159655951Y-90127000D01*
X159114049Y-90127000D01*
X158848306Y-90074140D01*
X158582563Y-90021281D01*
X158081913Y-89813905D01*
X157631340Y-89512841D01*
X157631337Y-89512839D01*
X157248161Y-89129663D01*
X157246129Y-89126622D01*
X156947095Y-88679087D01*
X156739719Y-88178437D01*
X156634000Y-87646950D01*
X156634000Y-87105050D01*
X156739719Y-86573563D01*
X156947095Y-86072913D01*
X157248159Y-85622340D01*
X157248161Y-85622337D01*
X157631337Y-85239161D01*
X157634378Y-85237129D01*
X158081913Y-84938095D01*
X158582563Y-84730719D01*
X158848306Y-84677860D01*
X159114049Y-84625000D01*
X159655951Y-84625000D01*
X159921693Y-84677859D01*
X159921693Y-84677859D01*
G37*
G36*
X124737396Y-81127546D02*
X124910466Y-81199234D01*
X125066230Y-81303312D01*
X125198688Y-81435770D01*
X125302766Y-81591534D01*
X125374454Y-81764604D01*
X125411000Y-81948333D01*
X125411000Y-82135667D01*
X125374454Y-82319396D01*
X125302766Y-82492466D01*
X125198688Y-82648230D01*
X125066230Y-82780688D01*
X124910466Y-82884766D01*
X124737396Y-82956454D01*
X124553667Y-82993000D01*
X124366333Y-82993000D01*
X124182604Y-82956454D01*
X124009534Y-82884766D01*
X123853770Y-82780688D01*
X123721312Y-82648230D01*
X123617234Y-82492466D01*
X123545546Y-82319396D01*
X123509000Y-82135667D01*
X123509000Y-81948333D01*
X123545546Y-81764604D01*
X123617234Y-81591534D01*
X123721312Y-81435770D01*
X123853770Y-81303312D01*
X124009534Y-81199234D01*
X124182604Y-81127546D01*
X124366333Y-81091000D01*
X124553667Y-81091000D01*
X124737396Y-81127546D01*
X124737396Y-81127546D01*
G37*
G36*
X101877396Y-81127546D02*
X102050466Y-81199234D01*
X102206230Y-81303312D01*
X102338688Y-81435770D01*
X102442766Y-81591534D01*
X102514454Y-81764604D01*
X102551000Y-81948333D01*
X102551000Y-82135667D01*
X102514454Y-82319396D01*
X102442766Y-82492466D01*
X102338688Y-82648230D01*
X102206230Y-82780688D01*
X102050466Y-82884766D01*
X101877396Y-82956454D01*
X101693667Y-82993000D01*
X101506333Y-82993000D01*
X101322604Y-82956454D01*
X101149534Y-82884766D01*
X100993770Y-82780688D01*
X100861312Y-82648230D01*
X100757234Y-82492466D01*
X100685546Y-82319396D01*
X100649000Y-82135667D01*
X100649000Y-81948333D01*
X100685546Y-81764604D01*
X100757234Y-81591534D01*
X100861312Y-81435770D01*
X100993770Y-81303312D01*
X101149534Y-81199234D01*
X101322604Y-81127546D01*
X101506333Y-81091000D01*
X101693667Y-81091000D01*
X101877396Y-81127546D01*
X101877396Y-81127546D01*
G37*
G36*
X79641000Y-82816000D02*
X77839000Y-82816000D01*
X77839000Y-81014000D01*
X79641000Y-81014000D01*
X79641000Y-82816000D01*
X79641000Y-82816000D01*
G37*
G36*
X89066821Y-81076313D02*
X89066824Y-81076314D01*
X89066825Y-81076314D01*
X89227239Y-81124975D01*
X89227241Y-81124976D01*
X89227244Y-81124977D01*
X89375078Y-81203995D01*
X89504659Y-81310341D01*
X89611005Y-81439922D01*
X89690023Y-81587756D01*
X89690024Y-81587759D01*
X89690025Y-81587761D01*
X89738686Y-81748175D01*
X89738687Y-81748179D01*
X89755117Y-81915000D01*
X89738687Y-82081821D01*
X89690023Y-82242244D01*
X89611005Y-82390078D01*
X89504659Y-82519659D01*
X89375078Y-82626005D01*
X89227244Y-82705023D01*
X89227241Y-82705024D01*
X89227239Y-82705025D01*
X89066825Y-82753686D01*
X89066824Y-82753686D01*
X89066821Y-82753687D01*
X88941804Y-82766000D01*
X88858196Y-82766000D01*
X88733179Y-82753687D01*
X88733176Y-82753686D01*
X88733175Y-82753686D01*
X88572761Y-82705025D01*
X88572759Y-82705024D01*
X88572756Y-82705023D01*
X88424922Y-82626005D01*
X88295341Y-82519659D01*
X88188995Y-82390078D01*
X88109977Y-82242244D01*
X88061313Y-82081821D01*
X88044883Y-81915000D01*
X88061313Y-81748179D01*
X88061314Y-81748175D01*
X88109975Y-81587761D01*
X88109976Y-81587759D01*
X88109977Y-81587756D01*
X88188995Y-81439922D01*
X88295341Y-81310341D01*
X88424922Y-81203995D01*
X88572756Y-81124977D01*
X88572759Y-81124976D01*
X88572761Y-81124975D01*
X88733175Y-81076314D01*
X88733176Y-81076314D01*
X88733179Y-81076313D01*
X88858196Y-81064000D01*
X88941804Y-81064000D01*
X89066821Y-81076313D01*
X89066821Y-81076313D01*
G37*
G36*
X124737396Y-78587546D02*
X124910466Y-78659234D01*
X125066230Y-78763312D01*
X125198688Y-78895770D01*
X125302766Y-79051534D01*
X125374454Y-79224604D01*
X125411000Y-79408333D01*
X125411000Y-79595667D01*
X125374454Y-79779396D01*
X125302766Y-79952466D01*
X125198688Y-80108230D01*
X125066230Y-80240688D01*
X124910466Y-80344766D01*
X124737396Y-80416454D01*
X124553667Y-80453000D01*
X124366333Y-80453000D01*
X124182604Y-80416454D01*
X124009534Y-80344766D01*
X123853770Y-80240688D01*
X123721312Y-80108230D01*
X123617234Y-79952466D01*
X123545546Y-79779396D01*
X123509000Y-79595667D01*
X123509000Y-79408333D01*
X123545546Y-79224604D01*
X123617234Y-79051534D01*
X123721312Y-78895770D01*
X123853770Y-78763312D01*
X124009534Y-78659234D01*
X124182604Y-78587546D01*
X124366333Y-78551000D01*
X124553667Y-78551000D01*
X124737396Y-78587546D01*
X124737396Y-78587546D01*
G37*
G36*
X101877396Y-78587546D02*
X102050466Y-78659234D01*
X102206230Y-78763312D01*
X102338688Y-78895770D01*
X102442766Y-79051534D01*
X102514454Y-79224604D01*
X102551000Y-79408333D01*
X102551000Y-79595667D01*
X102514454Y-79779396D01*
X102442766Y-79952466D01*
X102338688Y-80108230D01*
X102206230Y-80240688D01*
X102050466Y-80344766D01*
X101877396Y-80416454D01*
X101693667Y-80453000D01*
X101506333Y-80453000D01*
X101322604Y-80416454D01*
X101149534Y-80344766D01*
X100993770Y-80240688D01*
X100861312Y-80108230D01*
X100757234Y-79952466D01*
X100685546Y-79779396D01*
X100649000Y-79595667D01*
X100649000Y-79408333D01*
X100685546Y-79224604D01*
X100757234Y-79051534D01*
X100861312Y-78895770D01*
X100993770Y-78763312D01*
X101149534Y-78659234D01*
X101322604Y-78587546D01*
X101506333Y-78551000D01*
X101693667Y-78551000D01*
X101877396Y-78587546D01*
X101877396Y-78587546D01*
G37*
G36*
X78850442Y-78480518D02*
X78916627Y-78487037D01*
X79029853Y-78521384D01*
X79086467Y-78538557D01*
X79178119Y-78587547D01*
X79242991Y-78622222D01*
X79278729Y-78651552D01*
X79380186Y-78734814D01*
X79463448Y-78836271D01*
X79492778Y-78872009D01*
X79492779Y-78872011D01*
X79576443Y-79028533D01*
X79576443Y-79028534D01*
X79627963Y-79198373D01*
X79645359Y-79375000D01*
X79627963Y-79551627D01*
X79593616Y-79664853D01*
X79576443Y-79721467D01*
X79545479Y-79779396D01*
X79492778Y-79877991D01*
X79463448Y-79913729D01*
X79380186Y-80015186D01*
X79278729Y-80098448D01*
X79242991Y-80127778D01*
X79242989Y-80127779D01*
X79086467Y-80211443D01*
X79029853Y-80228616D01*
X78916627Y-80262963D01*
X78850442Y-80269482D01*
X78784260Y-80276000D01*
X78695740Y-80276000D01*
X78629558Y-80269482D01*
X78563373Y-80262963D01*
X78450147Y-80228616D01*
X78393533Y-80211443D01*
X78237011Y-80127779D01*
X78237009Y-80127778D01*
X78201271Y-80098448D01*
X78099814Y-80015186D01*
X78016552Y-79913729D01*
X77987222Y-79877991D01*
X77934521Y-79779396D01*
X77903557Y-79721467D01*
X77886384Y-79664853D01*
X77852037Y-79551627D01*
X77834641Y-79375000D01*
X77852037Y-79198373D01*
X77903557Y-79028534D01*
X77903557Y-79028533D01*
X77987221Y-78872011D01*
X77987222Y-78872009D01*
X78016552Y-78836271D01*
X78099814Y-78734814D01*
X78201271Y-78651552D01*
X78237009Y-78622222D01*
X78301881Y-78587547D01*
X78393533Y-78538557D01*
X78450147Y-78521384D01*
X78563373Y-78487037D01*
X78629558Y-78480518D01*
X78695740Y-78474000D01*
X78784260Y-78474000D01*
X78850442Y-78480518D01*
X78850442Y-78480518D01*
G37*
G36*
X101877396Y-76047546D02*
X102050466Y-76119234D01*
X102206230Y-76223312D01*
X102338688Y-76355770D01*
X102442766Y-76511534D01*
X102514454Y-76684604D01*
X102551000Y-76868333D01*
X102551000Y-77055667D01*
X102514454Y-77239396D01*
X102442766Y-77412466D01*
X102338688Y-77568230D01*
X102206230Y-77700688D01*
X102050466Y-77804766D01*
X101877396Y-77876454D01*
X101693667Y-77913000D01*
X101506333Y-77913000D01*
X101322604Y-77876454D01*
X101149534Y-77804766D01*
X100993770Y-77700688D01*
X100861312Y-77568230D01*
X100757234Y-77412466D01*
X100685546Y-77239396D01*
X100649000Y-77055667D01*
X100649000Y-76868333D01*
X100685546Y-76684604D01*
X100757234Y-76511534D01*
X100861312Y-76355770D01*
X100993770Y-76223312D01*
X101149534Y-76119234D01*
X101322604Y-76047546D01*
X101506333Y-76011000D01*
X101693667Y-76011000D01*
X101877396Y-76047546D01*
X101877396Y-76047546D01*
G37*
G36*
X124737396Y-76047546D02*
X124910466Y-76119234D01*
X125066230Y-76223312D01*
X125198688Y-76355770D01*
X125302766Y-76511534D01*
X125374454Y-76684604D01*
X125411000Y-76868333D01*
X125411000Y-77055667D01*
X125374454Y-77239396D01*
X125302766Y-77412466D01*
X125198688Y-77568230D01*
X125066230Y-77700688D01*
X124910466Y-77804766D01*
X124737396Y-77876454D01*
X124553667Y-77913000D01*
X124366333Y-77913000D01*
X124182604Y-77876454D01*
X124009534Y-77804766D01*
X123853770Y-77700688D01*
X123721312Y-77568230D01*
X123617234Y-77412466D01*
X123545546Y-77239396D01*
X123509000Y-77055667D01*
X123509000Y-76868333D01*
X123545546Y-76684604D01*
X123617234Y-76511534D01*
X123721312Y-76355770D01*
X123853770Y-76223312D01*
X124009534Y-76119234D01*
X124182604Y-76047546D01*
X124366333Y-76011000D01*
X124553667Y-76011000D01*
X124737396Y-76047546D01*
X124737396Y-76047546D01*
G37*
G36*
X78850442Y-75940518D02*
X78916627Y-75947037D01*
X79029853Y-75981384D01*
X79086467Y-75998557D01*
X79178119Y-76047547D01*
X79242991Y-76082222D01*
X79278729Y-76111552D01*
X79380186Y-76194814D01*
X79463448Y-76296271D01*
X79492778Y-76332009D01*
X79492779Y-76332011D01*
X79576443Y-76488533D01*
X79576443Y-76488534D01*
X79627963Y-76658373D01*
X79645359Y-76835000D01*
X79627963Y-77011627D01*
X79593616Y-77124853D01*
X79576443Y-77181467D01*
X79545479Y-77239396D01*
X79492778Y-77337991D01*
X79463448Y-77373729D01*
X79380186Y-77475186D01*
X79278729Y-77558448D01*
X79242991Y-77587778D01*
X79242989Y-77587779D01*
X79086467Y-77671443D01*
X79029853Y-77688616D01*
X78916627Y-77722963D01*
X78850443Y-77729481D01*
X78784260Y-77736000D01*
X78695740Y-77736000D01*
X78629557Y-77729481D01*
X78563373Y-77722963D01*
X78450147Y-77688616D01*
X78393533Y-77671443D01*
X78237011Y-77587779D01*
X78237009Y-77587778D01*
X78201271Y-77558448D01*
X78099814Y-77475186D01*
X78016552Y-77373729D01*
X77987222Y-77337991D01*
X77934521Y-77239396D01*
X77903557Y-77181467D01*
X77886384Y-77124853D01*
X77852037Y-77011627D01*
X77834641Y-76835000D01*
X77852037Y-76658373D01*
X77903557Y-76488534D01*
X77903557Y-76488533D01*
X77987221Y-76332011D01*
X77987222Y-76332009D01*
X78016552Y-76296271D01*
X78099814Y-76194814D01*
X78201271Y-76111552D01*
X78237009Y-76082222D01*
X78301881Y-76047547D01*
X78393533Y-75998557D01*
X78450147Y-75981384D01*
X78563373Y-75947037D01*
X78629558Y-75940518D01*
X78695740Y-75934000D01*
X78784260Y-75934000D01*
X78850442Y-75940518D01*
X78850442Y-75940518D01*
G37*
G36*
X124737396Y-73507546D02*
X124910466Y-73579234D01*
X125066230Y-73683312D01*
X125198688Y-73815770D01*
X125302766Y-73971534D01*
X125374454Y-74144604D01*
X125411000Y-74328333D01*
X125411000Y-74515667D01*
X125374454Y-74699396D01*
X125302766Y-74872466D01*
X125198688Y-75028230D01*
X125066230Y-75160688D01*
X124910466Y-75264766D01*
X124737396Y-75336454D01*
X124553667Y-75373000D01*
X124366333Y-75373000D01*
X124182604Y-75336454D01*
X124009534Y-75264766D01*
X123853770Y-75160688D01*
X123721312Y-75028230D01*
X123617234Y-74872466D01*
X123545546Y-74699396D01*
X123509000Y-74515667D01*
X123509000Y-74328333D01*
X123545546Y-74144604D01*
X123617234Y-73971534D01*
X123721312Y-73815770D01*
X123853770Y-73683312D01*
X124009534Y-73579234D01*
X124182604Y-73507546D01*
X124366333Y-73471000D01*
X124553667Y-73471000D01*
X124737396Y-73507546D01*
X124737396Y-73507546D01*
G37*
G36*
X101877396Y-73507546D02*
X102050466Y-73579234D01*
X102206230Y-73683312D01*
X102338688Y-73815770D01*
X102442766Y-73971534D01*
X102514454Y-74144604D01*
X102551000Y-74328333D01*
X102551000Y-74515667D01*
X102514454Y-74699396D01*
X102442766Y-74872466D01*
X102338688Y-75028230D01*
X102206230Y-75160688D01*
X102050466Y-75264766D01*
X101877396Y-75336454D01*
X101693667Y-75373000D01*
X101506333Y-75373000D01*
X101322604Y-75336454D01*
X101149534Y-75264766D01*
X100993770Y-75160688D01*
X100861312Y-75028230D01*
X100757234Y-74872466D01*
X100685546Y-74699396D01*
X100649000Y-74515667D01*
X100649000Y-74328333D01*
X100685546Y-74144604D01*
X100757234Y-73971534D01*
X100861312Y-73815770D01*
X100993770Y-73683312D01*
X101149534Y-73579234D01*
X101322604Y-73507546D01*
X101506333Y-73471000D01*
X101693667Y-73471000D01*
X101877396Y-73507546D01*
X101877396Y-73507546D01*
G37*
G36*
X78850443Y-73400519D02*
X78916627Y-73407037D01*
X79029853Y-73441384D01*
X79086467Y-73458557D01*
X79178119Y-73507547D01*
X79242991Y-73542222D01*
X79278729Y-73571552D01*
X79380186Y-73654814D01*
X79463448Y-73756271D01*
X79492778Y-73792009D01*
X79492779Y-73792011D01*
X79576443Y-73948533D01*
X79576443Y-73948534D01*
X79627963Y-74118373D01*
X79645359Y-74295000D01*
X79627963Y-74471627D01*
X79593616Y-74584853D01*
X79576443Y-74641467D01*
X79545479Y-74699396D01*
X79492778Y-74797991D01*
X79463448Y-74833729D01*
X79380186Y-74935186D01*
X79278729Y-75018448D01*
X79242991Y-75047778D01*
X79242989Y-75047779D01*
X79086467Y-75131443D01*
X79029853Y-75148616D01*
X78916627Y-75182963D01*
X78850442Y-75189482D01*
X78784260Y-75196000D01*
X78695740Y-75196000D01*
X78629558Y-75189482D01*
X78563373Y-75182963D01*
X78450147Y-75148616D01*
X78393533Y-75131443D01*
X78237011Y-75047779D01*
X78237009Y-75047778D01*
X78201271Y-75018448D01*
X78099814Y-74935186D01*
X78016552Y-74833729D01*
X77987222Y-74797991D01*
X77934521Y-74699396D01*
X77903557Y-74641467D01*
X77886384Y-74584853D01*
X77852037Y-74471627D01*
X77834641Y-74295000D01*
X77852037Y-74118373D01*
X77903557Y-73948534D01*
X77903557Y-73948533D01*
X77987221Y-73792011D01*
X77987222Y-73792009D01*
X78016552Y-73756271D01*
X78099814Y-73654814D01*
X78201271Y-73571552D01*
X78237009Y-73542222D01*
X78301881Y-73507547D01*
X78393533Y-73458557D01*
X78450147Y-73441384D01*
X78563373Y-73407037D01*
X78629557Y-73400519D01*
X78695740Y-73394000D01*
X78784260Y-73394000D01*
X78850443Y-73400519D01*
X78850443Y-73400519D01*
G37*
G36*
X124737396Y-70967546D02*
X124910466Y-71039234D01*
X125066230Y-71143312D01*
X125198688Y-71275770D01*
X125302766Y-71431534D01*
X125374454Y-71604604D01*
X125411000Y-71788333D01*
X125411000Y-71975667D01*
X125374454Y-72159396D01*
X125302766Y-72332466D01*
X125198688Y-72488230D01*
X125066230Y-72620688D01*
X124910466Y-72724766D01*
X124737396Y-72796454D01*
X124553667Y-72833000D01*
X124366333Y-72833000D01*
X124182604Y-72796454D01*
X124009534Y-72724766D01*
X123853770Y-72620688D01*
X123721312Y-72488230D01*
X123617234Y-72332466D01*
X123545546Y-72159396D01*
X123509000Y-71975667D01*
X123509000Y-71788333D01*
X123545546Y-71604604D01*
X123617234Y-71431534D01*
X123721312Y-71275770D01*
X123853770Y-71143312D01*
X124009534Y-71039234D01*
X124182604Y-70967546D01*
X124366333Y-70931000D01*
X124553667Y-70931000D01*
X124737396Y-70967546D01*
X124737396Y-70967546D01*
G37*
G36*
X101877396Y-70967546D02*
X102050466Y-71039234D01*
X102206230Y-71143312D01*
X102338688Y-71275770D01*
X102442766Y-71431534D01*
X102514454Y-71604604D01*
X102551000Y-71788333D01*
X102551000Y-71975667D01*
X102514454Y-72159396D01*
X102442766Y-72332466D01*
X102338688Y-72488230D01*
X102206230Y-72620688D01*
X102050466Y-72724766D01*
X101877396Y-72796454D01*
X101693667Y-72833000D01*
X101506333Y-72833000D01*
X101322604Y-72796454D01*
X101149534Y-72724766D01*
X100993770Y-72620688D01*
X100861312Y-72488230D01*
X100757234Y-72332466D01*
X100685546Y-72159396D01*
X100649000Y-71975667D01*
X100649000Y-71788333D01*
X100685546Y-71604604D01*
X100757234Y-71431534D01*
X100861312Y-71275770D01*
X100993770Y-71143312D01*
X101149534Y-71039234D01*
X101322604Y-70967546D01*
X101506333Y-70931000D01*
X101693667Y-70931000D01*
X101877396Y-70967546D01*
X101877396Y-70967546D01*
G37*
G36*
X78850442Y-70860518D02*
X78916627Y-70867037D01*
X79029853Y-70901384D01*
X79086467Y-70918557D01*
X79178119Y-70967547D01*
X79242991Y-71002222D01*
X79278729Y-71031552D01*
X79380186Y-71114814D01*
X79460369Y-71212519D01*
X79492778Y-71252009D01*
X79492779Y-71252011D01*
X79576443Y-71408533D01*
X79576443Y-71408534D01*
X79627963Y-71578373D01*
X79645359Y-71755000D01*
X79627963Y-71931627D01*
X79606243Y-72003228D01*
X79576443Y-72101467D01*
X79545479Y-72159396D01*
X79492778Y-72257991D01*
X79463448Y-72293729D01*
X79380186Y-72395186D01*
X79278729Y-72478448D01*
X79242991Y-72507778D01*
X79242989Y-72507779D01*
X79086467Y-72591443D01*
X79038478Y-72606000D01*
X78916627Y-72642963D01*
X78850443Y-72649481D01*
X78784260Y-72656000D01*
X78695740Y-72656000D01*
X78629557Y-72649481D01*
X78563373Y-72642963D01*
X78441522Y-72606000D01*
X78393533Y-72591443D01*
X78237011Y-72507779D01*
X78237009Y-72507778D01*
X78201271Y-72478448D01*
X78099814Y-72395186D01*
X78016552Y-72293729D01*
X77987222Y-72257991D01*
X77934521Y-72159396D01*
X77903557Y-72101467D01*
X77873757Y-72003228D01*
X77852037Y-71931627D01*
X77834641Y-71755000D01*
X77852037Y-71578373D01*
X77903557Y-71408534D01*
X77903557Y-71408533D01*
X77987221Y-71252011D01*
X77987222Y-71252009D01*
X78019631Y-71212519D01*
X78099814Y-71114814D01*
X78201271Y-71031552D01*
X78237009Y-71002222D01*
X78301881Y-70967547D01*
X78393533Y-70918557D01*
X78450147Y-70901384D01*
X78563373Y-70867037D01*
X78629558Y-70860518D01*
X78695740Y-70854000D01*
X78784260Y-70854000D01*
X78850442Y-70860518D01*
X78850442Y-70860518D01*
G37*
G36*
X89148228Y-70936703D02*
X89303100Y-71000853D01*
X89442481Y-71093985D01*
X89561015Y-71212519D01*
X89654147Y-71351900D01*
X89718297Y-71506772D01*
X89751000Y-71671184D01*
X89751000Y-71838816D01*
X89718297Y-72003228D01*
X89654147Y-72158100D01*
X89561015Y-72297481D01*
X89442481Y-72416015D01*
X89303100Y-72509147D01*
X89148228Y-72573297D01*
X88983816Y-72606000D01*
X88816184Y-72606000D01*
X88651772Y-72573297D01*
X88496900Y-72509147D01*
X88357519Y-72416015D01*
X88238985Y-72297481D01*
X88145853Y-72158100D01*
X88081703Y-72003228D01*
X88049000Y-71838816D01*
X88049000Y-71671184D01*
X88081703Y-71506772D01*
X88145853Y-71351900D01*
X88238985Y-71212519D01*
X88357519Y-71093985D01*
X88496900Y-71000853D01*
X88651772Y-70936703D01*
X88816184Y-70904000D01*
X88983816Y-70904000D01*
X89148228Y-70936703D01*
X89148228Y-70936703D01*
G37*
G36*
X124737396Y-68427546D02*
X124910466Y-68499234D01*
X125066230Y-68603312D01*
X125198688Y-68735770D01*
X125302766Y-68891534D01*
X125374454Y-69064604D01*
X125411000Y-69248333D01*
X125411000Y-69435667D01*
X125374454Y-69619396D01*
X125302766Y-69792466D01*
X125198688Y-69948230D01*
X125066230Y-70080688D01*
X124910466Y-70184766D01*
X124737396Y-70256454D01*
X124553667Y-70293000D01*
X124366333Y-70293000D01*
X124182604Y-70256454D01*
X124009534Y-70184766D01*
X123853770Y-70080688D01*
X123721312Y-69948230D01*
X123617234Y-69792466D01*
X123545546Y-69619396D01*
X123509000Y-69435667D01*
X123509000Y-69248333D01*
X123545546Y-69064604D01*
X123617234Y-68891534D01*
X123721312Y-68735770D01*
X123853770Y-68603312D01*
X124009534Y-68499234D01*
X124182604Y-68427546D01*
X124366333Y-68391000D01*
X124553667Y-68391000D01*
X124737396Y-68427546D01*
X124737396Y-68427546D01*
G37*
G36*
X101877396Y-68427546D02*
X102050466Y-68499234D01*
X102206230Y-68603312D01*
X102338688Y-68735770D01*
X102442766Y-68891534D01*
X102514454Y-69064604D01*
X102551000Y-69248333D01*
X102551000Y-69435667D01*
X102514454Y-69619396D01*
X102442766Y-69792466D01*
X102338688Y-69948230D01*
X102206230Y-70080688D01*
X102050466Y-70184766D01*
X101877396Y-70256454D01*
X101693667Y-70293000D01*
X101506333Y-70293000D01*
X101322604Y-70256454D01*
X101149534Y-70184766D01*
X100993770Y-70080688D01*
X100861312Y-69948230D01*
X100757234Y-69792466D01*
X100685546Y-69619396D01*
X100649000Y-69435667D01*
X100649000Y-69248333D01*
X100685546Y-69064604D01*
X100757234Y-68891534D01*
X100861312Y-68735770D01*
X100993770Y-68603312D01*
X101149534Y-68499234D01*
X101322604Y-68427546D01*
X101506333Y-68391000D01*
X101693667Y-68391000D01*
X101877396Y-68427546D01*
X101877396Y-68427546D01*
G37*
G36*
X161429000Y-70243000D02*
X159627000Y-70243000D01*
X159627000Y-68441000D01*
X161429000Y-68441000D01*
X161429000Y-70243000D01*
X161429000Y-70243000D01*
G37*
G36*
X78850442Y-68320518D02*
X78916627Y-68327037D01*
X79029853Y-68361384D01*
X79086467Y-68378557D01*
X79178119Y-68427547D01*
X79242991Y-68462222D01*
X79278729Y-68491552D01*
X79380186Y-68574814D01*
X79463448Y-68676271D01*
X79492778Y-68712009D01*
X79492779Y-68712011D01*
X79576443Y-68868533D01*
X79576443Y-68868534D01*
X79627963Y-69038373D01*
X79645359Y-69215000D01*
X79627963Y-69391627D01*
X79593616Y-69504853D01*
X79576443Y-69561467D01*
X79545479Y-69619396D01*
X79492778Y-69717991D01*
X79463448Y-69753729D01*
X79380186Y-69855186D01*
X79278729Y-69938448D01*
X79242991Y-69967778D01*
X79242989Y-69967779D01*
X79086467Y-70051443D01*
X79029853Y-70068616D01*
X78916627Y-70102963D01*
X78850442Y-70109482D01*
X78784260Y-70116000D01*
X78695740Y-70116000D01*
X78629558Y-70109482D01*
X78563373Y-70102963D01*
X78450147Y-70068616D01*
X78393533Y-70051443D01*
X78237011Y-69967779D01*
X78237009Y-69967778D01*
X78201271Y-69938448D01*
X78099814Y-69855186D01*
X78016552Y-69753729D01*
X77987222Y-69717991D01*
X77934521Y-69619396D01*
X77903557Y-69561467D01*
X77886384Y-69504853D01*
X77852037Y-69391627D01*
X77834641Y-69215000D01*
X77852037Y-69038373D01*
X77903557Y-68868534D01*
X77903557Y-68868533D01*
X77987221Y-68712011D01*
X77987222Y-68712009D01*
X78016552Y-68676271D01*
X78099814Y-68574814D01*
X78201271Y-68491552D01*
X78237009Y-68462222D01*
X78301881Y-68427547D01*
X78393533Y-68378557D01*
X78450147Y-68361384D01*
X78563373Y-68327037D01*
X78629558Y-68320518D01*
X78695740Y-68314000D01*
X78784260Y-68314000D01*
X78850442Y-68320518D01*
X78850442Y-68320518D01*
G37*
G36*
X101877396Y-65887546D02*
X102050466Y-65959234D01*
X102206230Y-66063312D01*
X102338688Y-66195770D01*
X102442766Y-66351534D01*
X102514454Y-66524604D01*
X102551000Y-66708333D01*
X102551000Y-66895667D01*
X102514454Y-67079396D01*
X102442766Y-67252466D01*
X102338688Y-67408230D01*
X102206230Y-67540688D01*
X102050466Y-67644766D01*
X101877396Y-67716454D01*
X101693667Y-67753000D01*
X101506333Y-67753000D01*
X101322604Y-67716454D01*
X101149534Y-67644766D01*
X100993770Y-67540688D01*
X100861312Y-67408230D01*
X100757234Y-67252466D01*
X100685546Y-67079396D01*
X100649000Y-66895667D01*
X100649000Y-66708333D01*
X100685546Y-66524604D01*
X100757234Y-66351534D01*
X100861312Y-66195770D01*
X100993770Y-66063312D01*
X101149534Y-65959234D01*
X101322604Y-65887546D01*
X101506333Y-65851000D01*
X101693667Y-65851000D01*
X101877396Y-65887546D01*
X101877396Y-65887546D01*
G37*
G36*
X124737396Y-65887546D02*
X124910466Y-65959234D01*
X125066230Y-66063312D01*
X125198688Y-66195770D01*
X125302766Y-66351534D01*
X125374454Y-66524604D01*
X125411000Y-66708333D01*
X125411000Y-66895667D01*
X125374454Y-67079396D01*
X125302766Y-67252466D01*
X125198688Y-67408230D01*
X125066230Y-67540688D01*
X124910466Y-67644766D01*
X124737396Y-67716454D01*
X124553667Y-67753000D01*
X124366333Y-67753000D01*
X124182604Y-67716454D01*
X124009534Y-67644766D01*
X123853770Y-67540688D01*
X123721312Y-67408230D01*
X123617234Y-67252466D01*
X123545546Y-67079396D01*
X123509000Y-66895667D01*
X123509000Y-66708333D01*
X123545546Y-66524604D01*
X123617234Y-66351534D01*
X123721312Y-66195770D01*
X123853770Y-66063312D01*
X124009534Y-65959234D01*
X124182604Y-65887546D01*
X124366333Y-65851000D01*
X124553667Y-65851000D01*
X124737396Y-65887546D01*
X124737396Y-65887546D01*
G37*
G36*
X160638443Y-65907519D02*
X160704627Y-65914037D01*
X160817853Y-65948384D01*
X160874467Y-65965557D01*
X161004036Y-66034814D01*
X161030991Y-66049222D01*
X161066729Y-66078552D01*
X161168186Y-66161814D01*
X161251448Y-66263271D01*
X161280778Y-66299009D01*
X161280779Y-66299011D01*
X161364443Y-66455533D01*
X161364443Y-66455534D01*
X161415963Y-66625373D01*
X161433359Y-66802000D01*
X161415963Y-66978627D01*
X161385395Y-67079396D01*
X161364443Y-67148467D01*
X161308853Y-67252467D01*
X161280778Y-67304991D01*
X161272411Y-67315186D01*
X161168186Y-67442186D01*
X161066729Y-67525448D01*
X161030991Y-67554778D01*
X161030989Y-67554779D01*
X160874467Y-67638443D01*
X160853622Y-67644766D01*
X160704627Y-67689963D01*
X160638442Y-67696482D01*
X160572260Y-67703000D01*
X160483740Y-67703000D01*
X160417558Y-67696482D01*
X160351373Y-67689963D01*
X160202378Y-67644766D01*
X160181533Y-67638443D01*
X160025011Y-67554779D01*
X160025009Y-67554778D01*
X159989271Y-67525448D01*
X159887814Y-67442186D01*
X159783589Y-67315186D01*
X159775222Y-67304991D01*
X159747147Y-67252467D01*
X159691557Y-67148467D01*
X159670605Y-67079396D01*
X159640037Y-66978627D01*
X159622641Y-66802000D01*
X159640037Y-66625373D01*
X159691557Y-66455534D01*
X159691557Y-66455533D01*
X159775221Y-66299011D01*
X159775222Y-66299009D01*
X159804552Y-66263271D01*
X159887814Y-66161814D01*
X159989271Y-66078552D01*
X160025009Y-66049222D01*
X160051964Y-66034814D01*
X160181533Y-65965557D01*
X160238147Y-65948384D01*
X160351373Y-65914037D01*
X160417557Y-65907519D01*
X160483740Y-65901000D01*
X160572260Y-65901000D01*
X160638443Y-65907519D01*
X160638443Y-65907519D01*
G37*
G36*
X78850443Y-65780519D02*
X78916627Y-65787037D01*
X79029853Y-65821384D01*
X79086467Y-65838557D01*
X79178119Y-65887547D01*
X79242991Y-65922222D01*
X79278729Y-65951552D01*
X79380186Y-66034814D01*
X79463448Y-66136271D01*
X79492778Y-66172009D01*
X79492779Y-66172011D01*
X79576443Y-66328533D01*
X79576443Y-66328534D01*
X79627963Y-66498373D01*
X79645359Y-66675000D01*
X79627963Y-66851627D01*
X79593616Y-66964853D01*
X79576443Y-67021467D01*
X79545479Y-67079396D01*
X79492778Y-67177991D01*
X79463448Y-67213729D01*
X79380186Y-67315186D01*
X79278729Y-67398448D01*
X79242991Y-67427778D01*
X79242989Y-67427779D01*
X79086467Y-67511443D01*
X79029853Y-67528616D01*
X78916627Y-67562963D01*
X78850443Y-67569481D01*
X78784260Y-67576000D01*
X78695740Y-67576000D01*
X78629557Y-67569481D01*
X78563373Y-67562963D01*
X78450147Y-67528616D01*
X78393533Y-67511443D01*
X78237011Y-67427779D01*
X78237009Y-67427778D01*
X78201271Y-67398448D01*
X78099814Y-67315186D01*
X78016552Y-67213729D01*
X77987222Y-67177991D01*
X77934521Y-67079396D01*
X77903557Y-67021467D01*
X77886384Y-66964853D01*
X77852037Y-66851627D01*
X77834641Y-66675000D01*
X77852037Y-66498373D01*
X77903557Y-66328534D01*
X77903557Y-66328533D01*
X77987221Y-66172011D01*
X77987222Y-66172009D01*
X78016552Y-66136271D01*
X78099814Y-66034814D01*
X78201271Y-65951552D01*
X78237009Y-65922222D01*
X78301881Y-65887547D01*
X78393533Y-65838557D01*
X78450147Y-65821384D01*
X78563373Y-65787037D01*
X78629557Y-65780519D01*
X78695740Y-65774000D01*
X78784260Y-65774000D01*
X78850443Y-65780519D01*
X78850443Y-65780519D01*
G37*
G36*
X124737396Y-63347546D02*
X124910466Y-63419234D01*
X125066230Y-63523312D01*
X125198688Y-63655770D01*
X125302766Y-63811534D01*
X125374454Y-63984604D01*
X125411000Y-64168333D01*
X125411000Y-64355667D01*
X125374454Y-64539396D01*
X125302766Y-64712466D01*
X125198688Y-64868230D01*
X125066230Y-65000688D01*
X124910466Y-65104766D01*
X124737396Y-65176454D01*
X124553667Y-65213000D01*
X124366333Y-65213000D01*
X124182604Y-65176454D01*
X124009534Y-65104766D01*
X123853770Y-65000688D01*
X123721312Y-64868230D01*
X123617234Y-64712466D01*
X123545546Y-64539396D01*
X123509000Y-64355667D01*
X123509000Y-64168333D01*
X123545546Y-63984604D01*
X123617234Y-63811534D01*
X123721312Y-63655770D01*
X123853770Y-63523312D01*
X124009534Y-63419234D01*
X124182604Y-63347546D01*
X124366333Y-63311000D01*
X124553667Y-63311000D01*
X124737396Y-63347546D01*
X124737396Y-63347546D01*
G37*
G36*
X101877396Y-63347546D02*
X102050466Y-63419234D01*
X102206230Y-63523312D01*
X102338688Y-63655770D01*
X102442766Y-63811534D01*
X102514454Y-63984604D01*
X102551000Y-64168333D01*
X102551000Y-64355667D01*
X102514454Y-64539396D01*
X102442766Y-64712466D01*
X102338688Y-64868230D01*
X102206230Y-65000688D01*
X102050466Y-65104766D01*
X101877396Y-65176454D01*
X101693667Y-65213000D01*
X101506333Y-65213000D01*
X101322604Y-65176454D01*
X101149534Y-65104766D01*
X100993770Y-65000688D01*
X100861312Y-64868230D01*
X100757234Y-64712466D01*
X100685546Y-64539396D01*
X100649000Y-64355667D01*
X100649000Y-64168333D01*
X100685546Y-63984604D01*
X100757234Y-63811534D01*
X100861312Y-63655770D01*
X100993770Y-63523312D01*
X101149534Y-63419234D01*
X101322604Y-63347546D01*
X101506333Y-63311000D01*
X101693667Y-63311000D01*
X101877396Y-63347546D01*
X101877396Y-63347546D01*
G37*
G36*
X160638442Y-63367518D02*
X160704627Y-63374037D01*
X160817853Y-63408384D01*
X160874467Y-63425557D01*
X161004036Y-63494814D01*
X161030991Y-63509222D01*
X161066729Y-63538552D01*
X161168186Y-63621814D01*
X161251448Y-63723271D01*
X161280778Y-63759009D01*
X161280779Y-63759011D01*
X161364443Y-63915533D01*
X161364443Y-63915534D01*
X161415963Y-64085373D01*
X161433359Y-64262000D01*
X161415963Y-64438627D01*
X161385395Y-64539396D01*
X161364443Y-64608467D01*
X161308853Y-64712467D01*
X161280778Y-64764991D01*
X161272411Y-64775186D01*
X161168186Y-64902186D01*
X161066729Y-64985448D01*
X161030991Y-65014778D01*
X161030989Y-65014779D01*
X160874467Y-65098443D01*
X160853622Y-65104766D01*
X160704627Y-65149963D01*
X160638443Y-65156481D01*
X160572260Y-65163000D01*
X160483740Y-65163000D01*
X160417557Y-65156481D01*
X160351373Y-65149963D01*
X160202378Y-65104766D01*
X160181533Y-65098443D01*
X160025011Y-65014779D01*
X160025009Y-65014778D01*
X159989271Y-64985448D01*
X159887814Y-64902186D01*
X159783589Y-64775186D01*
X159775222Y-64764991D01*
X159747147Y-64712467D01*
X159691557Y-64608467D01*
X159670605Y-64539396D01*
X159640037Y-64438627D01*
X159622641Y-64262000D01*
X159640037Y-64085373D01*
X159691557Y-63915534D01*
X159691557Y-63915533D01*
X159775221Y-63759011D01*
X159775222Y-63759009D01*
X159804552Y-63723271D01*
X159887814Y-63621814D01*
X159989271Y-63538552D01*
X160025009Y-63509222D01*
X160051964Y-63494814D01*
X160181533Y-63425557D01*
X160238147Y-63408384D01*
X160351373Y-63374037D01*
X160417558Y-63367518D01*
X160483740Y-63361000D01*
X160572260Y-63361000D01*
X160638442Y-63367518D01*
X160638442Y-63367518D01*
G37*
G36*
X78850443Y-63240519D02*
X78916627Y-63247037D01*
X79029853Y-63281384D01*
X79086467Y-63298557D01*
X79178119Y-63347547D01*
X79242991Y-63382222D01*
X79278729Y-63411552D01*
X79380186Y-63494814D01*
X79463448Y-63596271D01*
X79492778Y-63632009D01*
X79492779Y-63632011D01*
X79576443Y-63788533D01*
X79576443Y-63788534D01*
X79627963Y-63958373D01*
X79645359Y-64135000D01*
X79627963Y-64311627D01*
X79593616Y-64424853D01*
X79576443Y-64481467D01*
X79545479Y-64539396D01*
X79492778Y-64637991D01*
X79463448Y-64673729D01*
X79380186Y-64775186D01*
X79278729Y-64858448D01*
X79242991Y-64887778D01*
X79242989Y-64887779D01*
X79086467Y-64971443D01*
X79029853Y-64988616D01*
X78916627Y-65022963D01*
X78850442Y-65029482D01*
X78784260Y-65036000D01*
X78695740Y-65036000D01*
X78629558Y-65029482D01*
X78563373Y-65022963D01*
X78450147Y-64988616D01*
X78393533Y-64971443D01*
X78237011Y-64887779D01*
X78237009Y-64887778D01*
X78201271Y-64858448D01*
X78099814Y-64775186D01*
X78016552Y-64673729D01*
X77987222Y-64637991D01*
X77934521Y-64539396D01*
X77903557Y-64481467D01*
X77886384Y-64424853D01*
X77852037Y-64311627D01*
X77834641Y-64135000D01*
X77852037Y-63958373D01*
X77903557Y-63788534D01*
X77903557Y-63788533D01*
X77987221Y-63632011D01*
X77987222Y-63632009D01*
X78016552Y-63596271D01*
X78099814Y-63494814D01*
X78201271Y-63411552D01*
X78237009Y-63382222D01*
X78301881Y-63347547D01*
X78393533Y-63298557D01*
X78450147Y-63281384D01*
X78563373Y-63247037D01*
X78629557Y-63240519D01*
X78695740Y-63234000D01*
X78784260Y-63234000D01*
X78850443Y-63240519D01*
X78850443Y-63240519D01*
G37*
G36*
X136066669Y-59317686D02*
X136243058Y-59335059D01*
X136461973Y-59401466D01*
X136582549Y-59438042D01*
X136895425Y-59605279D01*
X137169661Y-59830339D01*
X137394721Y-60104575D01*
X137561958Y-60417451D01*
X137561958Y-60417452D01*
X137664941Y-60756942D01*
X137699714Y-61110000D01*
X137664941Y-61463058D01*
X137639971Y-61545373D01*
X137561958Y-61802549D01*
X137394721Y-62115425D01*
X137169661Y-62389661D01*
X136895425Y-62614721D01*
X136582549Y-62781958D01*
X136469385Y-62816286D01*
X136243058Y-62884941D01*
X136066669Y-62902314D01*
X135978476Y-62911000D01*
X135801524Y-62911000D01*
X135713331Y-62902314D01*
X135536942Y-62884941D01*
X135310615Y-62816286D01*
X135197451Y-62781958D01*
X134884575Y-62614721D01*
X134610339Y-62389661D01*
X134385279Y-62115425D01*
X134218042Y-61802549D01*
X134140029Y-61545373D01*
X134115059Y-61463058D01*
X134080286Y-61110000D01*
X134115059Y-60756942D01*
X134218042Y-60417452D01*
X134218042Y-60417451D01*
X134385279Y-60104575D01*
X134610339Y-59830339D01*
X134884575Y-59605279D01*
X135197451Y-59438042D01*
X135318027Y-59401466D01*
X135536942Y-59335059D01*
X135713331Y-59317686D01*
X135801524Y-59309000D01*
X135978476Y-59309000D01*
X136066669Y-59317686D01*
X136066669Y-59317686D01*
G37*
G36*
X160638443Y-60827519D02*
X160704627Y-60834037D01*
X160817853Y-60868384D01*
X160874467Y-60885557D01*
X161004036Y-60954814D01*
X161030991Y-60969222D01*
X161066729Y-60998552D01*
X161168186Y-61081814D01*
X161251448Y-61183271D01*
X161280778Y-61219009D01*
X161280779Y-61219011D01*
X161364443Y-61375533D01*
X161364443Y-61375534D01*
X161415963Y-61545373D01*
X161433359Y-61722000D01*
X161415963Y-61898627D01*
X161381616Y-62011853D01*
X161364443Y-62068467D01*
X161343800Y-62107086D01*
X161280778Y-62224991D01*
X161272411Y-62235186D01*
X161168186Y-62362186D01*
X161066729Y-62445448D01*
X161030991Y-62474778D01*
X161030989Y-62474779D01*
X160874467Y-62558443D01*
X160817853Y-62575616D01*
X160704627Y-62609963D01*
X160638442Y-62616482D01*
X160572260Y-62623000D01*
X160483740Y-62623000D01*
X160417558Y-62616482D01*
X160351373Y-62609963D01*
X160238147Y-62575616D01*
X160181533Y-62558443D01*
X160025011Y-62474779D01*
X160025009Y-62474778D01*
X159989271Y-62445448D01*
X159887814Y-62362186D01*
X159783589Y-62235186D01*
X159775222Y-62224991D01*
X159712200Y-62107086D01*
X159691557Y-62068467D01*
X159674384Y-62011853D01*
X159640037Y-61898627D01*
X159622641Y-61722000D01*
X159640037Y-61545373D01*
X159691557Y-61375534D01*
X159691557Y-61375533D01*
X159775221Y-61219011D01*
X159775222Y-61219009D01*
X159804552Y-61183271D01*
X159887814Y-61081814D01*
X159989271Y-60998552D01*
X160025009Y-60969222D01*
X160051964Y-60954814D01*
X160181533Y-60885557D01*
X160238147Y-60868384D01*
X160351373Y-60834037D01*
X160417557Y-60827519D01*
X160483740Y-60821000D01*
X160572260Y-60821000D01*
X160638443Y-60827519D01*
X160638443Y-60827519D01*
G37*
G36*
X78850443Y-60700519D02*
X78916627Y-60707037D01*
X79029853Y-60741384D01*
X79086467Y-60758557D01*
X79173996Y-60805343D01*
X79242991Y-60842222D01*
X79278729Y-60871552D01*
X79380186Y-60954814D01*
X79463448Y-61056271D01*
X79492778Y-61092009D01*
X79492779Y-61092011D01*
X79576443Y-61248533D01*
X79576443Y-61248534D01*
X79627963Y-61418373D01*
X79645359Y-61595000D01*
X79627963Y-61771627D01*
X79595810Y-61877622D01*
X79576443Y-61941467D01*
X79508560Y-62068466D01*
X79492778Y-62097991D01*
X79478470Y-62115425D01*
X79380186Y-62235186D01*
X79278729Y-62318448D01*
X79242991Y-62347778D01*
X79242989Y-62347779D01*
X79086467Y-62431443D01*
X79029853Y-62448616D01*
X78916627Y-62482963D01*
X78850443Y-62489481D01*
X78784260Y-62496000D01*
X78695740Y-62496000D01*
X78629557Y-62489481D01*
X78563373Y-62482963D01*
X78450147Y-62448616D01*
X78393533Y-62431443D01*
X78237011Y-62347779D01*
X78237009Y-62347778D01*
X78201271Y-62318448D01*
X78099814Y-62235186D01*
X78001530Y-62115425D01*
X77987222Y-62097991D01*
X77971440Y-62068466D01*
X77903557Y-61941467D01*
X77884190Y-61877622D01*
X77852037Y-61771627D01*
X77834641Y-61595000D01*
X77852037Y-61418373D01*
X77903557Y-61248534D01*
X77903557Y-61248533D01*
X77987221Y-61092011D01*
X77987222Y-61092009D01*
X78016552Y-61056271D01*
X78099814Y-60954814D01*
X78201271Y-60871552D01*
X78237009Y-60842222D01*
X78306004Y-60805343D01*
X78393533Y-60758557D01*
X78450147Y-60741384D01*
X78563373Y-60707037D01*
X78629557Y-60700519D01*
X78695740Y-60694000D01*
X78784260Y-60694000D01*
X78850443Y-60700519D01*
X78850443Y-60700519D01*
G37*
G36*
X78850442Y-58160518D02*
X78916627Y-58167037D01*
X79029853Y-58201384D01*
X79086467Y-58218557D01*
X79225087Y-58292652D01*
X79242991Y-58302222D01*
X79278729Y-58331552D01*
X79380186Y-58414814D01*
X79463448Y-58516271D01*
X79492778Y-58552009D01*
X79492779Y-58552011D01*
X79576443Y-58708533D01*
X79576443Y-58708534D01*
X79627963Y-58878373D01*
X79645359Y-59055000D01*
X79627963Y-59231627D01*
X79604492Y-59309000D01*
X79576443Y-59401467D01*
X79556893Y-59438042D01*
X79492778Y-59557991D01*
X79463448Y-59593729D01*
X79380186Y-59695186D01*
X79278729Y-59778448D01*
X79242991Y-59807778D01*
X79242989Y-59807779D01*
X79086467Y-59891443D01*
X79029853Y-59908616D01*
X78916627Y-59942963D01*
X78850442Y-59949482D01*
X78784260Y-59956000D01*
X78695740Y-59956000D01*
X78629558Y-59949482D01*
X78563373Y-59942963D01*
X78450147Y-59908616D01*
X78393533Y-59891443D01*
X78237011Y-59807779D01*
X78237009Y-59807778D01*
X78201271Y-59778448D01*
X78099814Y-59695186D01*
X78016552Y-59593729D01*
X77987222Y-59557991D01*
X77923107Y-59438042D01*
X77903557Y-59401467D01*
X77875508Y-59309000D01*
X77852037Y-59231627D01*
X77834641Y-59055000D01*
X77852037Y-58878373D01*
X77903557Y-58708534D01*
X77903557Y-58708533D01*
X77987221Y-58552011D01*
X77987222Y-58552009D01*
X78016552Y-58516271D01*
X78099814Y-58414814D01*
X78201271Y-58331552D01*
X78237009Y-58302222D01*
X78254913Y-58292652D01*
X78393533Y-58218557D01*
X78450147Y-58201384D01*
X78563373Y-58167037D01*
X78629558Y-58160518D01*
X78695740Y-58154000D01*
X78784260Y-58154000D01*
X78850442Y-58160518D01*
X78850442Y-58160518D01*
G37*
G36*
X78850443Y-55620519D02*
X78916627Y-55627037D01*
X79029853Y-55661384D01*
X79086467Y-55678557D01*
X79225087Y-55752652D01*
X79242991Y-55762222D01*
X79278729Y-55791552D01*
X79380186Y-55874814D01*
X79463448Y-55976271D01*
X79492778Y-56012009D01*
X79492779Y-56012011D01*
X79576443Y-56168533D01*
X79576443Y-56168534D01*
X79627963Y-56338373D01*
X79645359Y-56515000D01*
X79627963Y-56691627D01*
X79593616Y-56804853D01*
X79576443Y-56861467D01*
X79502348Y-57000087D01*
X79492778Y-57017991D01*
X79463448Y-57053729D01*
X79380186Y-57155186D01*
X79278729Y-57238448D01*
X79242991Y-57267778D01*
X79242989Y-57267779D01*
X79086467Y-57351443D01*
X79029853Y-57368616D01*
X78916627Y-57402963D01*
X78850443Y-57409481D01*
X78784260Y-57416000D01*
X78695740Y-57416000D01*
X78629557Y-57409481D01*
X78563373Y-57402963D01*
X78450147Y-57368616D01*
X78393533Y-57351443D01*
X78237011Y-57267779D01*
X78237009Y-57267778D01*
X78201271Y-57238448D01*
X78099814Y-57155186D01*
X78016552Y-57053729D01*
X77987222Y-57017991D01*
X77977652Y-57000087D01*
X77903557Y-56861467D01*
X77886384Y-56804853D01*
X77852037Y-56691627D01*
X77834641Y-56515000D01*
X77852037Y-56338373D01*
X77903557Y-56168534D01*
X77903557Y-56168533D01*
X77987221Y-56012011D01*
X77987222Y-56012009D01*
X78016552Y-55976271D01*
X78099814Y-55874814D01*
X78201271Y-55791552D01*
X78237009Y-55762222D01*
X78254913Y-55752652D01*
X78393533Y-55678557D01*
X78450147Y-55661384D01*
X78563373Y-55627037D01*
X78629557Y-55620519D01*
X78695740Y-55614000D01*
X78784260Y-55614000D01*
X78850443Y-55620519D01*
X78850443Y-55620519D01*
G37*
G36*
X151846000Y-56596000D02*
X149144000Y-56596000D01*
X149144000Y-53894000D01*
X151846000Y-53894000D01*
X151846000Y-56596000D01*
X151846000Y-56596000D01*
G37*
G36*
X78850442Y-53080518D02*
X78916627Y-53087037D01*
X79029853Y-53121384D01*
X79086467Y-53138557D01*
X79154646Y-53175000D01*
X79242991Y-53222222D01*
X79278729Y-53251552D01*
X79380186Y-53334814D01*
X79463448Y-53436271D01*
X79492778Y-53472009D01*
X79492779Y-53472011D01*
X79576443Y-53628533D01*
X79576443Y-53628534D01*
X79627963Y-53798373D01*
X79645359Y-53975000D01*
X79627963Y-54151627D01*
X79593616Y-54264853D01*
X79576443Y-54321467D01*
X79502348Y-54460087D01*
X79492778Y-54477991D01*
X79463448Y-54513729D01*
X79380186Y-54615186D01*
X79278729Y-54698448D01*
X79242991Y-54727778D01*
X79242989Y-54727779D01*
X79086467Y-54811443D01*
X79029853Y-54828616D01*
X78916627Y-54862963D01*
X78850443Y-54869481D01*
X78784260Y-54876000D01*
X78695740Y-54876000D01*
X78629557Y-54869481D01*
X78563373Y-54862963D01*
X78450147Y-54828616D01*
X78393533Y-54811443D01*
X78237011Y-54727779D01*
X78237009Y-54727778D01*
X78201271Y-54698448D01*
X78099814Y-54615186D01*
X78016552Y-54513729D01*
X77987222Y-54477991D01*
X77977652Y-54460087D01*
X77903557Y-54321467D01*
X77886384Y-54264853D01*
X77852037Y-54151627D01*
X77834641Y-53975000D01*
X77852037Y-53798373D01*
X77903557Y-53628534D01*
X77903557Y-53628533D01*
X77987221Y-53472011D01*
X77987222Y-53472009D01*
X78016552Y-53436271D01*
X78099814Y-53334814D01*
X78201271Y-53251552D01*
X78237009Y-53222222D01*
X78325354Y-53175000D01*
X78393533Y-53138557D01*
X78450147Y-53121384D01*
X78563373Y-53087037D01*
X78629558Y-53080518D01*
X78695740Y-53074000D01*
X78784260Y-53074000D01*
X78850442Y-53080518D01*
X78850442Y-53080518D01*
G37*
G36*
X146058567Y-50919959D02*
X146189072Y-50945918D01*
X146434939Y-51047759D01*
X146655464Y-51195110D01*
X146656215Y-51195612D01*
X146844388Y-51383785D01*
X146844390Y-51383788D01*
X146992241Y-51605061D01*
X147094082Y-51850928D01*
X147094082Y-51850929D01*
X147138690Y-52075185D01*
X147146000Y-52111938D01*
X147146000Y-52378062D01*
X147094082Y-52639072D01*
X146992241Y-52884939D01*
X146857202Y-53087037D01*
X146844388Y-53106215D01*
X146656215Y-53294388D01*
X146656212Y-53294390D01*
X146434939Y-53442241D01*
X146189072Y-53544082D01*
X146058567Y-53570041D01*
X145928063Y-53596000D01*
X145661937Y-53596000D01*
X145531433Y-53570041D01*
X145400928Y-53544082D01*
X145155061Y-53442241D01*
X144933788Y-53294390D01*
X144933785Y-53294388D01*
X144745612Y-53106215D01*
X144732798Y-53087037D01*
X144597759Y-52884939D01*
X144495918Y-52639072D01*
X144444000Y-52378062D01*
X144444000Y-52111938D01*
X144451311Y-52075185D01*
X144495918Y-51850929D01*
X144495918Y-51850928D01*
X144597759Y-51605061D01*
X144745610Y-51383788D01*
X144745612Y-51383785D01*
X144933785Y-51195612D01*
X144934536Y-51195110D01*
X145155061Y-51047759D01*
X145400928Y-50945918D01*
X145531433Y-50919959D01*
X145661937Y-50894000D01*
X145928063Y-50894000D01*
X146058567Y-50919959D01*
X146058567Y-50919959D01*
G37*
G36*
X127851000Y-53175000D02*
X126149000Y-53175000D01*
X126149000Y-51473000D01*
X127851000Y-51473000D01*
X127851000Y-53175000D01*
X127851000Y-53175000D01*
G37*
G36*
X124748228Y-51505703D02*
X124903100Y-51569853D01*
X125042481Y-51662985D01*
X125161015Y-51781519D01*
X125254147Y-51920900D01*
X125318297Y-52075772D01*
X125351000Y-52240184D01*
X125351000Y-52407816D01*
X125318297Y-52572228D01*
X125254147Y-52727100D01*
X125161015Y-52866481D01*
X125042481Y-52985015D01*
X124903100Y-53078147D01*
X124748228Y-53142297D01*
X124583816Y-53175000D01*
X124416184Y-53175000D01*
X124251772Y-53142297D01*
X124096900Y-53078147D01*
X123957519Y-52985015D01*
X123838985Y-52866481D01*
X123745853Y-52727100D01*
X123681703Y-52572228D01*
X123649000Y-52407816D01*
X123649000Y-52240184D01*
X123681703Y-52075772D01*
X123745853Y-51920900D01*
X123838985Y-51781519D01*
X123957519Y-51662985D01*
X124096900Y-51569853D01*
X124251772Y-51505703D01*
X124416184Y-51473000D01*
X124583816Y-51473000D01*
X124748228Y-51505703D01*
X124748228Y-51505703D01*
G37*
G36*
X78850442Y-50540518D02*
X78916627Y-50547037D01*
X79029853Y-50581384D01*
X79086467Y-50598557D01*
X79225087Y-50672652D01*
X79242991Y-50682222D01*
X79278729Y-50711552D01*
X79380186Y-50794814D01*
X79461585Y-50894000D01*
X79492778Y-50932009D01*
X79492779Y-50932011D01*
X79576443Y-51088533D01*
X79576443Y-51088534D01*
X79627963Y-51258373D01*
X79645359Y-51435000D01*
X79627963Y-51611627D01*
X79612383Y-51662986D01*
X79576443Y-51781467D01*
X79576415Y-51781519D01*
X79492778Y-51937991D01*
X79463448Y-51973729D01*
X79380186Y-52075186D01*
X79278729Y-52158448D01*
X79242991Y-52187778D01*
X79242989Y-52187779D01*
X79086467Y-52271443D01*
X79029853Y-52288616D01*
X78916627Y-52322963D01*
X78850443Y-52329481D01*
X78784260Y-52336000D01*
X78695740Y-52336000D01*
X78629558Y-52329482D01*
X78563373Y-52322963D01*
X78450147Y-52288616D01*
X78393533Y-52271443D01*
X78237011Y-52187779D01*
X78237009Y-52187778D01*
X78201271Y-52158448D01*
X78099814Y-52075186D01*
X78016552Y-51973729D01*
X77987222Y-51937991D01*
X77903585Y-51781519D01*
X77903557Y-51781467D01*
X77867617Y-51662986D01*
X77852037Y-51611627D01*
X77834641Y-51435000D01*
X77852037Y-51258373D01*
X77903557Y-51088534D01*
X77903557Y-51088533D01*
X77987221Y-50932011D01*
X77987222Y-50932009D01*
X78018415Y-50894000D01*
X78099814Y-50794814D01*
X78201271Y-50711552D01*
X78237009Y-50682222D01*
X78254913Y-50672652D01*
X78393533Y-50598557D01*
X78450147Y-50581384D01*
X78563373Y-50547037D01*
X78629558Y-50540518D01*
X78695740Y-50534000D01*
X78784260Y-50534000D01*
X78850442Y-50540518D01*
X78850442Y-50540518D01*
G37*
G36*
X150758567Y-47919959D02*
X150889072Y-47945918D01*
X151134939Y-48047759D01*
X151355464Y-48195110D01*
X151356215Y-48195612D01*
X151544388Y-48383785D01*
X151544390Y-48383788D01*
X151692241Y-48605061D01*
X151794082Y-48850928D01*
X151846000Y-49111938D01*
X151846000Y-49378062D01*
X151794082Y-49639072D01*
X151692241Y-49884939D01*
X151546999Y-50102308D01*
X151544388Y-50106215D01*
X151356215Y-50294388D01*
X151356212Y-50294390D01*
X151134939Y-50442241D01*
X150889072Y-50544082D01*
X150758567Y-50570041D01*
X150628063Y-50596000D01*
X150361937Y-50596000D01*
X150231433Y-50570041D01*
X150100928Y-50544082D01*
X149855061Y-50442241D01*
X149633788Y-50294390D01*
X149633785Y-50294388D01*
X149445612Y-50106215D01*
X149443001Y-50102308D01*
X149297759Y-49884939D01*
X149195918Y-49639072D01*
X149144000Y-49378062D01*
X149144000Y-49111938D01*
X149195918Y-48850928D01*
X149297759Y-48605061D01*
X149445610Y-48383788D01*
X149445612Y-48383785D01*
X149633785Y-48195612D01*
X149634536Y-48195110D01*
X149855061Y-48047759D01*
X150100928Y-47945918D01*
X150231433Y-47919959D01*
X150361937Y-47894000D01*
X150628063Y-47894000D01*
X150758567Y-47919959D01*
X150758567Y-47919959D01*
G37*
G36*
X98639914Y-48821514D02*
X98639916Y-48821515D01*
X98639917Y-48821515D01*
X98774006Y-48877056D01*
X98894140Y-48957327D01*
X98894686Y-48957692D01*
X98997308Y-49060314D01*
X98997310Y-49060317D01*
X99077944Y-49180994D01*
X99133485Y-49315083D01*
X99133486Y-49315086D01*
X99161800Y-49457430D01*
X99161800Y-49602570D01*
X99136166Y-49731443D01*
X99133485Y-49744917D01*
X99077944Y-49879006D01*
X98997673Y-49999140D01*
X98997308Y-49999686D01*
X98894686Y-50102308D01*
X98894683Y-50102310D01*
X98774006Y-50182944D01*
X98639917Y-50238485D01*
X98639916Y-50238485D01*
X98639914Y-50238486D01*
X98497570Y-50266800D01*
X98352430Y-50266800D01*
X98210086Y-50238486D01*
X98210084Y-50238485D01*
X98210083Y-50238485D01*
X98075994Y-50182944D01*
X97955317Y-50102310D01*
X97955314Y-50102308D01*
X97852692Y-49999686D01*
X97852327Y-49999140D01*
X97772056Y-49879006D01*
X97716515Y-49744917D01*
X97713835Y-49731443D01*
X97688200Y-49602570D01*
X97688200Y-49457430D01*
X97716514Y-49315086D01*
X97716515Y-49315083D01*
X97772056Y-49180994D01*
X97852690Y-49060317D01*
X97852692Y-49060314D01*
X97955314Y-48957692D01*
X97955860Y-48957327D01*
X98075994Y-48877056D01*
X98210083Y-48821515D01*
X98210084Y-48821515D01*
X98210086Y-48821514D01*
X98352430Y-48793200D01*
X98497570Y-48793200D01*
X98639914Y-48821514D01*
X98639914Y-48821514D01*
G37*
G36*
X92289914Y-48821514D02*
X92289916Y-48821515D01*
X92289917Y-48821515D01*
X92424006Y-48877056D01*
X92544140Y-48957327D01*
X92544686Y-48957692D01*
X92647308Y-49060314D01*
X92647310Y-49060317D01*
X92727944Y-49180994D01*
X92783485Y-49315083D01*
X92783486Y-49315086D01*
X92811800Y-49457430D01*
X92811800Y-49602570D01*
X92786166Y-49731443D01*
X92783485Y-49744917D01*
X92727944Y-49879006D01*
X92647673Y-49999140D01*
X92647308Y-49999686D01*
X92544686Y-50102308D01*
X92544683Y-50102310D01*
X92424006Y-50182944D01*
X92289917Y-50238485D01*
X92289916Y-50238485D01*
X92289914Y-50238486D01*
X92147570Y-50266800D01*
X92002430Y-50266800D01*
X91860086Y-50238486D01*
X91860084Y-50238485D01*
X91860083Y-50238485D01*
X91725994Y-50182944D01*
X91605317Y-50102310D01*
X91605314Y-50102308D01*
X91502692Y-49999686D01*
X91502327Y-49999140D01*
X91422056Y-49879006D01*
X91366515Y-49744917D01*
X91363835Y-49731443D01*
X91338200Y-49602570D01*
X91338200Y-49457430D01*
X91366514Y-49315086D01*
X91366515Y-49315083D01*
X91422056Y-49180994D01*
X91502690Y-49060317D01*
X91502692Y-49060314D01*
X91605314Y-48957692D01*
X91605860Y-48957327D01*
X91725994Y-48877056D01*
X91860083Y-48821515D01*
X91860084Y-48821515D01*
X91860086Y-48821514D01*
X92002430Y-48793200D01*
X92147570Y-48793200D01*
X92289914Y-48821514D01*
X92289914Y-48821514D01*
G37*
G36*
X78850442Y-48000518D02*
X78916627Y-48007037D01*
X79029853Y-48041384D01*
X79086467Y-48058557D01*
X79225087Y-48132652D01*
X79242991Y-48142222D01*
X79278729Y-48171552D01*
X79380186Y-48254814D01*
X79463448Y-48356271D01*
X79492778Y-48392009D01*
X79492779Y-48392011D01*
X79576443Y-48548533D01*
X79576443Y-48548534D01*
X79627963Y-48718373D01*
X79645359Y-48895000D01*
X79627963Y-49071627D01*
X79594787Y-49180994D01*
X79576443Y-49241467D01*
X79537094Y-49315083D01*
X79492778Y-49397991D01*
X79463448Y-49433729D01*
X79380186Y-49535186D01*
X79298077Y-49602570D01*
X79242991Y-49647778D01*
X79242989Y-49647779D01*
X79086467Y-49731443D01*
X79042058Y-49744914D01*
X78916627Y-49782963D01*
X78850443Y-49789481D01*
X78784260Y-49796000D01*
X78695740Y-49796000D01*
X78629557Y-49789481D01*
X78563373Y-49782963D01*
X78437942Y-49744914D01*
X78393533Y-49731443D01*
X78237011Y-49647779D01*
X78237009Y-49647778D01*
X78181923Y-49602570D01*
X78099814Y-49535186D01*
X78016552Y-49433729D01*
X77987222Y-49397991D01*
X77942906Y-49315083D01*
X77903557Y-49241467D01*
X77885213Y-49180994D01*
X77852037Y-49071627D01*
X77834641Y-48895000D01*
X77852037Y-48718373D01*
X77903557Y-48548534D01*
X77903557Y-48548533D01*
X77987221Y-48392011D01*
X77987222Y-48392009D01*
X78016552Y-48356271D01*
X78099814Y-48254814D01*
X78201271Y-48171552D01*
X78237009Y-48142222D01*
X78254913Y-48132652D01*
X78393533Y-48058557D01*
X78450147Y-48041384D01*
X78563373Y-48007037D01*
X78629557Y-48000519D01*
X78695740Y-47994000D01*
X78784260Y-47994000D01*
X78850442Y-48000518D01*
X78850442Y-48000518D01*
G37*
G36*
X96480914Y-46281514D02*
X96480916Y-46281515D01*
X96480917Y-46281515D01*
X96615006Y-46337056D01*
X96735140Y-46417327D01*
X96735686Y-46417692D01*
X96838308Y-46520314D01*
X96838310Y-46520317D01*
X96918944Y-46640994D01*
X96974485Y-46775083D01*
X97002800Y-46917432D01*
X97002800Y-47062568D01*
X96974485Y-47204917D01*
X96918944Y-47339006D01*
X96838673Y-47459140D01*
X96838308Y-47459686D01*
X96735686Y-47562308D01*
X96735683Y-47562310D01*
X96615006Y-47642944D01*
X96480917Y-47698485D01*
X96480916Y-47698485D01*
X96480914Y-47698486D01*
X96338570Y-47726800D01*
X96193430Y-47726800D01*
X96051086Y-47698486D01*
X96051084Y-47698485D01*
X96051083Y-47698485D01*
X95916994Y-47642944D01*
X95796317Y-47562310D01*
X95796314Y-47562308D01*
X95693692Y-47459686D01*
X95693327Y-47459140D01*
X95613056Y-47339006D01*
X95557515Y-47204917D01*
X95529200Y-47062568D01*
X95529200Y-46917432D01*
X95557515Y-46775083D01*
X95613056Y-46640994D01*
X95693690Y-46520317D01*
X95693692Y-46520314D01*
X95796314Y-46417692D01*
X95796860Y-46417327D01*
X95916994Y-46337056D01*
X96051083Y-46281515D01*
X96051084Y-46281515D01*
X96051086Y-46281514D01*
X96193430Y-46253200D01*
X96338570Y-46253200D01*
X96480914Y-46281514D01*
X96480914Y-46281514D01*
G37*
G36*
X92289914Y-46281514D02*
X92289916Y-46281515D01*
X92289917Y-46281515D01*
X92424006Y-46337056D01*
X92544140Y-46417327D01*
X92544686Y-46417692D01*
X92647308Y-46520314D01*
X92647310Y-46520317D01*
X92727944Y-46640994D01*
X92783485Y-46775083D01*
X92811800Y-46917432D01*
X92811800Y-47062568D01*
X92783485Y-47204917D01*
X92727944Y-47339006D01*
X92647673Y-47459140D01*
X92647308Y-47459686D01*
X92544686Y-47562308D01*
X92544683Y-47562310D01*
X92424006Y-47642944D01*
X92289917Y-47698485D01*
X92289916Y-47698485D01*
X92289914Y-47698486D01*
X92147570Y-47726800D01*
X92002430Y-47726800D01*
X91860086Y-47698486D01*
X91860084Y-47698485D01*
X91860083Y-47698485D01*
X91725994Y-47642944D01*
X91605317Y-47562310D01*
X91605314Y-47562308D01*
X91502692Y-47459686D01*
X91502327Y-47459140D01*
X91422056Y-47339006D01*
X91366515Y-47204917D01*
X91338200Y-47062568D01*
X91338200Y-46917432D01*
X91366515Y-46775083D01*
X91422056Y-46640994D01*
X91502690Y-46520317D01*
X91502692Y-46520314D01*
X91605314Y-46417692D01*
X91605860Y-46417327D01*
X91725994Y-46337056D01*
X91860083Y-46281515D01*
X91860084Y-46281515D01*
X91860086Y-46281514D01*
X92002430Y-46253200D01*
X92147570Y-46253200D01*
X92289914Y-46281514D01*
X92289914Y-46281514D01*
G37*
G36*
X98639914Y-46281514D02*
X98639916Y-46281515D01*
X98639917Y-46281515D01*
X98774006Y-46337056D01*
X98894140Y-46417327D01*
X98894686Y-46417692D01*
X98997308Y-46520314D01*
X98997310Y-46520317D01*
X99077944Y-46640994D01*
X99133485Y-46775083D01*
X99161800Y-46917432D01*
X99161800Y-47062568D01*
X99133485Y-47204917D01*
X99077944Y-47339006D01*
X98997673Y-47459140D01*
X98997308Y-47459686D01*
X98894686Y-47562308D01*
X98894683Y-47562310D01*
X98774006Y-47642944D01*
X98639917Y-47698485D01*
X98639916Y-47698485D01*
X98639914Y-47698486D01*
X98497570Y-47726800D01*
X98352430Y-47726800D01*
X98210086Y-47698486D01*
X98210084Y-47698485D01*
X98210083Y-47698485D01*
X98075994Y-47642944D01*
X97955317Y-47562310D01*
X97955314Y-47562308D01*
X97852692Y-47459686D01*
X97852327Y-47459140D01*
X97772056Y-47339006D01*
X97716515Y-47204917D01*
X97688200Y-47062568D01*
X97688200Y-46917432D01*
X97716515Y-46775083D01*
X97772056Y-46640994D01*
X97852690Y-46520317D01*
X97852692Y-46520314D01*
X97955314Y-46417692D01*
X97955860Y-46417327D01*
X98075994Y-46337056D01*
X98210083Y-46281515D01*
X98210084Y-46281515D01*
X98210086Y-46281514D01*
X98352430Y-46253200D01*
X98497570Y-46253200D01*
X98639914Y-46281514D01*
X98639914Y-46281514D01*
G37*
G36*
X94321914Y-46281514D02*
X94321916Y-46281515D01*
X94321917Y-46281515D01*
X94456006Y-46337056D01*
X94576140Y-46417327D01*
X94576686Y-46417692D01*
X94679308Y-46520314D01*
X94679310Y-46520317D01*
X94759944Y-46640994D01*
X94815485Y-46775083D01*
X94843800Y-46917432D01*
X94843800Y-47062568D01*
X94815485Y-47204917D01*
X94759944Y-47339006D01*
X94679673Y-47459140D01*
X94679308Y-47459686D01*
X94576686Y-47562308D01*
X94576683Y-47562310D01*
X94456006Y-47642944D01*
X94321917Y-47698485D01*
X94321916Y-47698485D01*
X94321914Y-47698486D01*
X94179570Y-47726800D01*
X94034430Y-47726800D01*
X93892086Y-47698486D01*
X93892084Y-47698485D01*
X93892083Y-47698485D01*
X93757994Y-47642944D01*
X93637317Y-47562310D01*
X93637314Y-47562308D01*
X93534692Y-47459686D01*
X93534327Y-47459140D01*
X93454056Y-47339006D01*
X93398515Y-47204917D01*
X93370200Y-47062568D01*
X93370200Y-46917432D01*
X93398515Y-46775083D01*
X93454056Y-46640994D01*
X93534690Y-46520317D01*
X93534692Y-46520314D01*
X93637314Y-46417692D01*
X93637860Y-46417327D01*
X93757994Y-46337056D01*
X93892083Y-46281515D01*
X93892084Y-46281515D01*
X93892086Y-46281514D01*
X94034430Y-46253200D01*
X94179570Y-46253200D01*
X94321914Y-46281514D01*
X94321914Y-46281514D01*
G37*
G36*
X159921694Y-41116860D02*
X160187437Y-41169719D01*
X160688087Y-41377095D01*
X161135622Y-41676129D01*
X161138663Y-41678161D01*
X161521839Y-42061337D01*
X161521841Y-42061340D01*
X161822905Y-42511913D01*
X161822905Y-42511914D01*
X162030281Y-43012564D01*
X162136000Y-43544049D01*
X162136000Y-44085951D01*
X162083140Y-44351694D01*
X162030281Y-44617437D01*
X161822905Y-45118087D01*
X161615095Y-45429096D01*
X161521839Y-45568663D01*
X161138663Y-45951839D01*
X161138660Y-45951841D01*
X160688087Y-46252905D01*
X160187437Y-46460281D01*
X159921694Y-46513140D01*
X159655951Y-46566000D01*
X159114049Y-46566000D01*
X158848306Y-46513140D01*
X158582563Y-46460281D01*
X158081913Y-46252905D01*
X157631340Y-45951841D01*
X157631337Y-45951839D01*
X157248161Y-45568663D01*
X157154905Y-45429096D01*
X156947095Y-45118087D01*
X156739719Y-44617437D01*
X156686860Y-44351694D01*
X156634000Y-44085951D01*
X156634000Y-43544049D01*
X156739719Y-43012564D01*
X156947095Y-42511914D01*
X156947095Y-42511913D01*
X157248159Y-42061340D01*
X157248161Y-42061337D01*
X157631337Y-41678161D01*
X157634378Y-41676129D01*
X158081913Y-41377095D01*
X158582563Y-41169719D01*
X158848306Y-41116860D01*
X159114049Y-41064000D01*
X159655951Y-41064000D01*
X159921694Y-41116860D01*
X159921694Y-41116860D01*
G37*
G36*
X80546694Y-41116860D02*
X80812437Y-41169719D01*
X81313087Y-41377095D01*
X81760622Y-41676129D01*
X81763663Y-41678161D01*
X82146839Y-42061337D01*
X82146841Y-42061340D01*
X82447905Y-42511913D01*
X82447905Y-42511914D01*
X82655281Y-43012564D01*
X82761000Y-43544049D01*
X82761000Y-44085951D01*
X82708140Y-44351694D01*
X82655281Y-44617437D01*
X82447905Y-45118087D01*
X82240095Y-45429096D01*
X82146839Y-45568663D01*
X81763663Y-45951839D01*
X81763660Y-45951841D01*
X81313087Y-46252905D01*
X80812437Y-46460281D01*
X80546694Y-46513140D01*
X80280951Y-46566000D01*
X79739049Y-46566000D01*
X79473306Y-46513140D01*
X79207563Y-46460281D01*
X78706913Y-46252905D01*
X78256340Y-45951841D01*
X78256337Y-45951839D01*
X77873161Y-45568663D01*
X77779905Y-45429096D01*
X77572095Y-45118087D01*
X77364719Y-44617437D01*
X77311860Y-44351694D01*
X77259000Y-44085951D01*
X77259000Y-43544049D01*
X77364719Y-43012564D01*
X77572095Y-42511914D01*
X77572095Y-42511913D01*
X77873159Y-42061340D01*
X77873161Y-42061337D01*
X78256337Y-41678161D01*
X78259378Y-41676129D01*
X78706913Y-41377095D01*
X79207563Y-41169719D01*
X79473306Y-41116860D01*
X79739049Y-41064000D01*
X80280951Y-41064000D01*
X80546694Y-41116860D01*
X80546694Y-41116860D01*
G37*
G36*
X103370580Y-46101200D02*
X101099420Y-46101200D01*
X101099420Y-42798800D01*
X103370580Y-42798800D01*
X103370580Y-46101200D01*
X103370580Y-46101200D01*
G37*
G36*
X89400580Y-46101200D02*
X87129420Y-46101200D01*
X87129420Y-42798800D01*
X89400580Y-42798800D01*
X89400580Y-46101200D01*
X89400580Y-46101200D01*
G37*
G36*
X127597000Y-45809000D02*
X125895000Y-45809000D01*
X125895000Y-44107000D01*
X127597000Y-44107000D01*
X127597000Y-45809000D01*
X127597000Y-45809000D01*
G37*
G36*
X124494228Y-44139703D02*
X124649100Y-44203853D01*
X124788481Y-44296985D01*
X124907015Y-44415519D01*
X125000147Y-44554900D01*
X125064297Y-44709772D01*
X125097000Y-44874184D01*
X125097000Y-45041816D01*
X125064297Y-45206228D01*
X125000147Y-45361100D01*
X124907015Y-45500481D01*
X124788481Y-45619015D01*
X124649100Y-45712147D01*
X124494228Y-45776297D01*
X124329816Y-45809000D01*
X124162184Y-45809000D01*
X123997772Y-45776297D01*
X123842900Y-45712147D01*
X123703519Y-45619015D01*
X123584985Y-45500481D01*
X123491853Y-45361100D01*
X123427703Y-45206228D01*
X123395000Y-45041816D01*
X123395000Y-44874184D01*
X123427703Y-44709772D01*
X123491853Y-44554900D01*
X123584985Y-44415519D01*
X123703519Y-44296985D01*
X123842900Y-44203853D01*
X123997772Y-44139703D01*
X124162184Y-44107000D01*
X124329816Y-44107000D01*
X124494228Y-44139703D01*
X124494228Y-44139703D01*
G37*
G36*
X136086720Y-43413520D02*
X136275881Y-43470901D01*
X136450212Y-43564083D01*
X136603015Y-43689485D01*
X136728417Y-43842288D01*
X136821599Y-44016620D01*
X136878980Y-44205781D01*
X136893500Y-44353207D01*
X136893500Y-44546794D01*
X136878980Y-44694220D01*
X136821599Y-44883381D01*
X136728417Y-45057712D01*
X136603015Y-45210515D01*
X136450212Y-45335917D01*
X136275880Y-45429099D01*
X136086719Y-45486480D01*
X135890000Y-45505855D01*
X135693280Y-45486480D01*
X135504119Y-45429099D01*
X135329788Y-45335917D01*
X135176985Y-45210515D01*
X135051583Y-45057712D01*
X134958401Y-44883380D01*
X134901020Y-44694219D01*
X134886500Y-44546793D01*
X134886500Y-44353206D01*
X134901020Y-44205780D01*
X134958401Y-44016619D01*
X135051583Y-43842288D01*
X135176985Y-43689485D01*
X135329788Y-43564083D01*
X135504120Y-43470901D01*
X135693281Y-43413520D01*
X135890000Y-43394145D01*
X136086720Y-43413520D01*
X136086720Y-43413520D01*
G37*
G36*
X133546720Y-43413520D02*
X133735881Y-43470901D01*
X133910212Y-43564083D01*
X134063015Y-43689485D01*
X134188417Y-43842288D01*
X134281599Y-44016620D01*
X134338980Y-44205781D01*
X134353500Y-44353207D01*
X134353500Y-44546794D01*
X134338980Y-44694220D01*
X134281599Y-44883381D01*
X134188417Y-45057712D01*
X134063015Y-45210515D01*
X133910212Y-45335917D01*
X133735880Y-45429099D01*
X133546719Y-45486480D01*
X133350000Y-45505855D01*
X133153280Y-45486480D01*
X132964119Y-45429099D01*
X132789788Y-45335917D01*
X132636985Y-45210515D01*
X132511583Y-45057712D01*
X132418401Y-44883380D01*
X132361020Y-44694219D01*
X132346500Y-44546793D01*
X132346500Y-44353206D01*
X132361020Y-44205780D01*
X132418401Y-44016619D01*
X132511583Y-43842288D01*
X132636985Y-43689485D01*
X132789788Y-43564083D01*
X132964120Y-43470901D01*
X133153281Y-43413520D01*
X133350000Y-43394145D01*
X133546720Y-43413520D01*
X133546720Y-43413520D01*
G37*
G36*
X139433500Y-45501000D02*
X137426500Y-45501000D01*
X137426500Y-43399000D01*
X139433500Y-43399000D01*
X139433500Y-45501000D01*
X139433500Y-45501000D01*
G37*
G36*
X115934442Y-43301518D02*
X116000627Y-43308037D01*
X116113853Y-43342384D01*
X116170467Y-43359557D01*
X116271423Y-43413520D01*
X116326991Y-43443222D01*
X116360718Y-43470901D01*
X116464186Y-43555814D01*
X116547448Y-43657271D01*
X116576778Y-43693009D01*
X116576779Y-43693011D01*
X116660443Y-43849533D01*
X116660443Y-43849534D01*
X116711963Y-44019373D01*
X116729359Y-44196000D01*
X116711963Y-44372627D01*
X116698952Y-44415519D01*
X116660443Y-44542467D01*
X116620370Y-44617437D01*
X116576778Y-44698991D01*
X116567930Y-44709772D01*
X116464186Y-44836186D01*
X116362729Y-44919448D01*
X116326991Y-44948778D01*
X116326989Y-44948779D01*
X116170467Y-45032443D01*
X116113853Y-45049616D01*
X116000627Y-45083963D01*
X115934442Y-45090482D01*
X115868260Y-45097000D01*
X115779740Y-45097000D01*
X115713557Y-45090481D01*
X115647373Y-45083963D01*
X115534147Y-45049616D01*
X115477533Y-45032443D01*
X115321011Y-44948779D01*
X115321009Y-44948778D01*
X115285271Y-44919448D01*
X115183814Y-44836186D01*
X115080070Y-44709772D01*
X115071222Y-44698991D01*
X115027630Y-44617437D01*
X114987557Y-44542467D01*
X114949048Y-44415519D01*
X114936037Y-44372627D01*
X114918641Y-44196000D01*
X114936037Y-44019373D01*
X114987557Y-43849534D01*
X114987557Y-43849533D01*
X115071221Y-43693011D01*
X115071222Y-43693009D01*
X115100552Y-43657271D01*
X115183814Y-43555814D01*
X115287282Y-43470901D01*
X115321009Y-43443222D01*
X115376577Y-43413520D01*
X115477533Y-43359557D01*
X115534147Y-43342384D01*
X115647373Y-43308037D01*
X115713558Y-43301518D01*
X115779740Y-43295000D01*
X115868260Y-43295000D01*
X115934442Y-43301518D01*
X115934442Y-43301518D01*
G37*
G36*
X113394442Y-43301518D02*
X113460627Y-43308037D01*
X113573853Y-43342384D01*
X113630467Y-43359557D01*
X113731423Y-43413520D01*
X113786991Y-43443222D01*
X113820718Y-43470901D01*
X113924186Y-43555814D01*
X114007448Y-43657271D01*
X114036778Y-43693009D01*
X114036779Y-43693011D01*
X114120443Y-43849533D01*
X114120443Y-43849534D01*
X114171963Y-44019373D01*
X114189359Y-44196000D01*
X114171963Y-44372627D01*
X114158952Y-44415519D01*
X114120443Y-44542467D01*
X114080370Y-44617437D01*
X114036778Y-44698991D01*
X114027930Y-44709772D01*
X113924186Y-44836186D01*
X113822729Y-44919448D01*
X113786991Y-44948778D01*
X113786989Y-44948779D01*
X113630467Y-45032443D01*
X113573853Y-45049616D01*
X113460627Y-45083963D01*
X113394442Y-45090482D01*
X113328260Y-45097000D01*
X113239740Y-45097000D01*
X113173557Y-45090481D01*
X113107373Y-45083963D01*
X112994147Y-45049616D01*
X112937533Y-45032443D01*
X112781011Y-44948779D01*
X112781009Y-44948778D01*
X112745271Y-44919448D01*
X112643814Y-44836186D01*
X112540070Y-44709772D01*
X112531222Y-44698991D01*
X112487630Y-44617437D01*
X112447557Y-44542467D01*
X112409048Y-44415519D01*
X112396037Y-44372627D01*
X112378641Y-44196000D01*
X112396037Y-44019373D01*
X112447557Y-43849534D01*
X112447557Y-43849533D01*
X112531221Y-43693011D01*
X112531222Y-43693009D01*
X112560552Y-43657271D01*
X112643814Y-43555814D01*
X112747282Y-43470901D01*
X112781009Y-43443222D01*
X112836577Y-43413520D01*
X112937533Y-43359557D01*
X112994147Y-43342384D01*
X113107373Y-43308037D01*
X113173558Y-43301518D01*
X113239740Y-43295000D01*
X113328260Y-43295000D01*
X113394442Y-43301518D01*
X113394442Y-43301518D01*
G37*
G36*
X111645000Y-45097000D02*
X109843000Y-45097000D01*
X109843000Y-43295000D01*
X111645000Y-43295000D01*
X111645000Y-45097000D01*
X111645000Y-45097000D01*
G37*
G36*
X96901200Y-44992490D02*
X93598800Y-44992490D01*
X93598800Y-42891510D01*
X96901200Y-42891510D01*
X96901200Y-44992490D01*
X96901200Y-44992490D01*
G37*
M02*
