G04 #@! TF.GenerationSoftware,KiCad,Pcbnew,5.0.2+dfsg1-1~bpo9+1*
G04 #@! TF.CreationDate,2020-07-13T10:59:22+01:00*
G04 #@! TF.ProjectId,esp8bit,65737038-6269-4742-9e6b-696361645f70,rev?*
G04 #@! TF.SameCoordinates,Original*
G04 #@! TF.FileFunction,Copper,L2,Bot*
G04 #@! TF.FilePolarity,Positive*
%FSLAX46Y46*%
G04 Gerber Fmt 4.6, Leading zero omitted, Abs format (unit mm)*
G04 Created by KiCad (PCBNEW 5.0.2+dfsg1-1~bpo9+1) date Mon 13 Jul 2020 10:59:22 IST*
%MOMM*%
%LPD*%
G01*
G04 APERTURE LIST*
G04 #@! TA.AperFunction,ComponentPad*
%ADD10C,5.400000*%
G04 #@! TD*
G04 #@! TA.AperFunction,ComponentPad*
%ADD11C,1.600000*%
G04 #@! TD*
G04 #@! TA.AperFunction,ComponentPad*
%ADD12O,1.600000X1.600000*%
G04 #@! TD*
G04 #@! TA.AperFunction,ComponentPad*
%ADD13R,1.600000X1.600000*%
G04 #@! TD*
G04 #@! TA.AperFunction,ComponentPad*
%ADD14R,1.700000X1.700000*%
G04 #@! TD*
G04 #@! TA.AperFunction,ComponentPad*
%ADD15O,1.700000X1.700000*%
G04 #@! TD*
G04 #@! TA.AperFunction,ComponentPad*
%ADD16C,1.440000*%
G04 #@! TD*
G04 #@! TA.AperFunction,ComponentPad*
%ADD17C,1.800000*%
G04 #@! TD*
G04 #@! TA.AperFunction,Conductor*
%ADD18C,0.250000*%
G04 #@! TD*
G04 #@! TA.AperFunction,Conductor*
%ADD19C,0.254000*%
G04 #@! TD*
G04 APERTURE END LIST*
D10*
G04 #@! TO.P,REF\002A\002A,1*
G04 #@! TO.N,N/C*
X159131000Y-86995000D03*
G04 #@! TD*
G04 #@! TO.P,REF\002A\002A,1*
G04 #@! TO.N,N/C*
X80264000Y-87122000D03*
G04 #@! TD*
G04 #@! TO.P,REF\002A\002A,1*
G04 #@! TO.N,N/C*
X159004000Y-44196000D03*
G04 #@! TD*
D11*
G04 #@! TO.P,R7,1*
G04 #@! TO.N,/SD_CS*
X151638000Y-54737000D03*
D12*
G04 #@! TO.P,R7,2*
G04 #@! TO.N,VCC*
X141478000Y-54737000D03*
G04 #@! TD*
D11*
G04 #@! TO.P,C3,2*
G04 #@! TO.N,Net-(C2-Pad1)*
X124936000Y-85979000D03*
D13*
G04 #@! TO.P,C3,1*
G04 #@! TO.N,Net-(C3-Pad1)*
X122936000Y-85979000D03*
G04 #@! TD*
G04 #@! TO.P,C4,1*
G04 #@! TO.N,Net-(C4-Pad1)*
X135763000Y-65405000D03*
D11*
G04 #@! TO.P,C4,2*
G04 #@! TO.N,Net-(C4-Pad2)*
X137763000Y-65405000D03*
G04 #@! TD*
G04 #@! TO.P,C5,2*
G04 #@! TO.N,GND*
X135160000Y-86233000D03*
D13*
G04 #@! TO.P,C5,1*
G04 #@! TO.N,Net-(C5-Pad1)*
X137160000Y-86233000D03*
G04 #@! TD*
G04 #@! TO.P,C7,1*
G04 #@! TO.N,Net-(C7-Pad1)*
X151130000Y-86106000D03*
D11*
G04 #@! TO.P,C7,2*
G04 #@! TO.N,Net-(C7-Pad2)*
X153130000Y-86106000D03*
G04 #@! TD*
G04 #@! TO.P,C2,1*
G04 #@! TO.N,Net-(C2-Pad1)*
X130464000Y-74552000D03*
G04 #@! TO.P,C2,2*
G04 #@! TO.N,GND*
X135464000Y-74552000D03*
G04 #@! TD*
G04 #@! TO.P,C6,2*
G04 #@! TO.N,GND*
X143082000Y-66802000D03*
G04 #@! TO.P,C6,1*
G04 #@! TO.N,Net-(C6-Pad1)*
X148082000Y-66802000D03*
G04 #@! TD*
G04 #@! TO.P,C1,1*
G04 #@! TO.N,Net-(C1-Pad1)*
X130464000Y-71502000D03*
G04 #@! TO.P,C1,2*
G04 #@! TO.N,GND*
X135464000Y-71502000D03*
G04 #@! TD*
D14*
G04 #@! TO.P,J6,1*
G04 #@! TO.N,GND*
X145288000Y-86360000D03*
D15*
G04 #@! TO.P,J6,2*
G04 #@! TO.N,Net-(C7-Pad1)*
X142748000Y-86360000D03*
G04 #@! TD*
D14*
G04 #@! TO.P,J4,1*
G04 #@! TO.N,VCC*
X101600000Y-86360000D03*
D15*
G04 #@! TO.P,J4,2*
G04 #@! TO.N,GND*
X99060000Y-86360000D03*
G04 #@! TO.P,J4,3*
G04 #@! TO.N,/KBD_DATA*
X96520000Y-86360000D03*
G04 #@! TO.P,J4,4*
G04 #@! TO.N,/KBD_CLK*
X93980000Y-86360000D03*
G04 #@! TD*
G04 #@! TO.P,J5,4*
G04 #@! TO.N,/KBD_CLK*
X87884000Y-81534000D03*
G04 #@! TO.P,J5,3*
G04 #@! TO.N,/LED*
X85344000Y-81534000D03*
G04 #@! TO.P,J5,2*
G04 #@! TO.N,VCC*
X87884000Y-78994000D03*
D14*
G04 #@! TO.P,J5,1*
G04 #@! TO.N,/LED*
X85344000Y-78994000D03*
G04 #@! TD*
G04 #@! TO.P,J2,1*
G04 #@! TO.N,/SD_RAM_CS*
X120396000Y-53340000D03*
D15*
G04 #@! TO.P,J2,2*
G04 #@! TO.N,/SD_CS*
X117856000Y-53340000D03*
G04 #@! TO.P,J2,3*
G04 #@! TO.N,/SD_RAM_CS*
X120396000Y-50800000D03*
G04 #@! TO.P,J2,4*
G04 #@! TO.N,/RAM_CS*
X117856000Y-50800000D03*
G04 #@! TD*
D12*
G04 #@! TO.P,U2,8*
G04 #@! TO.N,+3V3*
X135763000Y-47879000D03*
G04 #@! TO.P,U2,4*
G04 #@! TO.N,GND*
X125603000Y-55499000D03*
G04 #@! TO.P,U2,7*
G04 #@! TO.N,Net-(R3-Pad2)*
X135763000Y-50419000D03*
G04 #@! TO.P,U2,3*
G04 #@! TO.N,GND*
X125603000Y-52959000D03*
G04 #@! TO.P,U2,6*
G04 #@! TO.N,/SCK*
X135763000Y-52959000D03*
G04 #@! TO.P,U2,2*
G04 #@! TO.N,/MISO*
X125603000Y-50419000D03*
G04 #@! TO.P,U2,5*
G04 #@! TO.N,/MOSI*
X135763000Y-55499000D03*
D13*
G04 #@! TO.P,U2,1*
G04 #@! TO.N,/RAM_CS*
X125603000Y-47879000D03*
G04 #@! TD*
G04 #@! TO.P,U3,1*
G04 #@! TO.N,Net-(C4-Pad1)*
X140716000Y-70612000D03*
D12*
G04 #@! TO.P,U3,5*
G04 #@! TO.N,Net-(C7-Pad2)*
X150876000Y-78232000D03*
G04 #@! TO.P,U3,2*
G04 #@! TO.N,GND*
X140716000Y-73152000D03*
G04 #@! TO.P,U3,6*
G04 #@! TO.N,VCC*
X150876000Y-75692000D03*
G04 #@! TO.P,U3,3*
G04 #@! TO.N,Net-(R_POT1-Pad2)*
X140716000Y-75692000D03*
G04 #@! TO.P,U3,7*
G04 #@! TO.N,Net-(C5-Pad1)*
X150876000Y-73152000D03*
G04 #@! TO.P,U3,4*
G04 #@! TO.N,GND*
X140716000Y-78232000D03*
G04 #@! TO.P,U3,8*
G04 #@! TO.N,Net-(C4-Pad2)*
X150876000Y-70612000D03*
G04 #@! TD*
D16*
G04 #@! TO.P,R_POT1,3*
G04 #@! TO.N,GND*
X113665000Y-81280000D03*
G04 #@! TO.P,R_POT1,2*
G04 #@! TO.N,Net-(R_POT1-Pad2)*
X116205000Y-83820000D03*
G04 #@! TO.P,R_POT1,1*
G04 #@! TO.N,Net-(C3-Pad1)*
X113665000Y-86360000D03*
G04 #@! TD*
D11*
G04 #@! TO.P,R2,1*
G04 #@! TO.N,VCC*
X83312000Y-74422000D03*
D12*
G04 #@! TO.P,R2,2*
G04 #@! TO.N,/TFT_CS*
X83312000Y-64262000D03*
G04 #@! TD*
G04 #@! TO.P,R3,2*
G04 #@! TO.N,Net-(R3-Pad2)*
X151638000Y-47879000D03*
D11*
G04 #@! TO.P,R3,1*
G04 #@! TO.N,+3V3*
X141478000Y-47879000D03*
G04 #@! TD*
G04 #@! TO.P,R4,1*
G04 #@! TO.N,Net-(C1-Pad1)*
X126746000Y-71501000D03*
D12*
G04 #@! TO.P,R4,2*
G04 #@! TO.N,/Sound*
X116586000Y-71501000D03*
G04 #@! TD*
G04 #@! TO.P,R5,2*
G04 #@! TO.N,Net-(C1-Pad1)*
X126746000Y-74549000D03*
D11*
G04 #@! TO.P,R5,1*
G04 #@! TO.N,Net-(C2-Pad1)*
X116586000Y-74549000D03*
G04 #@! TD*
G04 #@! TO.P,R6,1*
G04 #@! TO.N,Net-(C7-Pad2)*
X155321000Y-80264000D03*
D12*
G04 #@! TO.P,R6,2*
G04 #@! TO.N,Net-(C6-Pad1)*
X155321000Y-70104000D03*
G04 #@! TD*
D14*
G04 #@! TO.P,J3,1*
G04 #@! TO.N,/SD_CS*
X160528000Y-61722000D03*
D15*
G04 #@! TO.P,J3,2*
G04 #@! TO.N,/MOSI*
X160528000Y-64262000D03*
G04 #@! TO.P,J3,3*
G04 #@! TO.N,/MISO*
X160528000Y-66802000D03*
G04 #@! TO.P,J3,4*
G04 #@! TO.N,/SCK*
X160528000Y-69342000D03*
G04 #@! TD*
G04 #@! TO.P,J1,14*
G04 #@! TO.N,/T_IRQ*
X78740000Y-82042000D03*
G04 #@! TO.P,J1,13*
G04 #@! TO.N,/T_OUT*
X78740000Y-79502000D03*
G04 #@! TO.P,J1,12*
G04 #@! TO.N,/T_DIN*
X78740000Y-76962000D03*
G04 #@! TO.P,J1,11*
G04 #@! TO.N,/T_CS*
X78740000Y-74422000D03*
G04 #@! TO.P,J1,10*
G04 #@! TO.N,/T_CLK*
X78740000Y-71882000D03*
G04 #@! TO.P,J1,9*
G04 #@! TO.N,/MISO*
X78740000Y-69342000D03*
G04 #@! TO.P,J1,8*
G04 #@! TO.N,/LED*
X78740000Y-66802000D03*
G04 #@! TO.P,J1,7*
G04 #@! TO.N,/SCK*
X78740000Y-64262000D03*
G04 #@! TO.P,J1,6*
G04 #@! TO.N,/MOSI*
X78740000Y-61722000D03*
G04 #@! TO.P,J1,5*
G04 #@! TO.N,/DC*
X78740000Y-59182000D03*
G04 #@! TO.P,J1,4*
G04 #@! TO.N,/Rst*
X78740000Y-56642000D03*
G04 #@! TO.P,J1,3*
G04 #@! TO.N,/TFT_CS*
X78740000Y-54102000D03*
G04 #@! TO.P,J1,2*
G04 #@! TO.N,GND*
X78740000Y-51562000D03*
D14*
G04 #@! TO.P,J1,1*
G04 #@! TO.N,VCC*
X78740000Y-49022000D03*
G04 #@! TD*
D11*
G04 #@! TO.P,R1,1*
G04 #@! TO.N,/RAM_CS*
X83312000Y-59182000D03*
D12*
G04 #@! TO.P,R1,2*
G04 #@! TO.N,VCC*
X83312000Y-49022000D03*
G04 #@! TD*
D17*
G04 #@! TO.P,U1,9*
G04 #@! TO.N,/Rst*
X87376000Y-67056000D03*
G04 #@! TO.P,U1,10*
G04 #@! TO.N,Net-(U1-Pad10)*
X87376000Y-64516000D03*
G04 #@! TO.P,U1,11*
G04 #@! TO.N,/SD_RAM_CS*
X87376000Y-61976000D03*
G04 #@! TO.P,U1,12*
G04 #@! TO.N,/SCK*
X87376000Y-59436000D03*
G04 #@! TO.P,U1,13*
G04 #@! TO.N,/MISO*
X87376000Y-56896000D03*
G04 #@! TO.P,U1,14*
G04 #@! TO.N,/MOSI*
X87376000Y-54356000D03*
G04 #@! TO.P,U1,15*
G04 #@! TO.N,/TFT_CS*
X87376000Y-51816000D03*
G04 #@! TO.P,U1,16*
G04 #@! TO.N,+3V3*
X87376000Y-49276000D03*
G04 #@! TO.P,U1,1*
G04 #@! TO.N,VCC*
X110236000Y-49276000D03*
G04 #@! TO.P,U1,2*
G04 #@! TO.N,GND*
X110236000Y-51816000D03*
G04 #@! TO.P,U1,3*
G04 #@! TO.N,/KBD_CLK*
X110236000Y-54356000D03*
G04 #@! TO.P,U1,4*
G04 #@! TO.N,/KBD_DATA*
X110236000Y-56896000D03*
G04 #@! TO.P,U1,5*
G04 #@! TO.N,/Sound*
X110236000Y-59436000D03*
G04 #@! TO.P,U1,6*
G04 #@! TO.N,/DC*
X110236000Y-61976000D03*
G04 #@! TO.P,U1,7*
G04 #@! TO.N,Net-(U1-Pad7)*
X110236000Y-64516000D03*
G04 #@! TO.P,U1,8*
G04 #@! TO.N,Net-(U1-Pad8)*
X110236000Y-67056000D03*
G04 #@! TD*
D10*
G04 #@! TO.P,REF\002A\002A,1*
G04 #@! TO.N,N/C*
X80391000Y-44069000D03*
G04 #@! TD*
D18*
G04 #@! TO.N,/Sound*
X110236000Y-59436000D02*
X116586000Y-65786000D01*
X116586000Y-65786000D02*
X116586000Y-71501000D01*
G04 #@! TO.N,/KBD_DATA*
X96520000Y-86360000D02*
X96520000Y-70612000D01*
X96520000Y-70612000D02*
X110236000Y-56896000D01*
G04 #@! TO.N,/KBD_CLK*
X87884000Y-81534000D02*
X87884000Y-80358700D01*
X110236000Y-54356000D02*
X89059300Y-75532700D01*
X89059300Y-75532700D02*
X89059300Y-79550800D01*
X89059300Y-79550800D02*
X88251400Y-80358700D01*
X88251400Y-80358700D02*
X87884000Y-80358700D01*
G04 #@! TO.N,GND*
X125603000Y-69342000D02*
X125603000Y-55499000D01*
X113665000Y-81280000D02*
X125603000Y-69342000D01*
X125603000Y-69342000D02*
X133304000Y-69342000D01*
X133304000Y-69342000D02*
X135464000Y-71502000D01*
X110236000Y-51816000D02*
X113919000Y-55499000D01*
X113919000Y-55499000D02*
X125603000Y-55499000D01*
X78740000Y-51562000D02*
X79915300Y-51562000D01*
X79915300Y-51562000D02*
X80931300Y-50546000D01*
X80931300Y-50546000D02*
X108966000Y-50546000D01*
X108966000Y-50546000D02*
X110236000Y-51816000D01*
X135464000Y-74552000D02*
X138947600Y-74552000D01*
X138947600Y-74552000D02*
X139590700Y-75195100D01*
X139590700Y-75195100D02*
X140508500Y-74277300D01*
X140508500Y-74277300D02*
X140716000Y-74277300D01*
X140716000Y-77106700D02*
X140434700Y-77106700D01*
X140434700Y-77106700D02*
X139590700Y-76262700D01*
X139590700Y-76262700D02*
X139590700Y-75195100D01*
X135464000Y-71502000D02*
X135464000Y-74552000D01*
X140716000Y-73152000D02*
X140716000Y-72026700D01*
X143082000Y-66802000D02*
X143082000Y-70364000D01*
X143082000Y-70364000D02*
X141419300Y-72026700D01*
X141419300Y-72026700D02*
X140716000Y-72026700D01*
X140716000Y-73152000D02*
X140716000Y-74277300D01*
X140716000Y-78232000D02*
X140716000Y-77106700D01*
G04 #@! TO.N,VCC*
X78740000Y-49022000D02*
X78740000Y-50197300D01*
X78740000Y-50197300D02*
X78372700Y-50197300D01*
X78372700Y-50197300D02*
X77108500Y-51461500D01*
X77108500Y-51461500D02*
X77108500Y-69383100D01*
X77108500Y-69383100D02*
X78337400Y-70612000D01*
X78337400Y-70612000D02*
X79502000Y-70612000D01*
X79502000Y-70612000D02*
X83312000Y-74422000D01*
X150876000Y-75692000D02*
X150876000Y-74566700D01*
X141478000Y-54737000D02*
X141478000Y-55862300D01*
X141478000Y-55862300D02*
X152001300Y-66385600D01*
X152001300Y-66385600D02*
X152001300Y-73722800D01*
X152001300Y-73722800D02*
X151157400Y-74566700D01*
X151157400Y-74566700D02*
X150876000Y-74566700D01*
X87884000Y-78994000D02*
X86708700Y-78994000D01*
X83312000Y-74422000D02*
X86708700Y-77818700D01*
X86708700Y-77818700D02*
X86708700Y-78994000D01*
G04 #@! TO.N,/TFT_CS*
X87376000Y-52097400D02*
X81919900Y-52097400D01*
X81919900Y-52097400D02*
X79915300Y-54102000D01*
X84437300Y-64262000D02*
X84437300Y-63136700D01*
X84437300Y-63136700D02*
X86868000Y-60706000D01*
X86868000Y-60706000D02*
X87842600Y-60706000D01*
X87842600Y-60706000D02*
X88613700Y-59934900D01*
X88613700Y-59934900D02*
X88613700Y-53335100D01*
X88613700Y-53335100D02*
X87376000Y-52097400D01*
X87376000Y-51816000D02*
X87376000Y-52097400D01*
X78740000Y-54102000D02*
X79915300Y-54102000D01*
X83312000Y-64262000D02*
X84437300Y-64262000D01*
G04 #@! TO.N,/MOSI*
X78740000Y-61722000D02*
X78740000Y-60546700D01*
X87376000Y-54356000D02*
X85830700Y-54356000D01*
X85830700Y-54356000D02*
X79640000Y-60546700D01*
X79640000Y-60546700D02*
X78740000Y-60546700D01*
G04 #@! TO.N,/MISO*
X78740000Y-69342000D02*
X78740000Y-68166700D01*
X87376000Y-56896000D02*
X84000400Y-56896000D01*
X84000400Y-56896000D02*
X81364200Y-59532200D01*
X81364200Y-59532200D02*
X81364200Y-60762000D01*
X81364200Y-60762000D02*
X79134200Y-62992000D01*
X79134200Y-62992000D02*
X78251200Y-62992000D01*
X78251200Y-62992000D02*
X77564700Y-63678500D01*
X77564700Y-63678500D02*
X77564700Y-67358800D01*
X77564700Y-67358800D02*
X78372600Y-68166700D01*
X78372600Y-68166700D02*
X78740000Y-68166700D01*
X126728300Y-50419000D02*
X127853600Y-51544300D01*
X127853600Y-51544300D02*
X144095000Y-51544300D01*
X144095000Y-51544300D02*
X159352700Y-66802000D01*
X160528000Y-66802000D02*
X159352700Y-66802000D01*
X125603000Y-50419000D02*
X126728300Y-50419000D01*
G04 #@! TO.N,/SCK*
X78740000Y-64262000D02*
X79915300Y-64262000D01*
X87376000Y-59436000D02*
X84741300Y-59436000D01*
X84741300Y-59436000D02*
X79915300Y-64262000D01*
X135763000Y-52959000D02*
X142969700Y-52959000D01*
X142969700Y-52959000D02*
X159352700Y-69342000D01*
X160528000Y-69342000D02*
X159352700Y-69342000D01*
G04 #@! TO.N,/SD_CS*
X117856000Y-53340000D02*
X119031300Y-53340000D01*
X151638000Y-54737000D02*
X146177100Y-49276100D01*
X146177100Y-49276100D02*
X125086900Y-49276100D01*
X125086900Y-49276100D02*
X122180400Y-52182600D01*
X122180400Y-52182600D02*
X122180400Y-53786400D01*
X122180400Y-53786400D02*
X121451500Y-54515300D01*
X121451500Y-54515300D02*
X119411200Y-54515300D01*
X119411200Y-54515300D02*
X119031300Y-54135400D01*
X119031300Y-54135400D02*
X119031300Y-53340000D01*
X160528000Y-61722000D02*
X158623000Y-61722000D01*
X158623000Y-61722000D02*
X151638000Y-54737000D01*
G04 #@! TO.N,/SD_RAM_CS*
X120396000Y-53340000D02*
X120396000Y-50800000D01*
G04 #@! TO.N,Net-(C7-Pad2)*
X155321000Y-80264000D02*
X153130000Y-82455000D01*
X153130000Y-82455000D02*
X153130000Y-86106000D01*
X150876000Y-78232000D02*
X153289000Y-78232000D01*
X153289000Y-78232000D02*
X155321000Y-80264000D01*
G04 #@! TO.N,Net-(C2-Pad1)*
X130464000Y-74552000D02*
X130464000Y-80451000D01*
X130464000Y-80451000D02*
X124936000Y-85979000D01*
G04 #@! TO.N,Net-(C4-Pad1)*
X140716000Y-70612000D02*
X140716000Y-69486700D01*
X140716000Y-69486700D02*
X139844700Y-69486700D01*
X139844700Y-69486700D02*
X135763000Y-65405000D01*
G04 #@! TO.N,Net-(C5-Pad1)*
X137160000Y-86233000D02*
X137160000Y-85107700D01*
X150876000Y-73152000D02*
X149750700Y-73152000D01*
X149750700Y-73152000D02*
X137795000Y-85107700D01*
X137795000Y-85107700D02*
X137160000Y-85107700D01*
G04 #@! TO.N,/RAM_CS*
X119031300Y-50800000D02*
X119031300Y-50432700D01*
X119031300Y-50432700D02*
X121585000Y-47879000D01*
X121585000Y-47879000D02*
X125603000Y-47879000D01*
X117856000Y-50800000D02*
X119031300Y-50800000D01*
G04 #@! TO.N,/LED*
X85344000Y-78994000D02*
X85344000Y-81534000D01*
G04 #@! TO.N,Net-(C7-Pad1)*
X151130000Y-86106000D02*
X150004700Y-86106000D01*
X142748000Y-86360000D02*
X143923300Y-86360000D01*
X143923300Y-86360000D02*
X143923300Y-85552000D01*
X143923300Y-85552000D02*
X144299300Y-85176000D01*
X144299300Y-85176000D02*
X149074700Y-85176000D01*
X149074700Y-85176000D02*
X150004700Y-86106000D01*
G04 #@! TD*
D19*
G04 #@! TO.N,GND*
G36*
X157114874Y-41368723D02*
X156176723Y-42306874D01*
X155669000Y-43532627D01*
X155669000Y-44859373D01*
X156176723Y-46085126D01*
X157114874Y-47023277D01*
X158340627Y-47531000D01*
X159667373Y-47531000D01*
X160893126Y-47023277D01*
X161831277Y-46085126D01*
X161850001Y-46039922D01*
X161850001Y-60435430D01*
X161835809Y-60414191D01*
X161625765Y-60273843D01*
X161378000Y-60224560D01*
X159678000Y-60224560D01*
X159430235Y-60273843D01*
X159220191Y-60414191D01*
X159079843Y-60624235D01*
X159030560Y-60872000D01*
X159030560Y-60962000D01*
X158937802Y-60962000D01*
X153051103Y-55075302D01*
X153073000Y-55022439D01*
X153073000Y-54451561D01*
X152854534Y-53924138D01*
X152450862Y-53520466D01*
X151923439Y-53302000D01*
X151352561Y-53302000D01*
X151299698Y-53323896D01*
X146767431Y-48791630D01*
X146725029Y-48728171D01*
X146473637Y-48560196D01*
X146251952Y-48516100D01*
X146251947Y-48516100D01*
X146177100Y-48501212D01*
X146102253Y-48516100D01*
X142767337Y-48516100D01*
X142913000Y-48164439D01*
X142913000Y-47879000D01*
X150174887Y-47879000D01*
X150286260Y-48438909D01*
X150603423Y-48913577D01*
X151078091Y-49230740D01*
X151496667Y-49314000D01*
X151779333Y-49314000D01*
X152197909Y-49230740D01*
X152672577Y-48913577D01*
X152989740Y-48438909D01*
X153101113Y-47879000D01*
X152989740Y-47319091D01*
X152672577Y-46844423D01*
X152197909Y-46527260D01*
X151779333Y-46444000D01*
X151496667Y-46444000D01*
X151078091Y-46527260D01*
X150603423Y-46844423D01*
X150286260Y-47319091D01*
X150174887Y-47879000D01*
X142913000Y-47879000D01*
X142913000Y-47593561D01*
X142694534Y-47066138D01*
X142290862Y-46662466D01*
X141763439Y-46444000D01*
X141192561Y-46444000D01*
X140665138Y-46662466D01*
X140261466Y-47066138D01*
X140043000Y-47593561D01*
X140043000Y-48164439D01*
X140188663Y-48516100D01*
X137063163Y-48516100D01*
X137114740Y-48438909D01*
X137226113Y-47879000D01*
X137114740Y-47319091D01*
X136797577Y-46844423D01*
X136322909Y-46527260D01*
X135904333Y-46444000D01*
X135621667Y-46444000D01*
X135203091Y-46527260D01*
X134728423Y-46844423D01*
X134411260Y-47319091D01*
X134299887Y-47879000D01*
X134411260Y-48438909D01*
X134462837Y-48516100D01*
X127050440Y-48516100D01*
X127050440Y-47079000D01*
X127001157Y-46831235D01*
X126860809Y-46621191D01*
X126650765Y-46480843D01*
X126403000Y-46431560D01*
X124803000Y-46431560D01*
X124555235Y-46480843D01*
X124345191Y-46621191D01*
X124204843Y-46831235D01*
X124155560Y-47079000D01*
X124155560Y-47119000D01*
X121659846Y-47119000D01*
X121584999Y-47104112D01*
X121510152Y-47119000D01*
X121510148Y-47119000D01*
X121288463Y-47163096D01*
X121037071Y-47331071D01*
X120994671Y-47394527D01*
X118766689Y-49622509D01*
X118435418Y-49401161D01*
X118002256Y-49315000D01*
X117709744Y-49315000D01*
X117276582Y-49401161D01*
X116785375Y-49729375D01*
X116457161Y-50220582D01*
X116341908Y-50800000D01*
X116457161Y-51379418D01*
X116785375Y-51870625D01*
X117083761Y-52070000D01*
X116785375Y-52269375D01*
X116457161Y-52760582D01*
X116341908Y-53340000D01*
X116457161Y-53919418D01*
X116785375Y-54410625D01*
X117276582Y-54738839D01*
X117709744Y-54825000D01*
X118002256Y-54825000D01*
X118435418Y-54738839D01*
X118500933Y-54695063D01*
X118546830Y-54725731D01*
X118820869Y-54999770D01*
X118863271Y-55063229D01*
X119003609Y-55157000D01*
X119114662Y-55231204D01*
X119162805Y-55240780D01*
X119336348Y-55275300D01*
X119336352Y-55275300D01*
X119411200Y-55290188D01*
X119486048Y-55275300D01*
X121376653Y-55275300D01*
X121451500Y-55290188D01*
X121526347Y-55275300D01*
X121526352Y-55275300D01*
X121748037Y-55231204D01*
X121999429Y-55063229D01*
X122041831Y-54999770D01*
X122664873Y-54376729D01*
X122728329Y-54334329D01*
X122896304Y-54082937D01*
X122940400Y-53861252D01*
X122940400Y-53861248D01*
X122955288Y-53786401D01*
X122940400Y-53711554D01*
X122940400Y-53308039D01*
X124211096Y-53308039D01*
X124371959Y-53696423D01*
X124747866Y-54111389D01*
X124996367Y-54229000D01*
X124747866Y-54346611D01*
X124371959Y-54761577D01*
X124211096Y-55149961D01*
X124333085Y-55372000D01*
X125476000Y-55372000D01*
X125476000Y-53086000D01*
X125730000Y-53086000D01*
X125730000Y-55372000D01*
X126872915Y-55372000D01*
X126994904Y-55149961D01*
X126834041Y-54761577D01*
X126458134Y-54346611D01*
X126209633Y-54229000D01*
X126458134Y-54111389D01*
X126834041Y-53696423D01*
X126994904Y-53308039D01*
X126872915Y-53086000D01*
X125730000Y-53086000D01*
X125476000Y-53086000D01*
X124333085Y-53086000D01*
X124211096Y-53308039D01*
X122940400Y-53308039D01*
X122940400Y-52497401D01*
X124334426Y-51103376D01*
X124568423Y-51453577D01*
X124952108Y-51709947D01*
X124747866Y-51806611D01*
X124371959Y-52221577D01*
X124211096Y-52609961D01*
X124333085Y-52832000D01*
X125476000Y-52832000D01*
X125476000Y-52812000D01*
X125730000Y-52812000D01*
X125730000Y-52832000D01*
X126872915Y-52832000D01*
X126994904Y-52609961D01*
X126834041Y-52221577D01*
X126458134Y-51806611D01*
X126253892Y-51709947D01*
X126637577Y-51453577D01*
X126657804Y-51423305D01*
X127263270Y-52028772D01*
X127305671Y-52092229D01*
X127557063Y-52260204D01*
X127778748Y-52304300D01*
X127778752Y-52304300D01*
X127853600Y-52319188D01*
X127928448Y-52304300D01*
X134474597Y-52304300D01*
X134411260Y-52399091D01*
X134299887Y-52959000D01*
X134411260Y-53518909D01*
X134728423Y-53993577D01*
X135080758Y-54229000D01*
X134728423Y-54464423D01*
X134411260Y-54939091D01*
X134299887Y-55499000D01*
X134411260Y-56058909D01*
X134728423Y-56533577D01*
X135203091Y-56850740D01*
X135621667Y-56934000D01*
X135904333Y-56934000D01*
X136322909Y-56850740D01*
X136797577Y-56533577D01*
X137114740Y-56058909D01*
X137226113Y-55499000D01*
X137114740Y-54939091D01*
X136797577Y-54464423D01*
X136445242Y-54229000D01*
X136797577Y-53993577D01*
X136981043Y-53719000D01*
X140432347Y-53719000D01*
X140126260Y-54177091D01*
X140014887Y-54737000D01*
X140126260Y-55296909D01*
X140443423Y-55771577D01*
X140722106Y-55957787D01*
X140762097Y-56158837D01*
X140930072Y-56410229D01*
X140993528Y-56452629D01*
X151241300Y-66700402D01*
X151241300Y-69221550D01*
X151017333Y-69177000D01*
X150734667Y-69177000D01*
X150316091Y-69260260D01*
X149841423Y-69577423D01*
X149524260Y-70052091D01*
X149412887Y-70612000D01*
X149524260Y-71171909D01*
X149841423Y-71646577D01*
X150193758Y-71882000D01*
X149841423Y-72117423D01*
X149655214Y-72396104D01*
X149454163Y-72436096D01*
X149202771Y-72604071D01*
X149160371Y-72667527D01*
X137480199Y-84347700D01*
X137234852Y-84347700D01*
X137160000Y-84332811D01*
X137085148Y-84347700D01*
X136863463Y-84391796D01*
X136612071Y-84559771D01*
X136461203Y-84785560D01*
X136360000Y-84785560D01*
X136112235Y-84834843D01*
X135902484Y-84974995D01*
X135376777Y-84786035D01*
X134806546Y-84813222D01*
X134405995Y-84979136D01*
X134331861Y-85225255D01*
X135160000Y-86053395D01*
X135174142Y-86039252D01*
X135353748Y-86218858D01*
X135339605Y-86233000D01*
X135353748Y-86247143D01*
X135174142Y-86426748D01*
X135160000Y-86412605D01*
X134331861Y-87240745D01*
X134405995Y-87486864D01*
X134943223Y-87679965D01*
X135513454Y-87652778D01*
X135903067Y-87491395D01*
X136112235Y-87631157D01*
X136360000Y-87680440D01*
X137960000Y-87680440D01*
X138207765Y-87631157D01*
X138417809Y-87490809D01*
X138558157Y-87280765D01*
X138607440Y-87033000D01*
X138607440Y-85433000D01*
X138596998Y-85380503D01*
X149821196Y-74156306D01*
X149841423Y-74186577D01*
X150137386Y-74384333D01*
X150120104Y-74471214D01*
X149841423Y-74657423D01*
X149524260Y-75132091D01*
X149412887Y-75692000D01*
X149524260Y-76251909D01*
X149841423Y-76726577D01*
X150193758Y-76962000D01*
X149841423Y-77197423D01*
X149524260Y-77672091D01*
X149412887Y-78232000D01*
X149524260Y-78791909D01*
X149841423Y-79266577D01*
X150316091Y-79583740D01*
X150734667Y-79667000D01*
X151017333Y-79667000D01*
X151435909Y-79583740D01*
X151910577Y-79266577D01*
X152094043Y-78992000D01*
X152974199Y-78992000D01*
X153907897Y-79925698D01*
X153886000Y-79978561D01*
X153886000Y-80549439D01*
X153907897Y-80602302D01*
X152645530Y-81864669D01*
X152582071Y-81907071D01*
X152414096Y-82158464D01*
X152370000Y-82380149D01*
X152370000Y-82380153D01*
X152355112Y-82455000D01*
X152370000Y-82529847D01*
X152370001Y-84836292D01*
X152177765Y-84707843D01*
X151930000Y-84658560D01*
X150330000Y-84658560D01*
X150082235Y-84707843D01*
X149872191Y-84848191D01*
X149851964Y-84878463D01*
X149665031Y-84691530D01*
X149622629Y-84628071D01*
X149371237Y-84460096D01*
X149149552Y-84416000D01*
X149149547Y-84416000D01*
X149074700Y-84401112D01*
X148999853Y-84416000D01*
X144374146Y-84416000D01*
X144299299Y-84401112D01*
X144224452Y-84416000D01*
X144224448Y-84416000D01*
X144002763Y-84460096D01*
X143751371Y-84628071D01*
X143708971Y-84691528D01*
X143438827Y-84961671D01*
X143383505Y-84998637D01*
X143327418Y-84961161D01*
X142894256Y-84875000D01*
X142601744Y-84875000D01*
X142168582Y-84961161D01*
X141677375Y-85289375D01*
X141349161Y-85780582D01*
X141233908Y-86360000D01*
X141349161Y-86939418D01*
X141677375Y-87430625D01*
X142168582Y-87758839D01*
X142601744Y-87845000D01*
X142894256Y-87845000D01*
X143327418Y-87758839D01*
X143818625Y-87430625D01*
X143833096Y-87408967D01*
X143899673Y-87569698D01*
X144078301Y-87748327D01*
X144311690Y-87845000D01*
X145002250Y-87845000D01*
X145161000Y-87686250D01*
X145161000Y-86487000D01*
X145415000Y-86487000D01*
X145415000Y-87686250D01*
X145573750Y-87845000D01*
X146264310Y-87845000D01*
X146497699Y-87748327D01*
X146676327Y-87569698D01*
X146773000Y-87336309D01*
X146773000Y-86645750D01*
X146614250Y-86487000D01*
X145415000Y-86487000D01*
X145161000Y-86487000D01*
X145141000Y-86487000D01*
X145141000Y-86233000D01*
X145161000Y-86233000D01*
X145161000Y-86213000D01*
X145415000Y-86213000D01*
X145415000Y-86233000D01*
X146614250Y-86233000D01*
X146773000Y-86074250D01*
X146773000Y-85936000D01*
X148759899Y-85936000D01*
X149414371Y-86590473D01*
X149456771Y-86653929D01*
X149682560Y-86804797D01*
X149682560Y-86906000D01*
X149731843Y-87153765D01*
X149872191Y-87363809D01*
X150082235Y-87504157D01*
X150330000Y-87553440D01*
X151930000Y-87553440D01*
X152177765Y-87504157D01*
X152387809Y-87363809D01*
X152394090Y-87354409D01*
X152844561Y-87541000D01*
X153415439Y-87541000D01*
X153942862Y-87322534D01*
X154346534Y-86918862D01*
X154565000Y-86391439D01*
X154565000Y-85820561D01*
X154346534Y-85293138D01*
X153942862Y-84889466D01*
X153890000Y-84867570D01*
X153890000Y-82769801D01*
X154982698Y-81677103D01*
X155035561Y-81699000D01*
X155606439Y-81699000D01*
X156133862Y-81480534D01*
X156537534Y-81076862D01*
X156756000Y-80549439D01*
X156756000Y-79978561D01*
X156537534Y-79451138D01*
X156133862Y-79047466D01*
X155606439Y-78829000D01*
X155035561Y-78829000D01*
X154982698Y-78850897D01*
X153879331Y-77747530D01*
X153836929Y-77684071D01*
X153585537Y-77516096D01*
X153363852Y-77472000D01*
X153363847Y-77472000D01*
X153289000Y-77457112D01*
X153214153Y-77472000D01*
X152094043Y-77472000D01*
X151910577Y-77197423D01*
X151558242Y-76962000D01*
X151910577Y-76726577D01*
X152227740Y-76251909D01*
X152339113Y-75692000D01*
X152227740Y-75132091D01*
X152003063Y-74795838D01*
X152485773Y-74313129D01*
X152549229Y-74270729D01*
X152605458Y-74186577D01*
X152717204Y-74019338D01*
X152733477Y-73937527D01*
X152761300Y-73797652D01*
X152761300Y-73797648D01*
X152776188Y-73722800D01*
X152761300Y-73647952D01*
X152761300Y-70104000D01*
X153857887Y-70104000D01*
X153969260Y-70663909D01*
X154286423Y-71138577D01*
X154761091Y-71455740D01*
X155179667Y-71539000D01*
X155462333Y-71539000D01*
X155880909Y-71455740D01*
X156355577Y-71138577D01*
X156672740Y-70663909D01*
X156784113Y-70104000D01*
X156672740Y-69544091D01*
X156355577Y-69069423D01*
X155880909Y-68752260D01*
X155462333Y-68669000D01*
X155179667Y-68669000D01*
X154761091Y-68752260D01*
X154286423Y-69069423D01*
X153969260Y-69544091D01*
X153857887Y-70104000D01*
X152761300Y-70104000D01*
X152761300Y-66460448D01*
X152776188Y-66385600D01*
X152761300Y-66310752D01*
X152761300Y-66310748D01*
X152717204Y-66089063D01*
X152549229Y-65837671D01*
X152485773Y-65795271D01*
X142482305Y-55791804D01*
X142512577Y-55771577D01*
X142829740Y-55296909D01*
X142941113Y-54737000D01*
X142829740Y-54177091D01*
X142523653Y-53719000D01*
X142654899Y-53719000D01*
X158762371Y-69826473D01*
X158804771Y-69889929D01*
X158868227Y-69932329D01*
X159056162Y-70057904D01*
X159096864Y-70066000D01*
X159245526Y-70095571D01*
X159457375Y-70412625D01*
X159948582Y-70740839D01*
X160381744Y-70827000D01*
X160674256Y-70827000D01*
X161107418Y-70740839D01*
X161598625Y-70412625D01*
X161850000Y-70036415D01*
X161850000Y-84997597D01*
X161020126Y-84167723D01*
X159794373Y-83660000D01*
X158467627Y-83660000D01*
X157241874Y-84167723D01*
X156303723Y-85105874D01*
X155796000Y-86331627D01*
X155796000Y-87658373D01*
X156303723Y-88884126D01*
X157241874Y-89822277D01*
X157593681Y-89968000D01*
X82107925Y-89968000D01*
X82153126Y-89949277D01*
X83091277Y-89011126D01*
X83599000Y-87785373D01*
X83599000Y-86458627D01*
X83091277Y-85232874D01*
X82153126Y-84294723D01*
X80927373Y-83787000D01*
X79600627Y-83787000D01*
X78374874Y-84294723D01*
X77436723Y-85232874D01*
X77418000Y-85278075D01*
X77418000Y-82736416D01*
X77669375Y-83112625D01*
X78160582Y-83440839D01*
X78593744Y-83527000D01*
X78886256Y-83527000D01*
X79319418Y-83440839D01*
X79810625Y-83112625D01*
X80138839Y-82621418D01*
X80254092Y-82042000D01*
X80138839Y-81462582D01*
X79810625Y-80971375D01*
X79512239Y-80772000D01*
X79810625Y-80572625D01*
X80138839Y-80081418D01*
X80254092Y-79502000D01*
X80138839Y-78922582D01*
X79810625Y-78431375D01*
X79512239Y-78232000D01*
X79810625Y-78032625D01*
X80138839Y-77541418D01*
X80254092Y-76962000D01*
X80138839Y-76382582D01*
X79810625Y-75891375D01*
X79512239Y-75692000D01*
X79810625Y-75492625D01*
X80138839Y-75001418D01*
X80254092Y-74422000D01*
X80138839Y-73842582D01*
X79810625Y-73351375D01*
X79512239Y-73152000D01*
X79810625Y-72952625D01*
X80138839Y-72461418D01*
X80161698Y-72346499D01*
X81898896Y-74083698D01*
X81877000Y-74136561D01*
X81877000Y-74707439D01*
X82095466Y-75234862D01*
X82499138Y-75638534D01*
X83026561Y-75857000D01*
X83597439Y-75857000D01*
X83650302Y-75835103D01*
X85311758Y-77496560D01*
X84494000Y-77496560D01*
X84246235Y-77545843D01*
X84036191Y-77686191D01*
X83895843Y-77896235D01*
X83846560Y-78144000D01*
X83846560Y-79844000D01*
X83895843Y-80091765D01*
X84036191Y-80301809D01*
X84246235Y-80442157D01*
X84291619Y-80451184D01*
X84273375Y-80463375D01*
X83945161Y-80954582D01*
X83829908Y-81534000D01*
X83945161Y-82113418D01*
X84273375Y-82604625D01*
X84764582Y-82932839D01*
X85197744Y-83019000D01*
X85490256Y-83019000D01*
X85923418Y-82932839D01*
X86414625Y-82604625D01*
X86614000Y-82306239D01*
X86813375Y-82604625D01*
X87304582Y-82932839D01*
X87737744Y-83019000D01*
X88030256Y-83019000D01*
X88463418Y-82932839D01*
X88954625Y-82604625D01*
X89282839Y-82113418D01*
X89398092Y-81534000D01*
X89282839Y-80954582D01*
X89061531Y-80623371D01*
X89543773Y-80141129D01*
X89607229Y-80098729D01*
X89775204Y-79847337D01*
X89819300Y-79625652D01*
X89819300Y-79625648D01*
X89834188Y-79550801D01*
X89819300Y-79475954D01*
X89819300Y-75847501D01*
X108701000Y-56965803D01*
X108701000Y-57201330D01*
X108746360Y-57310838D01*
X96035528Y-70021671D01*
X95972072Y-70064071D01*
X95929672Y-70127527D01*
X95929671Y-70127528D01*
X95804097Y-70315463D01*
X95745112Y-70612000D01*
X95760001Y-70686851D01*
X95760000Y-85081822D01*
X95449375Y-85289375D01*
X95250000Y-85587761D01*
X95050625Y-85289375D01*
X94559418Y-84961161D01*
X94126256Y-84875000D01*
X93833744Y-84875000D01*
X93400582Y-84961161D01*
X92909375Y-85289375D01*
X92581161Y-85780582D01*
X92465908Y-86360000D01*
X92581161Y-86939418D01*
X92909375Y-87430625D01*
X93400582Y-87758839D01*
X93833744Y-87845000D01*
X94126256Y-87845000D01*
X94559418Y-87758839D01*
X95050625Y-87430625D01*
X95250000Y-87132239D01*
X95449375Y-87430625D01*
X95940582Y-87758839D01*
X96373744Y-87845000D01*
X96666256Y-87845000D01*
X97099418Y-87758839D01*
X97590625Y-87430625D01*
X97803843Y-87111522D01*
X97864817Y-87241358D01*
X98293076Y-87631645D01*
X98703110Y-87801476D01*
X98933000Y-87680155D01*
X98933000Y-86487000D01*
X98913000Y-86487000D01*
X98913000Y-86233000D01*
X98933000Y-86233000D01*
X98933000Y-85039845D01*
X99187000Y-85039845D01*
X99187000Y-86233000D01*
X99207000Y-86233000D01*
X99207000Y-86487000D01*
X99187000Y-86487000D01*
X99187000Y-87680155D01*
X99416890Y-87801476D01*
X99826924Y-87631645D01*
X100131261Y-87354292D01*
X100151843Y-87457765D01*
X100292191Y-87667809D01*
X100502235Y-87808157D01*
X100750000Y-87857440D01*
X102450000Y-87857440D01*
X102697765Y-87808157D01*
X102907809Y-87667809D01*
X103048157Y-87457765D01*
X103097440Y-87210000D01*
X103097440Y-86090474D01*
X112310000Y-86090474D01*
X112310000Y-86629526D01*
X112516286Y-87127546D01*
X112897454Y-87508714D01*
X113395474Y-87715000D01*
X113934526Y-87715000D01*
X114432546Y-87508714D01*
X114813714Y-87127546D01*
X115020000Y-86629526D01*
X115020000Y-86090474D01*
X114813714Y-85592454D01*
X114432546Y-85211286D01*
X114354601Y-85179000D01*
X121488560Y-85179000D01*
X121488560Y-86779000D01*
X121537843Y-87026765D01*
X121678191Y-87236809D01*
X121888235Y-87377157D01*
X122136000Y-87426440D01*
X123736000Y-87426440D01*
X123983765Y-87377157D01*
X124193809Y-87236809D01*
X124200090Y-87227409D01*
X124650561Y-87414000D01*
X125221439Y-87414000D01*
X125748862Y-87195534D01*
X126152534Y-86791862D01*
X126371000Y-86264439D01*
X126371000Y-86016223D01*
X133713035Y-86016223D01*
X133740222Y-86586454D01*
X133906136Y-86987005D01*
X134152255Y-87061139D01*
X134980395Y-86233000D01*
X134152255Y-85404861D01*
X133906136Y-85478995D01*
X133713035Y-86016223D01*
X126371000Y-86016223D01*
X126371000Y-85693561D01*
X126349103Y-85640698D01*
X130948473Y-81041329D01*
X131011929Y-80998929D01*
X131179904Y-80747537D01*
X131224000Y-80525852D01*
X131224000Y-80525848D01*
X131238888Y-80451000D01*
X131224000Y-80376152D01*
X131224000Y-78581039D01*
X139324096Y-78581039D01*
X139484959Y-78969423D01*
X139860866Y-79384389D01*
X140366959Y-79623914D01*
X140589000Y-79502629D01*
X140589000Y-78359000D01*
X140843000Y-78359000D01*
X140843000Y-79502629D01*
X141065041Y-79623914D01*
X141571134Y-79384389D01*
X141947041Y-78969423D01*
X142107904Y-78581039D01*
X141985915Y-78359000D01*
X140843000Y-78359000D01*
X140589000Y-78359000D01*
X139446085Y-78359000D01*
X139324096Y-78581039D01*
X131224000Y-78581039D01*
X131224000Y-75790430D01*
X131276862Y-75768534D01*
X131485651Y-75559745D01*
X134635861Y-75559745D01*
X134709995Y-75805864D01*
X135247223Y-75998965D01*
X135817454Y-75971778D01*
X136218005Y-75805864D01*
X136252302Y-75692000D01*
X139252887Y-75692000D01*
X139364260Y-76251909D01*
X139681423Y-76726577D01*
X140065108Y-76982947D01*
X139860866Y-77079611D01*
X139484959Y-77494577D01*
X139324096Y-77882961D01*
X139446085Y-78105000D01*
X140589000Y-78105000D01*
X140589000Y-78085000D01*
X140843000Y-78085000D01*
X140843000Y-78105000D01*
X141985915Y-78105000D01*
X142107904Y-77882961D01*
X141947041Y-77494577D01*
X141571134Y-77079611D01*
X141366892Y-76982947D01*
X141750577Y-76726577D01*
X142067740Y-76251909D01*
X142179113Y-75692000D01*
X142067740Y-75132091D01*
X141750577Y-74657423D01*
X141366892Y-74401053D01*
X141571134Y-74304389D01*
X141947041Y-73889423D01*
X142107904Y-73501039D01*
X141985915Y-73279000D01*
X140843000Y-73279000D01*
X140843000Y-73299000D01*
X140589000Y-73299000D01*
X140589000Y-73279000D01*
X139446085Y-73279000D01*
X139324096Y-73501039D01*
X139484959Y-73889423D01*
X139860866Y-74304389D01*
X140065108Y-74401053D01*
X139681423Y-74657423D01*
X139364260Y-75132091D01*
X139252887Y-75692000D01*
X136252302Y-75692000D01*
X136292139Y-75559745D01*
X135464000Y-74731605D01*
X134635861Y-75559745D01*
X131485651Y-75559745D01*
X131680534Y-75364862D01*
X131899000Y-74837439D01*
X131899000Y-74335223D01*
X134017035Y-74335223D01*
X134044222Y-74905454D01*
X134210136Y-75306005D01*
X134456255Y-75380139D01*
X135284395Y-74552000D01*
X135643605Y-74552000D01*
X136471745Y-75380139D01*
X136717864Y-75306005D01*
X136910965Y-74768777D01*
X136883778Y-74198546D01*
X136717864Y-73797995D01*
X136471745Y-73723861D01*
X135643605Y-74552000D01*
X135284395Y-74552000D01*
X134456255Y-73723861D01*
X134210136Y-73797995D01*
X134017035Y-74335223D01*
X131899000Y-74335223D01*
X131899000Y-74266561D01*
X131680534Y-73739138D01*
X131485651Y-73544255D01*
X134635861Y-73544255D01*
X135464000Y-74372395D01*
X136292139Y-73544255D01*
X136218005Y-73298136D01*
X135680777Y-73105035D01*
X135110546Y-73132222D01*
X134709995Y-73298136D01*
X134635861Y-73544255D01*
X131485651Y-73544255D01*
X131276862Y-73335466D01*
X130749439Y-73117000D01*
X130178561Y-73117000D01*
X129651138Y-73335466D01*
X129247466Y-73739138D01*
X129029000Y-74266561D01*
X129029000Y-74837439D01*
X129247466Y-75364862D01*
X129651138Y-75768534D01*
X129704000Y-75790430D01*
X129704001Y-80136197D01*
X125274302Y-84565897D01*
X125221439Y-84544000D01*
X124650561Y-84544000D01*
X124200090Y-84730591D01*
X124193809Y-84721191D01*
X123983765Y-84580843D01*
X123736000Y-84531560D01*
X122136000Y-84531560D01*
X121888235Y-84580843D01*
X121678191Y-84721191D01*
X121537843Y-84931235D01*
X121488560Y-85179000D01*
X114354601Y-85179000D01*
X113934526Y-85005000D01*
X113395474Y-85005000D01*
X112897454Y-85211286D01*
X112516286Y-85592454D01*
X112310000Y-86090474D01*
X103097440Y-86090474D01*
X103097440Y-85510000D01*
X103048157Y-85262235D01*
X102907809Y-85052191D01*
X102697765Y-84911843D01*
X102450000Y-84862560D01*
X100750000Y-84862560D01*
X100502235Y-84911843D01*
X100292191Y-85052191D01*
X100151843Y-85262235D01*
X100131261Y-85365708D01*
X99826924Y-85088355D01*
X99416890Y-84918524D01*
X99187000Y-85039845D01*
X98933000Y-85039845D01*
X98703110Y-84918524D01*
X98293076Y-85088355D01*
X97864817Y-85478642D01*
X97803843Y-85608478D01*
X97590625Y-85289375D01*
X97280000Y-85081822D01*
X97280000Y-83550474D01*
X114850000Y-83550474D01*
X114850000Y-84089526D01*
X115056286Y-84587546D01*
X115437454Y-84968714D01*
X115935474Y-85175000D01*
X116474526Y-85175000D01*
X116972546Y-84968714D01*
X117353714Y-84587546D01*
X117560000Y-84089526D01*
X117560000Y-83550474D01*
X117353714Y-83052454D01*
X116972546Y-82671286D01*
X116474526Y-82465000D01*
X115935474Y-82465000D01*
X115437454Y-82671286D01*
X115056286Y-83052454D01*
X114850000Y-83550474D01*
X97280000Y-83550474D01*
X97280000Y-82229774D01*
X112894831Y-82229774D01*
X112959131Y-82467611D01*
X113467342Y-82647333D01*
X114005644Y-82618892D01*
X114370869Y-82467611D01*
X114435169Y-82229774D01*
X113665000Y-81459605D01*
X112894831Y-82229774D01*
X97280000Y-82229774D01*
X97280000Y-81082342D01*
X112297667Y-81082342D01*
X112326108Y-81620644D01*
X112477389Y-81985869D01*
X112715226Y-82050169D01*
X113485395Y-81280000D01*
X113844605Y-81280000D01*
X114614774Y-82050169D01*
X114852611Y-81985869D01*
X115032333Y-81477658D01*
X115003892Y-80939356D01*
X114852611Y-80574131D01*
X114614774Y-80509831D01*
X113844605Y-81280000D01*
X113485395Y-81280000D01*
X112715226Y-80509831D01*
X112477389Y-80574131D01*
X112297667Y-81082342D01*
X97280000Y-81082342D01*
X97280000Y-80330226D01*
X112894831Y-80330226D01*
X113665000Y-81100395D01*
X114435169Y-80330226D01*
X114370869Y-80092389D01*
X113862658Y-79912667D01*
X113324356Y-79941108D01*
X112959131Y-80092389D01*
X112894831Y-80330226D01*
X97280000Y-80330226D01*
X97280000Y-74263561D01*
X115151000Y-74263561D01*
X115151000Y-74834439D01*
X115369466Y-75361862D01*
X115773138Y-75765534D01*
X116300561Y-75984000D01*
X116871439Y-75984000D01*
X117398862Y-75765534D01*
X117802534Y-75361862D01*
X118021000Y-74834439D01*
X118021000Y-74549000D01*
X125282887Y-74549000D01*
X125394260Y-75108909D01*
X125711423Y-75583577D01*
X126186091Y-75900740D01*
X126604667Y-75984000D01*
X126887333Y-75984000D01*
X127305909Y-75900740D01*
X127780577Y-75583577D01*
X128097740Y-75108909D01*
X128209113Y-74549000D01*
X128097740Y-73989091D01*
X127780577Y-73514423D01*
X127305909Y-73197260D01*
X126887333Y-73114000D01*
X126604667Y-73114000D01*
X126186091Y-73197260D01*
X125711423Y-73514423D01*
X125394260Y-73989091D01*
X125282887Y-74549000D01*
X118021000Y-74549000D01*
X118021000Y-74263561D01*
X117802534Y-73736138D01*
X117398862Y-73332466D01*
X116871439Y-73114000D01*
X116300561Y-73114000D01*
X115773138Y-73332466D01*
X115369466Y-73736138D01*
X115151000Y-74263561D01*
X97280000Y-74263561D01*
X97280000Y-70926801D01*
X108701000Y-59505802D01*
X108701000Y-59741330D01*
X108934690Y-60305507D01*
X109335183Y-60706000D01*
X108934690Y-61106493D01*
X108701000Y-61670670D01*
X108701000Y-62281330D01*
X108934690Y-62845507D01*
X109335183Y-63246000D01*
X108934690Y-63646493D01*
X108701000Y-64210670D01*
X108701000Y-64821330D01*
X108934690Y-65385507D01*
X109335183Y-65786000D01*
X108934690Y-66186493D01*
X108701000Y-66750670D01*
X108701000Y-67361330D01*
X108934690Y-67925507D01*
X109366493Y-68357310D01*
X109930670Y-68591000D01*
X110541330Y-68591000D01*
X111105507Y-68357310D01*
X111537310Y-67925507D01*
X111771000Y-67361330D01*
X111771000Y-66750670D01*
X111537310Y-66186493D01*
X111136817Y-65786000D01*
X111537310Y-65385507D01*
X111771000Y-64821330D01*
X111771000Y-64210670D01*
X111537310Y-63646493D01*
X111136817Y-63246000D01*
X111537310Y-62845507D01*
X111771000Y-62281330D01*
X111771000Y-62045801D01*
X115826000Y-66100802D01*
X115826001Y-70282956D01*
X115551423Y-70466423D01*
X115234260Y-70941091D01*
X115122887Y-71501000D01*
X115234260Y-72060909D01*
X115551423Y-72535577D01*
X116026091Y-72852740D01*
X116444667Y-72936000D01*
X116727333Y-72936000D01*
X117145909Y-72852740D01*
X117620577Y-72535577D01*
X117937740Y-72060909D01*
X118049113Y-71501000D01*
X117992336Y-71215561D01*
X125311000Y-71215561D01*
X125311000Y-71786439D01*
X125529466Y-72313862D01*
X125933138Y-72717534D01*
X126460561Y-72936000D01*
X127031439Y-72936000D01*
X127558862Y-72717534D01*
X127962534Y-72313862D01*
X128181000Y-71786439D01*
X128181000Y-71216561D01*
X129029000Y-71216561D01*
X129029000Y-71787439D01*
X129247466Y-72314862D01*
X129651138Y-72718534D01*
X130178561Y-72937000D01*
X130749439Y-72937000D01*
X131276862Y-72718534D01*
X131485651Y-72509745D01*
X134635861Y-72509745D01*
X134709995Y-72755864D01*
X135247223Y-72948965D01*
X135817454Y-72921778D01*
X136218005Y-72755864D01*
X136292139Y-72509745D01*
X135464000Y-71681605D01*
X134635861Y-72509745D01*
X131485651Y-72509745D01*
X131680534Y-72314862D01*
X131899000Y-71787439D01*
X131899000Y-71285223D01*
X134017035Y-71285223D01*
X134044222Y-71855454D01*
X134210136Y-72256005D01*
X134456255Y-72330139D01*
X135284395Y-71502000D01*
X135643605Y-71502000D01*
X136471745Y-72330139D01*
X136717864Y-72256005D01*
X136910965Y-71718777D01*
X136883778Y-71148546D01*
X136717864Y-70747995D01*
X136471745Y-70673861D01*
X135643605Y-71502000D01*
X135284395Y-71502000D01*
X134456255Y-70673861D01*
X134210136Y-70747995D01*
X134017035Y-71285223D01*
X131899000Y-71285223D01*
X131899000Y-71216561D01*
X131680534Y-70689138D01*
X131485651Y-70494255D01*
X134635861Y-70494255D01*
X135464000Y-71322395D01*
X136292139Y-70494255D01*
X136218005Y-70248136D01*
X135680777Y-70055035D01*
X135110546Y-70082222D01*
X134709995Y-70248136D01*
X134635861Y-70494255D01*
X131485651Y-70494255D01*
X131276862Y-70285466D01*
X130749439Y-70067000D01*
X130178561Y-70067000D01*
X129651138Y-70285466D01*
X129247466Y-70689138D01*
X129029000Y-71216561D01*
X128181000Y-71216561D01*
X128181000Y-71215561D01*
X127962534Y-70688138D01*
X127558862Y-70284466D01*
X127031439Y-70066000D01*
X126460561Y-70066000D01*
X125933138Y-70284466D01*
X125529466Y-70688138D01*
X125311000Y-71215561D01*
X117992336Y-71215561D01*
X117937740Y-70941091D01*
X117620577Y-70466423D01*
X117346000Y-70282957D01*
X117346000Y-65860846D01*
X117360888Y-65785999D01*
X117346000Y-65711152D01*
X117346000Y-65711148D01*
X117301904Y-65489463D01*
X117133929Y-65238071D01*
X117070473Y-65195671D01*
X116479802Y-64605000D01*
X134315560Y-64605000D01*
X134315560Y-66205000D01*
X134364843Y-66452765D01*
X134505191Y-66662809D01*
X134715235Y-66803157D01*
X134963000Y-66852440D01*
X136135639Y-66852440D01*
X139254373Y-69971176D01*
X139268560Y-69992408D01*
X139268560Y-71412000D01*
X139317843Y-71659765D01*
X139458191Y-71869809D01*
X139668235Y-72010157D01*
X139823361Y-72041013D01*
X139484959Y-72414577D01*
X139324096Y-72802961D01*
X139446085Y-73025000D01*
X140589000Y-73025000D01*
X140589000Y-73005000D01*
X140843000Y-73005000D01*
X140843000Y-73025000D01*
X141985915Y-73025000D01*
X142107904Y-72802961D01*
X141947041Y-72414577D01*
X141608639Y-72041013D01*
X141763765Y-72010157D01*
X141973809Y-71869809D01*
X142114157Y-71659765D01*
X142163440Y-71412000D01*
X142163440Y-69812000D01*
X142114157Y-69564235D01*
X141973809Y-69354191D01*
X141763765Y-69213843D01*
X141516000Y-69164560D01*
X141414797Y-69164560D01*
X141263929Y-68938771D01*
X141012537Y-68770796D01*
X140790852Y-68726700D01*
X140716000Y-68711811D01*
X140641148Y-68726700D01*
X140159503Y-68726700D01*
X139242548Y-67809745D01*
X142253861Y-67809745D01*
X142327995Y-68055864D01*
X142865223Y-68248965D01*
X143435454Y-68221778D01*
X143836005Y-68055864D01*
X143910139Y-67809745D01*
X143082000Y-66981605D01*
X142253861Y-67809745D01*
X139242548Y-67809745D01*
X138207088Y-66774286D01*
X138575862Y-66621534D01*
X138612173Y-66585223D01*
X141635035Y-66585223D01*
X141662222Y-67155454D01*
X141828136Y-67556005D01*
X142074255Y-67630139D01*
X142902395Y-66802000D01*
X143261605Y-66802000D01*
X144089745Y-67630139D01*
X144335864Y-67556005D01*
X144528965Y-67018777D01*
X144505021Y-66516561D01*
X146647000Y-66516561D01*
X146647000Y-67087439D01*
X146865466Y-67614862D01*
X147269138Y-68018534D01*
X147796561Y-68237000D01*
X148367439Y-68237000D01*
X148894862Y-68018534D01*
X149298534Y-67614862D01*
X149517000Y-67087439D01*
X149517000Y-66516561D01*
X149298534Y-65989138D01*
X148894862Y-65585466D01*
X148367439Y-65367000D01*
X147796561Y-65367000D01*
X147269138Y-65585466D01*
X146865466Y-65989138D01*
X146647000Y-66516561D01*
X144505021Y-66516561D01*
X144501778Y-66448546D01*
X144335864Y-66047995D01*
X144089745Y-65973861D01*
X143261605Y-66802000D01*
X142902395Y-66802000D01*
X142074255Y-65973861D01*
X141828136Y-66047995D01*
X141635035Y-66585223D01*
X138612173Y-66585223D01*
X138979534Y-66217862D01*
X139154997Y-65794255D01*
X142253861Y-65794255D01*
X143082000Y-66622395D01*
X143910139Y-65794255D01*
X143836005Y-65548136D01*
X143298777Y-65355035D01*
X142728546Y-65382222D01*
X142327995Y-65548136D01*
X142253861Y-65794255D01*
X139154997Y-65794255D01*
X139198000Y-65690439D01*
X139198000Y-65119561D01*
X138979534Y-64592138D01*
X138575862Y-64188466D01*
X138048439Y-63970000D01*
X137477561Y-63970000D01*
X137027090Y-64156591D01*
X137020809Y-64147191D01*
X136810765Y-64006843D01*
X136563000Y-63957560D01*
X134963000Y-63957560D01*
X134715235Y-64006843D01*
X134505191Y-64147191D01*
X134364843Y-64357235D01*
X134315560Y-64605000D01*
X116479802Y-64605000D01*
X111725640Y-59850839D01*
X111771000Y-59741330D01*
X111771000Y-59130670D01*
X111537310Y-58566493D01*
X111136817Y-58166000D01*
X111537310Y-57765507D01*
X111771000Y-57201330D01*
X111771000Y-56590670D01*
X111537310Y-56026493D01*
X111358856Y-55848039D01*
X124211096Y-55848039D01*
X124371959Y-56236423D01*
X124747866Y-56651389D01*
X125253959Y-56890914D01*
X125476000Y-56769629D01*
X125476000Y-55626000D01*
X125730000Y-55626000D01*
X125730000Y-56769629D01*
X125952041Y-56890914D01*
X126458134Y-56651389D01*
X126834041Y-56236423D01*
X126994904Y-55848039D01*
X126872915Y-55626000D01*
X125730000Y-55626000D01*
X125476000Y-55626000D01*
X124333085Y-55626000D01*
X124211096Y-55848039D01*
X111358856Y-55848039D01*
X111136817Y-55626000D01*
X111537310Y-55225507D01*
X111771000Y-54661330D01*
X111771000Y-54050670D01*
X111537310Y-53486493D01*
X111105507Y-53054690D01*
X111085885Y-53046562D01*
X111136554Y-52896159D01*
X110236000Y-51995605D01*
X109335446Y-52896159D01*
X109386115Y-53046562D01*
X109366493Y-53054690D01*
X108934690Y-53486493D01*
X108701000Y-54050670D01*
X108701000Y-54661330D01*
X108746360Y-54770838D01*
X88574830Y-74942369D01*
X88511371Y-74984771D01*
X88343396Y-75236164D01*
X88299300Y-75457849D01*
X88299300Y-75457853D01*
X88284412Y-75532700D01*
X88299300Y-75607547D01*
X88299301Y-77562516D01*
X88030256Y-77509000D01*
X87737744Y-77509000D01*
X87434004Y-77569418D01*
X87424604Y-77522163D01*
X87256629Y-77270771D01*
X87193173Y-77228371D01*
X84725103Y-74760302D01*
X84747000Y-74707439D01*
X84747000Y-74136561D01*
X84528534Y-73609138D01*
X84124862Y-73205466D01*
X83597439Y-72987000D01*
X83026561Y-72987000D01*
X82973698Y-73008896D01*
X80092331Y-70127530D01*
X80049929Y-70064071D01*
X80045499Y-70061111D01*
X80138839Y-69921418D01*
X80254092Y-69342000D01*
X80138839Y-68762582D01*
X79810625Y-68271375D01*
X79512239Y-68072000D01*
X79810625Y-67872625D01*
X80138839Y-67381418D01*
X80254092Y-66802000D01*
X80138839Y-66222582D01*
X79810625Y-65731375D01*
X79512239Y-65532000D01*
X79810625Y-65332625D01*
X80022474Y-65015571D01*
X80211837Y-64977904D01*
X80463229Y-64809929D01*
X80505631Y-64746470D01*
X85056102Y-60196000D01*
X86029331Y-60196000D01*
X86074690Y-60305507D01*
X86134191Y-60365008D01*
X83952828Y-62546371D01*
X83889372Y-62588771D01*
X83846972Y-62652227D01*
X83846971Y-62652228D01*
X83721397Y-62840163D01*
X83713713Y-62878793D01*
X83453333Y-62827000D01*
X83170667Y-62827000D01*
X82752091Y-62910260D01*
X82277423Y-63227423D01*
X81960260Y-63702091D01*
X81848887Y-64262000D01*
X81960260Y-64821909D01*
X82277423Y-65296577D01*
X82752091Y-65613740D01*
X83170667Y-65697000D01*
X83453333Y-65697000D01*
X83871909Y-65613740D01*
X84346577Y-65296577D01*
X84532786Y-65017896D01*
X84733837Y-64977904D01*
X84985229Y-64809929D01*
X85153204Y-64558537D01*
X85212189Y-64262000D01*
X85197300Y-64187148D01*
X85197300Y-63451501D01*
X85995200Y-62653601D01*
X86074690Y-62845507D01*
X86475183Y-63246000D01*
X86074690Y-63646493D01*
X85841000Y-64210670D01*
X85841000Y-64821330D01*
X86074690Y-65385507D01*
X86475183Y-65786000D01*
X86074690Y-66186493D01*
X85841000Y-66750670D01*
X85841000Y-67361330D01*
X86074690Y-67925507D01*
X86506493Y-68357310D01*
X87070670Y-68591000D01*
X87681330Y-68591000D01*
X88245507Y-68357310D01*
X88677310Y-67925507D01*
X88911000Y-67361330D01*
X88911000Y-66750670D01*
X88677310Y-66186493D01*
X88276817Y-65786000D01*
X88677310Y-65385507D01*
X88911000Y-64821330D01*
X88911000Y-64210670D01*
X88677310Y-63646493D01*
X88276817Y-63246000D01*
X88677310Y-62845507D01*
X88911000Y-62281330D01*
X88911000Y-61670670D01*
X88677310Y-61106493D01*
X88597109Y-61026292D01*
X89098173Y-60525229D01*
X89161629Y-60482829D01*
X89329604Y-60231437D01*
X89373700Y-60009752D01*
X89373700Y-60009748D01*
X89388588Y-59934901D01*
X89373700Y-59860054D01*
X89373700Y-53409946D01*
X89388588Y-53335099D01*
X89373700Y-53260252D01*
X89373700Y-53260248D01*
X89329604Y-53038563D01*
X89161629Y-52787171D01*
X89098173Y-52744771D01*
X88783220Y-52429818D01*
X88911000Y-52121330D01*
X88911000Y-51575336D01*
X108689542Y-51575336D01*
X108715161Y-52185460D01*
X108899357Y-52630148D01*
X109155841Y-52716554D01*
X110056395Y-51816000D01*
X110415605Y-51816000D01*
X111316159Y-52716554D01*
X111572643Y-52630148D01*
X111782458Y-52056664D01*
X111756839Y-51446540D01*
X111572643Y-51001852D01*
X111316159Y-50915446D01*
X110415605Y-51816000D01*
X110056395Y-51816000D01*
X109155841Y-50915446D01*
X108899357Y-51001852D01*
X108689542Y-51575336D01*
X88911000Y-51575336D01*
X88911000Y-51510670D01*
X88677310Y-50946493D01*
X88276817Y-50546000D01*
X88677310Y-50145507D01*
X88911000Y-49581330D01*
X88911000Y-48970670D01*
X108701000Y-48970670D01*
X108701000Y-49581330D01*
X108934690Y-50145507D01*
X109366493Y-50577310D01*
X109386115Y-50585438D01*
X109335446Y-50735841D01*
X110236000Y-51636395D01*
X111136554Y-50735841D01*
X111085885Y-50585438D01*
X111105507Y-50577310D01*
X111537310Y-50145507D01*
X111771000Y-49581330D01*
X111771000Y-48970670D01*
X111537310Y-48406493D01*
X111105507Y-47974690D01*
X110541330Y-47741000D01*
X109930670Y-47741000D01*
X109366493Y-47974690D01*
X108934690Y-48406493D01*
X108701000Y-48970670D01*
X88911000Y-48970670D01*
X88677310Y-48406493D01*
X88245507Y-47974690D01*
X87681330Y-47741000D01*
X87070670Y-47741000D01*
X86506493Y-47974690D01*
X86074690Y-48406493D01*
X85841000Y-48970670D01*
X85841000Y-49581330D01*
X86074690Y-50145507D01*
X86475183Y-50546000D01*
X86074690Y-50946493D01*
X85912771Y-51337400D01*
X81994748Y-51337400D01*
X81919900Y-51322512D01*
X81845052Y-51337400D01*
X81845048Y-51337400D01*
X81623363Y-51381496D01*
X81371971Y-51549471D01*
X81329571Y-51612927D01*
X79850879Y-53091620D01*
X79810625Y-53031375D01*
X79491522Y-52818157D01*
X79621358Y-52757183D01*
X80011645Y-52328924D01*
X80181476Y-51918890D01*
X80060155Y-51689000D01*
X78867000Y-51689000D01*
X78867000Y-51709000D01*
X78613000Y-51709000D01*
X78613000Y-51689000D01*
X78593000Y-51689000D01*
X78593000Y-51435000D01*
X78613000Y-51435000D01*
X78613000Y-51415000D01*
X78867000Y-51415000D01*
X78867000Y-51435000D01*
X80060155Y-51435000D01*
X80181476Y-51205110D01*
X80011645Y-50795076D01*
X79734292Y-50490739D01*
X79837765Y-50470157D01*
X80047809Y-50329809D01*
X80188157Y-50119765D01*
X80237440Y-49872000D01*
X80237440Y-49022000D01*
X81848887Y-49022000D01*
X81960260Y-49581909D01*
X82277423Y-50056577D01*
X82752091Y-50373740D01*
X83170667Y-50457000D01*
X83453333Y-50457000D01*
X83871909Y-50373740D01*
X84346577Y-50056577D01*
X84663740Y-49581909D01*
X84775113Y-49022000D01*
X84663740Y-48462091D01*
X84346577Y-47987423D01*
X83871909Y-47670260D01*
X83453333Y-47587000D01*
X83170667Y-47587000D01*
X82752091Y-47670260D01*
X82277423Y-47987423D01*
X81960260Y-48462091D01*
X81848887Y-49022000D01*
X80237440Y-49022000D01*
X80237440Y-48172000D01*
X80188157Y-47924235D01*
X80047809Y-47714191D01*
X79837765Y-47573843D01*
X79590000Y-47524560D01*
X77890000Y-47524560D01*
X77642235Y-47573843D01*
X77432191Y-47714191D01*
X77418000Y-47735429D01*
X77418000Y-45606319D01*
X77563723Y-45958126D01*
X78501874Y-46896277D01*
X79727627Y-47404000D01*
X81054373Y-47404000D01*
X82280126Y-46896277D01*
X83218277Y-45958126D01*
X83726000Y-44732373D01*
X83726000Y-43405627D01*
X83218277Y-42179874D01*
X82388403Y-41350000D01*
X157160075Y-41350000D01*
X157114874Y-41368723D01*
X157114874Y-41368723D01*
G37*
X157114874Y-41368723D02*
X156176723Y-42306874D01*
X155669000Y-43532627D01*
X155669000Y-44859373D01*
X156176723Y-46085126D01*
X157114874Y-47023277D01*
X158340627Y-47531000D01*
X159667373Y-47531000D01*
X160893126Y-47023277D01*
X161831277Y-46085126D01*
X161850001Y-46039922D01*
X161850001Y-60435430D01*
X161835809Y-60414191D01*
X161625765Y-60273843D01*
X161378000Y-60224560D01*
X159678000Y-60224560D01*
X159430235Y-60273843D01*
X159220191Y-60414191D01*
X159079843Y-60624235D01*
X159030560Y-60872000D01*
X159030560Y-60962000D01*
X158937802Y-60962000D01*
X153051103Y-55075302D01*
X153073000Y-55022439D01*
X153073000Y-54451561D01*
X152854534Y-53924138D01*
X152450862Y-53520466D01*
X151923439Y-53302000D01*
X151352561Y-53302000D01*
X151299698Y-53323896D01*
X146767431Y-48791630D01*
X146725029Y-48728171D01*
X146473637Y-48560196D01*
X146251952Y-48516100D01*
X146251947Y-48516100D01*
X146177100Y-48501212D01*
X146102253Y-48516100D01*
X142767337Y-48516100D01*
X142913000Y-48164439D01*
X142913000Y-47879000D01*
X150174887Y-47879000D01*
X150286260Y-48438909D01*
X150603423Y-48913577D01*
X151078091Y-49230740D01*
X151496667Y-49314000D01*
X151779333Y-49314000D01*
X152197909Y-49230740D01*
X152672577Y-48913577D01*
X152989740Y-48438909D01*
X153101113Y-47879000D01*
X152989740Y-47319091D01*
X152672577Y-46844423D01*
X152197909Y-46527260D01*
X151779333Y-46444000D01*
X151496667Y-46444000D01*
X151078091Y-46527260D01*
X150603423Y-46844423D01*
X150286260Y-47319091D01*
X150174887Y-47879000D01*
X142913000Y-47879000D01*
X142913000Y-47593561D01*
X142694534Y-47066138D01*
X142290862Y-46662466D01*
X141763439Y-46444000D01*
X141192561Y-46444000D01*
X140665138Y-46662466D01*
X140261466Y-47066138D01*
X140043000Y-47593561D01*
X140043000Y-48164439D01*
X140188663Y-48516100D01*
X137063163Y-48516100D01*
X137114740Y-48438909D01*
X137226113Y-47879000D01*
X137114740Y-47319091D01*
X136797577Y-46844423D01*
X136322909Y-46527260D01*
X135904333Y-46444000D01*
X135621667Y-46444000D01*
X135203091Y-46527260D01*
X134728423Y-46844423D01*
X134411260Y-47319091D01*
X134299887Y-47879000D01*
X134411260Y-48438909D01*
X134462837Y-48516100D01*
X127050440Y-48516100D01*
X127050440Y-47079000D01*
X127001157Y-46831235D01*
X126860809Y-46621191D01*
X126650765Y-46480843D01*
X126403000Y-46431560D01*
X124803000Y-46431560D01*
X124555235Y-46480843D01*
X124345191Y-46621191D01*
X124204843Y-46831235D01*
X124155560Y-47079000D01*
X124155560Y-47119000D01*
X121659846Y-47119000D01*
X121584999Y-47104112D01*
X121510152Y-47119000D01*
X121510148Y-47119000D01*
X121288463Y-47163096D01*
X121037071Y-47331071D01*
X120994671Y-47394527D01*
X118766689Y-49622509D01*
X118435418Y-49401161D01*
X118002256Y-49315000D01*
X117709744Y-49315000D01*
X117276582Y-49401161D01*
X116785375Y-49729375D01*
X116457161Y-50220582D01*
X116341908Y-50800000D01*
X116457161Y-51379418D01*
X116785375Y-51870625D01*
X117083761Y-52070000D01*
X116785375Y-52269375D01*
X116457161Y-52760582D01*
X116341908Y-53340000D01*
X116457161Y-53919418D01*
X116785375Y-54410625D01*
X117276582Y-54738839D01*
X117709744Y-54825000D01*
X118002256Y-54825000D01*
X118435418Y-54738839D01*
X118500933Y-54695063D01*
X118546830Y-54725731D01*
X118820869Y-54999770D01*
X118863271Y-55063229D01*
X119003609Y-55157000D01*
X119114662Y-55231204D01*
X119162805Y-55240780D01*
X119336348Y-55275300D01*
X119336352Y-55275300D01*
X119411200Y-55290188D01*
X119486048Y-55275300D01*
X121376653Y-55275300D01*
X121451500Y-55290188D01*
X121526347Y-55275300D01*
X121526352Y-55275300D01*
X121748037Y-55231204D01*
X121999429Y-55063229D01*
X122041831Y-54999770D01*
X122664873Y-54376729D01*
X122728329Y-54334329D01*
X122896304Y-54082937D01*
X122940400Y-53861252D01*
X122940400Y-53861248D01*
X122955288Y-53786401D01*
X122940400Y-53711554D01*
X122940400Y-53308039D01*
X124211096Y-53308039D01*
X124371959Y-53696423D01*
X124747866Y-54111389D01*
X124996367Y-54229000D01*
X124747866Y-54346611D01*
X124371959Y-54761577D01*
X124211096Y-55149961D01*
X124333085Y-55372000D01*
X125476000Y-55372000D01*
X125476000Y-53086000D01*
X125730000Y-53086000D01*
X125730000Y-55372000D01*
X126872915Y-55372000D01*
X126994904Y-55149961D01*
X126834041Y-54761577D01*
X126458134Y-54346611D01*
X126209633Y-54229000D01*
X126458134Y-54111389D01*
X126834041Y-53696423D01*
X126994904Y-53308039D01*
X126872915Y-53086000D01*
X125730000Y-53086000D01*
X125476000Y-53086000D01*
X124333085Y-53086000D01*
X124211096Y-53308039D01*
X122940400Y-53308039D01*
X122940400Y-52497401D01*
X124334426Y-51103376D01*
X124568423Y-51453577D01*
X124952108Y-51709947D01*
X124747866Y-51806611D01*
X124371959Y-52221577D01*
X124211096Y-52609961D01*
X124333085Y-52832000D01*
X125476000Y-52832000D01*
X125476000Y-52812000D01*
X125730000Y-52812000D01*
X125730000Y-52832000D01*
X126872915Y-52832000D01*
X126994904Y-52609961D01*
X126834041Y-52221577D01*
X126458134Y-51806611D01*
X126253892Y-51709947D01*
X126637577Y-51453577D01*
X126657804Y-51423305D01*
X127263270Y-52028772D01*
X127305671Y-52092229D01*
X127557063Y-52260204D01*
X127778748Y-52304300D01*
X127778752Y-52304300D01*
X127853600Y-52319188D01*
X127928448Y-52304300D01*
X134474597Y-52304300D01*
X134411260Y-52399091D01*
X134299887Y-52959000D01*
X134411260Y-53518909D01*
X134728423Y-53993577D01*
X135080758Y-54229000D01*
X134728423Y-54464423D01*
X134411260Y-54939091D01*
X134299887Y-55499000D01*
X134411260Y-56058909D01*
X134728423Y-56533577D01*
X135203091Y-56850740D01*
X135621667Y-56934000D01*
X135904333Y-56934000D01*
X136322909Y-56850740D01*
X136797577Y-56533577D01*
X137114740Y-56058909D01*
X137226113Y-55499000D01*
X137114740Y-54939091D01*
X136797577Y-54464423D01*
X136445242Y-54229000D01*
X136797577Y-53993577D01*
X136981043Y-53719000D01*
X140432347Y-53719000D01*
X140126260Y-54177091D01*
X140014887Y-54737000D01*
X140126260Y-55296909D01*
X140443423Y-55771577D01*
X140722106Y-55957787D01*
X140762097Y-56158837D01*
X140930072Y-56410229D01*
X140993528Y-56452629D01*
X151241300Y-66700402D01*
X151241300Y-69221550D01*
X151017333Y-69177000D01*
X150734667Y-69177000D01*
X150316091Y-69260260D01*
X149841423Y-69577423D01*
X149524260Y-70052091D01*
X149412887Y-70612000D01*
X149524260Y-71171909D01*
X149841423Y-71646577D01*
X150193758Y-71882000D01*
X149841423Y-72117423D01*
X149655214Y-72396104D01*
X149454163Y-72436096D01*
X149202771Y-72604071D01*
X149160371Y-72667527D01*
X137480199Y-84347700D01*
X137234852Y-84347700D01*
X137160000Y-84332811D01*
X137085148Y-84347700D01*
X136863463Y-84391796D01*
X136612071Y-84559771D01*
X136461203Y-84785560D01*
X136360000Y-84785560D01*
X136112235Y-84834843D01*
X135902484Y-84974995D01*
X135376777Y-84786035D01*
X134806546Y-84813222D01*
X134405995Y-84979136D01*
X134331861Y-85225255D01*
X135160000Y-86053395D01*
X135174142Y-86039252D01*
X135353748Y-86218858D01*
X135339605Y-86233000D01*
X135353748Y-86247143D01*
X135174142Y-86426748D01*
X135160000Y-86412605D01*
X134331861Y-87240745D01*
X134405995Y-87486864D01*
X134943223Y-87679965D01*
X135513454Y-87652778D01*
X135903067Y-87491395D01*
X136112235Y-87631157D01*
X136360000Y-87680440D01*
X137960000Y-87680440D01*
X138207765Y-87631157D01*
X138417809Y-87490809D01*
X138558157Y-87280765D01*
X138607440Y-87033000D01*
X138607440Y-85433000D01*
X138596998Y-85380503D01*
X149821196Y-74156306D01*
X149841423Y-74186577D01*
X150137386Y-74384333D01*
X150120104Y-74471214D01*
X149841423Y-74657423D01*
X149524260Y-75132091D01*
X149412887Y-75692000D01*
X149524260Y-76251909D01*
X149841423Y-76726577D01*
X150193758Y-76962000D01*
X149841423Y-77197423D01*
X149524260Y-77672091D01*
X149412887Y-78232000D01*
X149524260Y-78791909D01*
X149841423Y-79266577D01*
X150316091Y-79583740D01*
X150734667Y-79667000D01*
X151017333Y-79667000D01*
X151435909Y-79583740D01*
X151910577Y-79266577D01*
X152094043Y-78992000D01*
X152974199Y-78992000D01*
X153907897Y-79925698D01*
X153886000Y-79978561D01*
X153886000Y-80549439D01*
X153907897Y-80602302D01*
X152645530Y-81864669D01*
X152582071Y-81907071D01*
X152414096Y-82158464D01*
X152370000Y-82380149D01*
X152370000Y-82380153D01*
X152355112Y-82455000D01*
X152370000Y-82529847D01*
X152370001Y-84836292D01*
X152177765Y-84707843D01*
X151930000Y-84658560D01*
X150330000Y-84658560D01*
X150082235Y-84707843D01*
X149872191Y-84848191D01*
X149851964Y-84878463D01*
X149665031Y-84691530D01*
X149622629Y-84628071D01*
X149371237Y-84460096D01*
X149149552Y-84416000D01*
X149149547Y-84416000D01*
X149074700Y-84401112D01*
X148999853Y-84416000D01*
X144374146Y-84416000D01*
X144299299Y-84401112D01*
X144224452Y-84416000D01*
X144224448Y-84416000D01*
X144002763Y-84460096D01*
X143751371Y-84628071D01*
X143708971Y-84691528D01*
X143438827Y-84961671D01*
X143383505Y-84998637D01*
X143327418Y-84961161D01*
X142894256Y-84875000D01*
X142601744Y-84875000D01*
X142168582Y-84961161D01*
X141677375Y-85289375D01*
X141349161Y-85780582D01*
X141233908Y-86360000D01*
X141349161Y-86939418D01*
X141677375Y-87430625D01*
X142168582Y-87758839D01*
X142601744Y-87845000D01*
X142894256Y-87845000D01*
X143327418Y-87758839D01*
X143818625Y-87430625D01*
X143833096Y-87408967D01*
X143899673Y-87569698D01*
X144078301Y-87748327D01*
X144311690Y-87845000D01*
X145002250Y-87845000D01*
X145161000Y-87686250D01*
X145161000Y-86487000D01*
X145415000Y-86487000D01*
X145415000Y-87686250D01*
X145573750Y-87845000D01*
X146264310Y-87845000D01*
X146497699Y-87748327D01*
X146676327Y-87569698D01*
X146773000Y-87336309D01*
X146773000Y-86645750D01*
X146614250Y-86487000D01*
X145415000Y-86487000D01*
X145161000Y-86487000D01*
X145141000Y-86487000D01*
X145141000Y-86233000D01*
X145161000Y-86233000D01*
X145161000Y-86213000D01*
X145415000Y-86213000D01*
X145415000Y-86233000D01*
X146614250Y-86233000D01*
X146773000Y-86074250D01*
X146773000Y-85936000D01*
X148759899Y-85936000D01*
X149414371Y-86590473D01*
X149456771Y-86653929D01*
X149682560Y-86804797D01*
X149682560Y-86906000D01*
X149731843Y-87153765D01*
X149872191Y-87363809D01*
X150082235Y-87504157D01*
X150330000Y-87553440D01*
X151930000Y-87553440D01*
X152177765Y-87504157D01*
X152387809Y-87363809D01*
X152394090Y-87354409D01*
X152844561Y-87541000D01*
X153415439Y-87541000D01*
X153942862Y-87322534D01*
X154346534Y-86918862D01*
X154565000Y-86391439D01*
X154565000Y-85820561D01*
X154346534Y-85293138D01*
X153942862Y-84889466D01*
X153890000Y-84867570D01*
X153890000Y-82769801D01*
X154982698Y-81677103D01*
X155035561Y-81699000D01*
X155606439Y-81699000D01*
X156133862Y-81480534D01*
X156537534Y-81076862D01*
X156756000Y-80549439D01*
X156756000Y-79978561D01*
X156537534Y-79451138D01*
X156133862Y-79047466D01*
X155606439Y-78829000D01*
X155035561Y-78829000D01*
X154982698Y-78850897D01*
X153879331Y-77747530D01*
X153836929Y-77684071D01*
X153585537Y-77516096D01*
X153363852Y-77472000D01*
X153363847Y-77472000D01*
X153289000Y-77457112D01*
X153214153Y-77472000D01*
X152094043Y-77472000D01*
X151910577Y-77197423D01*
X151558242Y-76962000D01*
X151910577Y-76726577D01*
X152227740Y-76251909D01*
X152339113Y-75692000D01*
X152227740Y-75132091D01*
X152003063Y-74795838D01*
X152485773Y-74313129D01*
X152549229Y-74270729D01*
X152605458Y-74186577D01*
X152717204Y-74019338D01*
X152733477Y-73937527D01*
X152761300Y-73797652D01*
X152761300Y-73797648D01*
X152776188Y-73722800D01*
X152761300Y-73647952D01*
X152761300Y-70104000D01*
X153857887Y-70104000D01*
X153969260Y-70663909D01*
X154286423Y-71138577D01*
X154761091Y-71455740D01*
X155179667Y-71539000D01*
X155462333Y-71539000D01*
X155880909Y-71455740D01*
X156355577Y-71138577D01*
X156672740Y-70663909D01*
X156784113Y-70104000D01*
X156672740Y-69544091D01*
X156355577Y-69069423D01*
X155880909Y-68752260D01*
X155462333Y-68669000D01*
X155179667Y-68669000D01*
X154761091Y-68752260D01*
X154286423Y-69069423D01*
X153969260Y-69544091D01*
X153857887Y-70104000D01*
X152761300Y-70104000D01*
X152761300Y-66460448D01*
X152776188Y-66385600D01*
X152761300Y-66310752D01*
X152761300Y-66310748D01*
X152717204Y-66089063D01*
X152549229Y-65837671D01*
X152485773Y-65795271D01*
X142482305Y-55791804D01*
X142512577Y-55771577D01*
X142829740Y-55296909D01*
X142941113Y-54737000D01*
X142829740Y-54177091D01*
X142523653Y-53719000D01*
X142654899Y-53719000D01*
X158762371Y-69826473D01*
X158804771Y-69889929D01*
X158868227Y-69932329D01*
X159056162Y-70057904D01*
X159096864Y-70066000D01*
X159245526Y-70095571D01*
X159457375Y-70412625D01*
X159948582Y-70740839D01*
X160381744Y-70827000D01*
X160674256Y-70827000D01*
X161107418Y-70740839D01*
X161598625Y-70412625D01*
X161850000Y-70036415D01*
X161850000Y-84997597D01*
X161020126Y-84167723D01*
X159794373Y-83660000D01*
X158467627Y-83660000D01*
X157241874Y-84167723D01*
X156303723Y-85105874D01*
X155796000Y-86331627D01*
X155796000Y-87658373D01*
X156303723Y-88884126D01*
X157241874Y-89822277D01*
X157593681Y-89968000D01*
X82107925Y-89968000D01*
X82153126Y-89949277D01*
X83091277Y-89011126D01*
X83599000Y-87785373D01*
X83599000Y-86458627D01*
X83091277Y-85232874D01*
X82153126Y-84294723D01*
X80927373Y-83787000D01*
X79600627Y-83787000D01*
X78374874Y-84294723D01*
X77436723Y-85232874D01*
X77418000Y-85278075D01*
X77418000Y-82736416D01*
X77669375Y-83112625D01*
X78160582Y-83440839D01*
X78593744Y-83527000D01*
X78886256Y-83527000D01*
X79319418Y-83440839D01*
X79810625Y-83112625D01*
X80138839Y-82621418D01*
X80254092Y-82042000D01*
X80138839Y-81462582D01*
X79810625Y-80971375D01*
X79512239Y-80772000D01*
X79810625Y-80572625D01*
X80138839Y-80081418D01*
X80254092Y-79502000D01*
X80138839Y-78922582D01*
X79810625Y-78431375D01*
X79512239Y-78232000D01*
X79810625Y-78032625D01*
X80138839Y-77541418D01*
X80254092Y-76962000D01*
X80138839Y-76382582D01*
X79810625Y-75891375D01*
X79512239Y-75692000D01*
X79810625Y-75492625D01*
X80138839Y-75001418D01*
X80254092Y-74422000D01*
X80138839Y-73842582D01*
X79810625Y-73351375D01*
X79512239Y-73152000D01*
X79810625Y-72952625D01*
X80138839Y-72461418D01*
X80161698Y-72346499D01*
X81898896Y-74083698D01*
X81877000Y-74136561D01*
X81877000Y-74707439D01*
X82095466Y-75234862D01*
X82499138Y-75638534D01*
X83026561Y-75857000D01*
X83597439Y-75857000D01*
X83650302Y-75835103D01*
X85311758Y-77496560D01*
X84494000Y-77496560D01*
X84246235Y-77545843D01*
X84036191Y-77686191D01*
X83895843Y-77896235D01*
X83846560Y-78144000D01*
X83846560Y-79844000D01*
X83895843Y-80091765D01*
X84036191Y-80301809D01*
X84246235Y-80442157D01*
X84291619Y-80451184D01*
X84273375Y-80463375D01*
X83945161Y-80954582D01*
X83829908Y-81534000D01*
X83945161Y-82113418D01*
X84273375Y-82604625D01*
X84764582Y-82932839D01*
X85197744Y-83019000D01*
X85490256Y-83019000D01*
X85923418Y-82932839D01*
X86414625Y-82604625D01*
X86614000Y-82306239D01*
X86813375Y-82604625D01*
X87304582Y-82932839D01*
X87737744Y-83019000D01*
X88030256Y-83019000D01*
X88463418Y-82932839D01*
X88954625Y-82604625D01*
X89282839Y-82113418D01*
X89398092Y-81534000D01*
X89282839Y-80954582D01*
X89061531Y-80623371D01*
X89543773Y-80141129D01*
X89607229Y-80098729D01*
X89775204Y-79847337D01*
X89819300Y-79625652D01*
X89819300Y-79625648D01*
X89834188Y-79550801D01*
X89819300Y-79475954D01*
X89819300Y-75847501D01*
X108701000Y-56965803D01*
X108701000Y-57201330D01*
X108746360Y-57310838D01*
X96035528Y-70021671D01*
X95972072Y-70064071D01*
X95929672Y-70127527D01*
X95929671Y-70127528D01*
X95804097Y-70315463D01*
X95745112Y-70612000D01*
X95760001Y-70686851D01*
X95760000Y-85081822D01*
X95449375Y-85289375D01*
X95250000Y-85587761D01*
X95050625Y-85289375D01*
X94559418Y-84961161D01*
X94126256Y-84875000D01*
X93833744Y-84875000D01*
X93400582Y-84961161D01*
X92909375Y-85289375D01*
X92581161Y-85780582D01*
X92465908Y-86360000D01*
X92581161Y-86939418D01*
X92909375Y-87430625D01*
X93400582Y-87758839D01*
X93833744Y-87845000D01*
X94126256Y-87845000D01*
X94559418Y-87758839D01*
X95050625Y-87430625D01*
X95250000Y-87132239D01*
X95449375Y-87430625D01*
X95940582Y-87758839D01*
X96373744Y-87845000D01*
X96666256Y-87845000D01*
X97099418Y-87758839D01*
X97590625Y-87430625D01*
X97803843Y-87111522D01*
X97864817Y-87241358D01*
X98293076Y-87631645D01*
X98703110Y-87801476D01*
X98933000Y-87680155D01*
X98933000Y-86487000D01*
X98913000Y-86487000D01*
X98913000Y-86233000D01*
X98933000Y-86233000D01*
X98933000Y-85039845D01*
X99187000Y-85039845D01*
X99187000Y-86233000D01*
X99207000Y-86233000D01*
X99207000Y-86487000D01*
X99187000Y-86487000D01*
X99187000Y-87680155D01*
X99416890Y-87801476D01*
X99826924Y-87631645D01*
X100131261Y-87354292D01*
X100151843Y-87457765D01*
X100292191Y-87667809D01*
X100502235Y-87808157D01*
X100750000Y-87857440D01*
X102450000Y-87857440D01*
X102697765Y-87808157D01*
X102907809Y-87667809D01*
X103048157Y-87457765D01*
X103097440Y-87210000D01*
X103097440Y-86090474D01*
X112310000Y-86090474D01*
X112310000Y-86629526D01*
X112516286Y-87127546D01*
X112897454Y-87508714D01*
X113395474Y-87715000D01*
X113934526Y-87715000D01*
X114432546Y-87508714D01*
X114813714Y-87127546D01*
X115020000Y-86629526D01*
X115020000Y-86090474D01*
X114813714Y-85592454D01*
X114432546Y-85211286D01*
X114354601Y-85179000D01*
X121488560Y-85179000D01*
X121488560Y-86779000D01*
X121537843Y-87026765D01*
X121678191Y-87236809D01*
X121888235Y-87377157D01*
X122136000Y-87426440D01*
X123736000Y-87426440D01*
X123983765Y-87377157D01*
X124193809Y-87236809D01*
X124200090Y-87227409D01*
X124650561Y-87414000D01*
X125221439Y-87414000D01*
X125748862Y-87195534D01*
X126152534Y-86791862D01*
X126371000Y-86264439D01*
X126371000Y-86016223D01*
X133713035Y-86016223D01*
X133740222Y-86586454D01*
X133906136Y-86987005D01*
X134152255Y-87061139D01*
X134980395Y-86233000D01*
X134152255Y-85404861D01*
X133906136Y-85478995D01*
X133713035Y-86016223D01*
X126371000Y-86016223D01*
X126371000Y-85693561D01*
X126349103Y-85640698D01*
X130948473Y-81041329D01*
X131011929Y-80998929D01*
X131179904Y-80747537D01*
X131224000Y-80525852D01*
X131224000Y-80525848D01*
X131238888Y-80451000D01*
X131224000Y-80376152D01*
X131224000Y-78581039D01*
X139324096Y-78581039D01*
X139484959Y-78969423D01*
X139860866Y-79384389D01*
X140366959Y-79623914D01*
X140589000Y-79502629D01*
X140589000Y-78359000D01*
X140843000Y-78359000D01*
X140843000Y-79502629D01*
X141065041Y-79623914D01*
X141571134Y-79384389D01*
X141947041Y-78969423D01*
X142107904Y-78581039D01*
X141985915Y-78359000D01*
X140843000Y-78359000D01*
X140589000Y-78359000D01*
X139446085Y-78359000D01*
X139324096Y-78581039D01*
X131224000Y-78581039D01*
X131224000Y-75790430D01*
X131276862Y-75768534D01*
X131485651Y-75559745D01*
X134635861Y-75559745D01*
X134709995Y-75805864D01*
X135247223Y-75998965D01*
X135817454Y-75971778D01*
X136218005Y-75805864D01*
X136252302Y-75692000D01*
X139252887Y-75692000D01*
X139364260Y-76251909D01*
X139681423Y-76726577D01*
X140065108Y-76982947D01*
X139860866Y-77079611D01*
X139484959Y-77494577D01*
X139324096Y-77882961D01*
X139446085Y-78105000D01*
X140589000Y-78105000D01*
X140589000Y-78085000D01*
X140843000Y-78085000D01*
X140843000Y-78105000D01*
X141985915Y-78105000D01*
X142107904Y-77882961D01*
X141947041Y-77494577D01*
X141571134Y-77079611D01*
X141366892Y-76982947D01*
X141750577Y-76726577D01*
X142067740Y-76251909D01*
X142179113Y-75692000D01*
X142067740Y-75132091D01*
X141750577Y-74657423D01*
X141366892Y-74401053D01*
X141571134Y-74304389D01*
X141947041Y-73889423D01*
X142107904Y-73501039D01*
X141985915Y-73279000D01*
X140843000Y-73279000D01*
X140843000Y-73299000D01*
X140589000Y-73299000D01*
X140589000Y-73279000D01*
X139446085Y-73279000D01*
X139324096Y-73501039D01*
X139484959Y-73889423D01*
X139860866Y-74304389D01*
X140065108Y-74401053D01*
X139681423Y-74657423D01*
X139364260Y-75132091D01*
X139252887Y-75692000D01*
X136252302Y-75692000D01*
X136292139Y-75559745D01*
X135464000Y-74731605D01*
X134635861Y-75559745D01*
X131485651Y-75559745D01*
X131680534Y-75364862D01*
X131899000Y-74837439D01*
X131899000Y-74335223D01*
X134017035Y-74335223D01*
X134044222Y-74905454D01*
X134210136Y-75306005D01*
X134456255Y-75380139D01*
X135284395Y-74552000D01*
X135643605Y-74552000D01*
X136471745Y-75380139D01*
X136717864Y-75306005D01*
X136910965Y-74768777D01*
X136883778Y-74198546D01*
X136717864Y-73797995D01*
X136471745Y-73723861D01*
X135643605Y-74552000D01*
X135284395Y-74552000D01*
X134456255Y-73723861D01*
X134210136Y-73797995D01*
X134017035Y-74335223D01*
X131899000Y-74335223D01*
X131899000Y-74266561D01*
X131680534Y-73739138D01*
X131485651Y-73544255D01*
X134635861Y-73544255D01*
X135464000Y-74372395D01*
X136292139Y-73544255D01*
X136218005Y-73298136D01*
X135680777Y-73105035D01*
X135110546Y-73132222D01*
X134709995Y-73298136D01*
X134635861Y-73544255D01*
X131485651Y-73544255D01*
X131276862Y-73335466D01*
X130749439Y-73117000D01*
X130178561Y-73117000D01*
X129651138Y-73335466D01*
X129247466Y-73739138D01*
X129029000Y-74266561D01*
X129029000Y-74837439D01*
X129247466Y-75364862D01*
X129651138Y-75768534D01*
X129704000Y-75790430D01*
X129704001Y-80136197D01*
X125274302Y-84565897D01*
X125221439Y-84544000D01*
X124650561Y-84544000D01*
X124200090Y-84730591D01*
X124193809Y-84721191D01*
X123983765Y-84580843D01*
X123736000Y-84531560D01*
X122136000Y-84531560D01*
X121888235Y-84580843D01*
X121678191Y-84721191D01*
X121537843Y-84931235D01*
X121488560Y-85179000D01*
X114354601Y-85179000D01*
X113934526Y-85005000D01*
X113395474Y-85005000D01*
X112897454Y-85211286D01*
X112516286Y-85592454D01*
X112310000Y-86090474D01*
X103097440Y-86090474D01*
X103097440Y-85510000D01*
X103048157Y-85262235D01*
X102907809Y-85052191D01*
X102697765Y-84911843D01*
X102450000Y-84862560D01*
X100750000Y-84862560D01*
X100502235Y-84911843D01*
X100292191Y-85052191D01*
X100151843Y-85262235D01*
X100131261Y-85365708D01*
X99826924Y-85088355D01*
X99416890Y-84918524D01*
X99187000Y-85039845D01*
X98933000Y-85039845D01*
X98703110Y-84918524D01*
X98293076Y-85088355D01*
X97864817Y-85478642D01*
X97803843Y-85608478D01*
X97590625Y-85289375D01*
X97280000Y-85081822D01*
X97280000Y-83550474D01*
X114850000Y-83550474D01*
X114850000Y-84089526D01*
X115056286Y-84587546D01*
X115437454Y-84968714D01*
X115935474Y-85175000D01*
X116474526Y-85175000D01*
X116972546Y-84968714D01*
X117353714Y-84587546D01*
X117560000Y-84089526D01*
X117560000Y-83550474D01*
X117353714Y-83052454D01*
X116972546Y-82671286D01*
X116474526Y-82465000D01*
X115935474Y-82465000D01*
X115437454Y-82671286D01*
X115056286Y-83052454D01*
X114850000Y-83550474D01*
X97280000Y-83550474D01*
X97280000Y-82229774D01*
X112894831Y-82229774D01*
X112959131Y-82467611D01*
X113467342Y-82647333D01*
X114005644Y-82618892D01*
X114370869Y-82467611D01*
X114435169Y-82229774D01*
X113665000Y-81459605D01*
X112894831Y-82229774D01*
X97280000Y-82229774D01*
X97280000Y-81082342D01*
X112297667Y-81082342D01*
X112326108Y-81620644D01*
X112477389Y-81985869D01*
X112715226Y-82050169D01*
X113485395Y-81280000D01*
X113844605Y-81280000D01*
X114614774Y-82050169D01*
X114852611Y-81985869D01*
X115032333Y-81477658D01*
X115003892Y-80939356D01*
X114852611Y-80574131D01*
X114614774Y-80509831D01*
X113844605Y-81280000D01*
X113485395Y-81280000D01*
X112715226Y-80509831D01*
X112477389Y-80574131D01*
X112297667Y-81082342D01*
X97280000Y-81082342D01*
X97280000Y-80330226D01*
X112894831Y-80330226D01*
X113665000Y-81100395D01*
X114435169Y-80330226D01*
X114370869Y-80092389D01*
X113862658Y-79912667D01*
X113324356Y-79941108D01*
X112959131Y-80092389D01*
X112894831Y-80330226D01*
X97280000Y-80330226D01*
X97280000Y-74263561D01*
X115151000Y-74263561D01*
X115151000Y-74834439D01*
X115369466Y-75361862D01*
X115773138Y-75765534D01*
X116300561Y-75984000D01*
X116871439Y-75984000D01*
X117398862Y-75765534D01*
X117802534Y-75361862D01*
X118021000Y-74834439D01*
X118021000Y-74549000D01*
X125282887Y-74549000D01*
X125394260Y-75108909D01*
X125711423Y-75583577D01*
X126186091Y-75900740D01*
X126604667Y-75984000D01*
X126887333Y-75984000D01*
X127305909Y-75900740D01*
X127780577Y-75583577D01*
X128097740Y-75108909D01*
X128209113Y-74549000D01*
X128097740Y-73989091D01*
X127780577Y-73514423D01*
X127305909Y-73197260D01*
X126887333Y-73114000D01*
X126604667Y-73114000D01*
X126186091Y-73197260D01*
X125711423Y-73514423D01*
X125394260Y-73989091D01*
X125282887Y-74549000D01*
X118021000Y-74549000D01*
X118021000Y-74263561D01*
X117802534Y-73736138D01*
X117398862Y-73332466D01*
X116871439Y-73114000D01*
X116300561Y-73114000D01*
X115773138Y-73332466D01*
X115369466Y-73736138D01*
X115151000Y-74263561D01*
X97280000Y-74263561D01*
X97280000Y-70926801D01*
X108701000Y-59505802D01*
X108701000Y-59741330D01*
X108934690Y-60305507D01*
X109335183Y-60706000D01*
X108934690Y-61106493D01*
X108701000Y-61670670D01*
X108701000Y-62281330D01*
X108934690Y-62845507D01*
X109335183Y-63246000D01*
X108934690Y-63646493D01*
X108701000Y-64210670D01*
X108701000Y-64821330D01*
X108934690Y-65385507D01*
X109335183Y-65786000D01*
X108934690Y-66186493D01*
X108701000Y-66750670D01*
X108701000Y-67361330D01*
X108934690Y-67925507D01*
X109366493Y-68357310D01*
X109930670Y-68591000D01*
X110541330Y-68591000D01*
X111105507Y-68357310D01*
X111537310Y-67925507D01*
X111771000Y-67361330D01*
X111771000Y-66750670D01*
X111537310Y-66186493D01*
X111136817Y-65786000D01*
X111537310Y-65385507D01*
X111771000Y-64821330D01*
X111771000Y-64210670D01*
X111537310Y-63646493D01*
X111136817Y-63246000D01*
X111537310Y-62845507D01*
X111771000Y-62281330D01*
X111771000Y-62045801D01*
X115826000Y-66100802D01*
X115826001Y-70282956D01*
X115551423Y-70466423D01*
X115234260Y-70941091D01*
X115122887Y-71501000D01*
X115234260Y-72060909D01*
X115551423Y-72535577D01*
X116026091Y-72852740D01*
X116444667Y-72936000D01*
X116727333Y-72936000D01*
X117145909Y-72852740D01*
X117620577Y-72535577D01*
X117937740Y-72060909D01*
X118049113Y-71501000D01*
X117992336Y-71215561D01*
X125311000Y-71215561D01*
X125311000Y-71786439D01*
X125529466Y-72313862D01*
X125933138Y-72717534D01*
X126460561Y-72936000D01*
X127031439Y-72936000D01*
X127558862Y-72717534D01*
X127962534Y-72313862D01*
X128181000Y-71786439D01*
X128181000Y-71216561D01*
X129029000Y-71216561D01*
X129029000Y-71787439D01*
X129247466Y-72314862D01*
X129651138Y-72718534D01*
X130178561Y-72937000D01*
X130749439Y-72937000D01*
X131276862Y-72718534D01*
X131485651Y-72509745D01*
X134635861Y-72509745D01*
X134709995Y-72755864D01*
X135247223Y-72948965D01*
X135817454Y-72921778D01*
X136218005Y-72755864D01*
X136292139Y-72509745D01*
X135464000Y-71681605D01*
X134635861Y-72509745D01*
X131485651Y-72509745D01*
X131680534Y-72314862D01*
X131899000Y-71787439D01*
X131899000Y-71285223D01*
X134017035Y-71285223D01*
X134044222Y-71855454D01*
X134210136Y-72256005D01*
X134456255Y-72330139D01*
X135284395Y-71502000D01*
X135643605Y-71502000D01*
X136471745Y-72330139D01*
X136717864Y-72256005D01*
X136910965Y-71718777D01*
X136883778Y-71148546D01*
X136717864Y-70747995D01*
X136471745Y-70673861D01*
X135643605Y-71502000D01*
X135284395Y-71502000D01*
X134456255Y-70673861D01*
X134210136Y-70747995D01*
X134017035Y-71285223D01*
X131899000Y-71285223D01*
X131899000Y-71216561D01*
X131680534Y-70689138D01*
X131485651Y-70494255D01*
X134635861Y-70494255D01*
X135464000Y-71322395D01*
X136292139Y-70494255D01*
X136218005Y-70248136D01*
X135680777Y-70055035D01*
X135110546Y-70082222D01*
X134709995Y-70248136D01*
X134635861Y-70494255D01*
X131485651Y-70494255D01*
X131276862Y-70285466D01*
X130749439Y-70067000D01*
X130178561Y-70067000D01*
X129651138Y-70285466D01*
X129247466Y-70689138D01*
X129029000Y-71216561D01*
X128181000Y-71216561D01*
X128181000Y-71215561D01*
X127962534Y-70688138D01*
X127558862Y-70284466D01*
X127031439Y-70066000D01*
X126460561Y-70066000D01*
X125933138Y-70284466D01*
X125529466Y-70688138D01*
X125311000Y-71215561D01*
X117992336Y-71215561D01*
X117937740Y-70941091D01*
X117620577Y-70466423D01*
X117346000Y-70282957D01*
X117346000Y-65860846D01*
X117360888Y-65785999D01*
X117346000Y-65711152D01*
X117346000Y-65711148D01*
X117301904Y-65489463D01*
X117133929Y-65238071D01*
X117070473Y-65195671D01*
X116479802Y-64605000D01*
X134315560Y-64605000D01*
X134315560Y-66205000D01*
X134364843Y-66452765D01*
X134505191Y-66662809D01*
X134715235Y-66803157D01*
X134963000Y-66852440D01*
X136135639Y-66852440D01*
X139254373Y-69971176D01*
X139268560Y-69992408D01*
X139268560Y-71412000D01*
X139317843Y-71659765D01*
X139458191Y-71869809D01*
X139668235Y-72010157D01*
X139823361Y-72041013D01*
X139484959Y-72414577D01*
X139324096Y-72802961D01*
X139446085Y-73025000D01*
X140589000Y-73025000D01*
X140589000Y-73005000D01*
X140843000Y-73005000D01*
X140843000Y-73025000D01*
X141985915Y-73025000D01*
X142107904Y-72802961D01*
X141947041Y-72414577D01*
X141608639Y-72041013D01*
X141763765Y-72010157D01*
X141973809Y-71869809D01*
X142114157Y-71659765D01*
X142163440Y-71412000D01*
X142163440Y-69812000D01*
X142114157Y-69564235D01*
X141973809Y-69354191D01*
X141763765Y-69213843D01*
X141516000Y-69164560D01*
X141414797Y-69164560D01*
X141263929Y-68938771D01*
X141012537Y-68770796D01*
X140790852Y-68726700D01*
X140716000Y-68711811D01*
X140641148Y-68726700D01*
X140159503Y-68726700D01*
X139242548Y-67809745D01*
X142253861Y-67809745D01*
X142327995Y-68055864D01*
X142865223Y-68248965D01*
X143435454Y-68221778D01*
X143836005Y-68055864D01*
X143910139Y-67809745D01*
X143082000Y-66981605D01*
X142253861Y-67809745D01*
X139242548Y-67809745D01*
X138207088Y-66774286D01*
X138575862Y-66621534D01*
X138612173Y-66585223D01*
X141635035Y-66585223D01*
X141662222Y-67155454D01*
X141828136Y-67556005D01*
X142074255Y-67630139D01*
X142902395Y-66802000D01*
X143261605Y-66802000D01*
X144089745Y-67630139D01*
X144335864Y-67556005D01*
X144528965Y-67018777D01*
X144505021Y-66516561D01*
X146647000Y-66516561D01*
X146647000Y-67087439D01*
X146865466Y-67614862D01*
X147269138Y-68018534D01*
X147796561Y-68237000D01*
X148367439Y-68237000D01*
X148894862Y-68018534D01*
X149298534Y-67614862D01*
X149517000Y-67087439D01*
X149517000Y-66516561D01*
X149298534Y-65989138D01*
X148894862Y-65585466D01*
X148367439Y-65367000D01*
X147796561Y-65367000D01*
X147269138Y-65585466D01*
X146865466Y-65989138D01*
X146647000Y-66516561D01*
X144505021Y-66516561D01*
X144501778Y-66448546D01*
X144335864Y-66047995D01*
X144089745Y-65973861D01*
X143261605Y-66802000D01*
X142902395Y-66802000D01*
X142074255Y-65973861D01*
X141828136Y-66047995D01*
X141635035Y-66585223D01*
X138612173Y-66585223D01*
X138979534Y-66217862D01*
X139154997Y-65794255D01*
X142253861Y-65794255D01*
X143082000Y-66622395D01*
X143910139Y-65794255D01*
X143836005Y-65548136D01*
X143298777Y-65355035D01*
X142728546Y-65382222D01*
X142327995Y-65548136D01*
X142253861Y-65794255D01*
X139154997Y-65794255D01*
X139198000Y-65690439D01*
X139198000Y-65119561D01*
X138979534Y-64592138D01*
X138575862Y-64188466D01*
X138048439Y-63970000D01*
X137477561Y-63970000D01*
X137027090Y-64156591D01*
X137020809Y-64147191D01*
X136810765Y-64006843D01*
X136563000Y-63957560D01*
X134963000Y-63957560D01*
X134715235Y-64006843D01*
X134505191Y-64147191D01*
X134364843Y-64357235D01*
X134315560Y-64605000D01*
X116479802Y-64605000D01*
X111725640Y-59850839D01*
X111771000Y-59741330D01*
X111771000Y-59130670D01*
X111537310Y-58566493D01*
X111136817Y-58166000D01*
X111537310Y-57765507D01*
X111771000Y-57201330D01*
X111771000Y-56590670D01*
X111537310Y-56026493D01*
X111358856Y-55848039D01*
X124211096Y-55848039D01*
X124371959Y-56236423D01*
X124747866Y-56651389D01*
X125253959Y-56890914D01*
X125476000Y-56769629D01*
X125476000Y-55626000D01*
X125730000Y-55626000D01*
X125730000Y-56769629D01*
X125952041Y-56890914D01*
X126458134Y-56651389D01*
X126834041Y-56236423D01*
X126994904Y-55848039D01*
X126872915Y-55626000D01*
X125730000Y-55626000D01*
X125476000Y-55626000D01*
X124333085Y-55626000D01*
X124211096Y-55848039D01*
X111358856Y-55848039D01*
X111136817Y-55626000D01*
X111537310Y-55225507D01*
X111771000Y-54661330D01*
X111771000Y-54050670D01*
X111537310Y-53486493D01*
X111105507Y-53054690D01*
X111085885Y-53046562D01*
X111136554Y-52896159D01*
X110236000Y-51995605D01*
X109335446Y-52896159D01*
X109386115Y-53046562D01*
X109366493Y-53054690D01*
X108934690Y-53486493D01*
X108701000Y-54050670D01*
X108701000Y-54661330D01*
X108746360Y-54770838D01*
X88574830Y-74942369D01*
X88511371Y-74984771D01*
X88343396Y-75236164D01*
X88299300Y-75457849D01*
X88299300Y-75457853D01*
X88284412Y-75532700D01*
X88299300Y-75607547D01*
X88299301Y-77562516D01*
X88030256Y-77509000D01*
X87737744Y-77509000D01*
X87434004Y-77569418D01*
X87424604Y-77522163D01*
X87256629Y-77270771D01*
X87193173Y-77228371D01*
X84725103Y-74760302D01*
X84747000Y-74707439D01*
X84747000Y-74136561D01*
X84528534Y-73609138D01*
X84124862Y-73205466D01*
X83597439Y-72987000D01*
X83026561Y-72987000D01*
X82973698Y-73008896D01*
X80092331Y-70127530D01*
X80049929Y-70064071D01*
X80045499Y-70061111D01*
X80138839Y-69921418D01*
X80254092Y-69342000D01*
X80138839Y-68762582D01*
X79810625Y-68271375D01*
X79512239Y-68072000D01*
X79810625Y-67872625D01*
X80138839Y-67381418D01*
X80254092Y-66802000D01*
X80138839Y-66222582D01*
X79810625Y-65731375D01*
X79512239Y-65532000D01*
X79810625Y-65332625D01*
X80022474Y-65015571D01*
X80211837Y-64977904D01*
X80463229Y-64809929D01*
X80505631Y-64746470D01*
X85056102Y-60196000D01*
X86029331Y-60196000D01*
X86074690Y-60305507D01*
X86134191Y-60365008D01*
X83952828Y-62546371D01*
X83889372Y-62588771D01*
X83846972Y-62652227D01*
X83846971Y-62652228D01*
X83721397Y-62840163D01*
X83713713Y-62878793D01*
X83453333Y-62827000D01*
X83170667Y-62827000D01*
X82752091Y-62910260D01*
X82277423Y-63227423D01*
X81960260Y-63702091D01*
X81848887Y-64262000D01*
X81960260Y-64821909D01*
X82277423Y-65296577D01*
X82752091Y-65613740D01*
X83170667Y-65697000D01*
X83453333Y-65697000D01*
X83871909Y-65613740D01*
X84346577Y-65296577D01*
X84532786Y-65017896D01*
X84733837Y-64977904D01*
X84985229Y-64809929D01*
X85153204Y-64558537D01*
X85212189Y-64262000D01*
X85197300Y-64187148D01*
X85197300Y-63451501D01*
X85995200Y-62653601D01*
X86074690Y-62845507D01*
X86475183Y-63246000D01*
X86074690Y-63646493D01*
X85841000Y-64210670D01*
X85841000Y-64821330D01*
X86074690Y-65385507D01*
X86475183Y-65786000D01*
X86074690Y-66186493D01*
X85841000Y-66750670D01*
X85841000Y-67361330D01*
X86074690Y-67925507D01*
X86506493Y-68357310D01*
X87070670Y-68591000D01*
X87681330Y-68591000D01*
X88245507Y-68357310D01*
X88677310Y-67925507D01*
X88911000Y-67361330D01*
X88911000Y-66750670D01*
X88677310Y-66186493D01*
X88276817Y-65786000D01*
X88677310Y-65385507D01*
X88911000Y-64821330D01*
X88911000Y-64210670D01*
X88677310Y-63646493D01*
X88276817Y-63246000D01*
X88677310Y-62845507D01*
X88911000Y-62281330D01*
X88911000Y-61670670D01*
X88677310Y-61106493D01*
X88597109Y-61026292D01*
X89098173Y-60525229D01*
X89161629Y-60482829D01*
X89329604Y-60231437D01*
X89373700Y-60009752D01*
X89373700Y-60009748D01*
X89388588Y-59934901D01*
X89373700Y-59860054D01*
X89373700Y-53409946D01*
X89388588Y-53335099D01*
X89373700Y-53260252D01*
X89373700Y-53260248D01*
X89329604Y-53038563D01*
X89161629Y-52787171D01*
X89098173Y-52744771D01*
X88783220Y-52429818D01*
X88911000Y-52121330D01*
X88911000Y-51575336D01*
X108689542Y-51575336D01*
X108715161Y-52185460D01*
X108899357Y-52630148D01*
X109155841Y-52716554D01*
X110056395Y-51816000D01*
X110415605Y-51816000D01*
X111316159Y-52716554D01*
X111572643Y-52630148D01*
X111782458Y-52056664D01*
X111756839Y-51446540D01*
X111572643Y-51001852D01*
X111316159Y-50915446D01*
X110415605Y-51816000D01*
X110056395Y-51816000D01*
X109155841Y-50915446D01*
X108899357Y-51001852D01*
X108689542Y-51575336D01*
X88911000Y-51575336D01*
X88911000Y-51510670D01*
X88677310Y-50946493D01*
X88276817Y-50546000D01*
X88677310Y-50145507D01*
X88911000Y-49581330D01*
X88911000Y-48970670D01*
X108701000Y-48970670D01*
X108701000Y-49581330D01*
X108934690Y-50145507D01*
X109366493Y-50577310D01*
X109386115Y-50585438D01*
X109335446Y-50735841D01*
X110236000Y-51636395D01*
X111136554Y-50735841D01*
X111085885Y-50585438D01*
X111105507Y-50577310D01*
X111537310Y-50145507D01*
X111771000Y-49581330D01*
X111771000Y-48970670D01*
X111537310Y-48406493D01*
X111105507Y-47974690D01*
X110541330Y-47741000D01*
X109930670Y-47741000D01*
X109366493Y-47974690D01*
X108934690Y-48406493D01*
X108701000Y-48970670D01*
X88911000Y-48970670D01*
X88677310Y-48406493D01*
X88245507Y-47974690D01*
X87681330Y-47741000D01*
X87070670Y-47741000D01*
X86506493Y-47974690D01*
X86074690Y-48406493D01*
X85841000Y-48970670D01*
X85841000Y-49581330D01*
X86074690Y-50145507D01*
X86475183Y-50546000D01*
X86074690Y-50946493D01*
X85912771Y-51337400D01*
X81994748Y-51337400D01*
X81919900Y-51322512D01*
X81845052Y-51337400D01*
X81845048Y-51337400D01*
X81623363Y-51381496D01*
X81371971Y-51549471D01*
X81329571Y-51612927D01*
X79850879Y-53091620D01*
X79810625Y-53031375D01*
X79491522Y-52818157D01*
X79621358Y-52757183D01*
X80011645Y-52328924D01*
X80181476Y-51918890D01*
X80060155Y-51689000D01*
X78867000Y-51689000D01*
X78867000Y-51709000D01*
X78613000Y-51709000D01*
X78613000Y-51689000D01*
X78593000Y-51689000D01*
X78593000Y-51435000D01*
X78613000Y-51435000D01*
X78613000Y-51415000D01*
X78867000Y-51415000D01*
X78867000Y-51435000D01*
X80060155Y-51435000D01*
X80181476Y-51205110D01*
X80011645Y-50795076D01*
X79734292Y-50490739D01*
X79837765Y-50470157D01*
X80047809Y-50329809D01*
X80188157Y-50119765D01*
X80237440Y-49872000D01*
X80237440Y-49022000D01*
X81848887Y-49022000D01*
X81960260Y-49581909D01*
X82277423Y-50056577D01*
X82752091Y-50373740D01*
X83170667Y-50457000D01*
X83453333Y-50457000D01*
X83871909Y-50373740D01*
X84346577Y-50056577D01*
X84663740Y-49581909D01*
X84775113Y-49022000D01*
X84663740Y-48462091D01*
X84346577Y-47987423D01*
X83871909Y-47670260D01*
X83453333Y-47587000D01*
X83170667Y-47587000D01*
X82752091Y-47670260D01*
X82277423Y-47987423D01*
X81960260Y-48462091D01*
X81848887Y-49022000D01*
X80237440Y-49022000D01*
X80237440Y-48172000D01*
X80188157Y-47924235D01*
X80047809Y-47714191D01*
X79837765Y-47573843D01*
X79590000Y-47524560D01*
X77890000Y-47524560D01*
X77642235Y-47573843D01*
X77432191Y-47714191D01*
X77418000Y-47735429D01*
X77418000Y-45606319D01*
X77563723Y-45958126D01*
X78501874Y-46896277D01*
X79727627Y-47404000D01*
X81054373Y-47404000D01*
X82280126Y-46896277D01*
X83218277Y-45958126D01*
X83726000Y-44732373D01*
X83726000Y-43405627D01*
X83218277Y-42179874D01*
X82388403Y-41350000D01*
X157160075Y-41350000D01*
X157114874Y-41368723D01*
G04 #@! TD*
M02*
