G04 #@! TF.GenerationSoftware,KiCad,Pcbnew,5.0.2+dfsg1-1~bpo9+1*
G04 #@! TF.CreationDate,2020-07-13T10:59:22+01:00*
G04 #@! TF.ProjectId,esp8bit,65737038-6269-4742-9e6b-696361645f70,rev?*
G04 #@! TF.SameCoordinates,Original*
G04 #@! TF.FileFunction,Copper,L1,Top*
G04 #@! TF.FilePolarity,Positive*
%FSLAX46Y46*%
G04 Gerber Fmt 4.6, Leading zero omitted, Abs format (unit mm)*
G04 Created by KiCad (PCBNEW 5.0.2+dfsg1-1~bpo9+1) date Mon 13 Jul 2020 10:59:22 IST*
%MOMM*%
%LPD*%
G01*
G04 APERTURE LIST*
G04 #@! TA.AperFunction,ComponentPad*
%ADD10C,5.400000*%
G04 #@! TD*
G04 #@! TA.AperFunction,ComponentPad*
%ADD11C,1.600000*%
G04 #@! TD*
G04 #@! TA.AperFunction,ComponentPad*
%ADD12O,1.600000X1.600000*%
G04 #@! TD*
G04 #@! TA.AperFunction,ComponentPad*
%ADD13R,1.600000X1.600000*%
G04 #@! TD*
G04 #@! TA.AperFunction,ComponentPad*
%ADD14R,1.700000X1.700000*%
G04 #@! TD*
G04 #@! TA.AperFunction,ComponentPad*
%ADD15O,1.700000X1.700000*%
G04 #@! TD*
G04 #@! TA.AperFunction,ComponentPad*
%ADD16C,1.440000*%
G04 #@! TD*
G04 #@! TA.AperFunction,ComponentPad*
%ADD17C,1.800000*%
G04 #@! TD*
G04 #@! TA.AperFunction,Conductor*
%ADD18C,0.250000*%
G04 #@! TD*
G04 APERTURE END LIST*
D10*
G04 #@! TO.P,REF\002A\002A,1*
G04 #@! TO.N,N/C*
X159131000Y-86995000D03*
G04 #@! TD*
G04 #@! TO.P,REF\002A\002A,1*
G04 #@! TO.N,N/C*
X80264000Y-87122000D03*
G04 #@! TD*
G04 #@! TO.P,REF\002A\002A,1*
G04 #@! TO.N,N/C*
X159004000Y-44196000D03*
G04 #@! TD*
D11*
G04 #@! TO.P,R7,1*
G04 #@! TO.N,/SD_CS*
X151638000Y-54737000D03*
D12*
G04 #@! TO.P,R7,2*
G04 #@! TO.N,VCC*
X141478000Y-54737000D03*
G04 #@! TD*
D11*
G04 #@! TO.P,C3,2*
G04 #@! TO.N,Net-(C2-Pad1)*
X124936000Y-85979000D03*
D13*
G04 #@! TO.P,C3,1*
G04 #@! TO.N,Net-(C3-Pad1)*
X122936000Y-85979000D03*
G04 #@! TD*
G04 #@! TO.P,C4,1*
G04 #@! TO.N,Net-(C4-Pad1)*
X135763000Y-65405000D03*
D11*
G04 #@! TO.P,C4,2*
G04 #@! TO.N,Net-(C4-Pad2)*
X137763000Y-65405000D03*
G04 #@! TD*
G04 #@! TO.P,C5,2*
G04 #@! TO.N,GND*
X135160000Y-86233000D03*
D13*
G04 #@! TO.P,C5,1*
G04 #@! TO.N,Net-(C5-Pad1)*
X137160000Y-86233000D03*
G04 #@! TD*
G04 #@! TO.P,C7,1*
G04 #@! TO.N,Net-(C7-Pad1)*
X151130000Y-86106000D03*
D11*
G04 #@! TO.P,C7,2*
G04 #@! TO.N,Net-(C7-Pad2)*
X153130000Y-86106000D03*
G04 #@! TD*
G04 #@! TO.P,C2,1*
G04 #@! TO.N,Net-(C2-Pad1)*
X130464000Y-74552000D03*
G04 #@! TO.P,C2,2*
G04 #@! TO.N,GND*
X135464000Y-74552000D03*
G04 #@! TD*
G04 #@! TO.P,C6,2*
G04 #@! TO.N,GND*
X143082000Y-66802000D03*
G04 #@! TO.P,C6,1*
G04 #@! TO.N,Net-(C6-Pad1)*
X148082000Y-66802000D03*
G04 #@! TD*
G04 #@! TO.P,C1,1*
G04 #@! TO.N,Net-(C1-Pad1)*
X130464000Y-71502000D03*
G04 #@! TO.P,C1,2*
G04 #@! TO.N,GND*
X135464000Y-71502000D03*
G04 #@! TD*
D14*
G04 #@! TO.P,J6,1*
G04 #@! TO.N,GND*
X145288000Y-86360000D03*
D15*
G04 #@! TO.P,J6,2*
G04 #@! TO.N,Net-(C7-Pad1)*
X142748000Y-86360000D03*
G04 #@! TD*
D14*
G04 #@! TO.P,J4,1*
G04 #@! TO.N,VCC*
X101600000Y-86360000D03*
D15*
G04 #@! TO.P,J4,2*
G04 #@! TO.N,GND*
X99060000Y-86360000D03*
G04 #@! TO.P,J4,3*
G04 #@! TO.N,/KBD_DATA*
X96520000Y-86360000D03*
G04 #@! TO.P,J4,4*
G04 #@! TO.N,/KBD_CLK*
X93980000Y-86360000D03*
G04 #@! TD*
G04 #@! TO.P,J5,4*
G04 #@! TO.N,/KBD_CLK*
X87884000Y-81534000D03*
G04 #@! TO.P,J5,3*
G04 #@! TO.N,/LED*
X85344000Y-81534000D03*
G04 #@! TO.P,J5,2*
G04 #@! TO.N,VCC*
X87884000Y-78994000D03*
D14*
G04 #@! TO.P,J5,1*
G04 #@! TO.N,/LED*
X85344000Y-78994000D03*
G04 #@! TD*
G04 #@! TO.P,J2,1*
G04 #@! TO.N,/SD_RAM_CS*
X120396000Y-53340000D03*
D15*
G04 #@! TO.P,J2,2*
G04 #@! TO.N,/SD_CS*
X117856000Y-53340000D03*
G04 #@! TO.P,J2,3*
G04 #@! TO.N,/SD_RAM_CS*
X120396000Y-50800000D03*
G04 #@! TO.P,J2,4*
G04 #@! TO.N,/RAM_CS*
X117856000Y-50800000D03*
G04 #@! TD*
D12*
G04 #@! TO.P,U2,8*
G04 #@! TO.N,+3V3*
X135763000Y-47879000D03*
G04 #@! TO.P,U2,4*
G04 #@! TO.N,GND*
X125603000Y-55499000D03*
G04 #@! TO.P,U2,7*
G04 #@! TO.N,Net-(R3-Pad2)*
X135763000Y-50419000D03*
G04 #@! TO.P,U2,3*
G04 #@! TO.N,GND*
X125603000Y-52959000D03*
G04 #@! TO.P,U2,6*
G04 #@! TO.N,/SCK*
X135763000Y-52959000D03*
G04 #@! TO.P,U2,2*
G04 #@! TO.N,/MISO*
X125603000Y-50419000D03*
G04 #@! TO.P,U2,5*
G04 #@! TO.N,/MOSI*
X135763000Y-55499000D03*
D13*
G04 #@! TO.P,U2,1*
G04 #@! TO.N,/RAM_CS*
X125603000Y-47879000D03*
G04 #@! TD*
G04 #@! TO.P,U3,1*
G04 #@! TO.N,Net-(C4-Pad1)*
X140716000Y-70612000D03*
D12*
G04 #@! TO.P,U3,5*
G04 #@! TO.N,Net-(C7-Pad2)*
X150876000Y-78232000D03*
G04 #@! TO.P,U3,2*
G04 #@! TO.N,GND*
X140716000Y-73152000D03*
G04 #@! TO.P,U3,6*
G04 #@! TO.N,VCC*
X150876000Y-75692000D03*
G04 #@! TO.P,U3,3*
G04 #@! TO.N,Net-(R_POT1-Pad2)*
X140716000Y-75692000D03*
G04 #@! TO.P,U3,7*
G04 #@! TO.N,Net-(C5-Pad1)*
X150876000Y-73152000D03*
G04 #@! TO.P,U3,4*
G04 #@! TO.N,GND*
X140716000Y-78232000D03*
G04 #@! TO.P,U3,8*
G04 #@! TO.N,Net-(C4-Pad2)*
X150876000Y-70612000D03*
G04 #@! TD*
D16*
G04 #@! TO.P,R_POT1,3*
G04 #@! TO.N,GND*
X113665000Y-81280000D03*
G04 #@! TO.P,R_POT1,2*
G04 #@! TO.N,Net-(R_POT1-Pad2)*
X116205000Y-83820000D03*
G04 #@! TO.P,R_POT1,1*
G04 #@! TO.N,Net-(C3-Pad1)*
X113665000Y-86360000D03*
G04 #@! TD*
D11*
G04 #@! TO.P,R2,1*
G04 #@! TO.N,VCC*
X83312000Y-74422000D03*
D12*
G04 #@! TO.P,R2,2*
G04 #@! TO.N,/TFT_CS*
X83312000Y-64262000D03*
G04 #@! TD*
G04 #@! TO.P,R3,2*
G04 #@! TO.N,Net-(R3-Pad2)*
X151638000Y-47879000D03*
D11*
G04 #@! TO.P,R3,1*
G04 #@! TO.N,+3V3*
X141478000Y-47879000D03*
G04 #@! TD*
G04 #@! TO.P,R4,1*
G04 #@! TO.N,Net-(C1-Pad1)*
X126746000Y-71501000D03*
D12*
G04 #@! TO.P,R4,2*
G04 #@! TO.N,/Sound*
X116586000Y-71501000D03*
G04 #@! TD*
G04 #@! TO.P,R5,2*
G04 #@! TO.N,Net-(C1-Pad1)*
X126746000Y-74549000D03*
D11*
G04 #@! TO.P,R5,1*
G04 #@! TO.N,Net-(C2-Pad1)*
X116586000Y-74549000D03*
G04 #@! TD*
G04 #@! TO.P,R6,1*
G04 #@! TO.N,Net-(C7-Pad2)*
X155321000Y-80264000D03*
D12*
G04 #@! TO.P,R6,2*
G04 #@! TO.N,Net-(C6-Pad1)*
X155321000Y-70104000D03*
G04 #@! TD*
D14*
G04 #@! TO.P,J3,1*
G04 #@! TO.N,/SD_CS*
X160528000Y-61722000D03*
D15*
G04 #@! TO.P,J3,2*
G04 #@! TO.N,/MOSI*
X160528000Y-64262000D03*
G04 #@! TO.P,J3,3*
G04 #@! TO.N,/MISO*
X160528000Y-66802000D03*
G04 #@! TO.P,J3,4*
G04 #@! TO.N,/SCK*
X160528000Y-69342000D03*
G04 #@! TD*
G04 #@! TO.P,J1,14*
G04 #@! TO.N,/T_IRQ*
X78740000Y-82042000D03*
G04 #@! TO.P,J1,13*
G04 #@! TO.N,/T_OUT*
X78740000Y-79502000D03*
G04 #@! TO.P,J1,12*
G04 #@! TO.N,/T_DIN*
X78740000Y-76962000D03*
G04 #@! TO.P,J1,11*
G04 #@! TO.N,/T_CS*
X78740000Y-74422000D03*
G04 #@! TO.P,J1,10*
G04 #@! TO.N,/T_CLK*
X78740000Y-71882000D03*
G04 #@! TO.P,J1,9*
G04 #@! TO.N,/MISO*
X78740000Y-69342000D03*
G04 #@! TO.P,J1,8*
G04 #@! TO.N,/LED*
X78740000Y-66802000D03*
G04 #@! TO.P,J1,7*
G04 #@! TO.N,/SCK*
X78740000Y-64262000D03*
G04 #@! TO.P,J1,6*
G04 #@! TO.N,/MOSI*
X78740000Y-61722000D03*
G04 #@! TO.P,J1,5*
G04 #@! TO.N,/DC*
X78740000Y-59182000D03*
G04 #@! TO.P,J1,4*
G04 #@! TO.N,/Rst*
X78740000Y-56642000D03*
G04 #@! TO.P,J1,3*
G04 #@! TO.N,/TFT_CS*
X78740000Y-54102000D03*
G04 #@! TO.P,J1,2*
G04 #@! TO.N,GND*
X78740000Y-51562000D03*
D14*
G04 #@! TO.P,J1,1*
G04 #@! TO.N,VCC*
X78740000Y-49022000D03*
G04 #@! TD*
D11*
G04 #@! TO.P,R1,1*
G04 #@! TO.N,/RAM_CS*
X83312000Y-59182000D03*
D12*
G04 #@! TO.P,R1,2*
G04 #@! TO.N,VCC*
X83312000Y-49022000D03*
G04 #@! TD*
D17*
G04 #@! TO.P,U1,9*
G04 #@! TO.N,/Rst*
X87376000Y-67056000D03*
G04 #@! TO.P,U1,10*
G04 #@! TO.N,Net-(U1-Pad10)*
X87376000Y-64516000D03*
G04 #@! TO.P,U1,11*
G04 #@! TO.N,/SD_RAM_CS*
X87376000Y-61976000D03*
G04 #@! TO.P,U1,12*
G04 #@! TO.N,/SCK*
X87376000Y-59436000D03*
G04 #@! TO.P,U1,13*
G04 #@! TO.N,/MISO*
X87376000Y-56896000D03*
G04 #@! TO.P,U1,14*
G04 #@! TO.N,/MOSI*
X87376000Y-54356000D03*
G04 #@! TO.P,U1,15*
G04 #@! TO.N,/TFT_CS*
X87376000Y-51816000D03*
G04 #@! TO.P,U1,16*
G04 #@! TO.N,+3V3*
X87376000Y-49276000D03*
G04 #@! TO.P,U1,1*
G04 #@! TO.N,VCC*
X110236000Y-49276000D03*
G04 #@! TO.P,U1,2*
G04 #@! TO.N,GND*
X110236000Y-51816000D03*
G04 #@! TO.P,U1,3*
G04 #@! TO.N,/KBD_CLK*
X110236000Y-54356000D03*
G04 #@! TO.P,U1,4*
G04 #@! TO.N,/KBD_DATA*
X110236000Y-56896000D03*
G04 #@! TO.P,U1,5*
G04 #@! TO.N,/Sound*
X110236000Y-59436000D03*
G04 #@! TO.P,U1,6*
G04 #@! TO.N,/DC*
X110236000Y-61976000D03*
G04 #@! TO.P,U1,7*
G04 #@! TO.N,Net-(U1-Pad7)*
X110236000Y-64516000D03*
G04 #@! TO.P,U1,8*
G04 #@! TO.N,Net-(U1-Pad8)*
X110236000Y-67056000D03*
G04 #@! TD*
D10*
G04 #@! TO.P,REF\002A\002A,1*
G04 #@! TO.N,N/C*
X80391000Y-44069000D03*
G04 #@! TD*
D18*
G04 #@! TO.N,/DC*
X78740000Y-59182000D02*
X79915300Y-59182000D01*
X110236000Y-61976000D02*
X108966100Y-60706100D01*
X108966100Y-60706100D02*
X81439400Y-60706100D01*
X81439400Y-60706100D02*
X79915300Y-59182000D01*
G04 #@! TO.N,/KBD_CLK*
X87884000Y-81534000D02*
X89059300Y-81534000D01*
X93980000Y-86360000D02*
X92804700Y-86360000D01*
X89059300Y-81534000D02*
X89059300Y-82614600D01*
X89059300Y-82614600D02*
X92804700Y-86360000D01*
G04 #@! TO.N,GND*
X140716000Y-80612700D02*
X145288000Y-85184700D01*
X140716000Y-78232000D02*
X140716000Y-80612700D01*
X140716000Y-80612700D02*
X135160000Y-86168700D01*
X135160000Y-86168700D02*
X135160000Y-86233000D01*
X145288000Y-86360000D02*
X145288000Y-85184700D01*
X99060000Y-86360000D02*
X100235300Y-86360000D01*
X113665000Y-81280000D02*
X104507300Y-81280000D01*
X104507300Y-81280000D02*
X100235300Y-85552000D01*
X100235300Y-85552000D02*
X100235300Y-86360000D01*
X125603000Y-55499000D02*
X125603000Y-52959000D01*
G04 #@! TO.N,VCC*
X141478000Y-54737000D02*
X140352700Y-54737000D01*
X110236000Y-49276000D02*
X110371800Y-49140200D01*
X110371800Y-49140200D02*
X132684000Y-49140200D01*
X132684000Y-49140200D02*
X135232800Y-51689000D01*
X135232800Y-51689000D02*
X137304700Y-51689000D01*
X137304700Y-51689000D02*
X140352700Y-54737000D01*
X84437300Y-49022000D02*
X85961300Y-50546000D01*
X85961300Y-50546000D02*
X108966000Y-50546000D01*
X108966000Y-50546000D02*
X110236000Y-49276000D01*
X83312000Y-49022000D02*
X84437300Y-49022000D01*
X87884000Y-78994000D02*
X90816400Y-78994000D01*
X90816400Y-78994000D02*
X97790000Y-85967600D01*
X97790000Y-85967600D02*
X97790000Y-86822700D01*
X97790000Y-86822700D02*
X98532200Y-87564900D01*
X98532200Y-87564900D02*
X100395100Y-87564900D01*
X100395100Y-87564900D02*
X101600000Y-86360000D01*
X78740000Y-49022000D02*
X83312000Y-49022000D01*
G04 #@! TO.N,/MOSI*
X135763000Y-55499000D02*
X134637700Y-55499000D01*
X78740000Y-61722000D02*
X82363600Y-61722000D01*
X82363600Y-61722000D02*
X86427600Y-65786000D01*
X86427600Y-65786000D02*
X124350700Y-65786000D01*
X124350700Y-65786000D02*
X134637700Y-55499000D01*
X135763000Y-55499000D02*
X136888300Y-55499000D01*
X160528000Y-64262000D02*
X145651300Y-64262000D01*
X145651300Y-64262000D02*
X136888300Y-55499000D01*
G04 #@! TO.N,/MISO*
X125603000Y-50419000D02*
X124477700Y-50419000D01*
X87376000Y-56896000D02*
X89096400Y-55175600D01*
X89096400Y-55175600D02*
X104973300Y-55175600D01*
X104973300Y-55175600D02*
X109558300Y-50590600D01*
X109558300Y-50590600D02*
X113363300Y-50590600D01*
X113363300Y-50590600D02*
X114333400Y-49620500D01*
X114333400Y-49620500D02*
X123679200Y-49620500D01*
X123679200Y-49620500D02*
X124477700Y-50419000D01*
G04 #@! TO.N,/SCK*
X135763000Y-52959000D02*
X134637700Y-52959000D01*
X87376000Y-59436000D02*
X100633900Y-59436000D01*
X100633900Y-59436000D02*
X101903900Y-58166000D01*
X101903900Y-58166000D02*
X110748100Y-58166000D01*
X110748100Y-58166000D02*
X116932400Y-51981700D01*
X116932400Y-51981700D02*
X122707300Y-51981700D01*
X122707300Y-51981700D02*
X122855300Y-51833700D01*
X122855300Y-51833700D02*
X133512400Y-51833700D01*
X133512400Y-51833700D02*
X134637700Y-52959000D01*
G04 #@! TO.N,/Rst*
X78740000Y-56642000D02*
X78740000Y-57817300D01*
X87376000Y-67056000D02*
X83483700Y-67056000D01*
X83483700Y-67056000D02*
X79419700Y-62992000D01*
X79419700Y-62992000D02*
X78332700Y-62992000D01*
X78332700Y-62992000D02*
X77564700Y-62224000D01*
X77564700Y-62224000D02*
X77564700Y-58625200D01*
X77564700Y-58625200D02*
X78372600Y-57817300D01*
X78372600Y-57817300D02*
X78740000Y-57817300D01*
G04 #@! TO.N,/SD_RAM_CS*
X120396000Y-54515300D02*
X111665300Y-63246000D01*
X111665300Y-63246000D02*
X88646000Y-63246000D01*
X88646000Y-63246000D02*
X87376000Y-61976000D01*
X120396000Y-53340000D02*
X120396000Y-54515300D01*
G04 #@! TO.N,+3V3*
X135763000Y-47879000D02*
X134637700Y-47879000D01*
X87376000Y-49276000D02*
X89898300Y-46753700D01*
X89898300Y-46753700D02*
X133512400Y-46753700D01*
X133512400Y-46753700D02*
X134637700Y-47879000D01*
X141478000Y-47879000D02*
X135763000Y-47879000D01*
G04 #@! TO.N,Net-(C6-Pad1)*
X155321000Y-70104000D02*
X154195700Y-70104000D01*
X148082000Y-66802000D02*
X150893700Y-66802000D01*
X150893700Y-66802000D02*
X154195700Y-70104000D01*
G04 #@! TO.N,Net-(C1-Pad1)*
X126747000Y-71502000D02*
X126746000Y-71501000D01*
X130464000Y-71502000D02*
X126747000Y-71502000D01*
X126746000Y-74549000D02*
X126746000Y-71503000D01*
X126746000Y-71503000D02*
X126747000Y-71502000D01*
G04 #@! TO.N,Net-(C2-Pad1)*
X116586000Y-74549000D02*
X117728900Y-75691900D01*
X117728900Y-75691900D02*
X129324100Y-75691900D01*
X129324100Y-75691900D02*
X130464000Y-74552000D01*
G04 #@! TO.N,Net-(R3-Pad2)*
X151638000Y-47879000D02*
X150512700Y-47879000D01*
X150512700Y-47879000D02*
X147972700Y-50419000D01*
X147972700Y-50419000D02*
X135763000Y-50419000D01*
G04 #@! TO.N,Net-(R_POT1-Pad2)*
X140716000Y-75692000D02*
X139590700Y-75692000D01*
X116205000Y-83820000D02*
X123882700Y-76142300D01*
X123882700Y-76142300D02*
X139140400Y-76142300D01*
X139140400Y-76142300D02*
X139590700Y-75692000D01*
G04 #@! TO.N,Net-(C3-Pad1)*
X122936000Y-85979000D02*
X121810700Y-85979000D01*
X113665000Y-86360000D02*
X121429700Y-86360000D01*
X121429700Y-86360000D02*
X121810700Y-85979000D01*
G04 #@! TO.N,Net-(C4-Pad2)*
X150876000Y-70612000D02*
X142970000Y-70612000D01*
X142970000Y-70612000D02*
X137763000Y-65405000D01*
G04 #@! TO.N,/RAM_CS*
X117856000Y-50800000D02*
X116680700Y-50800000D01*
X116680700Y-50800000D02*
X111854700Y-55626000D01*
X111854700Y-55626000D02*
X96388500Y-55626000D01*
X96388500Y-55626000D02*
X93848500Y-58166000D01*
X93848500Y-58166000D02*
X84328000Y-58166000D01*
X84328000Y-58166000D02*
X83312000Y-59182000D01*
G04 #@! TO.N,/LED*
X78740000Y-66802000D02*
X78740000Y-67977300D01*
X78740000Y-67977300D02*
X79107300Y-67977300D01*
X79107300Y-67977300D02*
X85344000Y-74214000D01*
X85344000Y-74214000D02*
X85344000Y-78994000D01*
G04 #@! TD*
M02*
