G04 #@! TF.GenerationSoftware,KiCad,Pcbnew,5.0.2+dfsg1-1~bpo9+1*
G04 #@! TF.CreationDate,2020-07-13T10:59:22+01:00*
G04 #@! TF.ProjectId,esp8bit,65737038-6269-4742-9e6b-696361645f70,rev?*
G04 #@! TF.SameCoordinates,Original*
G04 #@! TF.FileFunction,Legend,Top*
G04 #@! TF.FilePolarity,Positive*
%FSLAX46Y46*%
G04 Gerber Fmt 4.6, Leading zero omitted, Abs format (unit mm)*
G04 Created by KiCad (PCBNEW 5.0.2+dfsg1-1~bpo9+1) date Mon 13 Jul 2020 10:59:22 IST*
%MOMM*%
%LPD*%
G01*
G04 APERTURE LIST*
%ADD10C,0.300000*%
%ADD11C,0.120000*%
%ADD12C,0.100000*%
%ADD13C,0.150000*%
G04 APERTURE END LIST*
D10*
X116103714Y-43787142D02*
X115960857Y-43858571D01*
X115675142Y-43858571D01*
X115532285Y-43787142D01*
X115460857Y-43644285D01*
X115460857Y-43072857D01*
X115532285Y-42930000D01*
X115675142Y-42858571D01*
X115960857Y-42858571D01*
X116103714Y-42930000D01*
X116175142Y-43072857D01*
X116175142Y-43215714D01*
X115460857Y-43358571D01*
X116746571Y-43787142D02*
X116889428Y-43858571D01*
X117175142Y-43858571D01*
X117318000Y-43787142D01*
X117389428Y-43644285D01*
X117389428Y-43572857D01*
X117318000Y-43430000D01*
X117175142Y-43358571D01*
X116960857Y-43358571D01*
X116818000Y-43287142D01*
X116746571Y-43144285D01*
X116746571Y-43072857D01*
X116818000Y-42930000D01*
X116960857Y-42858571D01*
X117175142Y-42858571D01*
X117318000Y-42930000D01*
X118032285Y-42858571D02*
X118032285Y-44358571D01*
X118032285Y-42930000D02*
X118175142Y-42858571D01*
X118460857Y-42858571D01*
X118603714Y-42930000D01*
X118675142Y-43001428D01*
X118746571Y-43144285D01*
X118746571Y-43572857D01*
X118675142Y-43715714D01*
X118603714Y-43787142D01*
X118460857Y-43858571D01*
X118175142Y-43858571D01*
X118032285Y-43787142D01*
X119603714Y-43001428D02*
X119460857Y-42930000D01*
X119389428Y-42858571D01*
X119318000Y-42715714D01*
X119318000Y-42644285D01*
X119389428Y-42501428D01*
X119460857Y-42430000D01*
X119603714Y-42358571D01*
X119889428Y-42358571D01*
X120032285Y-42430000D01*
X120103714Y-42501428D01*
X120175142Y-42644285D01*
X120175142Y-42715714D01*
X120103714Y-42858571D01*
X120032285Y-42930000D01*
X119889428Y-43001428D01*
X119603714Y-43001428D01*
X119460857Y-43072857D01*
X119389428Y-43144285D01*
X119318000Y-43287142D01*
X119318000Y-43572857D01*
X119389428Y-43715714D01*
X119460857Y-43787142D01*
X119603714Y-43858571D01*
X119889428Y-43858571D01*
X120032285Y-43787142D01*
X120103714Y-43715714D01*
X120175142Y-43572857D01*
X120175142Y-43287142D01*
X120103714Y-43144285D01*
X120032285Y-43072857D01*
X119889428Y-43001428D01*
X120818000Y-43858571D02*
X120818000Y-42358571D01*
X120818000Y-42930000D02*
X120960857Y-42858571D01*
X121246571Y-42858571D01*
X121389428Y-42930000D01*
X121460857Y-43001428D01*
X121532285Y-43144285D01*
X121532285Y-43572857D01*
X121460857Y-43715714D01*
X121389428Y-43787142D01*
X121246571Y-43858571D01*
X120960857Y-43858571D01*
X120818000Y-43787142D01*
X122175142Y-43858571D02*
X122175142Y-42858571D01*
X122175142Y-42358571D02*
X122103714Y-42430000D01*
X122175142Y-42501428D01*
X122246571Y-42430000D01*
X122175142Y-42358571D01*
X122175142Y-42501428D01*
X122675142Y-42858571D02*
X123246571Y-42858571D01*
X122889428Y-42358571D02*
X122889428Y-43644285D01*
X122960857Y-43787142D01*
X123103714Y-43858571D01*
X123246571Y-43858571D01*
X124746571Y-42858571D02*
X125103714Y-43858571D01*
X125460857Y-42858571D01*
X126818000Y-43858571D02*
X125960857Y-43858571D01*
X126389428Y-43858571D02*
X126389428Y-42358571D01*
X126246571Y-42572857D01*
X126103714Y-42715714D01*
X125960857Y-42787142D01*
X127460857Y-43715714D02*
X127532285Y-43787142D01*
X127460857Y-43858571D01*
X127389428Y-43787142D01*
X127460857Y-43715714D01*
X127460857Y-43858571D01*
X128960857Y-43858571D02*
X128103714Y-43858571D01*
X128532285Y-43858571D02*
X128532285Y-42358571D01*
X128389428Y-42572857D01*
X128246571Y-42715714D01*
X128103714Y-42787142D01*
X131175142Y-44430000D02*
X131103714Y-44358571D01*
X130960857Y-44144285D01*
X130889428Y-44001428D01*
X130818000Y-43787142D01*
X130746571Y-43430000D01*
X130746571Y-43144285D01*
X130818000Y-42787142D01*
X130889428Y-42572857D01*
X130960857Y-42430000D01*
X131103714Y-42215714D01*
X131175142Y-42144285D01*
X132389428Y-43787142D02*
X132246571Y-43858571D01*
X131960857Y-43858571D01*
X131818000Y-43787142D01*
X131746571Y-43715714D01*
X131675142Y-43572857D01*
X131675142Y-43144285D01*
X131746571Y-43001428D01*
X131818000Y-42930000D01*
X131960857Y-42858571D01*
X132246571Y-42858571D01*
X132389428Y-42930000D01*
X132889428Y-44430000D02*
X132960857Y-44358571D01*
X133103714Y-44144285D01*
X133175142Y-44001428D01*
X133246571Y-43787142D01*
X133318000Y-43430000D01*
X133318000Y-43144285D01*
X133246571Y-42787142D01*
X133175142Y-42572857D01*
X133103714Y-42430000D01*
X132960857Y-42215714D01*
X132889428Y-42144285D01*
X135103714Y-42501428D02*
X135175142Y-42430000D01*
X135318000Y-42358571D01*
X135675142Y-42358571D01*
X135818000Y-42430000D01*
X135889428Y-42501428D01*
X135960857Y-42644285D01*
X135960857Y-42787142D01*
X135889428Y-43001428D01*
X135032285Y-43858571D01*
X135960857Y-43858571D01*
X136889428Y-42358571D02*
X137032285Y-42358571D01*
X137175142Y-42430000D01*
X137246571Y-42501428D01*
X137318000Y-42644285D01*
X137389428Y-42930000D01*
X137389428Y-43287142D01*
X137318000Y-43572857D01*
X137246571Y-43715714D01*
X137175142Y-43787142D01*
X137032285Y-43858571D01*
X136889428Y-43858571D01*
X136746571Y-43787142D01*
X136675142Y-43715714D01*
X136603714Y-43572857D01*
X136532285Y-43287142D01*
X136532285Y-42930000D01*
X136603714Y-42644285D01*
X136675142Y-42501428D01*
X136746571Y-42430000D01*
X136889428Y-42358571D01*
X137960857Y-42501428D02*
X138032285Y-42430000D01*
X138175142Y-42358571D01*
X138532285Y-42358571D01*
X138675142Y-42430000D01*
X138746571Y-42501428D01*
X138818000Y-42644285D01*
X138818000Y-42787142D01*
X138746571Y-43001428D01*
X137889428Y-43858571D01*
X138818000Y-43858571D01*
X139746571Y-42358571D02*
X139889428Y-42358571D01*
X140032285Y-42430000D01*
X140103714Y-42501428D01*
X140175142Y-42644285D01*
X140246571Y-42930000D01*
X140246571Y-43287142D01*
X140175142Y-43572857D01*
X140103714Y-43715714D01*
X140032285Y-43787142D01*
X139889428Y-43858571D01*
X139746571Y-43858571D01*
X139603714Y-43787142D01*
X139532285Y-43715714D01*
X139460857Y-43572857D01*
X139389428Y-43287142D01*
X139389428Y-42930000D01*
X139460857Y-42644285D01*
X139532285Y-42501428D01*
X139603714Y-42430000D01*
X139746571Y-42358571D01*
X141960857Y-43787142D02*
X142103714Y-43858571D01*
X142389428Y-43858571D01*
X142532285Y-43787142D01*
X142603714Y-43644285D01*
X142603714Y-43572857D01*
X142532285Y-43430000D01*
X142389428Y-43358571D01*
X142175142Y-43358571D01*
X142032285Y-43287142D01*
X141960857Y-43144285D01*
X141960857Y-43072857D01*
X142032285Y-42930000D01*
X142175142Y-42858571D01*
X142389428Y-42858571D01*
X142532285Y-42930000D01*
X143032285Y-42858571D02*
X143603714Y-42858571D01*
X143246571Y-42358571D02*
X143246571Y-43644285D01*
X143318000Y-43787142D01*
X143460857Y-43858571D01*
X143603714Y-43858571D01*
X144675142Y-43787142D02*
X144532285Y-43858571D01*
X144246571Y-43858571D01*
X144103714Y-43787142D01*
X144032285Y-43644285D01*
X144032285Y-43072857D01*
X144103714Y-42930000D01*
X144246571Y-42858571D01*
X144532285Y-42858571D01*
X144675142Y-42930000D01*
X144746571Y-43072857D01*
X144746571Y-43215714D01*
X144032285Y-43358571D01*
X145246571Y-42858571D02*
X145603714Y-43858571D01*
X145960857Y-42858571D01*
X147103714Y-43787142D02*
X146960857Y-43858571D01*
X146675142Y-43858571D01*
X146532285Y-43787142D01*
X146460857Y-43644285D01*
X146460857Y-43072857D01*
X146532285Y-42930000D01*
X146675142Y-42858571D01*
X146960857Y-42858571D01*
X147103714Y-42930000D01*
X147175142Y-43072857D01*
X147175142Y-43215714D01*
X146460857Y-43358571D01*
D11*
G04 #@! TO.C,R7*
X149828000Y-56107000D02*
X149828000Y-53367000D01*
X149828000Y-53367000D02*
X143288000Y-53367000D01*
X143288000Y-53367000D02*
X143288000Y-56107000D01*
X143288000Y-56107000D02*
X149828000Y-56107000D01*
X150598000Y-54737000D02*
X149828000Y-54737000D01*
X142518000Y-54737000D02*
X143288000Y-54737000D01*
G04 #@! TO.C,C3*
X121381225Y-84254000D02*
X121381225Y-84754000D01*
X121131225Y-84504000D02*
X121631225Y-84504000D01*
X126537000Y-85695000D02*
X126537000Y-86263000D01*
X126497000Y-85461000D02*
X126497000Y-86497000D01*
X126457000Y-85302000D02*
X126457000Y-86656000D01*
X126417000Y-85174000D02*
X126417000Y-86784000D01*
X126377000Y-85064000D02*
X126377000Y-86894000D01*
X126337000Y-84968000D02*
X126337000Y-86990000D01*
X126297000Y-84881000D02*
X126297000Y-87077000D01*
X126257000Y-84801000D02*
X126257000Y-87157000D01*
X126217000Y-84728000D02*
X126217000Y-87230000D01*
X126177000Y-84660000D02*
X126177000Y-87298000D01*
X126137000Y-84596000D02*
X126137000Y-87362000D01*
X126097000Y-84536000D02*
X126097000Y-87422000D01*
X126057000Y-84479000D02*
X126057000Y-87479000D01*
X126017000Y-84425000D02*
X126017000Y-87533000D01*
X125977000Y-84374000D02*
X125977000Y-87584000D01*
X125937000Y-87019000D02*
X125937000Y-87632000D01*
X125937000Y-84326000D02*
X125937000Y-84939000D01*
X125897000Y-87019000D02*
X125897000Y-87678000D01*
X125897000Y-84280000D02*
X125897000Y-84939000D01*
X125857000Y-87019000D02*
X125857000Y-87722000D01*
X125857000Y-84236000D02*
X125857000Y-84939000D01*
X125817000Y-87019000D02*
X125817000Y-87764000D01*
X125817000Y-84194000D02*
X125817000Y-84939000D01*
X125777000Y-87019000D02*
X125777000Y-87805000D01*
X125777000Y-84153000D02*
X125777000Y-84939000D01*
X125737000Y-87019000D02*
X125737000Y-87843000D01*
X125737000Y-84115000D02*
X125737000Y-84939000D01*
X125697000Y-87019000D02*
X125697000Y-87880000D01*
X125697000Y-84078000D02*
X125697000Y-84939000D01*
X125657000Y-87019000D02*
X125657000Y-87916000D01*
X125657000Y-84042000D02*
X125657000Y-84939000D01*
X125617000Y-87019000D02*
X125617000Y-87950000D01*
X125617000Y-84008000D02*
X125617000Y-84939000D01*
X125577000Y-87019000D02*
X125577000Y-87983000D01*
X125577000Y-83975000D02*
X125577000Y-84939000D01*
X125537000Y-87019000D02*
X125537000Y-88014000D01*
X125537000Y-83944000D02*
X125537000Y-84939000D01*
X125497000Y-87019000D02*
X125497000Y-88044000D01*
X125497000Y-83914000D02*
X125497000Y-84939000D01*
X125457000Y-87019000D02*
X125457000Y-88074000D01*
X125457000Y-83884000D02*
X125457000Y-84939000D01*
X125417000Y-87019000D02*
X125417000Y-88101000D01*
X125417000Y-83857000D02*
X125417000Y-84939000D01*
X125377000Y-87019000D02*
X125377000Y-88128000D01*
X125377000Y-83830000D02*
X125377000Y-84939000D01*
X125337000Y-87019000D02*
X125337000Y-88154000D01*
X125337000Y-83804000D02*
X125337000Y-84939000D01*
X125297000Y-87019000D02*
X125297000Y-88179000D01*
X125297000Y-83779000D02*
X125297000Y-84939000D01*
X125257000Y-87019000D02*
X125257000Y-88203000D01*
X125257000Y-83755000D02*
X125257000Y-84939000D01*
X125217000Y-87019000D02*
X125217000Y-88226000D01*
X125217000Y-83732000D02*
X125217000Y-84939000D01*
X125177000Y-87019000D02*
X125177000Y-88247000D01*
X125177000Y-83711000D02*
X125177000Y-84939000D01*
X125137000Y-87019000D02*
X125137000Y-88269000D01*
X125137000Y-83689000D02*
X125137000Y-84939000D01*
X125097000Y-87019000D02*
X125097000Y-88289000D01*
X125097000Y-83669000D02*
X125097000Y-84939000D01*
X125057000Y-87019000D02*
X125057000Y-88308000D01*
X125057000Y-83650000D02*
X125057000Y-84939000D01*
X125017000Y-87019000D02*
X125017000Y-88327000D01*
X125017000Y-83631000D02*
X125017000Y-84939000D01*
X124977000Y-87019000D02*
X124977000Y-88344000D01*
X124977000Y-83614000D02*
X124977000Y-84939000D01*
X124937000Y-87019000D02*
X124937000Y-88361000D01*
X124937000Y-83597000D02*
X124937000Y-84939000D01*
X124897000Y-87019000D02*
X124897000Y-88377000D01*
X124897000Y-83581000D02*
X124897000Y-84939000D01*
X124857000Y-87019000D02*
X124857000Y-88393000D01*
X124857000Y-83565000D02*
X124857000Y-84939000D01*
X124817000Y-87019000D02*
X124817000Y-88407000D01*
X124817000Y-83551000D02*
X124817000Y-84939000D01*
X124777000Y-87019000D02*
X124777000Y-88421000D01*
X124777000Y-83537000D02*
X124777000Y-84939000D01*
X124737000Y-87019000D02*
X124737000Y-88434000D01*
X124737000Y-83524000D02*
X124737000Y-84939000D01*
X124697000Y-87019000D02*
X124697000Y-88447000D01*
X124697000Y-83511000D02*
X124697000Y-84939000D01*
X124657000Y-87019000D02*
X124657000Y-88459000D01*
X124657000Y-83499000D02*
X124657000Y-84939000D01*
X124616000Y-87019000D02*
X124616000Y-88470000D01*
X124616000Y-83488000D02*
X124616000Y-84939000D01*
X124576000Y-87019000D02*
X124576000Y-88480000D01*
X124576000Y-83478000D02*
X124576000Y-84939000D01*
X124536000Y-87019000D02*
X124536000Y-88490000D01*
X124536000Y-83468000D02*
X124536000Y-84939000D01*
X124496000Y-87019000D02*
X124496000Y-88499000D01*
X124496000Y-83459000D02*
X124496000Y-84939000D01*
X124456000Y-87019000D02*
X124456000Y-88507000D01*
X124456000Y-83451000D02*
X124456000Y-84939000D01*
X124416000Y-87019000D02*
X124416000Y-88515000D01*
X124416000Y-83443000D02*
X124416000Y-84939000D01*
X124376000Y-87019000D02*
X124376000Y-88522000D01*
X124376000Y-83436000D02*
X124376000Y-84939000D01*
X124336000Y-87019000D02*
X124336000Y-88529000D01*
X124336000Y-83429000D02*
X124336000Y-84939000D01*
X124296000Y-87019000D02*
X124296000Y-88535000D01*
X124296000Y-83423000D02*
X124296000Y-84939000D01*
X124256000Y-87019000D02*
X124256000Y-88540000D01*
X124256000Y-83418000D02*
X124256000Y-84939000D01*
X124216000Y-87019000D02*
X124216000Y-88544000D01*
X124216000Y-83414000D02*
X124216000Y-84939000D01*
X124176000Y-87019000D02*
X124176000Y-88548000D01*
X124176000Y-83410000D02*
X124176000Y-84939000D01*
X124136000Y-87019000D02*
X124136000Y-88552000D01*
X124136000Y-83406000D02*
X124136000Y-84939000D01*
X124096000Y-87019000D02*
X124096000Y-88555000D01*
X124096000Y-83403000D02*
X124096000Y-84939000D01*
X124056000Y-87019000D02*
X124056000Y-88557000D01*
X124056000Y-83401000D02*
X124056000Y-84939000D01*
X124016000Y-87019000D02*
X124016000Y-88558000D01*
X124016000Y-83400000D02*
X124016000Y-84939000D01*
X123976000Y-83399000D02*
X123976000Y-84939000D01*
X123976000Y-87019000D02*
X123976000Y-88559000D01*
X123936000Y-83399000D02*
X123936000Y-84939000D01*
X123936000Y-87019000D02*
X123936000Y-88559000D01*
X126556000Y-85979000D02*
G75*
G03X126556000Y-85979000I-2620000J0D01*
G01*
G04 #@! TO.C,C4*
X139383000Y-65405000D02*
G75*
G03X139383000Y-65405000I-2620000J0D01*
G01*
X136763000Y-66445000D02*
X136763000Y-67985000D01*
X136763000Y-62825000D02*
X136763000Y-64365000D01*
X136803000Y-66445000D02*
X136803000Y-67985000D01*
X136803000Y-62825000D02*
X136803000Y-64365000D01*
X136843000Y-62826000D02*
X136843000Y-64365000D01*
X136843000Y-66445000D02*
X136843000Y-67984000D01*
X136883000Y-62827000D02*
X136883000Y-64365000D01*
X136883000Y-66445000D02*
X136883000Y-67983000D01*
X136923000Y-62829000D02*
X136923000Y-64365000D01*
X136923000Y-66445000D02*
X136923000Y-67981000D01*
X136963000Y-62832000D02*
X136963000Y-64365000D01*
X136963000Y-66445000D02*
X136963000Y-67978000D01*
X137003000Y-62836000D02*
X137003000Y-64365000D01*
X137003000Y-66445000D02*
X137003000Y-67974000D01*
X137043000Y-62840000D02*
X137043000Y-64365000D01*
X137043000Y-66445000D02*
X137043000Y-67970000D01*
X137083000Y-62844000D02*
X137083000Y-64365000D01*
X137083000Y-66445000D02*
X137083000Y-67966000D01*
X137123000Y-62849000D02*
X137123000Y-64365000D01*
X137123000Y-66445000D02*
X137123000Y-67961000D01*
X137163000Y-62855000D02*
X137163000Y-64365000D01*
X137163000Y-66445000D02*
X137163000Y-67955000D01*
X137203000Y-62862000D02*
X137203000Y-64365000D01*
X137203000Y-66445000D02*
X137203000Y-67948000D01*
X137243000Y-62869000D02*
X137243000Y-64365000D01*
X137243000Y-66445000D02*
X137243000Y-67941000D01*
X137283000Y-62877000D02*
X137283000Y-64365000D01*
X137283000Y-66445000D02*
X137283000Y-67933000D01*
X137323000Y-62885000D02*
X137323000Y-64365000D01*
X137323000Y-66445000D02*
X137323000Y-67925000D01*
X137363000Y-62894000D02*
X137363000Y-64365000D01*
X137363000Y-66445000D02*
X137363000Y-67916000D01*
X137403000Y-62904000D02*
X137403000Y-64365000D01*
X137403000Y-66445000D02*
X137403000Y-67906000D01*
X137443000Y-62914000D02*
X137443000Y-64365000D01*
X137443000Y-66445000D02*
X137443000Y-67896000D01*
X137484000Y-62925000D02*
X137484000Y-64365000D01*
X137484000Y-66445000D02*
X137484000Y-67885000D01*
X137524000Y-62937000D02*
X137524000Y-64365000D01*
X137524000Y-66445000D02*
X137524000Y-67873000D01*
X137564000Y-62950000D02*
X137564000Y-64365000D01*
X137564000Y-66445000D02*
X137564000Y-67860000D01*
X137604000Y-62963000D02*
X137604000Y-64365000D01*
X137604000Y-66445000D02*
X137604000Y-67847000D01*
X137644000Y-62977000D02*
X137644000Y-64365000D01*
X137644000Y-66445000D02*
X137644000Y-67833000D01*
X137684000Y-62991000D02*
X137684000Y-64365000D01*
X137684000Y-66445000D02*
X137684000Y-67819000D01*
X137724000Y-63007000D02*
X137724000Y-64365000D01*
X137724000Y-66445000D02*
X137724000Y-67803000D01*
X137764000Y-63023000D02*
X137764000Y-64365000D01*
X137764000Y-66445000D02*
X137764000Y-67787000D01*
X137804000Y-63040000D02*
X137804000Y-64365000D01*
X137804000Y-66445000D02*
X137804000Y-67770000D01*
X137844000Y-63057000D02*
X137844000Y-64365000D01*
X137844000Y-66445000D02*
X137844000Y-67753000D01*
X137884000Y-63076000D02*
X137884000Y-64365000D01*
X137884000Y-66445000D02*
X137884000Y-67734000D01*
X137924000Y-63095000D02*
X137924000Y-64365000D01*
X137924000Y-66445000D02*
X137924000Y-67715000D01*
X137964000Y-63115000D02*
X137964000Y-64365000D01*
X137964000Y-66445000D02*
X137964000Y-67695000D01*
X138004000Y-63137000D02*
X138004000Y-64365000D01*
X138004000Y-66445000D02*
X138004000Y-67673000D01*
X138044000Y-63158000D02*
X138044000Y-64365000D01*
X138044000Y-66445000D02*
X138044000Y-67652000D01*
X138084000Y-63181000D02*
X138084000Y-64365000D01*
X138084000Y-66445000D02*
X138084000Y-67629000D01*
X138124000Y-63205000D02*
X138124000Y-64365000D01*
X138124000Y-66445000D02*
X138124000Y-67605000D01*
X138164000Y-63230000D02*
X138164000Y-64365000D01*
X138164000Y-66445000D02*
X138164000Y-67580000D01*
X138204000Y-63256000D02*
X138204000Y-64365000D01*
X138204000Y-66445000D02*
X138204000Y-67554000D01*
X138244000Y-63283000D02*
X138244000Y-64365000D01*
X138244000Y-66445000D02*
X138244000Y-67527000D01*
X138284000Y-63310000D02*
X138284000Y-64365000D01*
X138284000Y-66445000D02*
X138284000Y-67500000D01*
X138324000Y-63340000D02*
X138324000Y-64365000D01*
X138324000Y-66445000D02*
X138324000Y-67470000D01*
X138364000Y-63370000D02*
X138364000Y-64365000D01*
X138364000Y-66445000D02*
X138364000Y-67440000D01*
X138404000Y-63401000D02*
X138404000Y-64365000D01*
X138404000Y-66445000D02*
X138404000Y-67409000D01*
X138444000Y-63434000D02*
X138444000Y-64365000D01*
X138444000Y-66445000D02*
X138444000Y-67376000D01*
X138484000Y-63468000D02*
X138484000Y-64365000D01*
X138484000Y-66445000D02*
X138484000Y-67342000D01*
X138524000Y-63504000D02*
X138524000Y-64365000D01*
X138524000Y-66445000D02*
X138524000Y-67306000D01*
X138564000Y-63541000D02*
X138564000Y-64365000D01*
X138564000Y-66445000D02*
X138564000Y-67269000D01*
X138604000Y-63579000D02*
X138604000Y-64365000D01*
X138604000Y-66445000D02*
X138604000Y-67231000D01*
X138644000Y-63620000D02*
X138644000Y-64365000D01*
X138644000Y-66445000D02*
X138644000Y-67190000D01*
X138684000Y-63662000D02*
X138684000Y-64365000D01*
X138684000Y-66445000D02*
X138684000Y-67148000D01*
X138724000Y-63706000D02*
X138724000Y-64365000D01*
X138724000Y-66445000D02*
X138724000Y-67104000D01*
X138764000Y-63752000D02*
X138764000Y-64365000D01*
X138764000Y-66445000D02*
X138764000Y-67058000D01*
X138804000Y-63800000D02*
X138804000Y-67010000D01*
X138844000Y-63851000D02*
X138844000Y-66959000D01*
X138884000Y-63905000D02*
X138884000Y-66905000D01*
X138924000Y-63962000D02*
X138924000Y-66848000D01*
X138964000Y-64022000D02*
X138964000Y-66788000D01*
X139004000Y-64086000D02*
X139004000Y-66724000D01*
X139044000Y-64154000D02*
X139044000Y-66656000D01*
X139084000Y-64227000D02*
X139084000Y-66583000D01*
X139124000Y-64307000D02*
X139124000Y-66503000D01*
X139164000Y-64394000D02*
X139164000Y-66416000D01*
X139204000Y-64490000D02*
X139204000Y-66320000D01*
X139244000Y-64600000D02*
X139244000Y-66210000D01*
X139284000Y-64728000D02*
X139284000Y-66082000D01*
X139324000Y-64887000D02*
X139324000Y-65923000D01*
X139364000Y-65121000D02*
X139364000Y-65689000D01*
X133958225Y-63930000D02*
X134458225Y-63930000D01*
X134208225Y-63680000D02*
X134208225Y-64180000D01*
G04 #@! TO.C,C5*
X138714775Y-87958000D02*
X138714775Y-87458000D01*
X138964775Y-87708000D02*
X138464775Y-87708000D01*
X133559000Y-86517000D02*
X133559000Y-85949000D01*
X133599000Y-86751000D02*
X133599000Y-85715000D01*
X133639000Y-86910000D02*
X133639000Y-85556000D01*
X133679000Y-87038000D02*
X133679000Y-85428000D01*
X133719000Y-87148000D02*
X133719000Y-85318000D01*
X133759000Y-87244000D02*
X133759000Y-85222000D01*
X133799000Y-87331000D02*
X133799000Y-85135000D01*
X133839000Y-87411000D02*
X133839000Y-85055000D01*
X133879000Y-87484000D02*
X133879000Y-84982000D01*
X133919000Y-87552000D02*
X133919000Y-84914000D01*
X133959000Y-87616000D02*
X133959000Y-84850000D01*
X133999000Y-87676000D02*
X133999000Y-84790000D01*
X134039000Y-87733000D02*
X134039000Y-84733000D01*
X134079000Y-87787000D02*
X134079000Y-84679000D01*
X134119000Y-87838000D02*
X134119000Y-84628000D01*
X134159000Y-85193000D02*
X134159000Y-84580000D01*
X134159000Y-87886000D02*
X134159000Y-87273000D01*
X134199000Y-85193000D02*
X134199000Y-84534000D01*
X134199000Y-87932000D02*
X134199000Y-87273000D01*
X134239000Y-85193000D02*
X134239000Y-84490000D01*
X134239000Y-87976000D02*
X134239000Y-87273000D01*
X134279000Y-85193000D02*
X134279000Y-84448000D01*
X134279000Y-88018000D02*
X134279000Y-87273000D01*
X134319000Y-85193000D02*
X134319000Y-84407000D01*
X134319000Y-88059000D02*
X134319000Y-87273000D01*
X134359000Y-85193000D02*
X134359000Y-84369000D01*
X134359000Y-88097000D02*
X134359000Y-87273000D01*
X134399000Y-85193000D02*
X134399000Y-84332000D01*
X134399000Y-88134000D02*
X134399000Y-87273000D01*
X134439000Y-85193000D02*
X134439000Y-84296000D01*
X134439000Y-88170000D02*
X134439000Y-87273000D01*
X134479000Y-85193000D02*
X134479000Y-84262000D01*
X134479000Y-88204000D02*
X134479000Y-87273000D01*
X134519000Y-85193000D02*
X134519000Y-84229000D01*
X134519000Y-88237000D02*
X134519000Y-87273000D01*
X134559000Y-85193000D02*
X134559000Y-84198000D01*
X134559000Y-88268000D02*
X134559000Y-87273000D01*
X134599000Y-85193000D02*
X134599000Y-84168000D01*
X134599000Y-88298000D02*
X134599000Y-87273000D01*
X134639000Y-85193000D02*
X134639000Y-84138000D01*
X134639000Y-88328000D02*
X134639000Y-87273000D01*
X134679000Y-85193000D02*
X134679000Y-84111000D01*
X134679000Y-88355000D02*
X134679000Y-87273000D01*
X134719000Y-85193000D02*
X134719000Y-84084000D01*
X134719000Y-88382000D02*
X134719000Y-87273000D01*
X134759000Y-85193000D02*
X134759000Y-84058000D01*
X134759000Y-88408000D02*
X134759000Y-87273000D01*
X134799000Y-85193000D02*
X134799000Y-84033000D01*
X134799000Y-88433000D02*
X134799000Y-87273000D01*
X134839000Y-85193000D02*
X134839000Y-84009000D01*
X134839000Y-88457000D02*
X134839000Y-87273000D01*
X134879000Y-85193000D02*
X134879000Y-83986000D01*
X134879000Y-88480000D02*
X134879000Y-87273000D01*
X134919000Y-85193000D02*
X134919000Y-83965000D01*
X134919000Y-88501000D02*
X134919000Y-87273000D01*
X134959000Y-85193000D02*
X134959000Y-83943000D01*
X134959000Y-88523000D02*
X134959000Y-87273000D01*
X134999000Y-85193000D02*
X134999000Y-83923000D01*
X134999000Y-88543000D02*
X134999000Y-87273000D01*
X135039000Y-85193000D02*
X135039000Y-83904000D01*
X135039000Y-88562000D02*
X135039000Y-87273000D01*
X135079000Y-85193000D02*
X135079000Y-83885000D01*
X135079000Y-88581000D02*
X135079000Y-87273000D01*
X135119000Y-85193000D02*
X135119000Y-83868000D01*
X135119000Y-88598000D02*
X135119000Y-87273000D01*
X135159000Y-85193000D02*
X135159000Y-83851000D01*
X135159000Y-88615000D02*
X135159000Y-87273000D01*
X135199000Y-85193000D02*
X135199000Y-83835000D01*
X135199000Y-88631000D02*
X135199000Y-87273000D01*
X135239000Y-85193000D02*
X135239000Y-83819000D01*
X135239000Y-88647000D02*
X135239000Y-87273000D01*
X135279000Y-85193000D02*
X135279000Y-83805000D01*
X135279000Y-88661000D02*
X135279000Y-87273000D01*
X135319000Y-85193000D02*
X135319000Y-83791000D01*
X135319000Y-88675000D02*
X135319000Y-87273000D01*
X135359000Y-85193000D02*
X135359000Y-83778000D01*
X135359000Y-88688000D02*
X135359000Y-87273000D01*
X135399000Y-85193000D02*
X135399000Y-83765000D01*
X135399000Y-88701000D02*
X135399000Y-87273000D01*
X135439000Y-85193000D02*
X135439000Y-83753000D01*
X135439000Y-88713000D02*
X135439000Y-87273000D01*
X135480000Y-85193000D02*
X135480000Y-83742000D01*
X135480000Y-88724000D02*
X135480000Y-87273000D01*
X135520000Y-85193000D02*
X135520000Y-83732000D01*
X135520000Y-88734000D02*
X135520000Y-87273000D01*
X135560000Y-85193000D02*
X135560000Y-83722000D01*
X135560000Y-88744000D02*
X135560000Y-87273000D01*
X135600000Y-85193000D02*
X135600000Y-83713000D01*
X135600000Y-88753000D02*
X135600000Y-87273000D01*
X135640000Y-85193000D02*
X135640000Y-83705000D01*
X135640000Y-88761000D02*
X135640000Y-87273000D01*
X135680000Y-85193000D02*
X135680000Y-83697000D01*
X135680000Y-88769000D02*
X135680000Y-87273000D01*
X135720000Y-85193000D02*
X135720000Y-83690000D01*
X135720000Y-88776000D02*
X135720000Y-87273000D01*
X135760000Y-85193000D02*
X135760000Y-83683000D01*
X135760000Y-88783000D02*
X135760000Y-87273000D01*
X135800000Y-85193000D02*
X135800000Y-83677000D01*
X135800000Y-88789000D02*
X135800000Y-87273000D01*
X135840000Y-85193000D02*
X135840000Y-83672000D01*
X135840000Y-88794000D02*
X135840000Y-87273000D01*
X135880000Y-85193000D02*
X135880000Y-83668000D01*
X135880000Y-88798000D02*
X135880000Y-87273000D01*
X135920000Y-85193000D02*
X135920000Y-83664000D01*
X135920000Y-88802000D02*
X135920000Y-87273000D01*
X135960000Y-85193000D02*
X135960000Y-83660000D01*
X135960000Y-88806000D02*
X135960000Y-87273000D01*
X136000000Y-85193000D02*
X136000000Y-83657000D01*
X136000000Y-88809000D02*
X136000000Y-87273000D01*
X136040000Y-85193000D02*
X136040000Y-83655000D01*
X136040000Y-88811000D02*
X136040000Y-87273000D01*
X136080000Y-85193000D02*
X136080000Y-83654000D01*
X136080000Y-88812000D02*
X136080000Y-87273000D01*
X136120000Y-88813000D02*
X136120000Y-87273000D01*
X136120000Y-85193000D02*
X136120000Y-83653000D01*
X136160000Y-88813000D02*
X136160000Y-87273000D01*
X136160000Y-85193000D02*
X136160000Y-83653000D01*
X138780000Y-86233000D02*
G75*
G03X138780000Y-86233000I-2620000J0D01*
G01*
G04 #@! TO.C,C7*
X154750000Y-86106000D02*
G75*
G03X154750000Y-86106000I-2620000J0D01*
G01*
X152130000Y-87146000D02*
X152130000Y-88686000D01*
X152130000Y-83526000D02*
X152130000Y-85066000D01*
X152170000Y-87146000D02*
X152170000Y-88686000D01*
X152170000Y-83526000D02*
X152170000Y-85066000D01*
X152210000Y-83527000D02*
X152210000Y-85066000D01*
X152210000Y-87146000D02*
X152210000Y-88685000D01*
X152250000Y-83528000D02*
X152250000Y-85066000D01*
X152250000Y-87146000D02*
X152250000Y-88684000D01*
X152290000Y-83530000D02*
X152290000Y-85066000D01*
X152290000Y-87146000D02*
X152290000Y-88682000D01*
X152330000Y-83533000D02*
X152330000Y-85066000D01*
X152330000Y-87146000D02*
X152330000Y-88679000D01*
X152370000Y-83537000D02*
X152370000Y-85066000D01*
X152370000Y-87146000D02*
X152370000Y-88675000D01*
X152410000Y-83541000D02*
X152410000Y-85066000D01*
X152410000Y-87146000D02*
X152410000Y-88671000D01*
X152450000Y-83545000D02*
X152450000Y-85066000D01*
X152450000Y-87146000D02*
X152450000Y-88667000D01*
X152490000Y-83550000D02*
X152490000Y-85066000D01*
X152490000Y-87146000D02*
X152490000Y-88662000D01*
X152530000Y-83556000D02*
X152530000Y-85066000D01*
X152530000Y-87146000D02*
X152530000Y-88656000D01*
X152570000Y-83563000D02*
X152570000Y-85066000D01*
X152570000Y-87146000D02*
X152570000Y-88649000D01*
X152610000Y-83570000D02*
X152610000Y-85066000D01*
X152610000Y-87146000D02*
X152610000Y-88642000D01*
X152650000Y-83578000D02*
X152650000Y-85066000D01*
X152650000Y-87146000D02*
X152650000Y-88634000D01*
X152690000Y-83586000D02*
X152690000Y-85066000D01*
X152690000Y-87146000D02*
X152690000Y-88626000D01*
X152730000Y-83595000D02*
X152730000Y-85066000D01*
X152730000Y-87146000D02*
X152730000Y-88617000D01*
X152770000Y-83605000D02*
X152770000Y-85066000D01*
X152770000Y-87146000D02*
X152770000Y-88607000D01*
X152810000Y-83615000D02*
X152810000Y-85066000D01*
X152810000Y-87146000D02*
X152810000Y-88597000D01*
X152851000Y-83626000D02*
X152851000Y-85066000D01*
X152851000Y-87146000D02*
X152851000Y-88586000D01*
X152891000Y-83638000D02*
X152891000Y-85066000D01*
X152891000Y-87146000D02*
X152891000Y-88574000D01*
X152931000Y-83651000D02*
X152931000Y-85066000D01*
X152931000Y-87146000D02*
X152931000Y-88561000D01*
X152971000Y-83664000D02*
X152971000Y-85066000D01*
X152971000Y-87146000D02*
X152971000Y-88548000D01*
X153011000Y-83678000D02*
X153011000Y-85066000D01*
X153011000Y-87146000D02*
X153011000Y-88534000D01*
X153051000Y-83692000D02*
X153051000Y-85066000D01*
X153051000Y-87146000D02*
X153051000Y-88520000D01*
X153091000Y-83708000D02*
X153091000Y-85066000D01*
X153091000Y-87146000D02*
X153091000Y-88504000D01*
X153131000Y-83724000D02*
X153131000Y-85066000D01*
X153131000Y-87146000D02*
X153131000Y-88488000D01*
X153171000Y-83741000D02*
X153171000Y-85066000D01*
X153171000Y-87146000D02*
X153171000Y-88471000D01*
X153211000Y-83758000D02*
X153211000Y-85066000D01*
X153211000Y-87146000D02*
X153211000Y-88454000D01*
X153251000Y-83777000D02*
X153251000Y-85066000D01*
X153251000Y-87146000D02*
X153251000Y-88435000D01*
X153291000Y-83796000D02*
X153291000Y-85066000D01*
X153291000Y-87146000D02*
X153291000Y-88416000D01*
X153331000Y-83816000D02*
X153331000Y-85066000D01*
X153331000Y-87146000D02*
X153331000Y-88396000D01*
X153371000Y-83838000D02*
X153371000Y-85066000D01*
X153371000Y-87146000D02*
X153371000Y-88374000D01*
X153411000Y-83859000D02*
X153411000Y-85066000D01*
X153411000Y-87146000D02*
X153411000Y-88353000D01*
X153451000Y-83882000D02*
X153451000Y-85066000D01*
X153451000Y-87146000D02*
X153451000Y-88330000D01*
X153491000Y-83906000D02*
X153491000Y-85066000D01*
X153491000Y-87146000D02*
X153491000Y-88306000D01*
X153531000Y-83931000D02*
X153531000Y-85066000D01*
X153531000Y-87146000D02*
X153531000Y-88281000D01*
X153571000Y-83957000D02*
X153571000Y-85066000D01*
X153571000Y-87146000D02*
X153571000Y-88255000D01*
X153611000Y-83984000D02*
X153611000Y-85066000D01*
X153611000Y-87146000D02*
X153611000Y-88228000D01*
X153651000Y-84011000D02*
X153651000Y-85066000D01*
X153651000Y-87146000D02*
X153651000Y-88201000D01*
X153691000Y-84041000D02*
X153691000Y-85066000D01*
X153691000Y-87146000D02*
X153691000Y-88171000D01*
X153731000Y-84071000D02*
X153731000Y-85066000D01*
X153731000Y-87146000D02*
X153731000Y-88141000D01*
X153771000Y-84102000D02*
X153771000Y-85066000D01*
X153771000Y-87146000D02*
X153771000Y-88110000D01*
X153811000Y-84135000D02*
X153811000Y-85066000D01*
X153811000Y-87146000D02*
X153811000Y-88077000D01*
X153851000Y-84169000D02*
X153851000Y-85066000D01*
X153851000Y-87146000D02*
X153851000Y-88043000D01*
X153891000Y-84205000D02*
X153891000Y-85066000D01*
X153891000Y-87146000D02*
X153891000Y-88007000D01*
X153931000Y-84242000D02*
X153931000Y-85066000D01*
X153931000Y-87146000D02*
X153931000Y-87970000D01*
X153971000Y-84280000D02*
X153971000Y-85066000D01*
X153971000Y-87146000D02*
X153971000Y-87932000D01*
X154011000Y-84321000D02*
X154011000Y-85066000D01*
X154011000Y-87146000D02*
X154011000Y-87891000D01*
X154051000Y-84363000D02*
X154051000Y-85066000D01*
X154051000Y-87146000D02*
X154051000Y-87849000D01*
X154091000Y-84407000D02*
X154091000Y-85066000D01*
X154091000Y-87146000D02*
X154091000Y-87805000D01*
X154131000Y-84453000D02*
X154131000Y-85066000D01*
X154131000Y-87146000D02*
X154131000Y-87759000D01*
X154171000Y-84501000D02*
X154171000Y-87711000D01*
X154211000Y-84552000D02*
X154211000Y-87660000D01*
X154251000Y-84606000D02*
X154251000Y-87606000D01*
X154291000Y-84663000D02*
X154291000Y-87549000D01*
X154331000Y-84723000D02*
X154331000Y-87489000D01*
X154371000Y-84787000D02*
X154371000Y-87425000D01*
X154411000Y-84855000D02*
X154411000Y-87357000D01*
X154451000Y-84928000D02*
X154451000Y-87284000D01*
X154491000Y-85008000D02*
X154491000Y-87204000D01*
X154531000Y-85095000D02*
X154531000Y-87117000D01*
X154571000Y-85191000D02*
X154571000Y-87021000D01*
X154611000Y-85301000D02*
X154611000Y-86911000D01*
X154651000Y-85429000D02*
X154651000Y-86783000D01*
X154691000Y-85588000D02*
X154691000Y-86624000D01*
X154731000Y-85822000D02*
X154731000Y-86390000D01*
X149325225Y-84631000D02*
X149825225Y-84631000D01*
X149575225Y-84381000D02*
X149575225Y-84881000D01*
G04 #@! TO.C,C2*
X129844000Y-73182000D02*
X136084000Y-73182000D01*
X129844000Y-75922000D02*
X136084000Y-75922000D01*
X129844000Y-73182000D02*
X129844000Y-73627000D01*
X129844000Y-75477000D02*
X129844000Y-75922000D01*
X136084000Y-73182000D02*
X136084000Y-73627000D01*
X136084000Y-75477000D02*
X136084000Y-75922000D01*
G04 #@! TO.C,C6*
X142462000Y-65877000D02*
X142462000Y-65432000D01*
X142462000Y-68172000D02*
X142462000Y-67727000D01*
X148702000Y-65877000D02*
X148702000Y-65432000D01*
X148702000Y-68172000D02*
X148702000Y-67727000D01*
X148702000Y-65432000D02*
X142462000Y-65432000D01*
X148702000Y-68172000D02*
X142462000Y-68172000D01*
G04 #@! TO.C,C1*
X129844000Y-70132000D02*
X136084000Y-70132000D01*
X129844000Y-72872000D02*
X136084000Y-72872000D01*
X129844000Y-70132000D02*
X129844000Y-70577000D01*
X129844000Y-72427000D02*
X129844000Y-72872000D01*
X136084000Y-70132000D02*
X136084000Y-70577000D01*
X136084000Y-72427000D02*
X136084000Y-72872000D01*
G04 #@! TO.C,J6*
X146618000Y-87800000D02*
X141418000Y-87800000D01*
X141418000Y-87800000D02*
X141418000Y-90460000D01*
X141418000Y-90460000D02*
X146618000Y-90460000D01*
X146618000Y-90460000D02*
X146618000Y-87800000D01*
X145668000Y-90460000D02*
X145668000Y-96460000D01*
X145668000Y-96460000D02*
X144908000Y-96460000D01*
X144908000Y-96460000D02*
X144908000Y-90460000D01*
X145608000Y-90460000D02*
X145608000Y-96460000D01*
X145488000Y-90460000D02*
X145488000Y-96460000D01*
X145368000Y-90460000D02*
X145368000Y-96460000D01*
X145248000Y-90460000D02*
X145248000Y-96460000D01*
X145128000Y-90460000D02*
X145128000Y-96460000D01*
X145008000Y-90460000D02*
X145008000Y-96460000D01*
X145668000Y-87470000D02*
X145668000Y-87800000D01*
X144908000Y-87470000D02*
X144908000Y-87800000D01*
X144018000Y-87800000D02*
X144018000Y-90460000D01*
X143128000Y-90460000D02*
X143128000Y-96460000D01*
X143128000Y-96460000D02*
X142368000Y-96460000D01*
X142368000Y-96460000D02*
X142368000Y-90460000D01*
X143128000Y-87402929D02*
X143128000Y-87800000D01*
X142368000Y-87402929D02*
X142368000Y-87800000D01*
X145288000Y-85090000D02*
X146558000Y-85090000D01*
X146558000Y-85090000D02*
X146558000Y-86360000D01*
G04 #@! TO.C,J4*
X102930000Y-87800000D02*
X92650000Y-87800000D01*
X92650000Y-87800000D02*
X92650000Y-90460000D01*
X92650000Y-90460000D02*
X102930000Y-90460000D01*
X102930000Y-90460000D02*
X102930000Y-87800000D01*
X101980000Y-90460000D02*
X101980000Y-96460000D01*
X101980000Y-96460000D02*
X101220000Y-96460000D01*
X101220000Y-96460000D02*
X101220000Y-90460000D01*
X101920000Y-90460000D02*
X101920000Y-96460000D01*
X101800000Y-90460000D02*
X101800000Y-96460000D01*
X101680000Y-90460000D02*
X101680000Y-96460000D01*
X101560000Y-90460000D02*
X101560000Y-96460000D01*
X101440000Y-90460000D02*
X101440000Y-96460000D01*
X101320000Y-90460000D02*
X101320000Y-96460000D01*
X101980000Y-87470000D02*
X101980000Y-87800000D01*
X101220000Y-87470000D02*
X101220000Y-87800000D01*
X100330000Y-87800000D02*
X100330000Y-90460000D01*
X99440000Y-90460000D02*
X99440000Y-96460000D01*
X99440000Y-96460000D02*
X98680000Y-96460000D01*
X98680000Y-96460000D02*
X98680000Y-90460000D01*
X99440000Y-87402929D02*
X99440000Y-87800000D01*
X98680000Y-87402929D02*
X98680000Y-87800000D01*
X97790000Y-87800000D02*
X97790000Y-90460000D01*
X96900000Y-90460000D02*
X96900000Y-96460000D01*
X96900000Y-96460000D02*
X96140000Y-96460000D01*
X96140000Y-96460000D02*
X96140000Y-90460000D01*
X96900000Y-87402929D02*
X96900000Y-87800000D01*
X96140000Y-87402929D02*
X96140000Y-87800000D01*
X95250000Y-87800000D02*
X95250000Y-90460000D01*
X94360000Y-90460000D02*
X94360000Y-96460000D01*
X94360000Y-96460000D02*
X93600000Y-96460000D01*
X93600000Y-96460000D02*
X93600000Y-90460000D01*
X94360000Y-87402929D02*
X94360000Y-87800000D01*
X93600000Y-87402929D02*
X93600000Y-87800000D01*
X101600000Y-85090000D02*
X102870000Y-85090000D01*
X102870000Y-85090000D02*
X102870000Y-86360000D01*
G04 #@! TO.C,J5*
X84014000Y-77664000D02*
X85344000Y-77664000D01*
X84014000Y-78994000D02*
X84014000Y-77664000D01*
X86614000Y-77664000D02*
X89214000Y-77664000D01*
X86614000Y-80264000D02*
X86614000Y-77664000D01*
X84014000Y-80264000D02*
X86614000Y-80264000D01*
X89214000Y-77664000D02*
X89214000Y-82864000D01*
X84014000Y-80264000D02*
X84014000Y-82864000D01*
X84014000Y-82864000D02*
X89214000Y-82864000D01*
G04 #@! TO.C,J2*
X121726000Y-49470000D02*
X116526000Y-49470000D01*
X121726000Y-52070000D02*
X121726000Y-49470000D01*
X116526000Y-54670000D02*
X116526000Y-49470000D01*
X121726000Y-52070000D02*
X119126000Y-52070000D01*
X119126000Y-52070000D02*
X119126000Y-54670000D01*
X119126000Y-54670000D02*
X116526000Y-54670000D01*
X121726000Y-53340000D02*
X121726000Y-54670000D01*
X121726000Y-54670000D02*
X120396000Y-54670000D01*
G04 #@! TO.C,U2*
X133918000Y-46549000D02*
X131683000Y-46549000D01*
X133918000Y-56829000D02*
X133918000Y-46549000D01*
X127448000Y-56829000D02*
X133918000Y-56829000D01*
X127448000Y-46549000D02*
X127448000Y-56829000D01*
X129683000Y-46549000D02*
X127448000Y-46549000D01*
X131683000Y-46549000D02*
G75*
G02X129683000Y-46549000I-1000000J0D01*
G01*
G04 #@! TO.C,U3*
X146796000Y-69282000D02*
G75*
G02X144796000Y-69282000I-1000000J0D01*
G01*
X144796000Y-69282000D02*
X142561000Y-69282000D01*
X142561000Y-69282000D02*
X142561000Y-79562000D01*
X142561000Y-79562000D02*
X149031000Y-79562000D01*
X149031000Y-79562000D02*
X149031000Y-69282000D01*
X149031000Y-69282000D02*
X146796000Y-69282000D01*
G04 #@! TO.C,R_POT1*
X108765000Y-78935000D02*
X118535000Y-78935000D01*
X108765000Y-88705000D02*
X118535000Y-88705000D01*
X108765000Y-78935000D02*
X108765000Y-88705000D01*
X118535000Y-78935000D02*
X118535000Y-88705000D01*
G04 #@! TO.C,R2*
X81942000Y-72612000D02*
X84682000Y-72612000D01*
X84682000Y-72612000D02*
X84682000Y-66072000D01*
X84682000Y-66072000D02*
X81942000Y-66072000D01*
X81942000Y-66072000D02*
X81942000Y-72612000D01*
X83312000Y-73382000D02*
X83312000Y-72612000D01*
X83312000Y-65302000D02*
X83312000Y-66072000D01*
G04 #@! TO.C,R3*
X150598000Y-47879000D02*
X149828000Y-47879000D01*
X142518000Y-47879000D02*
X143288000Y-47879000D01*
X149828000Y-46509000D02*
X143288000Y-46509000D01*
X149828000Y-49249000D02*
X149828000Y-46509000D01*
X143288000Y-49249000D02*
X149828000Y-49249000D01*
X143288000Y-46509000D02*
X143288000Y-49249000D01*
G04 #@! TO.C,R4*
X124936000Y-72871000D02*
X124936000Y-70131000D01*
X124936000Y-70131000D02*
X118396000Y-70131000D01*
X118396000Y-70131000D02*
X118396000Y-72871000D01*
X118396000Y-72871000D02*
X124936000Y-72871000D01*
X125706000Y-71501000D02*
X124936000Y-71501000D01*
X117626000Y-71501000D02*
X118396000Y-71501000D01*
G04 #@! TO.C,R5*
X125706000Y-74549000D02*
X124936000Y-74549000D01*
X117626000Y-74549000D02*
X118396000Y-74549000D01*
X124936000Y-73179000D02*
X118396000Y-73179000D01*
X124936000Y-75919000D02*
X124936000Y-73179000D01*
X118396000Y-75919000D02*
X124936000Y-75919000D01*
X118396000Y-73179000D02*
X118396000Y-75919000D01*
G04 #@! TO.C,R6*
X153951000Y-78454000D02*
X156691000Y-78454000D01*
X156691000Y-78454000D02*
X156691000Y-71914000D01*
X156691000Y-71914000D02*
X153951000Y-71914000D01*
X153951000Y-71914000D02*
X153951000Y-78454000D01*
X155321000Y-79224000D02*
X155321000Y-78454000D01*
X155321000Y-71144000D02*
X155321000Y-71914000D01*
G04 #@! TO.C,J3*
X159198000Y-70672000D02*
X161858000Y-70672000D01*
X159198000Y-62992000D02*
X159198000Y-70672000D01*
X161858000Y-62992000D02*
X161858000Y-70672000D01*
X159198000Y-62992000D02*
X161858000Y-62992000D01*
X159198000Y-61722000D02*
X159198000Y-60392000D01*
X159198000Y-60392000D02*
X160528000Y-60392000D01*
G04 #@! TO.C,J1*
X77410000Y-47692000D02*
X78740000Y-47692000D01*
X77410000Y-49022000D02*
X77410000Y-47692000D01*
X77410000Y-50292000D02*
X80070000Y-50292000D01*
X80070000Y-50292000D02*
X80070000Y-83372000D01*
X77410000Y-50292000D02*
X77410000Y-83372000D01*
X77410000Y-83372000D02*
X80070000Y-83372000D01*
G04 #@! TO.C,R1*
X81942000Y-57372000D02*
X84682000Y-57372000D01*
X84682000Y-57372000D02*
X84682000Y-50832000D01*
X84682000Y-50832000D02*
X81942000Y-50832000D01*
X81942000Y-50832000D02*
X81942000Y-57372000D01*
X83312000Y-58142000D02*
X83312000Y-57372000D01*
X83312000Y-50062000D02*
X83312000Y-50832000D01*
D12*
G04 #@! TO.C,U1*
X87374483Y-43419068D02*
X87991844Y-43419068D01*
X87374483Y-45412262D02*
X87374483Y-43419068D01*
X88027122Y-45412262D02*
X87374483Y-45412262D01*
X88009483Y-41408235D02*
X88062400Y-47493651D01*
X89579344Y-41408235D02*
X88009483Y-41408235D01*
X90108511Y-41902124D02*
X89579344Y-41408235D01*
X91396150Y-41902124D02*
X90108511Y-41902124D01*
X91396150Y-46964485D02*
X91396150Y-41902124D01*
X90143789Y-46964485D02*
X91396150Y-46964485D01*
X89614622Y-47493651D02*
X90143789Y-46964485D01*
X88062400Y-47493651D02*
X89614622Y-47493651D01*
X101985650Y-41030812D02*
X101985650Y-46844549D01*
X94846069Y-41030812D02*
X101985650Y-41030812D01*
X94846069Y-46844549D02*
X94846069Y-41030812D01*
X101985650Y-46844549D02*
X94846069Y-46844549D01*
X87973520Y-47471819D02*
X88003314Y-40663476D01*
X86029974Y-48432715D02*
X87973520Y-47471819D01*
X86054922Y-70987807D02*
X86029974Y-48432715D01*
X86170518Y-71880575D02*
X86054922Y-70987807D01*
X86398878Y-72635613D02*
X86170518Y-71880575D01*
X86726405Y-73267460D02*
X86398878Y-72635613D01*
X87139497Y-73790658D02*
X86726405Y-73267460D01*
X87624555Y-74219743D02*
X87139497Y-73790658D01*
X88167982Y-74569258D02*
X87624555Y-74219743D01*
X88756176Y-74853741D02*
X88167982Y-74569258D01*
X89375540Y-75087734D02*
X88756176Y-74853741D01*
X108413453Y-75058976D02*
X89375540Y-75087734D01*
X109011250Y-74873310D02*
X108413453Y-75058976D01*
X109555440Y-74626377D02*
X109011250Y-74873310D01*
X110046512Y-74318741D02*
X109555440Y-74626377D01*
X110484953Y-73950952D02*
X110046512Y-74318741D01*
X110871253Y-73523577D02*
X110484953Y-73950952D01*
X111205901Y-73037167D02*
X110871253Y-73523577D01*
X111489384Y-72492286D02*
X111205901Y-73037167D01*
X111722195Y-71889493D02*
X111489384Y-72492286D01*
X111736193Y-40719342D02*
X111722195Y-71889493D01*
X102655397Y-40693264D02*
X111736193Y-40719342D01*
X102657373Y-41895517D02*
X102655397Y-40693264D01*
X93826151Y-41902205D02*
X102657373Y-41895517D01*
X93799820Y-40618772D02*
X93826151Y-41902205D01*
X87988528Y-40618772D02*
X93799820Y-40618772D01*
D13*
X91948857Y-70493142D02*
X92663142Y-73493142D01*
X93234571Y-71350285D01*
X93806000Y-73493142D01*
X94520285Y-70493142D01*
X96806000Y-73350285D02*
X96520285Y-73493142D01*
X95948857Y-73493142D01*
X95663142Y-73350285D01*
X95520285Y-73064571D01*
X95520285Y-71921714D01*
X95663142Y-71636000D01*
X95948857Y-71493142D01*
X96520285Y-71493142D01*
X96806000Y-71636000D01*
X96948857Y-71921714D01*
X96948857Y-72207428D01*
X95520285Y-72493142D01*
X98234571Y-73493142D02*
X98234571Y-70493142D01*
X99234571Y-72636000D01*
X100234571Y-70493142D01*
X100234571Y-73493142D01*
X102091714Y-73493142D02*
X101806000Y-73350285D01*
X101663142Y-73207428D01*
X101520285Y-72921714D01*
X101520285Y-72064571D01*
X101663142Y-71778857D01*
X101806000Y-71636000D01*
X102091714Y-71493142D01*
X102520285Y-71493142D01*
X102806000Y-71636000D01*
X102948857Y-71778857D01*
X103091714Y-72064571D01*
X103091714Y-72921714D01*
X102948857Y-73207428D01*
X102806000Y-73350285D01*
X102520285Y-73493142D01*
X102091714Y-73493142D01*
X104234571Y-73350285D02*
X104520285Y-73493142D01*
X105091714Y-73493142D01*
X105377428Y-73350285D01*
X105520285Y-73064571D01*
X105520285Y-72921714D01*
X105377428Y-72636000D01*
X105091714Y-72493142D01*
X104663142Y-72493142D01*
X104377428Y-72350285D01*
X104234571Y-72064571D01*
X104234571Y-71921714D01*
X104377428Y-71636000D01*
X104663142Y-71493142D01*
X105091714Y-71493142D01*
X105377428Y-71636000D01*
G04 #@! TD*
M02*
