M48
;DRILL file {KiCad 5.0.2+dfsg1-1~bpo9+1} date Mon 13 Jul 2020 10:59:47 IST
;FORMAT={3:3/ absolute / metric / suppress leading zeros}
FMAT,2
METRIC,TZ
T1C0.800
T2C1.000
T3C1.016
T4C2.700
%
G90
G05
T1
X122936Y-85979
X124936Y-85979
X151130Y-86106
X153130Y-86106
X116586Y-74549
X126746Y-74549
X83312Y-64262
X83312Y-74422
X135160Y-86233
X137160Y-86233
X116586Y-71501
X126746Y-71501
X143082Y-66802
X148082Y-66802
X83312Y-49022
X83312Y-59182
X140716Y-70612
X140716Y-73152
X140716Y-75692
X140716Y-78232
X150876Y-70612
X150876Y-73152
X150876Y-75692
X150876Y-78232
X125603Y-47879
X125603Y-50419
X125603Y-52959
X125603Y-55499
X135763Y-47879
X135763Y-50419
X135763Y-52959
X135763Y-55499
X130464Y-74552
X135464Y-74552
X155321Y-70104
X155321Y-80264
X135763Y-65405
X137763Y-65405
X141478Y-47879
X151638Y-47879
X130464Y-71502
X135464Y-71502
X113665Y-81280
X113665Y-86360
X116205Y-83820
X141478Y-54737
X151638Y-54737
T2
X142748Y-86360
X145288Y-86360
X78740Y-49022
X78740Y-51562
X78740Y-54102
X78740Y-56642
X78740Y-59182
X78740Y-61722
X78740Y-64262
X78740Y-66802
X78740Y-69342
X78740Y-71882
X78740Y-74422
X78740Y-76962
X78740Y-79502
X78740Y-82042
X117856Y-50800
X117856Y-53340
X120396Y-50800
X120396Y-53340
X93980Y-86360
X96520Y-86360
X99060Y-86360
X101600Y-86360
X85344Y-78994
X85344Y-81534
X87884Y-78994
X87884Y-81534
X160528Y-61722
X160528Y-64262
X160528Y-66802
X160528Y-69342
T3
X87376Y-49276
X87376Y-51816
X87376Y-54356
X87376Y-56896
X87376Y-59436
X87376Y-61976
X87376Y-64516
X87376Y-67056
X110236Y-49276
X110236Y-51816
X110236Y-54356
X110236Y-56896
X110236Y-59436
X110236Y-61976
X110236Y-64516
X110236Y-67056
T4
X159131Y-86995
X159004Y-44196
X80391Y-44069
X80264Y-87122
T0
M30
