G04 #@! TF.GenerationSoftware,KiCad,Pcbnew,5.0.2+dfsg1-1~bpo9+1*
G04 #@! TF.CreationDate,2019-06-18T09:35:30+01:00*
G04 #@! TF.ProjectId,esp8bit,65737038-6269-4742-9e6b-696361645f70,rev?*
G04 #@! TF.SameCoordinates,Original*
G04 #@! TF.FileFunction,Legend,Top*
G04 #@! TF.FilePolarity,Positive*
%FSLAX46Y46*%
G04 Gerber Fmt 4.6, Leading zero omitted, Abs format (unit mm)*
G04 Created by KiCad (PCBNEW 5.0.2+dfsg1-1~bpo9+1) date Tue 18 Jun 2019 09:35:30 IST*
%MOMM*%
%LPD*%
G01*
G04 APERTURE LIST*
%ADD10C,0.300000*%
%ADD11C,0.120000*%
%ADD12C,0.381000*%
%ADD13C,0.100000*%
%ADD14C,0.150000*%
%ADD15C,0.304800*%
G04 APERTURE END LIST*
D10*
X128930714Y-81252142D02*
X128787857Y-81323571D01*
X128502142Y-81323571D01*
X128359285Y-81252142D01*
X128287857Y-81109285D01*
X128287857Y-80537857D01*
X128359285Y-80395000D01*
X128502142Y-80323571D01*
X128787857Y-80323571D01*
X128930714Y-80395000D01*
X129002142Y-80537857D01*
X129002142Y-80680714D01*
X128287857Y-80823571D01*
X129573571Y-81252142D02*
X129716428Y-81323571D01*
X130002142Y-81323571D01*
X130145000Y-81252142D01*
X130216428Y-81109285D01*
X130216428Y-81037857D01*
X130145000Y-80895000D01*
X130002142Y-80823571D01*
X129787857Y-80823571D01*
X129645000Y-80752142D01*
X129573571Y-80609285D01*
X129573571Y-80537857D01*
X129645000Y-80395000D01*
X129787857Y-80323571D01*
X130002142Y-80323571D01*
X130145000Y-80395000D01*
X130859285Y-80323571D02*
X130859285Y-81823571D01*
X130859285Y-80395000D02*
X131002142Y-80323571D01*
X131287857Y-80323571D01*
X131430714Y-80395000D01*
X131502142Y-80466428D01*
X131573571Y-80609285D01*
X131573571Y-81037857D01*
X131502142Y-81180714D01*
X131430714Y-81252142D01*
X131287857Y-81323571D01*
X131002142Y-81323571D01*
X130859285Y-81252142D01*
X132430714Y-80466428D02*
X132287857Y-80395000D01*
X132216428Y-80323571D01*
X132145000Y-80180714D01*
X132145000Y-80109285D01*
X132216428Y-79966428D01*
X132287857Y-79895000D01*
X132430714Y-79823571D01*
X132716428Y-79823571D01*
X132859285Y-79895000D01*
X132930714Y-79966428D01*
X133002142Y-80109285D01*
X133002142Y-80180714D01*
X132930714Y-80323571D01*
X132859285Y-80395000D01*
X132716428Y-80466428D01*
X132430714Y-80466428D01*
X132287857Y-80537857D01*
X132216428Y-80609285D01*
X132145000Y-80752142D01*
X132145000Y-81037857D01*
X132216428Y-81180714D01*
X132287857Y-81252142D01*
X132430714Y-81323571D01*
X132716428Y-81323571D01*
X132859285Y-81252142D01*
X132930714Y-81180714D01*
X133002142Y-81037857D01*
X133002142Y-80752142D01*
X132930714Y-80609285D01*
X132859285Y-80537857D01*
X132716428Y-80466428D01*
X133645000Y-81323571D02*
X133645000Y-79823571D01*
X133645000Y-80395000D02*
X133787857Y-80323571D01*
X134073571Y-80323571D01*
X134216428Y-80395000D01*
X134287857Y-80466428D01*
X134359285Y-80609285D01*
X134359285Y-81037857D01*
X134287857Y-81180714D01*
X134216428Y-81252142D01*
X134073571Y-81323571D01*
X133787857Y-81323571D01*
X133645000Y-81252142D01*
X135002142Y-81323571D02*
X135002142Y-80323571D01*
X135002142Y-79823571D02*
X134930714Y-79895000D01*
X135002142Y-79966428D01*
X135073571Y-79895000D01*
X135002142Y-79823571D01*
X135002142Y-79966428D01*
X135502142Y-80323571D02*
X136073571Y-80323571D01*
X135716428Y-79823571D02*
X135716428Y-81109285D01*
X135787857Y-81252142D01*
X135930714Y-81323571D01*
X136073571Y-81323571D01*
X137573571Y-80323571D02*
X137930714Y-81323571D01*
X138287857Y-80323571D01*
X139645000Y-81323571D02*
X138787857Y-81323571D01*
X139216428Y-81323571D02*
X139216428Y-79823571D01*
X139073571Y-80037857D01*
X138930714Y-80180714D01*
X138787857Y-80252142D01*
X140287857Y-81180714D02*
X140359285Y-81252142D01*
X140287857Y-81323571D01*
X140216428Y-81252142D01*
X140287857Y-81180714D01*
X140287857Y-81323571D01*
X141287857Y-79823571D02*
X141430714Y-79823571D01*
X141573571Y-79895000D01*
X141645000Y-79966428D01*
X141716428Y-80109285D01*
X141787857Y-80395000D01*
X141787857Y-80752142D01*
X141716428Y-81037857D01*
X141645000Y-81180714D01*
X141573571Y-81252142D01*
X141430714Y-81323571D01*
X141287857Y-81323571D01*
X141145000Y-81252142D01*
X141073571Y-81180714D01*
X141002142Y-81037857D01*
X140930714Y-80752142D01*
X140930714Y-80395000D01*
X141002142Y-80109285D01*
X141073571Y-79966428D01*
X141145000Y-79895000D01*
X141287857Y-79823571D01*
X144002142Y-81895000D02*
X143930714Y-81823571D01*
X143787857Y-81609285D01*
X143716428Y-81466428D01*
X143645000Y-81252142D01*
X143573571Y-80895000D01*
X143573571Y-80609285D01*
X143645000Y-80252142D01*
X143716428Y-80037857D01*
X143787857Y-79895000D01*
X143930714Y-79680714D01*
X144002142Y-79609285D01*
X145216428Y-81252142D02*
X145073571Y-81323571D01*
X144787857Y-81323571D01*
X144645000Y-81252142D01*
X144573571Y-81180714D01*
X144502142Y-81037857D01*
X144502142Y-80609285D01*
X144573571Y-80466428D01*
X144645000Y-80395000D01*
X144787857Y-80323571D01*
X145073571Y-80323571D01*
X145216428Y-80395000D01*
X145716428Y-81895000D02*
X145787857Y-81823571D01*
X145930714Y-81609285D01*
X146002142Y-81466428D01*
X146073571Y-81252142D01*
X146145000Y-80895000D01*
X146145000Y-80609285D01*
X146073571Y-80252142D01*
X146002142Y-80037857D01*
X145930714Y-79895000D01*
X145787857Y-79680714D01*
X145716428Y-79609285D01*
X147930714Y-79966428D02*
X148002142Y-79895000D01*
X148145000Y-79823571D01*
X148502142Y-79823571D01*
X148645000Y-79895000D01*
X148716428Y-79966428D01*
X148787857Y-80109285D01*
X148787857Y-80252142D01*
X148716428Y-80466428D01*
X147859285Y-81323571D01*
X148787857Y-81323571D01*
X149716428Y-79823571D02*
X149859285Y-79823571D01*
X150002142Y-79895000D01*
X150073571Y-79966428D01*
X150145000Y-80109285D01*
X150216428Y-80395000D01*
X150216428Y-80752142D01*
X150145000Y-81037857D01*
X150073571Y-81180714D01*
X150002142Y-81252142D01*
X149859285Y-81323571D01*
X149716428Y-81323571D01*
X149573571Y-81252142D01*
X149502142Y-81180714D01*
X149430714Y-81037857D01*
X149359285Y-80752142D01*
X149359285Y-80395000D01*
X149430714Y-80109285D01*
X149502142Y-79966428D01*
X149573571Y-79895000D01*
X149716428Y-79823571D01*
X151645000Y-81323571D02*
X150787857Y-81323571D01*
X151216428Y-81323571D02*
X151216428Y-79823571D01*
X151073571Y-80037857D01*
X150930714Y-80180714D01*
X150787857Y-80252142D01*
X152359285Y-81323571D02*
X152645000Y-81323571D01*
X152787857Y-81252142D01*
X152859285Y-81180714D01*
X153002142Y-80966428D01*
X153073571Y-80680714D01*
X153073571Y-80109285D01*
X153002142Y-79966428D01*
X152930714Y-79895000D01*
X152787857Y-79823571D01*
X152502142Y-79823571D01*
X152359285Y-79895000D01*
X152287857Y-79966428D01*
X152216428Y-80109285D01*
X152216428Y-80466428D01*
X152287857Y-80609285D01*
X152359285Y-80680714D01*
X152502142Y-80752142D01*
X152787857Y-80752142D01*
X152930714Y-80680714D01*
X153002142Y-80609285D01*
X153073571Y-80466428D01*
X154787857Y-81252142D02*
X154930714Y-81323571D01*
X155216428Y-81323571D01*
X155359285Y-81252142D01*
X155430714Y-81109285D01*
X155430714Y-81037857D01*
X155359285Y-80895000D01*
X155216428Y-80823571D01*
X155002142Y-80823571D01*
X154859285Y-80752142D01*
X154787857Y-80609285D01*
X154787857Y-80537857D01*
X154859285Y-80395000D01*
X155002142Y-80323571D01*
X155216428Y-80323571D01*
X155359285Y-80395000D01*
X155859285Y-80323571D02*
X156430714Y-80323571D01*
X156073571Y-79823571D02*
X156073571Y-81109285D01*
X156145000Y-81252142D01*
X156287857Y-81323571D01*
X156430714Y-81323571D01*
X157502142Y-81252142D02*
X157359285Y-81323571D01*
X157073571Y-81323571D01*
X156930714Y-81252142D01*
X156859285Y-81109285D01*
X156859285Y-80537857D01*
X156930714Y-80395000D01*
X157073571Y-80323571D01*
X157359285Y-80323571D01*
X157502142Y-80395000D01*
X157573571Y-80537857D01*
X157573571Y-80680714D01*
X156859285Y-80823571D01*
X158073571Y-80323571D02*
X158430714Y-81323571D01*
X158787857Y-80323571D01*
X159930714Y-81252142D02*
X159787857Y-81323571D01*
X159502142Y-81323571D01*
X159359285Y-81252142D01*
X159287857Y-81109285D01*
X159287857Y-80537857D01*
X159359285Y-80395000D01*
X159502142Y-80323571D01*
X159787857Y-80323571D01*
X159930714Y-80395000D01*
X160002142Y-80537857D01*
X160002142Y-80680714D01*
X159287857Y-80823571D01*
D11*
G04 #@! TO.C,J4*
X109414000Y-45526000D02*
X109414000Y-44196000D01*
X110744000Y-45526000D02*
X109414000Y-45526000D01*
X112014000Y-45526000D02*
X112014000Y-42866000D01*
X112014000Y-42866000D02*
X117154000Y-42866000D01*
X112014000Y-45526000D02*
X117154000Y-45526000D01*
X117154000Y-45526000D02*
X117154000Y-42866000D01*
G04 #@! TO.C,C2*
X128116000Y-44958000D02*
G75*
G03X128116000Y-44958000I-2620000J0D01*
G01*
X125496000Y-47538000D02*
X125496000Y-42378000D01*
X125456000Y-47538000D02*
X125456000Y-42378000D01*
X125416000Y-47537000D02*
X125416000Y-42379000D01*
X125376000Y-47536000D02*
X125376000Y-42380000D01*
X125336000Y-47534000D02*
X125336000Y-42382000D01*
X125296000Y-47531000D02*
X125296000Y-42385000D01*
X125256000Y-47527000D02*
X125256000Y-45998000D01*
X125256000Y-43918000D02*
X125256000Y-42389000D01*
X125216000Y-47523000D02*
X125216000Y-45998000D01*
X125216000Y-43918000D02*
X125216000Y-42393000D01*
X125176000Y-47519000D02*
X125176000Y-45998000D01*
X125176000Y-43918000D02*
X125176000Y-42397000D01*
X125136000Y-47514000D02*
X125136000Y-45998000D01*
X125136000Y-43918000D02*
X125136000Y-42402000D01*
X125096000Y-47508000D02*
X125096000Y-45998000D01*
X125096000Y-43918000D02*
X125096000Y-42408000D01*
X125056000Y-47501000D02*
X125056000Y-45998000D01*
X125056000Y-43918000D02*
X125056000Y-42415000D01*
X125016000Y-47494000D02*
X125016000Y-45998000D01*
X125016000Y-43918000D02*
X125016000Y-42422000D01*
X124976000Y-47486000D02*
X124976000Y-45998000D01*
X124976000Y-43918000D02*
X124976000Y-42430000D01*
X124936000Y-47478000D02*
X124936000Y-45998000D01*
X124936000Y-43918000D02*
X124936000Y-42438000D01*
X124896000Y-47469000D02*
X124896000Y-45998000D01*
X124896000Y-43918000D02*
X124896000Y-42447000D01*
X124856000Y-47459000D02*
X124856000Y-45998000D01*
X124856000Y-43918000D02*
X124856000Y-42457000D01*
X124816000Y-47449000D02*
X124816000Y-45998000D01*
X124816000Y-43918000D02*
X124816000Y-42467000D01*
X124775000Y-47438000D02*
X124775000Y-45998000D01*
X124775000Y-43918000D02*
X124775000Y-42478000D01*
X124735000Y-47426000D02*
X124735000Y-45998000D01*
X124735000Y-43918000D02*
X124735000Y-42490000D01*
X124695000Y-47413000D02*
X124695000Y-45998000D01*
X124695000Y-43918000D02*
X124695000Y-42503000D01*
X124655000Y-47400000D02*
X124655000Y-45998000D01*
X124655000Y-43918000D02*
X124655000Y-42516000D01*
X124615000Y-47386000D02*
X124615000Y-45998000D01*
X124615000Y-43918000D02*
X124615000Y-42530000D01*
X124575000Y-47372000D02*
X124575000Y-45998000D01*
X124575000Y-43918000D02*
X124575000Y-42544000D01*
X124535000Y-47356000D02*
X124535000Y-45998000D01*
X124535000Y-43918000D02*
X124535000Y-42560000D01*
X124495000Y-47340000D02*
X124495000Y-45998000D01*
X124495000Y-43918000D02*
X124495000Y-42576000D01*
X124455000Y-47323000D02*
X124455000Y-45998000D01*
X124455000Y-43918000D02*
X124455000Y-42593000D01*
X124415000Y-47306000D02*
X124415000Y-45998000D01*
X124415000Y-43918000D02*
X124415000Y-42610000D01*
X124375000Y-47287000D02*
X124375000Y-45998000D01*
X124375000Y-43918000D02*
X124375000Y-42629000D01*
X124335000Y-47268000D02*
X124335000Y-45998000D01*
X124335000Y-43918000D02*
X124335000Y-42648000D01*
X124295000Y-47248000D02*
X124295000Y-45998000D01*
X124295000Y-43918000D02*
X124295000Y-42668000D01*
X124255000Y-47226000D02*
X124255000Y-45998000D01*
X124255000Y-43918000D02*
X124255000Y-42690000D01*
X124215000Y-47205000D02*
X124215000Y-45998000D01*
X124215000Y-43918000D02*
X124215000Y-42711000D01*
X124175000Y-47182000D02*
X124175000Y-45998000D01*
X124175000Y-43918000D02*
X124175000Y-42734000D01*
X124135000Y-47158000D02*
X124135000Y-45998000D01*
X124135000Y-43918000D02*
X124135000Y-42758000D01*
X124095000Y-47133000D02*
X124095000Y-45998000D01*
X124095000Y-43918000D02*
X124095000Y-42783000D01*
X124055000Y-47107000D02*
X124055000Y-45998000D01*
X124055000Y-43918000D02*
X124055000Y-42809000D01*
X124015000Y-47080000D02*
X124015000Y-45998000D01*
X124015000Y-43918000D02*
X124015000Y-42836000D01*
X123975000Y-47053000D02*
X123975000Y-45998000D01*
X123975000Y-43918000D02*
X123975000Y-42863000D01*
X123935000Y-47023000D02*
X123935000Y-45998000D01*
X123935000Y-43918000D02*
X123935000Y-42893000D01*
X123895000Y-46993000D02*
X123895000Y-45998000D01*
X123895000Y-43918000D02*
X123895000Y-42923000D01*
X123855000Y-46962000D02*
X123855000Y-45998000D01*
X123855000Y-43918000D02*
X123855000Y-42954000D01*
X123815000Y-46929000D02*
X123815000Y-45998000D01*
X123815000Y-43918000D02*
X123815000Y-42987000D01*
X123775000Y-46895000D02*
X123775000Y-45998000D01*
X123775000Y-43918000D02*
X123775000Y-43021000D01*
X123735000Y-46859000D02*
X123735000Y-45998000D01*
X123735000Y-43918000D02*
X123735000Y-43057000D01*
X123695000Y-46822000D02*
X123695000Y-45998000D01*
X123695000Y-43918000D02*
X123695000Y-43094000D01*
X123655000Y-46784000D02*
X123655000Y-45998000D01*
X123655000Y-43918000D02*
X123655000Y-43132000D01*
X123615000Y-46743000D02*
X123615000Y-45998000D01*
X123615000Y-43918000D02*
X123615000Y-43173000D01*
X123575000Y-46701000D02*
X123575000Y-45998000D01*
X123575000Y-43918000D02*
X123575000Y-43215000D01*
X123535000Y-46657000D02*
X123535000Y-45998000D01*
X123535000Y-43918000D02*
X123535000Y-43259000D01*
X123495000Y-46611000D02*
X123495000Y-45998000D01*
X123495000Y-43918000D02*
X123495000Y-43305000D01*
X123455000Y-46563000D02*
X123455000Y-45998000D01*
X123455000Y-43918000D02*
X123455000Y-43353000D01*
X123415000Y-46512000D02*
X123415000Y-45998000D01*
X123415000Y-43918000D02*
X123415000Y-43404000D01*
X123375000Y-46458000D02*
X123375000Y-45998000D01*
X123375000Y-43918000D02*
X123375000Y-43458000D01*
X123335000Y-46401000D02*
X123335000Y-45998000D01*
X123335000Y-43918000D02*
X123335000Y-43515000D01*
X123295000Y-46341000D02*
X123295000Y-45998000D01*
X123295000Y-43918000D02*
X123295000Y-43575000D01*
X123255000Y-46277000D02*
X123255000Y-45998000D01*
X123255000Y-43918000D02*
X123255000Y-43639000D01*
X123215000Y-46209000D02*
X123215000Y-45998000D01*
X123215000Y-43918000D02*
X123215000Y-43707000D01*
X123175000Y-46136000D02*
X123175000Y-43780000D01*
X123135000Y-46056000D02*
X123135000Y-43860000D01*
X123095000Y-45969000D02*
X123095000Y-43947000D01*
X123055000Y-45873000D02*
X123055000Y-44043000D01*
X123015000Y-45763000D02*
X123015000Y-44153000D01*
X122975000Y-45635000D02*
X122975000Y-44281000D01*
X122935000Y-45476000D02*
X122935000Y-44440000D01*
X122895000Y-45242000D02*
X122895000Y-44674000D01*
X128300775Y-46433000D02*
X127800775Y-46433000D01*
X128050775Y-46683000D02*
X128050775Y-46183000D01*
G04 #@! TO.C,C1*
X129020000Y-52324000D02*
G75*
G03X129020000Y-52324000I-3270000J0D01*
G01*
X125750000Y-55554000D02*
X125750000Y-49094000D01*
X125710000Y-55554000D02*
X125710000Y-49094000D01*
X125670000Y-55554000D02*
X125670000Y-49094000D01*
X125630000Y-55552000D02*
X125630000Y-49096000D01*
X125590000Y-55551000D02*
X125590000Y-49097000D01*
X125550000Y-55548000D02*
X125550000Y-49100000D01*
X125510000Y-55546000D02*
X125510000Y-53364000D01*
X125510000Y-51284000D02*
X125510000Y-49102000D01*
X125470000Y-55542000D02*
X125470000Y-53364000D01*
X125470000Y-51284000D02*
X125470000Y-49106000D01*
X125430000Y-55539000D02*
X125430000Y-53364000D01*
X125430000Y-51284000D02*
X125430000Y-49109000D01*
X125390000Y-55535000D02*
X125390000Y-53364000D01*
X125390000Y-51284000D02*
X125390000Y-49113000D01*
X125350000Y-55530000D02*
X125350000Y-53364000D01*
X125350000Y-51284000D02*
X125350000Y-49118000D01*
X125310000Y-55525000D02*
X125310000Y-53364000D01*
X125310000Y-51284000D02*
X125310000Y-49123000D01*
X125270000Y-55519000D02*
X125270000Y-53364000D01*
X125270000Y-51284000D02*
X125270000Y-49129000D01*
X125230000Y-55513000D02*
X125230000Y-53364000D01*
X125230000Y-51284000D02*
X125230000Y-49135000D01*
X125190000Y-55506000D02*
X125190000Y-53364000D01*
X125190000Y-51284000D02*
X125190000Y-49142000D01*
X125150000Y-55499000D02*
X125150000Y-53364000D01*
X125150000Y-51284000D02*
X125150000Y-49149000D01*
X125110000Y-55491000D02*
X125110000Y-53364000D01*
X125110000Y-51284000D02*
X125110000Y-49157000D01*
X125070000Y-55483000D02*
X125070000Y-53364000D01*
X125070000Y-51284000D02*
X125070000Y-49165000D01*
X125029000Y-55474000D02*
X125029000Y-53364000D01*
X125029000Y-51284000D02*
X125029000Y-49174000D01*
X124989000Y-55465000D02*
X124989000Y-53364000D01*
X124989000Y-51284000D02*
X124989000Y-49183000D01*
X124949000Y-55455000D02*
X124949000Y-53364000D01*
X124949000Y-51284000D02*
X124949000Y-49193000D01*
X124909000Y-55445000D02*
X124909000Y-53364000D01*
X124909000Y-51284000D02*
X124909000Y-49203000D01*
X124869000Y-55434000D02*
X124869000Y-53364000D01*
X124869000Y-51284000D02*
X124869000Y-49214000D01*
X124829000Y-55422000D02*
X124829000Y-53364000D01*
X124829000Y-51284000D02*
X124829000Y-49226000D01*
X124789000Y-55410000D02*
X124789000Y-53364000D01*
X124789000Y-51284000D02*
X124789000Y-49238000D01*
X124749000Y-55398000D02*
X124749000Y-53364000D01*
X124749000Y-51284000D02*
X124749000Y-49250000D01*
X124709000Y-55385000D02*
X124709000Y-53364000D01*
X124709000Y-51284000D02*
X124709000Y-49263000D01*
X124669000Y-55371000D02*
X124669000Y-53364000D01*
X124669000Y-51284000D02*
X124669000Y-49277000D01*
X124629000Y-55357000D02*
X124629000Y-53364000D01*
X124629000Y-51284000D02*
X124629000Y-49291000D01*
X124589000Y-55342000D02*
X124589000Y-53364000D01*
X124589000Y-51284000D02*
X124589000Y-49306000D01*
X124549000Y-55326000D02*
X124549000Y-53364000D01*
X124549000Y-51284000D02*
X124549000Y-49322000D01*
X124509000Y-55310000D02*
X124509000Y-53364000D01*
X124509000Y-51284000D02*
X124509000Y-49338000D01*
X124469000Y-55294000D02*
X124469000Y-53364000D01*
X124469000Y-51284000D02*
X124469000Y-49354000D01*
X124429000Y-55276000D02*
X124429000Y-53364000D01*
X124429000Y-51284000D02*
X124429000Y-49372000D01*
X124389000Y-55258000D02*
X124389000Y-53364000D01*
X124389000Y-51284000D02*
X124389000Y-49390000D01*
X124349000Y-55240000D02*
X124349000Y-53364000D01*
X124349000Y-51284000D02*
X124349000Y-49408000D01*
X124309000Y-55220000D02*
X124309000Y-53364000D01*
X124309000Y-51284000D02*
X124309000Y-49428000D01*
X124269000Y-55200000D02*
X124269000Y-53364000D01*
X124269000Y-51284000D02*
X124269000Y-49448000D01*
X124229000Y-55180000D02*
X124229000Y-53364000D01*
X124229000Y-51284000D02*
X124229000Y-49468000D01*
X124189000Y-55158000D02*
X124189000Y-53364000D01*
X124189000Y-51284000D02*
X124189000Y-49490000D01*
X124149000Y-55136000D02*
X124149000Y-53364000D01*
X124149000Y-51284000D02*
X124149000Y-49512000D01*
X124109000Y-55114000D02*
X124109000Y-53364000D01*
X124109000Y-51284000D02*
X124109000Y-49534000D01*
X124069000Y-55090000D02*
X124069000Y-53364000D01*
X124069000Y-51284000D02*
X124069000Y-49558000D01*
X124029000Y-55066000D02*
X124029000Y-53364000D01*
X124029000Y-51284000D02*
X124029000Y-49582000D01*
X123989000Y-55040000D02*
X123989000Y-53364000D01*
X123989000Y-51284000D02*
X123989000Y-49608000D01*
X123949000Y-55014000D02*
X123949000Y-53364000D01*
X123949000Y-51284000D02*
X123949000Y-49634000D01*
X123909000Y-54988000D02*
X123909000Y-53364000D01*
X123909000Y-51284000D02*
X123909000Y-49660000D01*
X123869000Y-54960000D02*
X123869000Y-53364000D01*
X123869000Y-51284000D02*
X123869000Y-49688000D01*
X123829000Y-54931000D02*
X123829000Y-53364000D01*
X123829000Y-51284000D02*
X123829000Y-49717000D01*
X123789000Y-54902000D02*
X123789000Y-53364000D01*
X123789000Y-51284000D02*
X123789000Y-49746000D01*
X123749000Y-54872000D02*
X123749000Y-53364000D01*
X123749000Y-51284000D02*
X123749000Y-49776000D01*
X123709000Y-54840000D02*
X123709000Y-53364000D01*
X123709000Y-51284000D02*
X123709000Y-49808000D01*
X123669000Y-54808000D02*
X123669000Y-53364000D01*
X123669000Y-51284000D02*
X123669000Y-49840000D01*
X123629000Y-54774000D02*
X123629000Y-53364000D01*
X123629000Y-51284000D02*
X123629000Y-49874000D01*
X123589000Y-54740000D02*
X123589000Y-53364000D01*
X123589000Y-51284000D02*
X123589000Y-49908000D01*
X123549000Y-54704000D02*
X123549000Y-53364000D01*
X123549000Y-51284000D02*
X123549000Y-49944000D01*
X123509000Y-54667000D02*
X123509000Y-53364000D01*
X123509000Y-51284000D02*
X123509000Y-49981000D01*
X123469000Y-54629000D02*
X123469000Y-53364000D01*
X123469000Y-51284000D02*
X123469000Y-50019000D01*
X123429000Y-54589000D02*
X123429000Y-50059000D01*
X123389000Y-54548000D02*
X123389000Y-50100000D01*
X123349000Y-54506000D02*
X123349000Y-50142000D01*
X123309000Y-54461000D02*
X123309000Y-50187000D01*
X123269000Y-54416000D02*
X123269000Y-50232000D01*
X123229000Y-54368000D02*
X123229000Y-50280000D01*
X123189000Y-54319000D02*
X123189000Y-50329000D01*
X123149000Y-54268000D02*
X123149000Y-50380000D01*
X123109000Y-54214000D02*
X123109000Y-50434000D01*
X123069000Y-54158000D02*
X123069000Y-50490000D01*
X123029000Y-54100000D02*
X123029000Y-50548000D01*
X122989000Y-54038000D02*
X122989000Y-50610000D01*
X122949000Y-53974000D02*
X122949000Y-50674000D01*
X122909000Y-53905000D02*
X122909000Y-50743000D01*
X122869000Y-53833000D02*
X122869000Y-50815000D01*
X122829000Y-53756000D02*
X122829000Y-50892000D01*
X122789000Y-53674000D02*
X122789000Y-50974000D01*
X122749000Y-53586000D02*
X122749000Y-51062000D01*
X122709000Y-53489000D02*
X122709000Y-51159000D01*
X122669000Y-53383000D02*
X122669000Y-51265000D01*
X122629000Y-53264000D02*
X122629000Y-51384000D01*
X122589000Y-53126000D02*
X122589000Y-51522000D01*
X122549000Y-52957000D02*
X122549000Y-51691000D01*
X122509000Y-52726000D02*
X122509000Y-51922000D01*
X129250241Y-54163000D02*
X128620241Y-54163000D01*
X128935241Y-54478000D02*
X128935241Y-53848000D01*
G04 #@! TO.C,J5*
X145895000Y-50445000D02*
X145895000Y-41445000D01*
X145895000Y-41445000D02*
X155095000Y-41445000D01*
X155095000Y-41445000D02*
X155095000Y-56045000D01*
X155095000Y-56045000D02*
X152295000Y-56045000D01*
X148695000Y-56045000D02*
X145895000Y-56045000D01*
X145895000Y-56045000D02*
X145895000Y-54045000D01*
X155335000Y-54545000D02*
X155335000Y-56285000D01*
X155335000Y-56285000D02*
X153595000Y-56285000D01*
G04 #@! TO.C,U2*
X141010000Y-48140000D02*
X130770000Y-48140000D01*
X141010000Y-64030000D02*
X130770000Y-64030000D01*
X141010000Y-64030000D02*
X141010000Y-48140000D01*
X130770000Y-64030000D02*
X130770000Y-48140000D01*
X138430000Y-48140000D02*
X138430000Y-45600000D01*
X135890000Y-48140000D02*
X135890000Y-45600000D01*
X133350000Y-48140000D02*
X133350000Y-45600000D01*
G04 #@! TO.C,R1*
X90270000Y-73565000D02*
X87530000Y-73565000D01*
X87530000Y-73565000D02*
X87530000Y-80105000D01*
X87530000Y-80105000D02*
X90270000Y-80105000D01*
X90270000Y-80105000D02*
X90270000Y-73565000D01*
X88900000Y-72795000D02*
X88900000Y-73565000D01*
X88900000Y-80875000D02*
X88900000Y-80105000D01*
D12*
G04 #@! TO.C,J2*
X101600000Y-40640000D02*
X101600000Y-44450000D01*
X88900000Y-40640000D02*
X101600000Y-40640000D01*
X88900000Y-50800000D02*
X88900000Y-40640000D01*
X101600000Y-50800000D02*
X88900000Y-50800000D01*
X101600000Y-44450000D02*
X101600000Y-50800000D01*
D13*
G04 #@! TO.C,U1*
X124461517Y-87898932D02*
X123844156Y-87898932D01*
X124461517Y-85905738D02*
X124461517Y-87898932D01*
X123808878Y-85905738D02*
X124461517Y-85905738D01*
X123826517Y-89909765D02*
X123773600Y-83824349D01*
X122256656Y-89909765D02*
X123826517Y-89909765D01*
X121727489Y-89415876D02*
X122256656Y-89909765D01*
X120439850Y-89415876D02*
X121727489Y-89415876D01*
X120439850Y-84353515D02*
X120439850Y-89415876D01*
X121692211Y-84353515D02*
X120439850Y-84353515D01*
X122221378Y-83824349D02*
X121692211Y-84353515D01*
X123773600Y-83824349D02*
X122221378Y-83824349D01*
X109850350Y-90287188D02*
X109850350Y-84473451D01*
X116989931Y-90287188D02*
X109850350Y-90287188D01*
X116989931Y-84473451D02*
X116989931Y-90287188D01*
X109850350Y-84473451D02*
X116989931Y-84473451D01*
X123862480Y-83846181D02*
X123832686Y-90654524D01*
X125806026Y-82885285D02*
X123862480Y-83846181D01*
X125781078Y-60330193D02*
X125806026Y-82885285D01*
X125665482Y-59437425D02*
X125781078Y-60330193D01*
X125437122Y-58682387D02*
X125665482Y-59437425D01*
X125109595Y-58050540D02*
X125437122Y-58682387D01*
X124696503Y-57527342D02*
X125109595Y-58050540D01*
X124211445Y-57098257D02*
X124696503Y-57527342D01*
X123668018Y-56748742D02*
X124211445Y-57098257D01*
X123079824Y-56464259D02*
X123668018Y-56748742D01*
X122460460Y-56230266D02*
X123079824Y-56464259D01*
X103422547Y-56259024D02*
X122460460Y-56230266D01*
X102824750Y-56444690D02*
X103422547Y-56259024D01*
X102280560Y-56691623D02*
X102824750Y-56444690D01*
X101789488Y-56999259D02*
X102280560Y-56691623D01*
X101351047Y-57367048D02*
X101789488Y-56999259D01*
X100964747Y-57794423D02*
X101351047Y-57367048D01*
X100630099Y-58280833D02*
X100964747Y-57794423D01*
X100346616Y-58825714D02*
X100630099Y-58280833D01*
X100113805Y-59428507D02*
X100346616Y-58825714D01*
X100099807Y-90598658D02*
X100113805Y-59428507D01*
X109180603Y-90624736D02*
X100099807Y-90598658D01*
X109178627Y-89422483D02*
X109180603Y-90624736D01*
X118009849Y-89415795D02*
X109178627Y-89422483D01*
X118036180Y-90699228D02*
X118009849Y-89415795D01*
X123847472Y-90699228D02*
X118036180Y-90699228D01*
G04 #@! TO.C,J4*
D14*
X107866380Y-44529333D02*
X108580666Y-44529333D01*
X108723523Y-44576952D01*
X108818761Y-44672190D01*
X108866380Y-44815047D01*
X108866380Y-44910285D01*
X108199714Y-43624571D02*
X108866380Y-43624571D01*
X107818761Y-43862666D02*
X108533047Y-44100761D01*
X108533047Y-43481714D01*
G04 #@! TO.C,C2*
X129373333Y-45315142D02*
X129325714Y-45362761D01*
X129182857Y-45410380D01*
X129087619Y-45410380D01*
X128944761Y-45362761D01*
X128849523Y-45267523D01*
X128801904Y-45172285D01*
X128754285Y-44981809D01*
X128754285Y-44838952D01*
X128801904Y-44648476D01*
X128849523Y-44553238D01*
X128944761Y-44458000D01*
X129087619Y-44410380D01*
X129182857Y-44410380D01*
X129325714Y-44458000D01*
X129373333Y-44505619D01*
X129754285Y-44505619D02*
X129801904Y-44458000D01*
X129897142Y-44410380D01*
X130135238Y-44410380D01*
X130230476Y-44458000D01*
X130278095Y-44505619D01*
X130325714Y-44600857D01*
X130325714Y-44696095D01*
X130278095Y-44838952D01*
X129706666Y-45410380D01*
X130325714Y-45410380D01*
G04 #@! TO.C,C1*
X125583333Y-57081142D02*
X125535714Y-57128761D01*
X125392857Y-57176380D01*
X125297619Y-57176380D01*
X125154761Y-57128761D01*
X125059523Y-57033523D01*
X125011904Y-56938285D01*
X124964285Y-56747809D01*
X124964285Y-56604952D01*
X125011904Y-56414476D01*
X125059523Y-56319238D01*
X125154761Y-56224000D01*
X125297619Y-56176380D01*
X125392857Y-56176380D01*
X125535714Y-56224000D01*
X125583333Y-56271619D01*
X126535714Y-57176380D02*
X125964285Y-57176380D01*
X126250000Y-57176380D02*
X126250000Y-56176380D01*
X126154761Y-56319238D01*
X126059523Y-56414476D01*
X125964285Y-56462095D01*
G04 #@! TO.C,J5*
X144197380Y-47128333D02*
X144911666Y-47128333D01*
X145054523Y-47175952D01*
X145149761Y-47271190D01*
X145197380Y-47414047D01*
X145197380Y-47509285D01*
X144197380Y-46175952D02*
X144197380Y-46652142D01*
X144673571Y-46699761D01*
X144625952Y-46652142D01*
X144578333Y-46556904D01*
X144578333Y-46318809D01*
X144625952Y-46223571D01*
X144673571Y-46175952D01*
X144768809Y-46128333D01*
X145006904Y-46128333D01*
X145102142Y-46175952D01*
X145149761Y-46223571D01*
X145197380Y-46318809D01*
X145197380Y-46556904D01*
X145149761Y-46652142D01*
X145102142Y-46699761D01*
G04 #@! TO.C,U2*
X135128095Y-64482380D02*
X135128095Y-65291904D01*
X135175714Y-65387142D01*
X135223333Y-65434761D01*
X135318571Y-65482380D01*
X135509047Y-65482380D01*
X135604285Y-65434761D01*
X135651904Y-65387142D01*
X135699523Y-65291904D01*
X135699523Y-64482380D01*
X136128095Y-64577619D02*
X136175714Y-64530000D01*
X136270952Y-64482380D01*
X136509047Y-64482380D01*
X136604285Y-64530000D01*
X136651904Y-64577619D01*
X136699523Y-64672857D01*
X136699523Y-64768095D01*
X136651904Y-64910952D01*
X136080476Y-65482380D01*
X136699523Y-65482380D01*
G04 #@! TO.C,R1*
X91722380Y-77001666D02*
X91246190Y-77335000D01*
X91722380Y-77573095D02*
X90722380Y-77573095D01*
X90722380Y-77192142D01*
X90770000Y-77096904D01*
X90817619Y-77049285D01*
X90912857Y-77001666D01*
X91055714Y-77001666D01*
X91150952Y-77049285D01*
X91198571Y-77096904D01*
X91246190Y-77192142D01*
X91246190Y-77573095D01*
X91722380Y-76049285D02*
X91722380Y-76620714D01*
X91722380Y-76335000D02*
X90722380Y-76335000D01*
X90865238Y-76430238D01*
X90960476Y-76525476D01*
X91008095Y-76620714D01*
G04 #@! TO.C,J2*
D15*
X85217000Y-48060428D02*
X85217000Y-49149000D01*
X85144428Y-49366714D01*
X84999285Y-49511857D01*
X84781571Y-49584428D01*
X84636428Y-49584428D01*
X85870142Y-48205571D02*
X85942714Y-48133000D01*
X86087857Y-48060428D01*
X86450714Y-48060428D01*
X86595857Y-48133000D01*
X86668428Y-48205571D01*
X86741000Y-48350714D01*
X86741000Y-48495857D01*
X86668428Y-48713571D01*
X85797571Y-49584428D01*
X86741000Y-49584428D01*
X88791142Y-53394428D02*
X88791142Y-51870428D01*
X89299142Y-52959000D01*
X89807142Y-51870428D01*
X89807142Y-53394428D01*
X90532857Y-53394428D02*
X90532857Y-52378428D01*
X90532857Y-51870428D02*
X90460285Y-51943000D01*
X90532857Y-52015571D01*
X90605428Y-51943000D01*
X90532857Y-51870428D01*
X90532857Y-52015571D01*
X91258571Y-52378428D02*
X91258571Y-53394428D01*
X91258571Y-52523571D02*
X91331142Y-52451000D01*
X91476285Y-52378428D01*
X91694000Y-52378428D01*
X91839142Y-52451000D01*
X91911714Y-52596142D01*
X91911714Y-53394428D01*
X92637428Y-53394428D02*
X92637428Y-52378428D01*
X92637428Y-51870428D02*
X92564857Y-51943000D01*
X92637428Y-52015571D01*
X92710000Y-51943000D01*
X92637428Y-51870428D01*
X92637428Y-52015571D01*
X93363142Y-52813857D02*
X94524285Y-52813857D01*
X95250000Y-53394428D02*
X95250000Y-51870428D01*
X95612857Y-51870428D01*
X95830571Y-51943000D01*
X95975714Y-52088142D01*
X96048285Y-52233285D01*
X96120857Y-52523571D01*
X96120857Y-52741285D01*
X96048285Y-53031571D01*
X95975714Y-53176714D01*
X95830571Y-53321857D01*
X95612857Y-53394428D01*
X95250000Y-53394428D01*
X96774000Y-53394428D02*
X96774000Y-51870428D01*
X97499714Y-53394428D02*
X97499714Y-51870428D01*
X98370571Y-53394428D01*
X98370571Y-51870428D01*
X99096285Y-52813857D02*
X100257428Y-52813857D01*
X101636285Y-51870428D02*
X101346000Y-51870428D01*
X101200857Y-51943000D01*
X101128285Y-52015571D01*
X100983142Y-52233285D01*
X100910571Y-52523571D01*
X100910571Y-53104142D01*
X100983142Y-53249285D01*
X101055714Y-53321857D01*
X101200857Y-53394428D01*
X101491142Y-53394428D01*
X101636285Y-53321857D01*
X101708857Y-53249285D01*
X101781428Y-53104142D01*
X101781428Y-52741285D01*
X101708857Y-52596142D01*
X101636285Y-52523571D01*
X101491142Y-52451000D01*
X101200857Y-52451000D01*
X101055714Y-52523571D01*
X100983142Y-52596142D01*
X100910571Y-52741285D01*
G04 #@! TO.C,U1*
D14*
X98298095Y-89749380D02*
X98298095Y-90558904D01*
X98345714Y-90654142D01*
X98393333Y-90701761D01*
X98488571Y-90749380D01*
X98679047Y-90749380D01*
X98774285Y-90701761D01*
X98821904Y-90654142D01*
X98869523Y-90558904D01*
X98869523Y-89749380D01*
X99869523Y-90749380D02*
X99298095Y-90749380D01*
X99583809Y-90749380D02*
X99583809Y-89749380D01*
X99488571Y-89892238D01*
X99393333Y-89987476D01*
X99298095Y-90035095D01*
X106172857Y-57539142D02*
X106887142Y-60539142D01*
X107458571Y-58396285D01*
X108030000Y-60539142D01*
X108744285Y-57539142D01*
X111030000Y-60396285D02*
X110744285Y-60539142D01*
X110172857Y-60539142D01*
X109887142Y-60396285D01*
X109744285Y-60110571D01*
X109744285Y-58967714D01*
X109887142Y-58682000D01*
X110172857Y-58539142D01*
X110744285Y-58539142D01*
X111030000Y-58682000D01*
X111172857Y-58967714D01*
X111172857Y-59253428D01*
X109744285Y-59539142D01*
X112458571Y-60539142D02*
X112458571Y-57539142D01*
X113458571Y-59682000D01*
X114458571Y-57539142D01*
X114458571Y-60539142D01*
X116315714Y-60539142D02*
X116030000Y-60396285D01*
X115887142Y-60253428D01*
X115744285Y-59967714D01*
X115744285Y-59110571D01*
X115887142Y-58824857D01*
X116030000Y-58682000D01*
X116315714Y-58539142D01*
X116744285Y-58539142D01*
X117030000Y-58682000D01*
X117172857Y-58824857D01*
X117315714Y-59110571D01*
X117315714Y-59967714D01*
X117172857Y-60253428D01*
X117030000Y-60396285D01*
X116744285Y-60539142D01*
X116315714Y-60539142D01*
X118458571Y-60396285D02*
X118744285Y-60539142D01*
X119315714Y-60539142D01*
X119601428Y-60396285D01*
X119744285Y-60110571D01*
X119744285Y-59967714D01*
X119601428Y-59682000D01*
X119315714Y-59539142D01*
X118887142Y-59539142D01*
X118601428Y-59396285D01*
X118458571Y-59110571D01*
X118458571Y-58967714D01*
X118601428Y-58682000D01*
X118887142Y-58539142D01*
X119315714Y-58539142D01*
X119601428Y-58682000D01*
G04 #@! TO.C,REF5*
X134842380Y-57966380D02*
X134509047Y-57490190D01*
X134270952Y-57966380D02*
X134270952Y-56966380D01*
X134651904Y-56966380D01*
X134747142Y-57014000D01*
X134794761Y-57061619D01*
X134842380Y-57156857D01*
X134842380Y-57299714D01*
X134794761Y-57394952D01*
X134747142Y-57442571D01*
X134651904Y-57490190D01*
X134270952Y-57490190D01*
X135270952Y-57442571D02*
X135604285Y-57442571D01*
X135747142Y-57966380D02*
X135270952Y-57966380D01*
X135270952Y-56966380D01*
X135747142Y-56966380D01*
X136509047Y-57442571D02*
X136175714Y-57442571D01*
X136175714Y-57966380D02*
X136175714Y-56966380D01*
X136651904Y-56966380D01*
X137509047Y-56966380D02*
X137032857Y-56966380D01*
X136985238Y-57442571D01*
X137032857Y-57394952D01*
X137128095Y-57347333D01*
X137366190Y-57347333D01*
X137461428Y-57394952D01*
X137509047Y-57442571D01*
X137556666Y-57537809D01*
X137556666Y-57775904D01*
X137509047Y-57871142D01*
X137461428Y-57918761D01*
X137366190Y-57966380D01*
X137128095Y-57966380D01*
X137032857Y-57918761D01*
X136985238Y-57871142D01*
G04 #@! TD*
M02*
