G04 #@! TF.GenerationSoftware,KiCad,Pcbnew,5.0.2+dfsg1-1~bpo9+1*
G04 #@! TF.CreationDate,2019-06-18T09:35:30+01:00*
G04 #@! TF.ProjectId,esp8bit,65737038-6269-4742-9e6b-696361645f70,rev?*
G04 #@! TF.SameCoordinates,Original*
G04 #@! TF.FileFunction,Copper,L1,Top*
G04 #@! TF.FilePolarity,Positive*
%FSLAX46Y46*%
G04 Gerber Fmt 4.6, Leading zero omitted, Abs format (unit mm)*
G04 Created by KiCad (PCBNEW 5.0.2+dfsg1-1~bpo9+1) date Tue 18 Jun 2019 09:35:30 IST*
%MOMM*%
%LPD*%
G01*
G04 APERTURE LIST*
G04 #@! TA.AperFunction,ComponentPad*
%ADD10C,5.400000*%
G04 #@! TD*
G04 #@! TA.AperFunction,ComponentPad*
%ADD11O,1.700000X1.700000*%
G04 #@! TD*
G04 #@! TA.AperFunction,ComponentPad*
%ADD12R,1.700000X1.700000*%
G04 #@! TD*
G04 #@! TA.AperFunction,ComponentPad*
%ADD13R,1.600000X1.600000*%
G04 #@! TD*
G04 #@! TA.AperFunction,ComponentPad*
%ADD14C,1.600000*%
G04 #@! TD*
G04 #@! TA.AperFunction,ComponentPad*
%ADD15R,2.600000X2.600000*%
G04 #@! TD*
G04 #@! TA.AperFunction,ComponentPad*
%ADD16C,2.600000*%
G04 #@! TD*
G04 #@! TA.AperFunction,ComponentPad*
%ADD17R,1.905000X2.000000*%
G04 #@! TD*
G04 #@! TA.AperFunction,ComponentPad*
%ADD18O,1.905000X2.000000*%
G04 #@! TD*
G04 #@! TA.AperFunction,ComponentPad*
%ADD19O,1.600000X1.600000*%
G04 #@! TD*
G04 #@! TA.AperFunction,ComponentPad*
%ADD20R,2.169160X3.200400*%
G04 #@! TD*
G04 #@! TA.AperFunction,ComponentPad*
%ADD21R,3.200400X1.998980*%
G04 #@! TD*
G04 #@! TA.AperFunction,ComponentPad*
%ADD22C,1.371600*%
G04 #@! TD*
G04 #@! TA.AperFunction,ComponentPad*
%ADD23C,1.800000*%
G04 #@! TD*
G04 #@! TA.AperFunction,Conductor*
%ADD24C,0.250000*%
G04 #@! TD*
G04 #@! TA.AperFunction,Conductor*
%ADD25C,0.254000*%
G04 #@! TD*
G04 APERTURE END LIST*
D10*
G04 #@! TO.P,REF1,1*
G04 #@! TO.N,N/C*
X80010000Y-43815000D03*
G04 #@! TD*
G04 #@! TO.P,REF2,1*
G04 #@! TO.N,N/C*
X159385000Y-43815000D03*
G04 #@! TD*
G04 #@! TO.P,REF4,1*
G04 #@! TO.N,N/C*
X80010000Y-87376000D03*
G04 #@! TD*
G04 #@! TO.P,REF3,1*
G04 #@! TO.N,N/C*
X159385000Y-87376000D03*
G04 #@! TD*
D11*
G04 #@! TO.P,J4,3*
G04 #@! TO.N,VCC*
X115824000Y-44196000D03*
G04 #@! TO.P,J4,2*
G04 #@! TO.N,/Sound*
X113284000Y-44196000D03*
D12*
G04 #@! TO.P,J4,1*
G04 #@! TO.N,GND*
X110744000Y-44196000D03*
G04 #@! TD*
D13*
G04 #@! TO.P,C2,1*
G04 #@! TO.N,VCC*
X126746000Y-44958000D03*
D14*
G04 #@! TO.P,C2,2*
G04 #@! TO.N,GND*
X124246000Y-44958000D03*
G04 #@! TD*
D13*
G04 #@! TO.P,C1,1*
G04 #@! TO.N,+9V*
X127000000Y-52324000D03*
D14*
G04 #@! TO.P,C1,2*
G04 #@! TO.N,GND*
X124500000Y-52324000D03*
G04 #@! TD*
D15*
G04 #@! TO.P,J5,1*
G04 #@! TO.N,+9V*
X150495000Y-55245000D03*
D16*
G04 #@! TO.P,J5,2*
G04 #@! TO.N,Net-(J5-Pad2)*
X150495000Y-49245000D03*
G04 #@! TO.P,J5,3*
G04 #@! TO.N,GND*
X145795000Y-52245000D03*
G04 #@! TD*
D12*
G04 #@! TO.P,J3,1*
G04 #@! TO.N,/SD_CS*
X160528000Y-69342000D03*
D11*
G04 #@! TO.P,J3,2*
G04 #@! TO.N,/MOSI*
X160528000Y-66802000D03*
G04 #@! TO.P,J3,3*
G04 #@! TO.N,/MISO*
X160528000Y-64262000D03*
G04 #@! TO.P,J3,4*
G04 #@! TO.N,/SCK*
X160528000Y-61722000D03*
G04 #@! TD*
D12*
G04 #@! TO.P,J1,1*
G04 #@! TO.N,VCC*
X78740000Y-81915000D03*
D11*
G04 #@! TO.P,J1,2*
G04 #@! TO.N,GND*
X78740000Y-79375000D03*
G04 #@! TO.P,J1,3*
G04 #@! TO.N,/TFT_CS*
X78740000Y-76835000D03*
G04 #@! TO.P,J1,4*
G04 #@! TO.N,/Rst*
X78740000Y-74295000D03*
G04 #@! TO.P,J1,5*
G04 #@! TO.N,/DC*
X78740000Y-71755000D03*
G04 #@! TO.P,J1,6*
G04 #@! TO.N,/MOSI*
X78740000Y-69215000D03*
G04 #@! TO.P,J1,7*
G04 #@! TO.N,/SCK*
X78740000Y-66675000D03*
G04 #@! TO.P,J1,8*
G04 #@! TO.N,VCC*
X78740000Y-64135000D03*
G04 #@! TO.P,J1,9*
G04 #@! TO.N,/MISO*
X78740000Y-61595000D03*
G04 #@! TO.P,J1,10*
G04 #@! TO.N,/T_CLK*
X78740000Y-59055000D03*
G04 #@! TO.P,J1,11*
G04 #@! TO.N,/T_CS*
X78740000Y-56515000D03*
G04 #@! TO.P,J1,12*
G04 #@! TO.N,/T_DIN*
X78740000Y-53975000D03*
G04 #@! TO.P,J1,13*
G04 #@! TO.N,/T_OUT*
X78740000Y-51435000D03*
G04 #@! TO.P,J1,14*
G04 #@! TO.N,/T_IRQ*
X78740000Y-48895000D03*
G04 #@! TD*
D17*
G04 #@! TO.P,U2,1*
G04 #@! TO.N,+9V*
X138430000Y-44450000D03*
D18*
G04 #@! TO.P,U2,2*
G04 #@! TO.N,GND*
X135890000Y-44450000D03*
G04 #@! TO.P,U2,3*
G04 #@! TO.N,VCC*
X133350000Y-44450000D03*
G04 #@! TD*
D14*
G04 #@! TO.P,R1,1*
G04 #@! TO.N,/SD_CS*
X88900000Y-71755000D03*
D19*
G04 #@! TO.P,R1,2*
G04 #@! TO.N,VCC*
X88900000Y-81915000D03*
G04 #@! TD*
D20*
G04 #@! TO.P,J2,GND*
G04 #@! TO.N,N/C*
X102235000Y-44450000D03*
X88265000Y-44450000D03*
D21*
X95250000Y-43942000D03*
D22*
G04 #@! TO.P,J2,2*
G04 #@! TO.N,Net-(J2-Pad2)*
X92075000Y-46990000D03*
G04 #@! TO.P,J2,5*
G04 #@! TO.N,/KBD_CLK*
X98425000Y-46990000D03*
G04 #@! TO.P,J2,6*
G04 #@! TO.N,Net-(J2-Pad6)*
X98425000Y-49530000D03*
G04 #@! TO.P,J2,1*
G04 #@! TO.N,/KBD_DATA*
X92075000Y-49530000D03*
G04 #@! TO.P,J2,3*
G04 #@! TO.N,GND*
X94107000Y-46990000D03*
G04 #@! TO.P,J2,4*
G04 #@! TO.N,VCC*
X96266000Y-46990000D03*
G04 #@! TD*
D23*
G04 #@! TO.P,U1,9*
G04 #@! TO.N,/Rst*
X124460000Y-64262000D03*
G04 #@! TO.P,U1,10*
G04 #@! TO.N,Net-(U1-Pad10)*
X124460000Y-66802000D03*
G04 #@! TO.P,U1,11*
G04 #@! TO.N,/SD_CS*
X124460000Y-69342000D03*
G04 #@! TO.P,U1,12*
G04 #@! TO.N,/SCK*
X124460000Y-71882000D03*
G04 #@! TO.P,U1,13*
G04 #@! TO.N,/MISO*
X124460000Y-74422000D03*
G04 #@! TO.P,U1,14*
G04 #@! TO.N,/MOSI*
X124460000Y-76962000D03*
G04 #@! TO.P,U1,15*
G04 #@! TO.N,/TFT_CS*
X124460000Y-79502000D03*
G04 #@! TO.P,U1,16*
G04 #@! TO.N,Net-(U1-Pad16)*
X124460000Y-82042000D03*
G04 #@! TO.P,U1,1*
G04 #@! TO.N,VCC*
X101600000Y-82042000D03*
G04 #@! TO.P,U1,2*
G04 #@! TO.N,GND*
X101600000Y-79502000D03*
G04 #@! TO.P,U1,3*
G04 #@! TO.N,/KBD_CLK*
X101600000Y-76962000D03*
G04 #@! TO.P,U1,4*
G04 #@! TO.N,/KBD_DATA*
X101600000Y-74422000D03*
G04 #@! TO.P,U1,5*
G04 #@! TO.N,/Sound*
X101600000Y-71882000D03*
G04 #@! TO.P,U1,6*
G04 #@! TO.N,/DC*
X101600000Y-69342000D03*
G04 #@! TO.P,U1,7*
G04 #@! TO.N,Net-(U1-Pad7)*
X101600000Y-66802000D03*
G04 #@! TO.P,U1,8*
G04 #@! TO.N,Net-(U1-Pad8)*
X101600000Y-64262000D03*
G04 #@! TD*
D24*
G04 #@! TO.N,/DC*
X78740000Y-70579700D02*
X78438700Y-70579700D01*
X78438700Y-70579700D02*
X77564700Y-69705700D01*
X77564700Y-69705700D02*
X77564700Y-68720100D01*
X77564700Y-68720100D02*
X78253100Y-68031700D01*
X78253100Y-68031700D02*
X100289700Y-68031700D01*
X100289700Y-68031700D02*
X101600000Y-69342000D01*
X78740000Y-71755000D02*
X78740000Y-70579700D01*
G04 #@! TO.N,GND*
X125371000Y-46083400D02*
X125371000Y-51452600D01*
X125371000Y-51452600D02*
X124500000Y-52324000D01*
X135890000Y-44450000D02*
X134257000Y-46083400D01*
X134257000Y-46083400D02*
X125371000Y-46083400D01*
X124246000Y-44958000D02*
X122309000Y-43020700D01*
X122309000Y-43020700D02*
X112727000Y-43020700D01*
X112727000Y-43020700D02*
X111919000Y-43828600D01*
X111919000Y-43828600D02*
X111919000Y-44196000D01*
X111919000Y-44196000D02*
X110744000Y-44196000D01*
X94107000Y-46990000D02*
X95118100Y-45978900D01*
X95118100Y-45978900D02*
X99039500Y-45978900D01*
X99039500Y-45978900D02*
X99436200Y-46375600D01*
X99436200Y-46375600D02*
X107389000Y-46375600D01*
X107389000Y-46375600D02*
X109569000Y-44196000D01*
X109569000Y-44196000D02*
X110744000Y-44196000D01*
X125371000Y-46083400D02*
X124246000Y-44958000D01*
G04 #@! TO.N,VCC*
X88900000Y-81915000D02*
X101473000Y-81915000D01*
X101473000Y-81915000D02*
X101600000Y-82042000D01*
X88900000Y-81915000D02*
X78740000Y-81915000D01*
X96266000Y-46990000D02*
X97296800Y-48020800D01*
X97296800Y-48020800D02*
X111191000Y-48020800D01*
X111191000Y-48020800D02*
X114649000Y-44563300D01*
X114649000Y-44563300D02*
X114649000Y-44196000D01*
X114649000Y-44196000D02*
X115824000Y-44196000D01*
X126746000Y-44958000D02*
X131564000Y-44958000D01*
X131564000Y-44958000D02*
X132072000Y-44450000D01*
X132072000Y-44450000D02*
X133350000Y-44450000D01*
G04 #@! TO.N,/TFT_CS*
X78740000Y-76835000D02*
X79915300Y-76835000D01*
X124460000Y-79502000D02*
X123157600Y-78199600D01*
X123157600Y-78199600D02*
X81279900Y-78199600D01*
X81279900Y-78199600D02*
X79915300Y-76835000D01*
G04 #@! TO.N,/MOSI*
X78740000Y-69215000D02*
X79915300Y-69215000D01*
X79915300Y-69215000D02*
X86347700Y-75647400D01*
X86347700Y-75647400D02*
X123145400Y-75647400D01*
X123145400Y-75647400D02*
X124460000Y-76962000D01*
X160528000Y-66802000D02*
X159352700Y-66802000D01*
X124460000Y-76962000D02*
X149192700Y-76962000D01*
X149192700Y-76962000D02*
X159352700Y-66802000D01*
G04 #@! TO.N,/MISO*
X126144600Y-64262000D02*
X126144600Y-72737400D01*
X126144600Y-72737400D02*
X124460000Y-74422000D01*
X78740000Y-61595000D02*
X123561900Y-61595000D01*
X123561900Y-61595000D02*
X126144600Y-64177700D01*
X126144600Y-64177700D02*
X126144600Y-64262000D01*
X126144600Y-64262000D02*
X160528000Y-64262000D01*
G04 #@! TO.N,/SCK*
X124460000Y-71882000D02*
X125694200Y-70647800D01*
X125694200Y-70647800D02*
X125694200Y-68828500D01*
X125694200Y-68828500D02*
X124937700Y-68072000D01*
X124937700Y-68072000D02*
X101137100Y-68072000D01*
X101137100Y-68072000D02*
X99740100Y-66675000D01*
X99740100Y-66675000D02*
X78740000Y-66675000D01*
G04 #@! TO.N,/SD_CS*
X124460000Y-69342000D02*
X123190000Y-70612000D01*
X123190000Y-70612000D02*
X90043000Y-70612000D01*
X90043000Y-70612000D02*
X88900000Y-71755000D01*
G04 #@! TO.N,/Rst*
X124460000Y-64262000D02*
X123222500Y-65499500D01*
X123222500Y-65499500D02*
X78203500Y-65499500D01*
X78203500Y-65499500D02*
X77114400Y-66588600D01*
X77114400Y-66588600D02*
X77114400Y-71861500D01*
X77114400Y-71861500D02*
X78372600Y-73119700D01*
X78372600Y-73119700D02*
X78740000Y-73119700D01*
X78740000Y-74295000D02*
X78740000Y-73119700D01*
G04 #@! TO.N,+9V*
X138430000Y-44450000D02*
X130556000Y-52324000D01*
X130556000Y-52324000D02*
X127000000Y-52324000D01*
G04 #@! TD*
D25*
G04 #@! TO.N,GND*
G36*
X159457375Y-67872625D02*
X159475619Y-67884816D01*
X159430235Y-67893843D01*
X159220191Y-68034191D01*
X159079843Y-68244235D01*
X159030560Y-68492000D01*
X159030560Y-70192000D01*
X159079843Y-70439765D01*
X159220191Y-70649809D01*
X159430235Y-70790157D01*
X159678000Y-70839440D01*
X161378000Y-70839440D01*
X161625765Y-70790157D01*
X161835809Y-70649809D01*
X161850000Y-70628570D01*
X161850000Y-85124597D01*
X161274126Y-84548723D01*
X160048373Y-84041000D01*
X158721627Y-84041000D01*
X157495874Y-84548723D01*
X156557723Y-85486874D01*
X156050000Y-86712627D01*
X156050000Y-88039373D01*
X156557723Y-89265126D01*
X157260597Y-89968000D01*
X82134403Y-89968000D01*
X82837277Y-89265126D01*
X83345000Y-88039373D01*
X83345000Y-86712627D01*
X82837277Y-85486874D01*
X81899126Y-84548723D01*
X80673373Y-84041000D01*
X79346627Y-84041000D01*
X78120874Y-84548723D01*
X77418000Y-85251597D01*
X77418000Y-83201571D01*
X77432191Y-83222809D01*
X77642235Y-83363157D01*
X77890000Y-83412440D01*
X79590000Y-83412440D01*
X79837765Y-83363157D01*
X80047809Y-83222809D01*
X80188157Y-83012765D01*
X80237440Y-82765000D01*
X80237440Y-82675000D01*
X87681957Y-82675000D01*
X87865423Y-82949577D01*
X88340091Y-83266740D01*
X88758667Y-83350000D01*
X89041333Y-83350000D01*
X89459909Y-83266740D01*
X89934577Y-82949577D01*
X90118043Y-82675000D01*
X100200725Y-82675000D01*
X100298690Y-82911507D01*
X100730493Y-83343310D01*
X101294670Y-83577000D01*
X101905330Y-83577000D01*
X102469507Y-83343310D01*
X102901310Y-82911507D01*
X103135000Y-82347330D01*
X103135000Y-81736670D01*
X102901310Y-81172493D01*
X102469507Y-80740690D01*
X102449885Y-80732562D01*
X102500554Y-80582159D01*
X101600000Y-79681605D01*
X100699446Y-80582159D01*
X100750115Y-80732562D01*
X100730493Y-80740690D01*
X100316183Y-81155000D01*
X90118043Y-81155000D01*
X89934577Y-80880423D01*
X89459909Y-80563260D01*
X89041333Y-80480000D01*
X88758667Y-80480000D01*
X88340091Y-80563260D01*
X87865423Y-80880423D01*
X87681957Y-81155000D01*
X80237440Y-81155000D01*
X80237440Y-81065000D01*
X80188157Y-80817235D01*
X80047809Y-80607191D01*
X79837765Y-80466843D01*
X79734292Y-80446261D01*
X80011645Y-80141924D01*
X80181476Y-79731890D01*
X80060155Y-79502000D01*
X78867000Y-79502000D01*
X78867000Y-79522000D01*
X78613000Y-79522000D01*
X78613000Y-79502000D01*
X78593000Y-79502000D01*
X78593000Y-79248000D01*
X78613000Y-79248000D01*
X78613000Y-79228000D01*
X78867000Y-79228000D01*
X78867000Y-79248000D01*
X80060155Y-79248000D01*
X80181476Y-79018110D01*
X80011645Y-78608076D01*
X79621358Y-78179817D01*
X79491522Y-78118843D01*
X79810625Y-77905625D01*
X79850879Y-77845380D01*
X80689570Y-78684072D01*
X80731971Y-78747529D01*
X80795427Y-78789929D01*
X80983362Y-78915504D01*
X81031505Y-78925080D01*
X81205048Y-78959600D01*
X81205052Y-78959600D01*
X81279900Y-78974488D01*
X81354748Y-78959600D01*
X100163935Y-78959600D01*
X100053542Y-79261336D01*
X100079161Y-79871460D01*
X100263357Y-80316148D01*
X100519841Y-80402554D01*
X101420395Y-79502000D01*
X101406253Y-79487858D01*
X101585858Y-79308253D01*
X101600000Y-79322395D01*
X101614143Y-79308253D01*
X101793748Y-79487858D01*
X101779605Y-79502000D01*
X102680159Y-80402554D01*
X102936643Y-80316148D01*
X103146458Y-79742664D01*
X103120839Y-79132540D01*
X103049205Y-78959600D01*
X122842799Y-78959600D01*
X122970360Y-79087161D01*
X122925000Y-79196670D01*
X122925000Y-79807330D01*
X123158690Y-80371507D01*
X123559183Y-80772000D01*
X123158690Y-81172493D01*
X122925000Y-81736670D01*
X122925000Y-82347330D01*
X123158690Y-82911507D01*
X123590493Y-83343310D01*
X124154670Y-83577000D01*
X124765330Y-83577000D01*
X125329507Y-83343310D01*
X125761310Y-82911507D01*
X125995000Y-82347330D01*
X125995000Y-81736670D01*
X125761310Y-81172493D01*
X125360817Y-80772000D01*
X125761310Y-80371507D01*
X125995000Y-79807330D01*
X125995000Y-79196670D01*
X125761310Y-78632493D01*
X125360817Y-78232000D01*
X125761310Y-77831507D01*
X125806669Y-77722000D01*
X149117853Y-77722000D01*
X149192700Y-77736888D01*
X149267547Y-77722000D01*
X149267552Y-77722000D01*
X149489237Y-77677904D01*
X149740629Y-77509929D01*
X149783031Y-77446470D01*
X159417121Y-67812381D01*
X159457375Y-67872625D01*
X159457375Y-67872625D01*
G37*
X159457375Y-67872625D02*
X159475619Y-67884816D01*
X159430235Y-67893843D01*
X159220191Y-68034191D01*
X159079843Y-68244235D01*
X159030560Y-68492000D01*
X159030560Y-70192000D01*
X159079843Y-70439765D01*
X159220191Y-70649809D01*
X159430235Y-70790157D01*
X159678000Y-70839440D01*
X161378000Y-70839440D01*
X161625765Y-70790157D01*
X161835809Y-70649809D01*
X161850000Y-70628570D01*
X161850000Y-85124597D01*
X161274126Y-84548723D01*
X160048373Y-84041000D01*
X158721627Y-84041000D01*
X157495874Y-84548723D01*
X156557723Y-85486874D01*
X156050000Y-86712627D01*
X156050000Y-88039373D01*
X156557723Y-89265126D01*
X157260597Y-89968000D01*
X82134403Y-89968000D01*
X82837277Y-89265126D01*
X83345000Y-88039373D01*
X83345000Y-86712627D01*
X82837277Y-85486874D01*
X81899126Y-84548723D01*
X80673373Y-84041000D01*
X79346627Y-84041000D01*
X78120874Y-84548723D01*
X77418000Y-85251597D01*
X77418000Y-83201571D01*
X77432191Y-83222809D01*
X77642235Y-83363157D01*
X77890000Y-83412440D01*
X79590000Y-83412440D01*
X79837765Y-83363157D01*
X80047809Y-83222809D01*
X80188157Y-83012765D01*
X80237440Y-82765000D01*
X80237440Y-82675000D01*
X87681957Y-82675000D01*
X87865423Y-82949577D01*
X88340091Y-83266740D01*
X88758667Y-83350000D01*
X89041333Y-83350000D01*
X89459909Y-83266740D01*
X89934577Y-82949577D01*
X90118043Y-82675000D01*
X100200725Y-82675000D01*
X100298690Y-82911507D01*
X100730493Y-83343310D01*
X101294670Y-83577000D01*
X101905330Y-83577000D01*
X102469507Y-83343310D01*
X102901310Y-82911507D01*
X103135000Y-82347330D01*
X103135000Y-81736670D01*
X102901310Y-81172493D01*
X102469507Y-80740690D01*
X102449885Y-80732562D01*
X102500554Y-80582159D01*
X101600000Y-79681605D01*
X100699446Y-80582159D01*
X100750115Y-80732562D01*
X100730493Y-80740690D01*
X100316183Y-81155000D01*
X90118043Y-81155000D01*
X89934577Y-80880423D01*
X89459909Y-80563260D01*
X89041333Y-80480000D01*
X88758667Y-80480000D01*
X88340091Y-80563260D01*
X87865423Y-80880423D01*
X87681957Y-81155000D01*
X80237440Y-81155000D01*
X80237440Y-81065000D01*
X80188157Y-80817235D01*
X80047809Y-80607191D01*
X79837765Y-80466843D01*
X79734292Y-80446261D01*
X80011645Y-80141924D01*
X80181476Y-79731890D01*
X80060155Y-79502000D01*
X78867000Y-79502000D01*
X78867000Y-79522000D01*
X78613000Y-79522000D01*
X78613000Y-79502000D01*
X78593000Y-79502000D01*
X78593000Y-79248000D01*
X78613000Y-79248000D01*
X78613000Y-79228000D01*
X78867000Y-79228000D01*
X78867000Y-79248000D01*
X80060155Y-79248000D01*
X80181476Y-79018110D01*
X80011645Y-78608076D01*
X79621358Y-78179817D01*
X79491522Y-78118843D01*
X79810625Y-77905625D01*
X79850879Y-77845380D01*
X80689570Y-78684072D01*
X80731971Y-78747529D01*
X80795427Y-78789929D01*
X80983362Y-78915504D01*
X81031505Y-78925080D01*
X81205048Y-78959600D01*
X81205052Y-78959600D01*
X81279900Y-78974488D01*
X81354748Y-78959600D01*
X100163935Y-78959600D01*
X100053542Y-79261336D01*
X100079161Y-79871460D01*
X100263357Y-80316148D01*
X100519841Y-80402554D01*
X101420395Y-79502000D01*
X101406253Y-79487858D01*
X101585858Y-79308253D01*
X101600000Y-79322395D01*
X101614143Y-79308253D01*
X101793748Y-79487858D01*
X101779605Y-79502000D01*
X102680159Y-80402554D01*
X102936643Y-80316148D01*
X103146458Y-79742664D01*
X103120839Y-79132540D01*
X103049205Y-78959600D01*
X122842799Y-78959600D01*
X122970360Y-79087161D01*
X122925000Y-79196670D01*
X122925000Y-79807330D01*
X123158690Y-80371507D01*
X123559183Y-80772000D01*
X123158690Y-81172493D01*
X122925000Y-81736670D01*
X122925000Y-82347330D01*
X123158690Y-82911507D01*
X123590493Y-83343310D01*
X124154670Y-83577000D01*
X124765330Y-83577000D01*
X125329507Y-83343310D01*
X125761310Y-82911507D01*
X125995000Y-82347330D01*
X125995000Y-81736670D01*
X125761310Y-81172493D01*
X125360817Y-80772000D01*
X125761310Y-80371507D01*
X125995000Y-79807330D01*
X125995000Y-79196670D01*
X125761310Y-78632493D01*
X125360817Y-78232000D01*
X125761310Y-77831507D01*
X125806669Y-77722000D01*
X149117853Y-77722000D01*
X149192700Y-77736888D01*
X149267547Y-77722000D01*
X149267552Y-77722000D01*
X149489237Y-77677904D01*
X149740629Y-77509929D01*
X149783031Y-77446470D01*
X159417121Y-67812381D01*
X159457375Y-67872625D01*
G36*
X156557723Y-41925874D02*
X156050000Y-43151627D01*
X156050000Y-44478373D01*
X156557723Y-45704126D01*
X157495874Y-46642277D01*
X158721627Y-47150000D01*
X160048373Y-47150000D01*
X161274126Y-46642277D01*
X161850001Y-46066402D01*
X161850001Y-61027585D01*
X161598625Y-60651375D01*
X161107418Y-60323161D01*
X160674256Y-60237000D01*
X160381744Y-60237000D01*
X159948582Y-60323161D01*
X159457375Y-60651375D01*
X159129161Y-61142582D01*
X159013908Y-61722000D01*
X159129161Y-62301418D01*
X159457375Y-62792625D01*
X159755761Y-62992000D01*
X159457375Y-63191375D01*
X159249822Y-63502000D01*
X126543703Y-63502000D01*
X124152231Y-61110530D01*
X124151877Y-61110000D01*
X133458276Y-61110000D01*
X133643380Y-62040580D01*
X134170511Y-62829489D01*
X134959420Y-63356620D01*
X135655103Y-63495000D01*
X136124897Y-63495000D01*
X136820580Y-63356620D01*
X137609489Y-62829489D01*
X138136620Y-62040580D01*
X138321724Y-61110000D01*
X138136620Y-60179420D01*
X137609489Y-59390511D01*
X136820580Y-58863380D01*
X136124897Y-58725000D01*
X135655103Y-58725000D01*
X134959420Y-58863380D01*
X134170511Y-59390511D01*
X133643380Y-60179420D01*
X133458276Y-61110000D01*
X124151877Y-61110000D01*
X124109829Y-61047071D01*
X123858437Y-60879096D01*
X123636752Y-60835000D01*
X123636747Y-60835000D01*
X123561900Y-60820112D01*
X123487053Y-60835000D01*
X80018178Y-60835000D01*
X79810625Y-60524375D01*
X79512239Y-60325000D01*
X79810625Y-60125625D01*
X80138839Y-59634418D01*
X80254092Y-59055000D01*
X80138839Y-58475582D01*
X79810625Y-57984375D01*
X79512239Y-57785000D01*
X79810625Y-57585625D01*
X80138839Y-57094418D01*
X80254092Y-56515000D01*
X80138839Y-55935582D01*
X79810625Y-55444375D01*
X79512239Y-55245000D01*
X79810625Y-55045625D01*
X80138839Y-54554418D01*
X80254092Y-53975000D01*
X80138839Y-53395582D01*
X80096185Y-53331745D01*
X123671861Y-53331745D01*
X123745995Y-53577864D01*
X124283223Y-53770965D01*
X124853454Y-53743778D01*
X125254005Y-53577864D01*
X125328139Y-53331745D01*
X124500000Y-52503605D01*
X123671861Y-53331745D01*
X80096185Y-53331745D01*
X79810625Y-52904375D01*
X79512239Y-52705000D01*
X79810625Y-52505625D01*
X80076828Y-52107223D01*
X123053035Y-52107223D01*
X123080222Y-52677454D01*
X123246136Y-53078005D01*
X123492255Y-53152139D01*
X124320395Y-52324000D01*
X123492255Y-51495861D01*
X123246136Y-51569995D01*
X123053035Y-52107223D01*
X80076828Y-52107223D01*
X80138839Y-52014418D01*
X80254092Y-51435000D01*
X80230473Y-51316255D01*
X123671861Y-51316255D01*
X124500000Y-52144395D01*
X125328139Y-51316255D01*
X125254005Y-51070136D01*
X124716777Y-50877035D01*
X124146546Y-50904222D01*
X123745995Y-51070136D01*
X123671861Y-51316255D01*
X80230473Y-51316255D01*
X80138839Y-50855582D01*
X79810625Y-50364375D01*
X79512239Y-50165000D01*
X79810625Y-49965625D01*
X80138839Y-49474418D01*
X80254092Y-48895000D01*
X80138839Y-48315582D01*
X79810625Y-47824375D01*
X79319418Y-47496161D01*
X78886256Y-47410000D01*
X78593744Y-47410000D01*
X78160582Y-47496161D01*
X77669375Y-47824375D01*
X77418000Y-48200584D01*
X77418000Y-45939403D01*
X78120874Y-46642277D01*
X79346627Y-47150000D01*
X80673373Y-47150000D01*
X81693917Y-46727277D01*
X90754200Y-46727277D01*
X90754200Y-47252723D01*
X90955280Y-47738173D01*
X91326827Y-48109720D01*
X91689635Y-48260000D01*
X91326827Y-48410280D01*
X90955280Y-48781827D01*
X90754200Y-49267277D01*
X90754200Y-49792723D01*
X90955280Y-50278173D01*
X91326827Y-50649720D01*
X91812277Y-50850800D01*
X92337723Y-50850800D01*
X92823173Y-50649720D01*
X93194720Y-50278173D01*
X93395800Y-49792723D01*
X93395800Y-49267277D01*
X93194720Y-48781827D01*
X92823173Y-48410280D01*
X92460365Y-48260000D01*
X92823173Y-48109720D01*
X93017914Y-47914979D01*
X93361626Y-47914979D01*
X93421717Y-48149277D01*
X93917517Y-48323279D01*
X94442164Y-48294301D01*
X94792283Y-48149277D01*
X94852374Y-47914979D01*
X94107000Y-47169605D01*
X93361626Y-47914979D01*
X93017914Y-47914979D01*
X93194720Y-47738173D01*
X93205679Y-47711716D01*
X93927395Y-46990000D01*
X94286605Y-46990000D01*
X95031979Y-47735374D01*
X95134255Y-47709143D01*
X95146280Y-47738173D01*
X95517827Y-48109720D01*
X96003277Y-48310800D01*
X96511998Y-48310800D01*
X96706473Y-48505275D01*
X96748871Y-48568729D01*
X96812324Y-48611127D01*
X96812326Y-48611129D01*
X96937702Y-48694902D01*
X97000263Y-48736704D01*
X97221948Y-48780800D01*
X97221952Y-48780800D01*
X97296799Y-48795688D01*
X97299785Y-48795094D01*
X97104200Y-49267277D01*
X97104200Y-49792723D01*
X97305280Y-50278173D01*
X97676827Y-50649720D01*
X98162277Y-50850800D01*
X98687723Y-50850800D01*
X99173173Y-50649720D01*
X99544720Y-50278173D01*
X99745800Y-49792723D01*
X99745800Y-49267277D01*
X99544720Y-48781827D01*
X99543693Y-48780800D01*
X111116125Y-48780800D01*
X111190944Y-48795688D01*
X111265820Y-48780800D01*
X111265852Y-48780800D01*
X111349017Y-48764257D01*
X111487485Y-48736725D01*
X111487508Y-48736710D01*
X111487537Y-48736704D01*
X111616586Y-48650476D01*
X111675430Y-48611164D01*
X111675449Y-48611145D01*
X111738929Y-48568729D01*
X111781314Y-48505295D01*
X114321231Y-45965745D01*
X123417861Y-45965745D01*
X123491995Y-46211864D01*
X124029223Y-46404965D01*
X124599454Y-46377778D01*
X125000005Y-46211864D01*
X125074139Y-45965745D01*
X124246000Y-45137605D01*
X123417861Y-45965745D01*
X114321231Y-45965745D01*
X114913467Y-45373595D01*
X115244582Y-45594839D01*
X115677744Y-45681000D01*
X115970256Y-45681000D01*
X116403418Y-45594839D01*
X116894625Y-45266625D01*
X117222839Y-44775418D01*
X117229640Y-44741223D01*
X122799035Y-44741223D01*
X122826222Y-45311454D01*
X122992136Y-45712005D01*
X123238255Y-45786139D01*
X124066395Y-44958000D01*
X124425605Y-44958000D01*
X125253745Y-45786139D01*
X125301307Y-45771813D01*
X125347843Y-46005765D01*
X125488191Y-46215809D01*
X125698235Y-46356157D01*
X125946000Y-46405440D01*
X127546000Y-46405440D01*
X127793765Y-46356157D01*
X128003809Y-46215809D01*
X128144157Y-46005765D01*
X128193440Y-45758000D01*
X128193440Y-45718000D01*
X131489153Y-45718000D01*
X131564000Y-45732888D01*
X131638847Y-45718000D01*
X131638852Y-45718000D01*
X131860537Y-45673904D01*
X132111929Y-45505929D01*
X132113236Y-45503974D01*
X132205477Y-45642023D01*
X132730589Y-45992891D01*
X133350000Y-46116100D01*
X133969410Y-45992891D01*
X134494523Y-45642023D01*
X134629159Y-45440526D01*
X135023076Y-45825973D01*
X135517020Y-46040563D01*
X135762998Y-45920595D01*
X135762998Y-46042200D01*
X130241199Y-51564000D01*
X128447440Y-51564000D01*
X128447440Y-51524000D01*
X128398157Y-51276235D01*
X128257809Y-51066191D01*
X128047765Y-50925843D01*
X127800000Y-50876560D01*
X126200000Y-50876560D01*
X125952235Y-50925843D01*
X125742191Y-51066191D01*
X125601843Y-51276235D01*
X125555307Y-51510187D01*
X125507745Y-51495861D01*
X124679605Y-52324000D01*
X125507745Y-53152139D01*
X125555307Y-53137813D01*
X125601843Y-53371765D01*
X125742191Y-53581809D01*
X125952235Y-53722157D01*
X126200000Y-53771440D01*
X127800000Y-53771440D01*
X128047765Y-53722157D01*
X128208945Y-53614459D01*
X144605146Y-53614459D01*
X144740504Y-53912455D01*
X145458880Y-54189066D01*
X146228427Y-54169710D01*
X146770925Y-53945000D01*
X148547560Y-53945000D01*
X148547560Y-56545000D01*
X148596843Y-56792765D01*
X148737191Y-57002809D01*
X148947235Y-57143157D01*
X149195000Y-57192440D01*
X151795000Y-57192440D01*
X152042765Y-57143157D01*
X152252809Y-57002809D01*
X152393157Y-56792765D01*
X152442440Y-56545000D01*
X152442440Y-53945000D01*
X152393157Y-53697235D01*
X152252809Y-53487191D01*
X152042765Y-53346843D01*
X151795000Y-53297560D01*
X149195000Y-53297560D01*
X148947235Y-53346843D01*
X148737191Y-53487191D01*
X148596843Y-53697235D01*
X148547560Y-53945000D01*
X146770925Y-53945000D01*
X146849496Y-53912455D01*
X146984854Y-53614459D01*
X145795000Y-52424605D01*
X144605146Y-53614459D01*
X128208945Y-53614459D01*
X128257809Y-53581809D01*
X128398157Y-53371765D01*
X128447440Y-53124000D01*
X128447440Y-53084000D01*
X130481153Y-53084000D01*
X130556000Y-53098888D01*
X130630847Y-53084000D01*
X130630852Y-53084000D01*
X130852537Y-53039904D01*
X131103929Y-52871929D01*
X131146331Y-52808470D01*
X132045921Y-51908880D01*
X143850934Y-51908880D01*
X143870290Y-52678427D01*
X144127545Y-53299496D01*
X144425541Y-53434854D01*
X145615395Y-52245000D01*
X145974605Y-52245000D01*
X147164459Y-53434854D01*
X147462455Y-53299496D01*
X147739066Y-52581120D01*
X147719710Y-51811573D01*
X147462455Y-51190504D01*
X147164459Y-51055146D01*
X145974605Y-52245000D01*
X145615395Y-52245000D01*
X144425541Y-51055146D01*
X144127545Y-51190504D01*
X143850934Y-51908880D01*
X132045921Y-51908880D01*
X133079260Y-50875541D01*
X144605146Y-50875541D01*
X145795000Y-52065395D01*
X146984854Y-50875541D01*
X146849496Y-50577545D01*
X146131120Y-50300934D01*
X145361573Y-50320290D01*
X144740504Y-50577545D01*
X144605146Y-50875541D01*
X133079260Y-50875541D01*
X135094696Y-48860105D01*
X148560000Y-48860105D01*
X148560000Y-49629895D01*
X148854586Y-50341090D01*
X149398910Y-50885414D01*
X150110105Y-51180000D01*
X150879895Y-51180000D01*
X151591090Y-50885414D01*
X152135414Y-50341090D01*
X152430000Y-49629895D01*
X152430000Y-48860105D01*
X152135414Y-48148910D01*
X151591090Y-47604586D01*
X150879895Y-47310000D01*
X150110105Y-47310000D01*
X149398910Y-47604586D01*
X148854586Y-48148910D01*
X148560000Y-48860105D01*
X135094696Y-48860105D01*
X137857362Y-46097440D01*
X139382500Y-46097440D01*
X139630265Y-46048157D01*
X139840309Y-45907809D01*
X139980657Y-45697765D01*
X140029940Y-45450000D01*
X140029940Y-43450000D01*
X139980657Y-43202235D01*
X139840309Y-42992191D01*
X139630265Y-42851843D01*
X139382500Y-42802560D01*
X137477500Y-42802560D01*
X137229735Y-42851843D01*
X137019691Y-42992191D01*
X136882745Y-43197143D01*
X136756924Y-43074027D01*
X136262980Y-42859437D01*
X136017000Y-42979406D01*
X136017000Y-44323000D01*
X136037000Y-44323000D01*
X136037000Y-44577000D01*
X136017000Y-44577000D01*
X136017000Y-44597000D01*
X135763000Y-44597000D01*
X135763000Y-44577000D01*
X135743000Y-44577000D01*
X135743000Y-44323000D01*
X135763000Y-44323000D01*
X135763000Y-42979406D01*
X135517020Y-42859437D01*
X135023076Y-43074027D01*
X134629159Y-43459474D01*
X134494523Y-43257977D01*
X133969411Y-42907109D01*
X133350000Y-42783900D01*
X132730590Y-42907109D01*
X132205477Y-43257977D01*
X131904494Y-43708430D01*
X131775463Y-43734096D01*
X131775461Y-43734097D01*
X131775462Y-43734097D01*
X131587526Y-43859671D01*
X131587524Y-43859673D01*
X131524071Y-43902071D01*
X131481672Y-43965525D01*
X131249198Y-44198000D01*
X128193440Y-44198000D01*
X128193440Y-44158000D01*
X128144157Y-43910235D01*
X128003809Y-43700191D01*
X127793765Y-43559843D01*
X127546000Y-43510560D01*
X125946000Y-43510560D01*
X125698235Y-43559843D01*
X125488191Y-43700191D01*
X125347843Y-43910235D01*
X125301307Y-44144187D01*
X125253745Y-44129861D01*
X124425605Y-44958000D01*
X124066395Y-44958000D01*
X123238255Y-44129861D01*
X122992136Y-44203995D01*
X122799035Y-44741223D01*
X117229640Y-44741223D01*
X117338092Y-44196000D01*
X117289211Y-43950255D01*
X123417861Y-43950255D01*
X124246000Y-44778395D01*
X125074139Y-43950255D01*
X125000005Y-43704136D01*
X124462777Y-43511035D01*
X123892546Y-43538222D01*
X123491995Y-43704136D01*
X123417861Y-43950255D01*
X117289211Y-43950255D01*
X117222839Y-43616582D01*
X116894625Y-43125375D01*
X116403418Y-42797161D01*
X115970256Y-42711000D01*
X115677744Y-42711000D01*
X115244582Y-42797161D01*
X114753375Y-43125375D01*
X114554000Y-43423761D01*
X114354625Y-43125375D01*
X113863418Y-42797161D01*
X113430256Y-42711000D01*
X113137744Y-42711000D01*
X112704582Y-42797161D01*
X112213375Y-43125375D01*
X112198904Y-43147033D01*
X112132327Y-42986302D01*
X111953699Y-42807673D01*
X111720310Y-42711000D01*
X111029750Y-42711000D01*
X110871000Y-42869750D01*
X110871000Y-44069000D01*
X110891000Y-44069000D01*
X110891000Y-44323000D01*
X110871000Y-44323000D01*
X110871000Y-45522250D01*
X111029750Y-45681000D01*
X111720310Y-45681000D01*
X111953699Y-45584327D01*
X112132327Y-45405698D01*
X112198904Y-45244967D01*
X112213375Y-45266625D01*
X112607386Y-45529895D01*
X110876231Y-47260800D01*
X99742454Y-47260800D01*
X99745800Y-47252723D01*
X99745800Y-46727277D01*
X99544720Y-46241827D01*
X99173173Y-45870280D01*
X98687723Y-45669200D01*
X98162277Y-45669200D01*
X97676827Y-45870280D01*
X97345500Y-46201607D01*
X97014173Y-45870280D01*
X96528723Y-45669200D01*
X96003277Y-45669200D01*
X95517827Y-45870280D01*
X95146280Y-46241827D01*
X95134255Y-46270857D01*
X95031979Y-46244626D01*
X94286605Y-46990000D01*
X93927395Y-46990000D01*
X93205679Y-46268284D01*
X93194720Y-46241827D01*
X93017914Y-46065021D01*
X93361626Y-46065021D01*
X94107000Y-46810395D01*
X94852374Y-46065021D01*
X94792283Y-45830723D01*
X94296483Y-45656721D01*
X93771836Y-45685699D01*
X93421717Y-45830723D01*
X93361626Y-46065021D01*
X93017914Y-46065021D01*
X92823173Y-45870280D01*
X92337723Y-45669200D01*
X91812277Y-45669200D01*
X91326827Y-45870280D01*
X90955280Y-46241827D01*
X90754200Y-46727277D01*
X81693917Y-46727277D01*
X81899126Y-46642277D01*
X82837277Y-45704126D01*
X83345000Y-44478373D01*
X83345000Y-43151627D01*
X83219980Y-42849800D01*
X86532980Y-42849800D01*
X86532980Y-46050200D01*
X86582263Y-46297965D01*
X86722611Y-46508009D01*
X86932655Y-46648357D01*
X87180420Y-46697640D01*
X89349580Y-46697640D01*
X89597345Y-46648357D01*
X89807389Y-46508009D01*
X89947737Y-46297965D01*
X89997020Y-46050200D01*
X89997020Y-42942510D01*
X93002360Y-42942510D01*
X93002360Y-44941490D01*
X93051643Y-45189255D01*
X93191991Y-45399299D01*
X93402035Y-45539647D01*
X93649800Y-45588930D01*
X96850200Y-45588930D01*
X97097965Y-45539647D01*
X97308009Y-45399299D01*
X97448357Y-45189255D01*
X97497640Y-44941490D01*
X97497640Y-42942510D01*
X97479200Y-42849800D01*
X100502980Y-42849800D01*
X100502980Y-46050200D01*
X100552263Y-46297965D01*
X100692611Y-46508009D01*
X100902655Y-46648357D01*
X101150420Y-46697640D01*
X103319580Y-46697640D01*
X103567345Y-46648357D01*
X103777389Y-46508009D01*
X103917737Y-46297965D01*
X103967020Y-46050200D01*
X103967020Y-44481750D01*
X109259000Y-44481750D01*
X109259000Y-45172309D01*
X109355673Y-45405698D01*
X109534301Y-45584327D01*
X109767690Y-45681000D01*
X110458250Y-45681000D01*
X110617000Y-45522250D01*
X110617000Y-44323000D01*
X109417750Y-44323000D01*
X109259000Y-44481750D01*
X103967020Y-44481750D01*
X103967020Y-43219691D01*
X109259000Y-43219691D01*
X109259000Y-43910250D01*
X109417750Y-44069000D01*
X110617000Y-44069000D01*
X110617000Y-42869750D01*
X110458250Y-42711000D01*
X109767690Y-42711000D01*
X109534301Y-42807673D01*
X109355673Y-42986302D01*
X109259000Y-43219691D01*
X103967020Y-43219691D01*
X103967020Y-42849800D01*
X103917737Y-42602035D01*
X103777389Y-42391991D01*
X103567345Y-42251643D01*
X103319580Y-42202360D01*
X101150420Y-42202360D01*
X100902655Y-42251643D01*
X100692611Y-42391991D01*
X100552263Y-42602035D01*
X100502980Y-42849800D01*
X97479200Y-42849800D01*
X97448357Y-42694745D01*
X97308009Y-42484701D01*
X97097965Y-42344353D01*
X96850200Y-42295070D01*
X93649800Y-42295070D01*
X93402035Y-42344353D01*
X93191991Y-42484701D01*
X93051643Y-42694745D01*
X93002360Y-42942510D01*
X89997020Y-42942510D01*
X89997020Y-42849800D01*
X89947737Y-42602035D01*
X89807389Y-42391991D01*
X89597345Y-42251643D01*
X89349580Y-42202360D01*
X87180420Y-42202360D01*
X86932655Y-42251643D01*
X86722611Y-42391991D01*
X86582263Y-42602035D01*
X86532980Y-42849800D01*
X83219980Y-42849800D01*
X82837277Y-41925874D01*
X82261403Y-41350000D01*
X157133597Y-41350000D01*
X156557723Y-41925874D01*
X156557723Y-41925874D01*
G37*
X156557723Y-41925874D02*
X156050000Y-43151627D01*
X156050000Y-44478373D01*
X156557723Y-45704126D01*
X157495874Y-46642277D01*
X158721627Y-47150000D01*
X160048373Y-47150000D01*
X161274126Y-46642277D01*
X161850001Y-46066402D01*
X161850001Y-61027585D01*
X161598625Y-60651375D01*
X161107418Y-60323161D01*
X160674256Y-60237000D01*
X160381744Y-60237000D01*
X159948582Y-60323161D01*
X159457375Y-60651375D01*
X159129161Y-61142582D01*
X159013908Y-61722000D01*
X159129161Y-62301418D01*
X159457375Y-62792625D01*
X159755761Y-62992000D01*
X159457375Y-63191375D01*
X159249822Y-63502000D01*
X126543703Y-63502000D01*
X124152231Y-61110530D01*
X124151877Y-61110000D01*
X133458276Y-61110000D01*
X133643380Y-62040580D01*
X134170511Y-62829489D01*
X134959420Y-63356620D01*
X135655103Y-63495000D01*
X136124897Y-63495000D01*
X136820580Y-63356620D01*
X137609489Y-62829489D01*
X138136620Y-62040580D01*
X138321724Y-61110000D01*
X138136620Y-60179420D01*
X137609489Y-59390511D01*
X136820580Y-58863380D01*
X136124897Y-58725000D01*
X135655103Y-58725000D01*
X134959420Y-58863380D01*
X134170511Y-59390511D01*
X133643380Y-60179420D01*
X133458276Y-61110000D01*
X124151877Y-61110000D01*
X124109829Y-61047071D01*
X123858437Y-60879096D01*
X123636752Y-60835000D01*
X123636747Y-60835000D01*
X123561900Y-60820112D01*
X123487053Y-60835000D01*
X80018178Y-60835000D01*
X79810625Y-60524375D01*
X79512239Y-60325000D01*
X79810625Y-60125625D01*
X80138839Y-59634418D01*
X80254092Y-59055000D01*
X80138839Y-58475582D01*
X79810625Y-57984375D01*
X79512239Y-57785000D01*
X79810625Y-57585625D01*
X80138839Y-57094418D01*
X80254092Y-56515000D01*
X80138839Y-55935582D01*
X79810625Y-55444375D01*
X79512239Y-55245000D01*
X79810625Y-55045625D01*
X80138839Y-54554418D01*
X80254092Y-53975000D01*
X80138839Y-53395582D01*
X80096185Y-53331745D01*
X123671861Y-53331745D01*
X123745995Y-53577864D01*
X124283223Y-53770965D01*
X124853454Y-53743778D01*
X125254005Y-53577864D01*
X125328139Y-53331745D01*
X124500000Y-52503605D01*
X123671861Y-53331745D01*
X80096185Y-53331745D01*
X79810625Y-52904375D01*
X79512239Y-52705000D01*
X79810625Y-52505625D01*
X80076828Y-52107223D01*
X123053035Y-52107223D01*
X123080222Y-52677454D01*
X123246136Y-53078005D01*
X123492255Y-53152139D01*
X124320395Y-52324000D01*
X123492255Y-51495861D01*
X123246136Y-51569995D01*
X123053035Y-52107223D01*
X80076828Y-52107223D01*
X80138839Y-52014418D01*
X80254092Y-51435000D01*
X80230473Y-51316255D01*
X123671861Y-51316255D01*
X124500000Y-52144395D01*
X125328139Y-51316255D01*
X125254005Y-51070136D01*
X124716777Y-50877035D01*
X124146546Y-50904222D01*
X123745995Y-51070136D01*
X123671861Y-51316255D01*
X80230473Y-51316255D01*
X80138839Y-50855582D01*
X79810625Y-50364375D01*
X79512239Y-50165000D01*
X79810625Y-49965625D01*
X80138839Y-49474418D01*
X80254092Y-48895000D01*
X80138839Y-48315582D01*
X79810625Y-47824375D01*
X79319418Y-47496161D01*
X78886256Y-47410000D01*
X78593744Y-47410000D01*
X78160582Y-47496161D01*
X77669375Y-47824375D01*
X77418000Y-48200584D01*
X77418000Y-45939403D01*
X78120874Y-46642277D01*
X79346627Y-47150000D01*
X80673373Y-47150000D01*
X81693917Y-46727277D01*
X90754200Y-46727277D01*
X90754200Y-47252723D01*
X90955280Y-47738173D01*
X91326827Y-48109720D01*
X91689635Y-48260000D01*
X91326827Y-48410280D01*
X90955280Y-48781827D01*
X90754200Y-49267277D01*
X90754200Y-49792723D01*
X90955280Y-50278173D01*
X91326827Y-50649720D01*
X91812277Y-50850800D01*
X92337723Y-50850800D01*
X92823173Y-50649720D01*
X93194720Y-50278173D01*
X93395800Y-49792723D01*
X93395800Y-49267277D01*
X93194720Y-48781827D01*
X92823173Y-48410280D01*
X92460365Y-48260000D01*
X92823173Y-48109720D01*
X93017914Y-47914979D01*
X93361626Y-47914979D01*
X93421717Y-48149277D01*
X93917517Y-48323279D01*
X94442164Y-48294301D01*
X94792283Y-48149277D01*
X94852374Y-47914979D01*
X94107000Y-47169605D01*
X93361626Y-47914979D01*
X93017914Y-47914979D01*
X93194720Y-47738173D01*
X93205679Y-47711716D01*
X93927395Y-46990000D01*
X94286605Y-46990000D01*
X95031979Y-47735374D01*
X95134255Y-47709143D01*
X95146280Y-47738173D01*
X95517827Y-48109720D01*
X96003277Y-48310800D01*
X96511998Y-48310800D01*
X96706473Y-48505275D01*
X96748871Y-48568729D01*
X96812324Y-48611127D01*
X96812326Y-48611129D01*
X96937702Y-48694902D01*
X97000263Y-48736704D01*
X97221948Y-48780800D01*
X97221952Y-48780800D01*
X97296799Y-48795688D01*
X97299785Y-48795094D01*
X97104200Y-49267277D01*
X97104200Y-49792723D01*
X97305280Y-50278173D01*
X97676827Y-50649720D01*
X98162277Y-50850800D01*
X98687723Y-50850800D01*
X99173173Y-50649720D01*
X99544720Y-50278173D01*
X99745800Y-49792723D01*
X99745800Y-49267277D01*
X99544720Y-48781827D01*
X99543693Y-48780800D01*
X111116125Y-48780800D01*
X111190944Y-48795688D01*
X111265820Y-48780800D01*
X111265852Y-48780800D01*
X111349017Y-48764257D01*
X111487485Y-48736725D01*
X111487508Y-48736710D01*
X111487537Y-48736704D01*
X111616586Y-48650476D01*
X111675430Y-48611164D01*
X111675449Y-48611145D01*
X111738929Y-48568729D01*
X111781314Y-48505295D01*
X114321231Y-45965745D01*
X123417861Y-45965745D01*
X123491995Y-46211864D01*
X124029223Y-46404965D01*
X124599454Y-46377778D01*
X125000005Y-46211864D01*
X125074139Y-45965745D01*
X124246000Y-45137605D01*
X123417861Y-45965745D01*
X114321231Y-45965745D01*
X114913467Y-45373595D01*
X115244582Y-45594839D01*
X115677744Y-45681000D01*
X115970256Y-45681000D01*
X116403418Y-45594839D01*
X116894625Y-45266625D01*
X117222839Y-44775418D01*
X117229640Y-44741223D01*
X122799035Y-44741223D01*
X122826222Y-45311454D01*
X122992136Y-45712005D01*
X123238255Y-45786139D01*
X124066395Y-44958000D01*
X124425605Y-44958000D01*
X125253745Y-45786139D01*
X125301307Y-45771813D01*
X125347843Y-46005765D01*
X125488191Y-46215809D01*
X125698235Y-46356157D01*
X125946000Y-46405440D01*
X127546000Y-46405440D01*
X127793765Y-46356157D01*
X128003809Y-46215809D01*
X128144157Y-46005765D01*
X128193440Y-45758000D01*
X128193440Y-45718000D01*
X131489153Y-45718000D01*
X131564000Y-45732888D01*
X131638847Y-45718000D01*
X131638852Y-45718000D01*
X131860537Y-45673904D01*
X132111929Y-45505929D01*
X132113236Y-45503974D01*
X132205477Y-45642023D01*
X132730589Y-45992891D01*
X133350000Y-46116100D01*
X133969410Y-45992891D01*
X134494523Y-45642023D01*
X134629159Y-45440526D01*
X135023076Y-45825973D01*
X135517020Y-46040563D01*
X135762998Y-45920595D01*
X135762998Y-46042200D01*
X130241199Y-51564000D01*
X128447440Y-51564000D01*
X128447440Y-51524000D01*
X128398157Y-51276235D01*
X128257809Y-51066191D01*
X128047765Y-50925843D01*
X127800000Y-50876560D01*
X126200000Y-50876560D01*
X125952235Y-50925843D01*
X125742191Y-51066191D01*
X125601843Y-51276235D01*
X125555307Y-51510187D01*
X125507745Y-51495861D01*
X124679605Y-52324000D01*
X125507745Y-53152139D01*
X125555307Y-53137813D01*
X125601843Y-53371765D01*
X125742191Y-53581809D01*
X125952235Y-53722157D01*
X126200000Y-53771440D01*
X127800000Y-53771440D01*
X128047765Y-53722157D01*
X128208945Y-53614459D01*
X144605146Y-53614459D01*
X144740504Y-53912455D01*
X145458880Y-54189066D01*
X146228427Y-54169710D01*
X146770925Y-53945000D01*
X148547560Y-53945000D01*
X148547560Y-56545000D01*
X148596843Y-56792765D01*
X148737191Y-57002809D01*
X148947235Y-57143157D01*
X149195000Y-57192440D01*
X151795000Y-57192440D01*
X152042765Y-57143157D01*
X152252809Y-57002809D01*
X152393157Y-56792765D01*
X152442440Y-56545000D01*
X152442440Y-53945000D01*
X152393157Y-53697235D01*
X152252809Y-53487191D01*
X152042765Y-53346843D01*
X151795000Y-53297560D01*
X149195000Y-53297560D01*
X148947235Y-53346843D01*
X148737191Y-53487191D01*
X148596843Y-53697235D01*
X148547560Y-53945000D01*
X146770925Y-53945000D01*
X146849496Y-53912455D01*
X146984854Y-53614459D01*
X145795000Y-52424605D01*
X144605146Y-53614459D01*
X128208945Y-53614459D01*
X128257809Y-53581809D01*
X128398157Y-53371765D01*
X128447440Y-53124000D01*
X128447440Y-53084000D01*
X130481153Y-53084000D01*
X130556000Y-53098888D01*
X130630847Y-53084000D01*
X130630852Y-53084000D01*
X130852537Y-53039904D01*
X131103929Y-52871929D01*
X131146331Y-52808470D01*
X132045921Y-51908880D01*
X143850934Y-51908880D01*
X143870290Y-52678427D01*
X144127545Y-53299496D01*
X144425541Y-53434854D01*
X145615395Y-52245000D01*
X145974605Y-52245000D01*
X147164459Y-53434854D01*
X147462455Y-53299496D01*
X147739066Y-52581120D01*
X147719710Y-51811573D01*
X147462455Y-51190504D01*
X147164459Y-51055146D01*
X145974605Y-52245000D01*
X145615395Y-52245000D01*
X144425541Y-51055146D01*
X144127545Y-51190504D01*
X143850934Y-51908880D01*
X132045921Y-51908880D01*
X133079260Y-50875541D01*
X144605146Y-50875541D01*
X145795000Y-52065395D01*
X146984854Y-50875541D01*
X146849496Y-50577545D01*
X146131120Y-50300934D01*
X145361573Y-50320290D01*
X144740504Y-50577545D01*
X144605146Y-50875541D01*
X133079260Y-50875541D01*
X135094696Y-48860105D01*
X148560000Y-48860105D01*
X148560000Y-49629895D01*
X148854586Y-50341090D01*
X149398910Y-50885414D01*
X150110105Y-51180000D01*
X150879895Y-51180000D01*
X151591090Y-50885414D01*
X152135414Y-50341090D01*
X152430000Y-49629895D01*
X152430000Y-48860105D01*
X152135414Y-48148910D01*
X151591090Y-47604586D01*
X150879895Y-47310000D01*
X150110105Y-47310000D01*
X149398910Y-47604586D01*
X148854586Y-48148910D01*
X148560000Y-48860105D01*
X135094696Y-48860105D01*
X137857362Y-46097440D01*
X139382500Y-46097440D01*
X139630265Y-46048157D01*
X139840309Y-45907809D01*
X139980657Y-45697765D01*
X140029940Y-45450000D01*
X140029940Y-43450000D01*
X139980657Y-43202235D01*
X139840309Y-42992191D01*
X139630265Y-42851843D01*
X139382500Y-42802560D01*
X137477500Y-42802560D01*
X137229735Y-42851843D01*
X137019691Y-42992191D01*
X136882745Y-43197143D01*
X136756924Y-43074027D01*
X136262980Y-42859437D01*
X136017000Y-42979406D01*
X136017000Y-44323000D01*
X136037000Y-44323000D01*
X136037000Y-44577000D01*
X136017000Y-44577000D01*
X136017000Y-44597000D01*
X135763000Y-44597000D01*
X135763000Y-44577000D01*
X135743000Y-44577000D01*
X135743000Y-44323000D01*
X135763000Y-44323000D01*
X135763000Y-42979406D01*
X135517020Y-42859437D01*
X135023076Y-43074027D01*
X134629159Y-43459474D01*
X134494523Y-43257977D01*
X133969411Y-42907109D01*
X133350000Y-42783900D01*
X132730590Y-42907109D01*
X132205477Y-43257977D01*
X131904494Y-43708430D01*
X131775463Y-43734096D01*
X131775461Y-43734097D01*
X131775462Y-43734097D01*
X131587526Y-43859671D01*
X131587524Y-43859673D01*
X131524071Y-43902071D01*
X131481672Y-43965525D01*
X131249198Y-44198000D01*
X128193440Y-44198000D01*
X128193440Y-44158000D01*
X128144157Y-43910235D01*
X128003809Y-43700191D01*
X127793765Y-43559843D01*
X127546000Y-43510560D01*
X125946000Y-43510560D01*
X125698235Y-43559843D01*
X125488191Y-43700191D01*
X125347843Y-43910235D01*
X125301307Y-44144187D01*
X125253745Y-44129861D01*
X124425605Y-44958000D01*
X124066395Y-44958000D01*
X123238255Y-44129861D01*
X122992136Y-44203995D01*
X122799035Y-44741223D01*
X117229640Y-44741223D01*
X117338092Y-44196000D01*
X117289211Y-43950255D01*
X123417861Y-43950255D01*
X124246000Y-44778395D01*
X125074139Y-43950255D01*
X125000005Y-43704136D01*
X124462777Y-43511035D01*
X123892546Y-43538222D01*
X123491995Y-43704136D01*
X123417861Y-43950255D01*
X117289211Y-43950255D01*
X117222839Y-43616582D01*
X116894625Y-43125375D01*
X116403418Y-42797161D01*
X115970256Y-42711000D01*
X115677744Y-42711000D01*
X115244582Y-42797161D01*
X114753375Y-43125375D01*
X114554000Y-43423761D01*
X114354625Y-43125375D01*
X113863418Y-42797161D01*
X113430256Y-42711000D01*
X113137744Y-42711000D01*
X112704582Y-42797161D01*
X112213375Y-43125375D01*
X112198904Y-43147033D01*
X112132327Y-42986302D01*
X111953699Y-42807673D01*
X111720310Y-42711000D01*
X111029750Y-42711000D01*
X110871000Y-42869750D01*
X110871000Y-44069000D01*
X110891000Y-44069000D01*
X110891000Y-44323000D01*
X110871000Y-44323000D01*
X110871000Y-45522250D01*
X111029750Y-45681000D01*
X111720310Y-45681000D01*
X111953699Y-45584327D01*
X112132327Y-45405698D01*
X112198904Y-45244967D01*
X112213375Y-45266625D01*
X112607386Y-45529895D01*
X110876231Y-47260800D01*
X99742454Y-47260800D01*
X99745800Y-47252723D01*
X99745800Y-46727277D01*
X99544720Y-46241827D01*
X99173173Y-45870280D01*
X98687723Y-45669200D01*
X98162277Y-45669200D01*
X97676827Y-45870280D01*
X97345500Y-46201607D01*
X97014173Y-45870280D01*
X96528723Y-45669200D01*
X96003277Y-45669200D01*
X95517827Y-45870280D01*
X95146280Y-46241827D01*
X95134255Y-46270857D01*
X95031979Y-46244626D01*
X94286605Y-46990000D01*
X93927395Y-46990000D01*
X93205679Y-46268284D01*
X93194720Y-46241827D01*
X93017914Y-46065021D01*
X93361626Y-46065021D01*
X94107000Y-46810395D01*
X94852374Y-46065021D01*
X94792283Y-45830723D01*
X94296483Y-45656721D01*
X93771836Y-45685699D01*
X93421717Y-45830723D01*
X93361626Y-46065021D01*
X93017914Y-46065021D01*
X92823173Y-45870280D01*
X92337723Y-45669200D01*
X91812277Y-45669200D01*
X91326827Y-45870280D01*
X90955280Y-46241827D01*
X90754200Y-46727277D01*
X81693917Y-46727277D01*
X81899126Y-46642277D01*
X82837277Y-45704126D01*
X83345000Y-44478373D01*
X83345000Y-43151627D01*
X83219980Y-42849800D01*
X86532980Y-42849800D01*
X86532980Y-46050200D01*
X86582263Y-46297965D01*
X86722611Y-46508009D01*
X86932655Y-46648357D01*
X87180420Y-46697640D01*
X89349580Y-46697640D01*
X89597345Y-46648357D01*
X89807389Y-46508009D01*
X89947737Y-46297965D01*
X89997020Y-46050200D01*
X89997020Y-42942510D01*
X93002360Y-42942510D01*
X93002360Y-44941490D01*
X93051643Y-45189255D01*
X93191991Y-45399299D01*
X93402035Y-45539647D01*
X93649800Y-45588930D01*
X96850200Y-45588930D01*
X97097965Y-45539647D01*
X97308009Y-45399299D01*
X97448357Y-45189255D01*
X97497640Y-44941490D01*
X97497640Y-42942510D01*
X97479200Y-42849800D01*
X100502980Y-42849800D01*
X100502980Y-46050200D01*
X100552263Y-46297965D01*
X100692611Y-46508009D01*
X100902655Y-46648357D01*
X101150420Y-46697640D01*
X103319580Y-46697640D01*
X103567345Y-46648357D01*
X103777389Y-46508009D01*
X103917737Y-46297965D01*
X103967020Y-46050200D01*
X103967020Y-44481750D01*
X109259000Y-44481750D01*
X109259000Y-45172309D01*
X109355673Y-45405698D01*
X109534301Y-45584327D01*
X109767690Y-45681000D01*
X110458250Y-45681000D01*
X110617000Y-45522250D01*
X110617000Y-44323000D01*
X109417750Y-44323000D01*
X109259000Y-44481750D01*
X103967020Y-44481750D01*
X103967020Y-43219691D01*
X109259000Y-43219691D01*
X109259000Y-43910250D01*
X109417750Y-44069000D01*
X110617000Y-44069000D01*
X110617000Y-42869750D01*
X110458250Y-42711000D01*
X109767690Y-42711000D01*
X109534301Y-42807673D01*
X109355673Y-42986302D01*
X109259000Y-43219691D01*
X103967020Y-43219691D01*
X103967020Y-42849800D01*
X103917737Y-42602035D01*
X103777389Y-42391991D01*
X103567345Y-42251643D01*
X103319580Y-42202360D01*
X101150420Y-42202360D01*
X100902655Y-42251643D01*
X100692611Y-42391991D01*
X100552263Y-42602035D01*
X100502980Y-42849800D01*
X97479200Y-42849800D01*
X97448357Y-42694745D01*
X97308009Y-42484701D01*
X97097965Y-42344353D01*
X96850200Y-42295070D01*
X93649800Y-42295070D01*
X93402035Y-42344353D01*
X93191991Y-42484701D01*
X93051643Y-42694745D01*
X93002360Y-42942510D01*
X89997020Y-42942510D01*
X89997020Y-42849800D01*
X89947737Y-42602035D01*
X89807389Y-42391991D01*
X89597345Y-42251643D01*
X89349580Y-42202360D01*
X87180420Y-42202360D01*
X86932655Y-42251643D01*
X86722611Y-42391991D01*
X86582263Y-42602035D01*
X86532980Y-42849800D01*
X83219980Y-42849800D01*
X82837277Y-41925874D01*
X82261403Y-41350000D01*
X157133597Y-41350000D01*
X156557723Y-41925874D01*
G04 #@! TD*
M02*
