M48
;DRILL file {KiCad 5.0.2+dfsg1-1~bpo9+1} date Tue 18 Jun 2019 09:35:34 IST
;FORMAT={3:3/ absolute / metric / suppress leading zeros}
FMAT,2
METRIC,TZ
T1C0.508
T2C0.701
T3C0.800
T4C1.000
T5C1.016
T6C1.100
T7C1.600
T8C2.700
T9C2.700
T10C3.500
%
G90
G05
T1
X88265Y-44450
X92075Y-46990
X92075Y-49530
X94107Y-46990
X95250Y-43942
X96266Y-46990
X98425Y-46990
X98425Y-49530
T2
X102235Y-44450
T3
X88900Y-71755
X88900Y-81915
X124500Y-52324
X127000Y-52324
X124246Y-44958
X126746Y-44958
T4
X160528Y-61722
X160528Y-64262
X160528Y-66802
X160528Y-69342
X110744Y-44196
X113284Y-44196
X115824Y-44196
X78740Y-48895
X78740Y-51435
X78740Y-53975
X78740Y-56515
X78740Y-59055
X78740Y-61595
X78740Y-64135
X78740Y-66675
X78740Y-69215
X78740Y-71755
X78740Y-74295
X78740Y-76835
X78740Y-79375
X78740Y-81915
T5
X101600Y-64262
X101600Y-66802
X101600Y-69342
X101600Y-71882
X101600Y-74422
X101600Y-76962
X101600Y-79502
X101600Y-82042
X124460Y-64262
X124460Y-66802
X124460Y-69342
X124460Y-71882
X124460Y-74422
X124460Y-76962
X124460Y-79502
X124460Y-82042
T6
X133350Y-44450
X135890Y-44450
X138430Y-44450
T7
X145795Y-52245
X150495Y-49245
X150495Y-55245
T8
X80010Y-87376
X159385Y-87376
X159385Y-43815
X80010Y-43815
T9
X135890Y-61214
T10
X135890Y-61110
T0
M30
